<svg id="shield_3_" data-name="shield (3)" xmlns="http://www.w3.org/2000/svg" width="11.136" height="13.208" viewBox="0 0 11.136 13.208">
  <g id="Group_37216" data-name="Group 37216">
    <path id="Path_29679" data-name="Path 29679" d="M51.028,1.571,45.847.016a.387.387,0,0,0-.222,0L40.444,1.571a.387.387,0,0,0-.276.371v5.7A3.681,3.681,0,0,0,41.06,9.9a9.22,9.22,0,0,0,1.859,1.722,16.673,16.673,0,0,0,2.659,1.557.387.387,0,0,0,.316,0,16.675,16.675,0,0,0,2.659-1.557A9.221,9.221,0,0,0,50.412,9.9,3.681,3.681,0,0,0,51.3,7.64v-5.7A.387.387,0,0,0,51.028,1.571Zm-.5,6.07c0,1.312-1.316,2.542-2.42,3.343a16.385,16.385,0,0,1-2.373,1.411,16.384,16.384,0,0,1-2.374-1.411c-1.1-.8-2.42-2.031-2.42-3.343V2.229L45.736.791,50.53,2.229Z" transform="translate(-40.168 0)"/>
  </g>
</svg>
