<svg xmlns="http://www.w3.org/2000/svg" width="449.486" height="436" viewBox="0 0 449.486 436">
  <g id="Group_40485" data-name="Group 40485" transform="translate(9.743 -60)">
    <path id="Path_4423" data-name="Path 4423" d="M123.5,0A123.5,123.5,0,0,1,247,123.5v189a123.5,123.5,0,0,1-247,0v-189A123.5,123.5,0,0,1,123.5,0Z" transform="translate(92 60)" fill="#263238"/>
    <g id="Ecommerce_campaign-rafiki" data-name="Ecommerce campaign-rafiki" transform="translate(-9.743 70.302)">
      <g id="freepik--background-complete--inject-18" transform="translate(0 55)">
        <rect id="Rectangle_18293" data-name="Rectangle 18293" width="32.573" height="0.246" transform="translate(367.642 342.649)" fill="#ebebeb"/>
        <rect id="Rectangle_18294" data-name="Rectangle 18294" width="8.546" height="0.246" transform="translate(289.463 345.324)" fill="#ebebeb"/>
        <rect id="Rectangle_18295" data-name="Rectangle 18295" width="18.873" height="0.246" transform="translate(355.186 333.522)" fill="#ebebeb"/>
        <rect id="Rectangle_18296" data-name="Rectangle 18296" width="42.476" height="0.246" transform="translate(51.593 335.175)" fill="#ebebeb"/>
        <rect id="Rectangle_18297" data-name="Rectangle 18297" width="6.225" height="0.246" transform="translate(93.883 335.175)" fill="#ebebeb"/>
        <rect id="Rectangle_18298" data-name="Rectangle 18298" width="92.132" height="0.246" transform="translate(115.627 339.325)" fill="#ebebeb"/>
        <path id="Path_32789" data-name="Path 32789" d="M235.114,333.126H45.206a5.616,5.616,0,0,1-5.616-5.616V60.566A5.616,5.616,0,0,1,45.206,55H235.114a5.616,5.616,0,0,1,5.616,5.616V327.51A5.616,5.616,0,0,1,235.114,333.126ZM45.206,55.2a5.38,5.38,0,0,0-5.37,5.37V327.51a5.38,5.38,0,0,0,5.37,5.37H235.114a5.38,5.38,0,0,0,5.37-5.37V60.566a5.38,5.38,0,0,0-5.37-5.37Z" transform="translate(-0.654 -55)" fill="#ebebeb"/>
        <path id="Path_32790" data-name="Path 32790" d="M451.414,333.126H261.506a5.616,5.616,0,0,1-5.616-5.616V60.566A5.616,5.616,0,0,1,261.506,55H451.414a5.616,5.616,0,0,1,5.616,5.616V327.51A5.616,5.616,0,0,1,451.414,333.126ZM261.506,55.2a5.38,5.38,0,0,0-5.37,5.37V327.51a5.38,5.38,0,0,0,5.37,5.37H451.414a5.38,5.38,0,0,0,5.37-5.37V60.566a5.38,5.38,0,0,0-5.37-5.37Z" transform="translate(-46.479 -55)" fill="#ebebeb"/>
        <rect id="Rectangle_18299" data-name="Rectangle 18299" width="449.486" height="0.246" transform="translate(0 326.825)" fill="#ebebeb"/>
        <path id="Path_32791" data-name="Path 32791" d="M130.23,118.363l7.17-4.6,3.914,7.573,8.517-.393-.393,8.517,7.573,3.914-4.6,7.17,4.6,7.179-7.573,3.914.393,8.517-8.517-.393L137.4,167.33l-7.17-4.6-7.179,4.6-3.914-7.573-8.517.393.393-8.517-7.573-3.914,4.6-7.179-4.6-7.17,7.573-3.914-.393-8.517,8.517.393,3.914-7.573Z" transform="translate(-11.519 -54.998)" fill="#e6e6e6"/>
        <path id="Path_32792" data-name="Path 32792" d="M127.754,151.824l-8.527-8.527a2.5,2.5,0,0,1,0-3.531h0a2.5,2.5,0,0,1,3.531,0l5,5,10.435-10.435a2.5,2.5,0,0,1,3.531,0h0a2.5,2.5,0,0,1,0,3.531Z" transform="translate(-12.484 -55.14)" fill="#fafafa"/>
        <path id="Path_32793" data-name="Path 32793" d="M401.507,194.919l5.625-3.609,3.069,5.94,6.688-.315-.315,6.678,5.94,3.068-3.609,5.635,3.609,5.625-5.94,3.068.315,6.678-6.688-.3-3.069,5.94-5.625-3.609-5.625,3.609-3.068-5.94-6.678.3.3-6.678-5.94-3.068,3.609-5.625-3.609-5.635,5.94-3.068-.3-6.678,6.678.315,3.068-5.94Z" transform="translate(-41.445 -55.083)" fill="#e6e6e6"/>
        <path id="Path_32794" data-name="Path 32794" d="M399.568,221.16l-6.688-6.688a1.967,1.967,0,0,1,0-2.764h0a1.967,1.967,0,0,1,2.773,0l3.934,3.934,8.182-8.182a1.967,1.967,0,0,1,2.773,0h0a1.967,1.967,0,0,1,0,2.773Z" transform="translate(-40.953 -55.298)" fill="#fafafa"/>
        <path id="Path_32795" data-name="Path 32795" d="M131.293,290.341l10.966,5.6a4.672,4.672,0,0,0,5.527-.983l8.389-9.009a4.632,4.632,0,0,0,1.18-3.934L153,257.267a7.445,7.445,0,0,0-8.615-6.029L130.5,253.687a7.435,7.435,0,0,0-6.029,8.615l4.357,24.734A4.671,4.671,0,0,0,131.293,290.341Zm12.49-1.967a2.341,2.341,0,1,1-1.888,2.7A2.341,2.341,0,0,1,143.783,288.374Z" transform="translate(-13.321 -55.084)" fill="#e6e6e6"/>
        <rect id="Rectangle_18300" data-name="Rectangle 18300" width="21.548" height="2.331" transform="translate(139.367 223.845) rotate(170)" fill="#fafafa"/>
        <rect id="Rectangle_18301" data-name="Rectangle 18301" width="21.548" height="2.331" transform="translate(136.096 203.152) rotate(170)" fill="#fafafa"/>
        <path id="Path_32796" data-name="Path 32796" d="M169.5,127.613l7.553,8.1a4.19,4.19,0,0,0,4.967.875l9.835-5.035a4.16,4.16,0,0,0,2.223-3l3.934-22.246a6.688,6.688,0,0,0-5.419-7.74l-12.48-2.2a6.7,6.7,0,0,0-7.75,5.429l-3.934,22.236a4.16,4.16,0,0,0,1.072,3.58Zm11.143,2.223a2.1,2.1,0,1,1-2.429,1.711A2.1,2.1,0,0,1,180.644,129.836Z" transform="translate(-17.926 -55.682)" fill="#f0f0f0"/>
        <rect id="Rectangle_18302" data-name="Rectangle 18302" width="19.374" height="2.095" transform="translate(173.452 69.911) rotate(-170)" fill="#fafafa"/>
        <rect id="Rectangle_18303" data-name="Rectangle 18303" width="19.27" height="2.084" transform="translate(176.808 51.765) rotate(-170.159)" fill="#fafafa"/>
        <path id="Path_32797" data-name="Path 32797" d="M354.772,103.626h0a9.186,9.186,0,0,0-12.785-2.262l-3.934,2.724-2.734-3.934a9.205,9.205,0,0,0-12.785-2.262h0a9.205,9.205,0,0,0-2.262,12.785l13.287,18.971,18.981-13.287a9.2,9.2,0,0,0,2.232-12.736Z" transform="translate(-34.431 -55.682)" fill="#ebebeb"/>
        <path id="Path_32798" data-name="Path 32798" d="M382.822,105.489h0a4.494,4.494,0,0,0-6.275-1.111l-1.908,1.338-1.337-1.908a4.514,4.514,0,0,0-6.275-1.111h0a4.524,4.524,0,0,0-1.1,6.284l6.5,9.284,9.294-6.5a4.494,4.494,0,0,0,1.1-6.275Z" transform="translate(-38.095 -55.775)" fill="#ebebeb"/>
        <path id="Path_32799" data-name="Path 32799" d="M87.057,197.344a24.911,24.911,0,0,0-17.073,30.8c2.469,8.586,17.525,22.974,27.773,32.012a8.35,8.35,0,0,0,13.533-3.875c3.934-13.09,9.038-33.281,6.579-41.866a24.9,24.9,0,0,0-30.812-17.073Zm10.031,34.982a11.487,11.487,0,1,1,7.868-14.211,11.487,11.487,0,0,1-7.868,14.211Z" transform="translate(-1.141 -54.89)" fill="#e0e0e0"/>
        <path id="Path_32800" data-name="Path 32800" d="M91.017,196.213a24.9,24.9,0,0,0-17.034,30.793c2.469,8.586,17.525,22.984,27.773,32.022a8.35,8.35,0,0,0,13.523-3.934c3.934-13.09,9.038-33.271,6.579-41.866a24.892,24.892,0,0,0-30.842-17.014ZM101.049,231.2a11.5,11.5,0,1,1,7.868-14.221,11.5,11.5,0,0,1-7.868,14.221Z" transform="translate(-1.207 -54.891)" fill="#f5f5f5"/>
        <path id="Path_32801" data-name="Path 32801" d="M382.45,132.986a21.636,21.636,0,0,0-26.819,14.86c-2.144,7.484,2.331,25.059,5.734,36.457a7.268,7.268,0,0,0,11.8,3.373c8.93-7.868,22.04-20.4,24.184-27.872a21.636,21.636,0,0,0-14.9-26.819Zm-8.763,30.488a10,10,0,1,1,7.62-.872,10,10,0,0,1-7.62.872Z" transform="translate(-38.757 -54.98)" fill="#e0e0e0"/>
        <path id="Path_32802" data-name="Path 32802" d="M385.9,133.986a21.636,21.636,0,0,0-26.819,14.86c-2.144,7.474,2.331,25.059,5.734,36.457a7.268,7.268,0,0,0,11.8,3.373c8.92-7.868,22.03-20.4,24.174-27.872a21.636,21.636,0,0,0-14.89-26.819Zm-8.733,30.488a10,10,0,1,1,12.372-6.884,10,10,0,0,1-12.372,6.884Z" transform="translate(-39.132 -54.98)" fill="#f5f5f5"/>
      </g>
      <g id="freepik--Shadow--inject-18" transform="translate(55.183 403.432)">
        <ellipse id="freepik--path--inject-18" cx="169.56" cy="11.133" rx="169.56" ry="11.133" fill="#f5f5f5"/>
      </g>
      <g id="freepik--Device--inject-18" transform="translate(145.877 142.307)">
        <path id="Path_32803" data-name="Path 32803" d="M188.392,187.87h10.523a3.688,3.688,0,0,1,3.737,4.062l-1.967,22.2a4.544,4.544,0,0,1-4.435,4.081H185.737a3.688,3.688,0,0,1-3.727-4.081l1.957-22.2A4.544,4.544,0,0,1,188.392,187.87Z" transform="translate(-170.211 -139.667)" fill="#ffb224"/>
        <path id="Path_32804" data-name="Path 32804" d="M308.049,183.05h16.444a5.753,5.753,0,0,1,5.822,6.373l-2.026,23.18a7.1,7.1,0,0,1-6.884,6.373H304.9a5.753,5.753,0,0,1-5.812-6.373l2.026-23.18a7.1,7.1,0,0,1,6.934-6.373Z" transform="translate(-172.146 -139.587)" opacity="0.2"/>
        <path id="Path_32805" data-name="Path 32805" d="M304.619,222.21h16.454a5.753,5.753,0,0,1,5.812,6.373l-2.026,23.18a7.091,7.091,0,0,1-6.933,6.373H301.482a5.753,5.753,0,0,1-5.822-6.373l2.036-23.18A7.091,7.091,0,0,1,304.619,222.21Z" transform="translate(-172.089 -140.234)" opacity="0.2"/>
        <path id="Path_32806" data-name="Path 32806" d="M217.758,138.86h91.62a20.791,20.791,0,0,1,21.036,23.062L310.863,385.338a25.659,25.659,0,0,1-25.069,23.053h-91.62a20.791,20.791,0,0,1-21.036-23.053L192.67,161.922A25.659,25.659,0,0,1,217.758,138.86Z" transform="translate(-170.062 -138.857)" fill="#ffb224"/>
        <path id="Path_32807" data-name="Path 32807" d="M217.758,138.86h91.62a20.791,20.791,0,0,1,21.036,23.062L310.863,385.338a25.659,25.659,0,0,1-25.069,23.053h-91.62a20.791,20.791,0,0,1-21.036-23.053L192.67,161.922A25.659,25.659,0,0,1,217.758,138.86Z" transform="translate(-170.062 -138.857)" opacity="0.2"/>
        <path id="Path_32808" data-name="Path 32808" d="M214.748,138.86h91.63a20.8,20.8,0,0,1,21.036,23.062L307.863,385.338a25.669,25.669,0,0,1-25.069,23.053h-91.62a20.781,20.781,0,0,1-21.036-23.053L189.67,161.922C190.791,149.186,202.022,138.86,214.748,138.86Z" transform="translate(-170.013 -138.857)" fill="#ffb224"/>
        <path id="Path_32809" data-name="Path 32809" d="M324.707,161.969,305.166,385.374a22.62,22.62,0,0,1-22.089,20.3h-91.62a18.3,18.3,0,0,1-18.529-20.3L192.48,161.969a22.62,22.62,0,0,1,22.079-20.309h91.62a18.312,18.312,0,0,1,18.529,20.309Z" transform="translate(-170.059 -138.903)" fill="#fff"/>
        <g id="Group_38019" data-name="Group 38019" transform="translate(12.35 2.757)" opacity="0.1">
          <path id="Path_32810" data-name="Path 32810" d="M191.618,405.673h34.736L282.471,141.66H238.215L182.57,403.441A19.109,19.109,0,0,0,191.618,405.673Z" transform="translate(-182.57 -141.66)"/>
          <path id="Path_32811" data-name="Path 32811" d="M304.665,141.66h-8.418L240.12,405.673h8.428Z" transform="translate(-183.521 -141.66)"/>
        </g>
        <path id="Path_32812" data-name="Path 32812" d="M234.529,141a5.9,5.9,0,0,0,5.9,6.511h40.814A7.268,7.268,0,0,0,288.315,141Z" transform="translate(-171.079 -138.892)" fill="#ffb224"/>
        <path id="Path_32813" data-name="Path 32813" d="M306.7,149h9.264a1.278,1.278,0,0,1,1.278,1.406l-.354,4.032a1.564,1.564,0,0,1-1.524,1.406H306.1a1.269,1.269,0,0,1-1.279-1.406l.354-4.032A1.564,1.564,0,0,1,306.7,149Z" transform="translate(-172.241 -139.024)" fill="#ffb224"/>
        <path id="Path_32814" data-name="Path 32814" d="M206.116,149h12.4a1.436,1.436,0,0,1,1.446,1.583l-.325,3.678a1.76,1.76,0,0,1-1.721,1.583h-12.4a1.426,1.426,0,0,1-1.436-1.583l.315-3.678A1.76,1.76,0,0,1,206.116,149Z" transform="translate(-170.576 -139.024)" fill="#ffb224"/>
        <path id="Path_32815" data-name="Path 32815" d="M206.116,149h12.4a1.436,1.436,0,0,1,1.446,1.583l-.325,3.678a1.76,1.76,0,0,1-1.721,1.583h-12.4a1.426,1.426,0,0,1-1.436-1.583l.315-3.678A1.76,1.76,0,0,1,206.116,149Z" transform="translate(-170.576 -139.024)" fill="#fff" opacity="0.4"/>
        <path id="Path_32816" data-name="Path 32816" d="M304.205,150.16h1.456a.462.462,0,0,1,.472.511l-.3,3.481a.571.571,0,0,1-.561.511h-1.456a.462.462,0,0,1-.472-.511l.3-3.481A.57.57,0,0,1,304.205,150.16Z" transform="translate(-172.216 -139.043)" fill="#ffb224"/>
        <path id="Path_32817" data-name="Path 32817" d="M314.266,150.16h1.465a.462.462,0,0,1,.462.511l-.3,3.481a.561.561,0,0,1-.551.511h-1.465a.462.462,0,0,1-.462-.511l.3-3.481A.561.561,0,0,1,314.266,150.16Z" transform="translate(-172.383 -139.043)" fill="#fff"/>
        <path id="Path_32818" data-name="Path 32818" d="M311.076,150.16h1.465a.462.462,0,0,1,.462.511l-.3,3.481a.561.561,0,0,1-.551.511h-1.465a.462.462,0,0,1-.462-.511l.3-3.481A.561.561,0,0,1,311.076,150.16Z" transform="translate(-172.33 -139.043)" fill="#fff"/>
        <path id="Path_32819" data-name="Path 32819" d="M327.8,212.94l-1.967,22.846a4.563,4.563,0,0,0,3.678-4.013l1.259-14.841a3.659,3.659,0,0,0-2.97-3.993Z" transform="translate(-172.588 -140.081)" fill="#ffb224"/>
        <path id="Path_32820" data-name="Path 32820" d="M327.8,212.94l-1.967,22.846a4.563,4.563,0,0,0,3.678-4.013l1.259-14.841a3.659,3.659,0,0,0-2.97-3.993Z" transform="translate(-172.588 -140.081)" opacity="0.2"/>
        <path id="Path_32821" data-name="Path 32821" d="M329.967,187.87,328,210.716a4.544,4.544,0,0,0,3.668-4l1.249-14.782a3.678,3.678,0,0,0-2.951-4.062Z" transform="translate(-172.624 -139.667)" fill="#ffb224"/>
        <path id="Path_32822" data-name="Path 32822" d="M329.967,187.87,328,210.716a4.544,4.544,0,0,0,3.668-4l1.249-14.782a3.678,3.678,0,0,0-2.951-4.062Z" transform="translate(-172.624 -139.667)" opacity="0.2"/>
      </g>
      <g id="freepik--speech-bubble-2--inject-18" transform="translate(339.141 240.431)">
        <path id="Path_32823" data-name="Path 32823" d="M404.866,240.88H385.561a5.9,5.9,0,0,0-5.9,5.9v11.428a5.9,5.9,0,0,0,5.9,5.852h5.517v4.455a1.249,1.249,0,0,0,2.124.875l5.321-5.33h6.343a5.9,5.9,0,0,0,5.852-5.852V246.732A5.9,5.9,0,0,0,404.866,240.88Z" transform="translate(-379.66 -240.88)" fill="#ffb224"/>
        <path id="Path_32824" data-name="Path 32824" d="M400.295,246.407H391.02c-.089-.777-.138-1.16-.226-1.967h-5.1c.108.443.167.659.275,1.1h3.678c.049.325.079.492.128.826.246,1.623.374,2.429.62,4.052.059.443.1.659.167,1.1.246,1.623.364,2.429.61,4.052.138.875.207,1.308.334,2.173H401.73c.1-.443.147-.659.256-1.1H392.3c-.049-.423-.079-.639-.128-1.072H402.7l.983-4.052c.108-.443.157-.659.275-1.1.393-1.623.6-2.429.983-4.052Zm-9.136,1.092h3.285c0,1.19.049,1.78.089,2.95H391.5Zm.836,7.022c-.147-1.19-.216-1.78-.354-2.95h2.95c0,1.18.049,1.77.089,2.95Zm6.3,0h-2.665v-2.95h2.95C398.455,252.74,398.406,253.331,398.3,254.521Zm.374-4.062h-3.029v-2.95h3.285C398.829,248.689,398.78,249.279,398.672,250.459Zm3.265,4.062h-2.655c.148-1.19.216-1.78.374-2.95h2.95Zm.875-4.062h-3.049c.157-1.18.226-1.77.374-2.95h3.285C403.186,248.689,403.058,249.279,402.812,250.459Z" transform="translate(-379.76 -240.939)" fill="#fff"/>
        <path id="Path_32825" data-name="Path 32825" d="M392.218,259.05a1.308,1.308,0,1,0,1.308,1.308,1.308,1.308,0,0,0-1.308-1.308Z" transform="translate(-379.846 -241.18)" fill="#fff"/>
        <circle id="Ellipse_39" data-name="Ellipse 39" cx="1.298" cy="1.298" r="1.298" transform="translate(20.338 17.88)" fill="#fff"/>
      </g>
      <g id="freepik--speech-bubble-1--inject-18" transform="translate(204.892 157.447)">
        <path id="Path_32826" data-name="Path 32826" d="M272.8,157.62H242.153a10.336,10.336,0,0,0-10.1,9.284l-1.583,18.145a8.369,8.369,0,0,0,8.468,9.284h8.773l-.62,7.061a1.859,1.859,0,0,0,3.236,1.387l9.186-8.4h10.071a10.346,10.346,0,0,0,10.1-9.284l1.583-18.145a8.369,8.369,0,0,0-8.468-9.333Z" transform="translate(-230.419 -157.619)" fill="#ffb224"/>
        <path id="Path_32827" data-name="Path 32827" d="M263.805,166.389H249.1l-.1-3.049H240.91c.108.7.167,1.042.275,1.741h5.842c0,.521.049.787.079,1.308.167,2.577.256,3.865.423,6.442,0,.688.069,1.042.108,1.741.167,2.567.256,3.855.413,6.432.1,1.377.138,2.065.226,3.442h16.149l.561-1.741H249.614V181h16.719c.865-2.577,1.3-3.865,2.154-6.432l.58-1.741c.865-2.577,1.3-3.865,2.154-6.442Zm-14.654,1.741h5.212c-.108,1.878-.157,2.813-.266,4.7h-4.8Zm.354,11.133-.148-4.691H254c-.108,1.878-.167,2.813-.275,4.691Zm10,0h-4.219c.167-1.878.256-2.813.423-4.691h4.642C260.019,176.45,259.852,177.384,259.507,179.262Zm1.16-6.422h-4.8c.177-1.888.256-2.823.423-4.7h5.222C261.169,170.008,261,170.942,260.668,172.84Zm4.622,6.432h-4.219l.983-4.691h4.632c-.541,1.869-.826,2.8-1.4,4.681Zm1.967-6.432h-4.819c.4-1.888.6-2.823.983-4.7h5.212c-.551,1.869-.836,2.8-1.4,4.7Z" transform="translate(-230.592 -157.713)" fill="#fff"/>
        <path id="Path_32828" data-name="Path 32828" d="M249.242,186.46a2.3,2.3,0,0,0-2.252,2.065,1.869,1.869,0,0,0,1.888,2.065,2.3,2.3,0,0,0,2.252-2.065,1.869,1.869,0,0,0-1.888-2.065Z" transform="translate(-230.693 -158.095)" fill="#fff"/>
        <path id="Path_32829" data-name="Path 32829" d="M264.172,186.46a2.291,2.291,0,0,0-2.242,2.065,1.869,1.869,0,0,0,1.888,2.065,2.292,2.292,0,0,0,2.242-2.065,1.868,1.868,0,0,0-1.888-2.065Z" transform="translate(-230.939 -158.095)" fill="#fff"/>
      </g>
      <g id="freepik--character-2--inject-18" transform="translate(215.801 207.286)">
        <rect id="Rectangle_18304" data-name="Rectangle 18304" width="35.041" height="35.041" transform="translate(8.95 81.876)" fill="#ffb224"/>
        <rect id="Rectangle_18305" data-name="Rectangle 18305" width="21.518" height="35.041" transform="translate(43.981 81.876)" fill="#ffb224"/>
        <path id="Path_32830" data-name="Path 32830" d="M288.5,279.24H253.46l6.7,8.792h35.031Z" transform="translate(-251.208 -206.156)" fill="#ffb224"/>
        <rect id="Rectangle_18306" data-name="Rectangle 18306" width="21.518" height="35.041" transform="translate(43.981 81.876)" fill="#fff" opacity="0.3"/>
        <path id="Path_32831" data-name="Path 32831" d="M288.5,279.24H253.46l6.7,8.792h35.031Z" transform="translate(-251.208 -206.156)" fill="#fff" opacity="0.4"/>
        <path id="Path_32832" data-name="Path 32832" d="M302.233,279.24h21.518l-6.334,8.792H295.89Z" transform="translate(-251.909 -206.156)" fill="#ffb224"/>
        <rect id="Rectangle_18307" data-name="Rectangle 18307" width="35.041" height="35.041" transform="translate(8.95 81.876)" fill="#fff" opacity="0.6"/>
        <path id="Path_32833" data-name="Path 32833" d="M302.233,279.24h21.518l-6.334,8.792H295.89Z" transform="translate(-251.909 -206.156)" fill="#fff" opacity="0.2"/>
        <rect id="Rectangle_18308" data-name="Rectangle 18308" width="88.316" height="88.316" transform="translate(54.268 116.052)" fill="#ffb224"/>
        <rect id="Rectangle_18309" data-name="Rectangle 18309" width="88.316" height="88.316" transform="translate(54.268 116.052)" fill="#fff" opacity="0.4"/>
        <rect id="Rectangle_18310" data-name="Rectangle 18310" width="54.248" height="88.316" transform="translate(0 116.052)" fill="#ffb224"/>
        <rect id="Rectangle_18311" data-name="Rectangle 18311" width="54.248" height="88.316" transform="translate(0 116.052)" fill="#fff" opacity="0.6"/>
        <path id="Path_32834" data-name="Path 32834" d="M268.21,322.93v23.721l2.154,1.131,1.859-1.544,2.941,1.544,2.793-1.544,2.164,1.544,2.478-1.544L284,347.507V322.93Z" transform="translate(-251.452 -206.878)" fill="#fff" opacity="0.5"/>
        <path id="Path_32835" data-name="Path 32835" d="M284,412.312V388.591l-2.154-1.141L279.992,389l-2.941-1.554L274.258,389l-2.164-1.554L269.616,389l-1.406-1.269v24.577Z" transform="translate(-251.452 -207.945)" fill="#fff" opacity="0.5"/>
        <path id="Path_32836" data-name="Path 32836" d="M343,359.51c.5,2.016.747,3.029,1.249,5.045.128.541.2.816.334,1.367.5,2.016.747,3.029,1.249,5.045h13.1c-.069.531-.1.8-.157,1.328H346.708c.128.551.187.826.315,1.367h12.7l.413-2.695c.3-2.016.462-3.029.767-5.045.089-.551.128-.826.207-1.367.3-2.016.462-3.029.767-5.045.069-.413.1-.62.157-1.033H366.6c.128-.541.2-.816.334-1.357h-6.343c-.118.983-.177,1.426-.285,2.39H343Zm16.719,5.045h-3.757c0-1.475.059-2.213.108-3.688h4.081C359.935,362.342,359.857,363.08,359.719,364.555Zm-3.934,5.045c0-1.475.069-2.213.108-3.678h3.639l-.443,3.678Zm-4.917-3.678H354.5V369.6h-3.314C351.094,368.125,351.025,367.387,350.868,365.922Zm-.462-5.055h4.081v3.688h-3.718c-.138-1.475-.206-2.213-.334-3.688Zm-4.524,5.055h3.639c.177,1.465.275,2.2.462,3.678h-3.314Zm-1.082-5.055h4.1c.177,1.475.275,2.213.452,3.688H345.6Z" transform="translate(-252.688 -207.443)" fill="#fff"/>
        <circle id="Ellipse_40" data-name="Ellipse 40" cx="1.623" cy="1.623" r="1.623" transform="translate(104.582 167.497)" fill="#fff"/>
        <circle id="Ellipse_41" data-name="Ellipse 41" cx="1.623" cy="1.623" r="1.623" transform="translate(93.066 167.497)" fill="#fff"/>
        <g id="Group_38020" data-name="Group 38020" transform="translate(15.165 149.677)" opacity="0.5">
          <path id="Path_32837" data-name="Path 32837" d="M266.59,359.51c.5,2.016.747,3.029,1.249,5.045.128.541.2.816.334,1.367.5,2.016.747,3.029,1.249,5.045h13.1c-.069.531-.1.8-.157,1.328H270.317c.128.551.187.826.315,1.367h12.657l.413-2.695c.3-2.016.462-3.029.767-5.045.079-.551.128-.826.207-1.367.3-2.016.462-3.029.767-5.045l.157-1.033h4.583c.128-.541.2-.816.334-1.357h-6.343c-.118.983-.177,1.426-.285,2.39h-17.3Zm16.719,5.045h-3.757l.108-3.688h4.052c-.167,1.475-.256,2.213-.423,3.688Zm-3.934,5.045c.049-1.475.069-2.213.108-3.678h3.639l-.443,3.678Zm-4.868-3.678h3.629V369.6h-3.275C274.7,368.125,274.635,367.387,274.507,365.922Zm-.472-5.055h4.091v3.688h-3.757Zm-4.514,5.055h3.639l.452,3.678h-3.3Zm-1.082-5.055h4.091c.177,1.475.275,2.213.452,3.688h-3.757Z" transform="translate(-266.59 -357.12)" fill="#fff"/>
          <circle id="Ellipse_42" data-name="Ellipse 42" cx="1.623" cy="1.623" r="1.623" transform="translate(14.29 17.82)" fill="#fff"/>
          <circle id="Ellipse_43" data-name="Ellipse 43" cx="1.623" cy="1.623" r="1.623" transform="translate(2.773 17.82)" fill="#fff"/>
        </g>
        <path id="Path_32838" data-name="Path 32838" d="M363.2,251.47s3.068,22.02,5.822,25.816,15.126,14.3,15.126,14.3l7.819-1.141,5.242,4.917-3.8,2.626-4.18-1.869a40.885,40.885,0,0,1-7.1.167c-3.993-.246-19.591-10.818-22.462-16.335s-6.117-25.944-6.117-25.944Z" transform="translate(-252.862 -205.697)" fill="#ce7a63"/>
        <path id="Path_32839" data-name="Path 32839" d="M365.77,257.648l-.787.138c-.541-5.173-2.7-20.889-8.635-16.857-5.694,3.885-4.091,14.909-3.265,19.03l-.983.167.866,2.714,13.11-2.508Z" transform="translate(-252.838 -205.512)" fill="#ffb224"/>
        <path id="Path_32840" data-name="Path 32840" d="M360.853,247.318l-1.446-3.108-4.534,4.563-2.606,3.934a43.172,43.172,0,0,0,.846,7.327l-.983.167.865,2.714,7.4-1.416a50.244,50.244,0,0,0,.462-14.182Z" transform="translate(-252.839 -205.577)" opacity="0.2"/>
        <path id="Path_32841" data-name="Path 32841" d="M361.46,207.19s15.637,3.383,7.327,10.818L361.9,212Z" transform="translate(-252.993 -204.965)" fill="#263238"/>
        <path id="Path_32842" data-name="Path 32842" d="M383.247,375.037l-9.953,24.38-6.9-2.685,5.566-24.233Z" transform="translate(-253.074 -207.698)" fill="#ce7a63"/>
        <path id="Path_32843" data-name="Path 32843" d="M372.484,370.75l-3.924,17.083,8.507,1.9,6.707-16.453Z" transform="translate(-253.11 -207.669)" opacity="0.2"/>
        <path id="Path_32844" data-name="Path 32844" d="M374.782,399.22c1.269,2.882,2.124,5.252,7.317,8.33,1.131.649-.787,3.639-3.609,2.37-4.662-2.1-3.442-2.144-7.435-3.875-3.354-1.485-5.852-2.38-8.586-3.521a.809.809,0,0,1-.2-.118h0a1.1,1.1,0,0,1-.226-1.534l4.032-5.517a.659.659,0,0,1,.806-.216l6.53,2.813a2.646,2.646,0,0,1,1.367,1.269Z" transform="translate(-252.999 -208.071)" fill="#263238"/>
        <path id="Path_32845" data-name="Path 32845" d="M404.666,316.458C403.4,332.193,380.8,384.209,380.8,384.209l-13.415-3.737s10.248-49.97,16.935-58.241c0,0-2.183,0-5.694.069-12.225.108-40.558.088-48.731-2.085-5.832-1.554-18.017-4.671-14.752-24.184l15.106-.521,17.594-.61S406.456,295,404.666,316.458Z" transform="translate(-252.218 -206.415)" fill="#263238"/>
        <path id="Path_32846" data-name="Path 32846" d="M378.624,322.31c-12.225.108-40.558.089-48.731-2.085-5.832-1.554-18.017-4.672-14.752-24.184l15.106-.521c11.89,1.406,27.429,3.757,38.021,8.31,5.153,2.213,8.733,6.206,9.786,10.907a55.731,55.731,0,0,1,.57,7.573Z" transform="translate(-252.218 -206.425)" opacity="0.2"/>
        <path id="Path_32847" data-name="Path 32847" d="M359.6,374.194l-4.976,24.852-7.484-.344.885-24.852Z" transform="translate(-252.756 -207.72)" fill="#ce7a63"/>
        <path id="Path_32848" data-name="Path 32848" d="M359.607,374.194l-11.575-.344-.511,14.86,9.117.325Z" transform="translate(-252.762 -207.72)" opacity="0.2"/>
        <path id="Path_32849" data-name="Path 32849" d="M355.687,400c1.219,2.95,1.967,5.429,7.209,8.714,1.121.728-.924,3.727-3.747,2.331-4.681-2.292-3.432-2.282-7.455-4.18-3.393-1.6-5.9-2.6-8.645-3.845l-.206-.1h0a1.111,1.111,0,0,1-.187-1.574l4.278-5.517a.659.659,0,0,1,.816-.2l6.55,3.059A2.646,2.646,0,0,1,355.687,400Z" transform="translate(-252.678 -208.079)" fill="#263238"/>
        <path id="Path_32850" data-name="Path 32850" d="M306.148,296s-4.278,15.372,2.793,21.44c9.884,8.487,45.594,5.9,45.594,5.9-6.166,19.738-8.92,58.949-8.92,58.949H359s18.234-53.639,15.539-67.506-50.531-18.774-50.531-18.774Z" transform="translate(-252.057 -206.433)" fill="#263238"/>
        <path id="Path_32851" data-name="Path 32851" d="M367.06,383.366l15.185,3.826,3.1-6.5-16.68-4.73Z" transform="translate(-253.085 -207.755)" fill="#ffb224"/>
        <path id="Path_32852" data-name="Path 32852" d="M344.95,385.565l15.49.8,1.6-6.815-17.093-.8Z" transform="translate(-252.72 -207.801)" fill="#ffb224"/>
        <path id="Path_32853" data-name="Path 32853" d="M351.409,273.691c3.934-11.6,8.851-20.417,9.422-30.3-13.464-19.433-39.791-7.946-39.791-7.946-15.932,29.9-14.87,59.5-14.87,59.5,36.2,0,38.277-.62,38.277-.62S344.574,289.239,351.409,273.691Z" transform="translate(-252.079 -205.377)" fill="#ffb224"/>
        <path id="Path_32854" data-name="Path 32854" d="M339.81,234.92c.58,3.422,1.79,9.6,3.226,10.494,1.967,1.2,4.917-.482,4.917-.482s2.39,3.236,4.917,1.082a13.582,13.582,0,0,0,3.245-4.839,13.967,13.967,0,0,1-2.783,3.383c-2.557,2.144-4.917-1.082-4.917-1.082s-2.95,1.672-4.917.482C342.2,243.181,340.685,238.293,339.81,234.92Z" transform="translate(-252.635 -205.424)" opacity="0.2"/>
        <path id="Path_32855" data-name="Path 32855" d="M343.11,230.12l3.59,1.229-2.813,2.469Z" transform="translate(-252.69 -205.344)" fill="#ffb224"/>
        <path id="Path_32856" data-name="Path 32856" d="M343.11,230.12l3.59,1.229-2.813,2.469Z" transform="translate(-252.69 -205.344)" opacity="0.2"/>
        <path id="Path_32857" data-name="Path 32857" d="M354.518,233.76l.983,2.95s-5.134,5.37-6.609,5.429-5.8-10.1-5.8-10.1c5.714-2.587,5.183-5.429,5.183-5.429Z" transform="translate(-252.689 -205.286)" fill="#ce7a63"/>
        <path id="Path_32858" data-name="Path 32858" d="M352.74,239.466c1.514-1.387,2.872-2.793,2.872-2.793l-.983-2.95-5.557-6.422C348.344,230.142,347.635,235.984,352.74,239.466Z" transform="translate(-252.78 -205.298)" opacity="0.2"/>
        <path id="Path_32859" data-name="Path 32859" d="M357.381,238.853a16.868,16.868,0,0,1-4.013,5.714c-2.567,2.144-4.917-1.072-4.917-1.072s-2.95,1.662-4.917.472S339,231.861,339,231.861l4.042-1.741,5.566,11.8,7.5-6.206Z" transform="translate(-252.622 -205.344)" fill="#ffb224"/>
        <path id="Path_32860" data-name="Path 32860" d="M348.159,216.3a9.953,9.953,0,0,1,14.88-8.694c7.14,3.845,7.337,15.077,5.212,21.636a9.835,9.835,0,0,1-17.122,3.314c-3.5-4.308-3.049-8.723-2.95-16.306Z" transform="translate(-252.772 -204.951)" fill="#ce7a63"/>
        <path id="Path_32861" data-name="Path 32861" d="M361.665,221.25c.413,0,.669.6.561,1.2s-.472.983-.875.983-.659-.6-.561-1.2S361.252,221.22,361.665,221.25Z" transform="translate(-252.981 -205.198)" fill="#263238"/>
        <path id="Path_32862" data-name="Path 32862" d="M368.595,222.55c.423,0,.679.58.58,1.19s-.482.983-.895.983-.649-.59-.56-1.2S368.182,222.5,368.595,222.55Z" transform="translate(-253.096 -205.219)" fill="#263238"/>
        <path id="Path_32863" data-name="Path 32863" d="M359.81,219.768a2.793,2.793,0,0,1,2.518-.462h0a.354.354,0,0,0,.443-.216h0a.384.384,0,0,0-.216-.462,3.531,3.531,0,0,0-3.226.629h0a.352.352,0,0,0,.482.511Z" transform="translate(-252.955 -205.152)" fill="#263238"/>
        <path id="Path_32864" data-name="Path 32864" d="M370.31,221.7h0a.364.364,0,0,0,.118-.492,3.668,3.668,0,0,0-2.744-1.859h0a.344.344,0,0,0-.325.266h0a.354.354,0,0,0,.265.433,3.029,3.029,0,0,1,2.2,1.544.344.344,0,0,0,.275.187A.393.393,0,0,0,370.31,221.7Z" transform="translate(-253.09 -205.166)" fill="#263238"/>
        <path id="Path_32865" data-name="Path 32865" d="M364.5,229.273a3.56,3.56,0,0,0,2.95,0,23.673,23.673,0,0,1-1.967-5.783Z" transform="translate(-253.043 -205.235)" fill="#ba4d3c"/>
        <path id="Path_32866" data-name="Path 32866" d="M347.665,221.187c-2.95-10.72,1.819-13.513,6.973-15.44s8.015-.079,9.658,1.731c.511.57,1.534,2.282-1.77,2.508a25.9,25.9,0,0,1-5.97-.462,2.174,2.174,0,0,0-2.1.826c-1.141,1.495-2.951,4.288-2.951,6.727a6.373,6.373,0,0,1-1.908,5.035Z" transform="translate(-252.75 -204.928)" fill="#263238"/>
        <path id="Path_32867" data-name="Path 32867" d="M343.878,276.24h0a1.35,1.35,0,1,0,.01,0Z" transform="translate(-252.681 -206.107)" fill="#ffb224"/>
        <path id="Path_32868" data-name="Path 32868" d="M340.978,290.2h0a1.288,1.288,0,1,1-.917.374A1.3,1.3,0,0,1,340.978,290.2Z" transform="translate(-252.633 -206.337)" fill="#ffb224"/>
        <path id="Path_32869" data-name="Path 32869" d="M347.709,219c2.085.374,3.088,3.314,3.108,5.242s-1.475,3.629-3.314,2.4a6.766,6.766,0,0,1-2.754-4.072C344.345,220.494,345.634,218.586,347.709,219Z" transform="translate(-252.715 -205.16)" fill="#ce7a63"/>
        <path id="Path_32870" data-name="Path 32870" d="M357.437,229.26a36.767,36.767,0,0,1,6.55,2.547,4.121,4.121,0,0,1-5.153.708,2.409,2.409,0,0,1-1.4-3.255Z" transform="translate(-252.923 -205.33)" fill="#263238"/>
        <path id="Path_32871" data-name="Path 32871" d="M360.46,231.99a4.829,4.829,0,0,0-2.95-.521,2.871,2.871,0,0,0,1.308,1.121,4.8,4.8,0,0,0,2.95.521,2.724,2.724,0,0,0-1.308-1.121Z" transform="translate(-252.928 -205.366)" fill="#a02724"/>
        <path id="Path_32872" data-name="Path 32872" d="M357.68,229.32a1.052,1.052,0,0,0,.413,1.033,26.749,26.749,0,0,0,4.317,1.564,1.446,1.446,0,0,0,1.377-.2A42.2,42.2,0,0,0,357.68,229.32Z" transform="translate(-252.93 -205.331)" fill="#fff"/>
        <rect id="Rectangle_18312" data-name="Rectangle 18312" width="17.801" height="2.862" transform="matrix(-1, -0.005, 0.005, -1, 130.08, 96.231)" fill="#263238"/>
        <path id="Path_32873" data-name="Path 32873" d="M0,.01H22.62a1.338,1.338,0,0,1,1.337,1.338V2.862H0V.01Z" transform="matrix(-1, -0.005, 0.005, -1, 113.743, 96.156)" fill="#263238"/>
        <path id="Path_32874" data-name="Path 32874" d="M0,.01H22.62a1.338,1.338,0,0,1,1.337,1.338V2.862H0V.01Z" transform="matrix(-1, -0.005, 0.005, -1, 113.743, 96.156)" fill="#fff" opacity="0.3"/>
        <rect id="Rectangle_18313" data-name="Rectangle 18313" width="2.862" height="1.013" transform="matrix(-1, -0.005, 0.005, -1, 110.159, 95.206)" fill="#263238"/>
        <rect id="Rectangle_18314" data-name="Rectangle 18314" width="2.862" height="1.013" transform="matrix(-1, -0.005, 0.005, -1, 105.694, 95.201)" fill="#263238"/>
        <path id="Path_32875" data-name="Path 32875" d="M370.248,299.386l-1.9-.01,7.573-25.787,1.9.01Z" transform="translate(-253.107 -206.063)" fill="#263238"/>
        <path id="Path_32876" data-name="Path 32876" d="M370.248,299.386l-1.9-.01,7.573-25.787,1.9.01Z" transform="translate(-253.107 -206.063)" fill="#fff" opacity="0.3"/>
        <path id="Path_32877" data-name="Path 32877" d="M369.57,299.386l33.409.177,7.573-25.8-33.409-.177Z" transform="translate(-253.127 -206.063)" fill="#263238"/>
        <path id="Path_32878" data-name="Path 32878" d="M369.57,299.386l33.409.177,7.573-25.8-33.409-.177Z" transform="translate(-253.127 -206.063)" fill="#fff" opacity="0.6"/>
        <path id="Path_32879" data-name="Path 32879" d="M367.892,299.81l34.776.187c.58,0,1.052.649,1.052,1.436s-.482,1.426-1.072,1.426l-34.776-.187c-.58,0-1.052-.649-1.052-1.436S367.3,299.81,367.892,299.81Z" transform="translate(-253.081 -206.496)" fill="#263238"/>
        <path id="Path_32880" data-name="Path 32880" d="M367.892,299.81l34.776.187c.58,0,1.052.649,1.052,1.436s-.482,1.426-1.072,1.426l-34.776-.187c-.58,0-1.052-.649-1.052-1.436S367.3,299.81,367.892,299.81Z" transform="translate(-253.081 -206.496)" fill="#fff" opacity="0.5"/>
        <path id="Path_32881" data-name="Path 32881" d="M366.82,301.236c0,.787.472,1.426,1.052,1.436s1.062-.639,1.072-1.426-.472-1.436-1.052-1.436S366.83,300.449,366.82,301.236Z" transform="translate(-253.081 -206.496)" fill="#263238"/>
        <path id="Path_32882" data-name="Path 32882" d="M366.82,301.236c0,.787.472,1.426,1.052,1.436s1.062-.639,1.072-1.426-.472-1.436-1.052-1.436S366.83,300.449,366.82,301.236Z" transform="translate(-253.081 -206.496)" fill="#fff" opacity="0.3"/>
        <path id="Path_32883" data-name="Path 32883" d="M333.136,274.887c-1.6-2.2-3.3-10.366-4.495-17.112l1.544-.3-.364-2.793-.806.148c-.561-5.271-2.744-21.125-8.655-17.7-1.721,3.344-3.236,6.707-4.553,10.031a41.376,41.376,0,0,0,.846,9.9l-.983.177.9,2.823,2.095-.393c1.249,6.511,3.068,14.752,4.76,18.017,2.223,4.288,11.8,11.448,18.214,14.929,7.209-1.279,8.851-2.183,8.851-2.183a3.8,3.8,0,0,1-.5-.885l-1.16.167S336,278.831,333.136,274.887Z" transform="translate(-252.236 -205.452)" opacity="0.2"/>
        <path id="Path_32884" data-name="Path 32884" d="M331.47,248.38s2.1,22.984,4.78,27.055,15,15.578,15,15.578l8.163-.806,5.193,5.4-4.062,2.557-4.249-2.154a41.735,41.735,0,0,1-7.376-.167c-4.121-.452-19.788-12.136-22.5-18.037s-5.085-27.213-5.085-27.213Z" transform="translate(-252.33 -205.646)" fill="#ce7a63"/>
        <path id="Path_32885" data-name="Path 32885" d="M333.262,253.117l-.816.147c-.561-5.37-2.813-21.7-8.959-17.506-5.9,4.032-4.258,15.48-3.393,19.758l-.983.177.9,2.823,13.611-2.606Z" transform="translate(-252.293 -205.426)" fill="#ffb224"/>
      </g>
      <g id="freepik--Bags--inject-18" transform="translate(73.836 309.854)">
        <path id="Path_32886" data-name="Path 32886" d="M131.18,333.158l-2.35-.128.551-10.661a14.044,14.044,0,0,1,13.847-13.149A12.49,12.49,0,0,1,155.816,322.5l-.561,10.661-2.35-.128.561-10.661a10.14,10.14,0,0,0-10.238-10.818,11.654,11.654,0,0,0-11.487,10.926Z" transform="translate(-84.869 -309.219)" fill="#263238"/>
        <path id="Path_32887" data-name="Path 32887" d="M181.282,328.74h-69.5L109.42,411.2l10.307-2.36,10.307,2.36h53.609Z" transform="translate(-84.548 -309.542)" fill="#ffb224"/>
        <path id="Path_32888" data-name="Path 32888" d="M181.282,328.74h-69.5L109.42,411.2l10.307-2.36,10.307,2.36h53.609Z" transform="translate(-84.548 -309.542)" fill="#fff" opacity="0.6"/>
        <path id="Path_32889" data-name="Path 32889" d="M130.034,411.2l-10.307-2.36L109.42,411.2l2.36-82.464h15.9Z" transform="translate(-84.548 -309.542)" fill="#ffb224"/>
        <path id="Path_32890" data-name="Path 32890" d="M130.034,411.2l-10.307-2.36L109.42,411.2l2.36-82.464h15.9Z" transform="translate(-84.548 -309.542)" fill="#fff" opacity="0.3"/>
        <path id="Path_32891" data-name="Path 32891" d="M167.116,333.158l-.521-10.661a11.654,11.654,0,0,0-11.5-10.926,10.14,10.14,0,0,0-10.228,10.818l.561,10.661-2.351.128-.561-10.661A12.48,12.48,0,0,1,155.1,309.24a14.034,14.034,0,0,1,13.847,13.149l.561,10.661Z" transform="translate(-85.095 -309.22)" fill="#263238"/>
        <g id="Group_38021" data-name="Group 38021" transform="translate(57.399 0.02)" opacity="0.2">
          <path id="Path_32892" data-name="Path 32892" d="M167.116,333.158l-.521-10.661a11.654,11.654,0,0,0-11.5-10.926,10.14,10.14,0,0,0-10.228,10.818l.561,10.661-2.351.128-.561-10.661A12.48,12.48,0,0,1,155.1,309.24a14.034,14.034,0,0,1,13.847,13.149l.561,10.661Z" transform="translate(-142.494 -309.239)" fill="#fff"/>
        </g>
        <rect id="Rectangle_18315" data-name="Rectangle 18315" width="34.953" height="7.858" rx="1.34" transform="translate(53.707 49.312)" fill="#fff"/>
        <path id="Path_32893" data-name="Path 32893" d="M98.713,359.34l-1.583-.089.374-7.14a9.412,9.412,0,0,1,9.284-8.851,8.369,8.369,0,0,1,8.438,8.851l-.374,7.15-1.574-.089.374-7.14a6.806,6.806,0,0,0-6.884-7.238,7.809,7.809,0,0,0-7.7,7.317Z" transform="translate(-84.345 -309.782)" fill="#263238"/>
        <path id="Path_32894" data-name="Path 32894" d="M132.3,356.38H85.7L84.13,411.661l6.9-1.583,6.914,1.583h35.936Z" transform="translate(-84.13 -309.999)" fill="#ffb224"/>
        <path id="Path_32895" data-name="Path 32895" d="M97.948,411.661l-6.914-1.583-6.9,1.583L85.7,356.38H96.364Z" transform="translate(-84.13 -309.999)" fill="#ffb224"/>
        <path id="Path_32896" data-name="Path 32896" d="M97.948,411.661l-6.914-1.583-6.9,1.583L85.7,356.38H96.364Z" transform="translate(-84.13 -309.999)" opacity="0.2"/>
        <path id="Path_32897" data-name="Path 32897" d="M122.8,359.341l-.374-7.15a7.868,7.868,0,0,0-7.71-7.317,6.786,6.786,0,0,0-6.884,7.238l.374,7.14-1.574.089-.384-7.15a8.379,8.379,0,0,1,8.438-8.851,9.412,9.412,0,0,1,9.284,8.851l.374,7.14Z" transform="translate(-84.495 -309.783)" fill="#263238"/>
        <g id="Group_38022" data-name="Group 38022" transform="translate(21.741 33.556)" opacity="0.2">
          <path id="Path_32898" data-name="Path 32898" d="M122.8,359.341l-.374-7.15a7.868,7.868,0,0,0-7.71-7.317,6.786,6.786,0,0,0-6.884,7.238l.374,7.14-1.574.089-.384-7.15a8.379,8.379,0,0,1,8.438-8.851,9.412,9.412,0,0,1,9.284,8.851l.374,7.14Z" transform="translate(-106.236 -343.34)" fill="#fff"/>
        </g>
        <rect id="Rectangle_18316" data-name="Rectangle 18316" width="23.426" height="5.262" rx="1.34" transform="translate(19.325 66.572)" fill="#fff"/>
      </g>
      <g id="freepik--character-1--inject-18" transform="translate(95.875 150.07)">
        <path id="Path_32899" data-name="Path 32899" d="M171.554,406.793l-7.484-.777.374-17.486,7.484.777Z" transform="translate(-112.132 -150.746)" fill="#b55b52"/>
        <path id="Path_32900" data-name="Path 32900" d="M235.778,381.357l-6.7,3.413L219.01,370.333l6.707-3.413Z" transform="translate(-113.04 -150.389)" fill="#b55b52"/>
        <path id="Path_32901" data-name="Path 32901" d="M227.739,384.035l6.884-4.917a.6.6,0,0,1,.787.069l4.662,4.917a1.21,1.21,0,0,1-.2,1.79c-2.429,1.672-3.688,2.35-6.717,4.514-1.859,1.328-4.445,3.462-7.012,5.291s-4.524-.61-3.619-1.6c4.062-4.455,3.806-6.422,4.455-8.93A1.967,1.967,0,0,1,227.739,384.035Z" transform="translate(-113.094 -150.589)" fill="#263238"/>
        <path id="Path_32902" data-name="Path 32902" d="M163.174,405.35l8.409.875a.59.59,0,0,1,.541.57l.266,6.756a1.21,1.21,0,0,1-1.337,1.21c-2.95-.364-4.317-.679-8.015-1.062-2.282-.246-8.851-.688-11.979-.983s-2.95-3.452-1.642-3.6c5.989-.649,10.317-1.967,12.461-3.413a1.967,1.967,0,0,1,1.3-.354Z" transform="translate(-111.875 -151.024)" fill="#263238"/>
        <g id="Group_38023" data-name="Group 38023" transform="translate(52.115 216.541)" opacity="0.2">
          <path id="Path_32903" data-name="Path 32903" d="M164.447,388.53l-.2,9.018,7.494.777.187-9.009Z" transform="translate(-164.25 -367.287)"/>
          <path id="Path_32904" data-name="Path 32904" d="M225.717,366.93l-6.707,3.413,5.193,7.435,6.707-3.413Z" transform="translate(-165.155 -366.93)"/>
        </g>
        <path id="Path_32905" data-name="Path 32905" d="M167.956,234.93S160.2,292.689,160,315.644c-.236,23.879,2.793,77.478,2.793,77.478l10.12,1.052s4.111-52.714,5.743-76.111c1.79-25.521,11.7-82.415,11.7-82.415Z" transform="translate(-112.064 -148.207)" fill="#263238"/>
        <path id="Path_32906" data-name="Path 32906" d="M173.742,397.214l-11.88-1.239-.472-3.875,13.346.924Z" transform="translate(-112.088 -150.805)" fill="#ffb224"/>
        <path id="Path_32907" data-name="Path 32907" d="M180.928,249.942c-7.986,14.86-2.852,42.584-.521,52.911,1.839-15.342,4.73-34.077,6.953-47.826C186.494,247.178,184.635,243.106,180.928,249.942Z" transform="translate(-112.339 -148.398)" opacity="0.6"/>
        <path id="Path_32908" data-name="Path 32908" d="M176.29,235.19s5.026,60.454,9.638,79.956c5.478,23.161,35.159,59.726,35.159,59.726l9.146-4.652s-20.112-40.637-24.469-52.891c-9.313-26.131.57-64.329-6.992-81.431Z" transform="translate(-112.334 -148.212)" fill="#263238"/>
        <path id="Path_32909" data-name="Path 32909" d="M232.219,372.353l-11.349,5.773-3.019-2.95,13.041-7.4Z" transform="translate(-113.021 -150.403)" fill="#ffb224"/>
        <path id="Path_32910" data-name="Path 32910" d="M225.124,387.223h-.088a.984.984,0,0,1-.787-.6.6.6,0,0,1,0-.61c.482-.836,3.2-.983,3.5-.983a.177.177,0,0,1,.167.108.148.148,0,0,1,0,.187C227.258,386.063,226.068,387.253,225.124,387.223Zm2.213-1.81c-1.082.079-2.528.334-2.783.767a.275.275,0,0,0,0,.275.659.659,0,0,0,.521.4C225.586,386.967,226.422,386.387,227.337,385.414Z" transform="translate(-113.125 -150.688)" fill="#ffb224"/>
        <path id="Path_32911" data-name="Path 32911" d="M227.509,385.362c-.934,0-2.636-.521-2.95-1.239a.61.61,0,0,1,.207-.747.9.9,0,0,1,.747-.246c1.092.118,2.35,1.869,2.409,1.967a.187.187,0,0,1,0,.177.177.177,0,0,1-.147.1,1.234,1.234,0,0,1-.266-.01Zm-2.095-1.878a.551.551,0,0,0-.423.148c-.167.157-.147.265-.118.344.216.482,1.623.984,2.537,1.033-.452-.561-1.3-1.456-1.967-1.524Z" transform="translate(-113.131 -150.657)" fill="#ffb224"/>
        <path id="Path_32912" data-name="Path 32912" d="M160.4,406.346a2.832,2.832,0,0,1-1.77-.649.983.983,0,0,1-.236-.9.59.59,0,0,1,.354-.443c.983-.4,3.8,1.426,4.111,1.642a.167.167,0,0,1,.079.187.177.177,0,0,1-.157.138A12.678,12.678,0,0,1,160.4,406.346Zm-1.18-1.692a.866.866,0,0,0-.334,0,.236.236,0,0,0-.138.187.61.61,0,0,0,.148.58c.413.462,1.633.659,3.324.561a9.957,9.957,0,0,0-3-1.328Z" transform="translate(-112.038 -151.007)" fill="#ffb224"/>
        <path id="Path_32913" data-name="Path 32913" d="M162.771,406.3H162.7c-.846-.492-2.449-2.291-2.223-3.127.059-.2.226-.433.718-.433a1.308,1.308,0,0,1,.983.413c.856.885.826,2.95.816,3a.157.157,0,0,1-.089.147A.2.2,0,0,1,162.771,406.3Zm-1.465-3.226H161.2c-.325,0-.354.118-.374.167-.128.5.934,1.888,1.79,2.537a4.209,4.209,0,0,0-.718-2.41.984.984,0,0,0-.59-.295Z" transform="translate(-112.072 -150.981)" fill="#ffb224"/>
        <path id="Path_32914" data-name="Path 32914" d="M164.324,203.483A75.925,75.925,0,0,1,155,213.81a36.171,36.171,0,0,1-5.9,4.494,16.493,16.493,0,0,1-3.993,1.77,9.519,9.519,0,0,1-2.734.374,8.094,8.094,0,0,1-1.642-.187c-.275-.069-.57-.157-.846-.256a5.777,5.777,0,0,1-.934-.423,5.536,5.536,0,0,1-1.78-1.524,6.5,6.5,0,0,1-.9-1.524,9.552,9.552,0,0,1-.679-2.478,21.433,21.433,0,0,1-.147-3.983,50.372,50.372,0,0,1,.983-6.993A91.668,91.668,0,0,1,140.111,190l4.072,1.052c-.58,4.278-1.121,8.645-1.446,12.874a50.443,50.443,0,0,0-.157,6.166,12.894,12.894,0,0,0,.325,2.606,2.439,2.439,0,0,0,.246.679c.059.1,0-.207-.57-.57-.207-.1-.138-.089-.187-.1h0a3.275,3.275,0,0,0,.5-.157,10.06,10.06,0,0,0,1.967-1.072,36.238,36.238,0,0,0,4.435-3.737c1.465-1.426,2.872-2.95,4.258-4.553s2.773-3.236,4.042-4.8Z" transform="translate(-111.658 -147.465)" fill="#b55b52"/>
        <path id="Path_32915" data-name="Path 32915" d="M162.935,192.7c-3.078-.846-12.215,10.818-12.215,10.818l8.733,9.746s10.238-9.245,9.835-13.385C168.9,195.551,167.439,193.978,162.935,192.7Z" transform="translate(-111.911 -147.509)" fill="#ffb224"/>
        <path id="Path_32916" data-name="Path 32916" d="M144.335,189.9l-.344-6.127-5.9,4.858s.895,4.75,3.875,5.694l1.839-2.587A2.951,2.951,0,0,0,144.335,189.9Z" transform="translate(-111.702 -147.362)" fill="#b55b52"/>
        <path id="Path_32917" data-name="Path 32917" d="M140.1,178.63l-4.721,4.347,2.655,5.547,5.911-4.858Z" transform="translate(-111.658 -147.277)" fill="#b55b52"/>
        <path id="Path_32918" data-name="Path 32918" d="M137.7,190.455l-1.367-.492a1.682,1.682,0,0,1-1.062-1.878l2.075-11.035,3.727,1.357-1.151,10.661a1.652,1.652,0,0,1-2.223,1.387Z" transform="translate(-111.655 -147.251)" fill="#263238"/>
        <path id="Path_32919" data-name="Path 32919" d="M147.639,176.341c.236-.639.462-1.269.669-1.9a10.976,10.976,0,0,0-3.295-3.383c-.492,1.21-.983,2.478-1.465,3.786s-.915,2.6-1.308,3.845a11.055,11.055,0,0,0,4.7-.472C147.177,177.6,147.413,176.98,147.639,176.341Z" transform="translate(-111.771 -147.152)" fill="#263238"/>
        <path id="Path_32920" data-name="Path 32920" d="M144.98,175.365a23.391,23.391,0,0,0,1.249-4.74L134,166.17l-3.324,9.136,12.234,4.465A23.5,23.5,0,0,0,144.98,175.365Z" transform="translate(-111.58 -147.071)" fill="#ffb224"/>
        <path id="Path_32921" data-name="Path 32921" d="M144.98,175.365a23.391,23.391,0,0,0,1.249-4.74L134,166.17l-3.324,9.136,12.234,4.465A23.5,23.5,0,0,0,144.98,175.365Z" transform="translate(-111.58 -147.071)" fill="#fff" opacity="0.6"/>
        <path id="Path_32922" data-name="Path 32922" d="M136.86,166.238c-.551-.207-13.769-13.769-15.244-14.349s-5.045,4.809-7.681,12.048-3.462,13.572-1.859,14.162,20.338-1.387,20.9-1.19,2.055-1.967,3.127-4.917S137.558,166.474,136.86,166.238Z" transform="translate(-111.259 -146.834)" fill="#ffb224"/>
        <path id="Path_32923" data-name="Path 32923" d="M136.86,166.238c-.551-.207-13.769-13.769-15.244-14.349s-5.045,4.809-7.681,12.048-3.462,13.572-1.859,14.162,20.338-1.387,20.9-1.19,2.055-1.967,3.127-4.917S137.558,166.474,136.86,166.238Z" transform="translate(-111.259 -146.834)" fill="#fff" opacity="0.4"/>
        <path id="Path_32924" data-name="Path 32924" d="M119.757,166.051c-2.636,7.238-6.078,12.628-7.681,12.048s-.777-6.884,1.859-14.162,6.078-12.628,7.681-12.048S122.393,158.823,119.757,166.051Z" transform="translate(-111.259 -146.834)" fill="#ffb224"/>
        <path id="Path_32925" data-name="Path 32925" d="M115.992,164.822c-.177.482-.344.983-.5,1.426a11.8,11.8,0,0,0,3.275,2.832c.374-.9.747-1.859,1.111-2.842s.679-1.967.983-2.891a11.8,11.8,0,0,0-4.327.069A6.182,6.182,0,0,0,115.992,164.822Z" transform="translate(-111.329 -147.022)" fill="#263238"/>
        <path id="Path_32926" data-name="Path 32926" d="M115.992,164.822c-.177.482-.344.983-.5,1.426a11.8,11.8,0,0,0,3.275,2.832c.374-.9.747-1.859,1.111-2.842s.679-1.967.983-2.891a11.8,11.8,0,0,0-4.327.069A6.182,6.182,0,0,0,115.992,164.822Z" transform="translate(-111.329 -147.022)" fill="#fff" opacity="0.7"/>
        <path id="Path_32927" data-name="Path 32927" d="M160.484,199.62c.452,6.54-1.072,10.435-2.154,12.313l1.249,1.387s5.773-5.212,8.487-9.559C165.018,199.236,159.972,192.745,160.484,199.62Z" transform="translate(-112.037 -147.574)" opacity="0.2"/>
        <circle id="Ellipse_44" data-name="Ellipse 44" cx="7.425" cy="7.425" r="7.425" transform="translate(75.404)" fill="#263238"/>
        <path id="Path_32928" data-name="Path 32928" d="M194.513,157.662A4.671,4.671,0,1,1,189.841,153a4.671,4.671,0,0,1,4.672,4.662Z" transform="translate(-112.481 -146.853)" fill="#ffb224"/>
        <path id="Path_32929" data-name="Path 32929" d="M174.675,151.818s-9.835-.806-9.835,16.109c0,11.585,5.625,16.945,12.52,13.051,0,0,15.2-1.249,16.955-15.165S185.306,146.713,174.675,151.818Z" transform="translate(-112.145 -146.802)" fill="#263238"/>
        <path id="Path_32930" data-name="Path 32930" d="M161.09,193.1s-3.491,1.515,6.884,45.033l30.488-2.213c-1.416-12.372-1.967-20.014,2.095-45.908a90.582,90.582,0,0,0-13.07-.767,97.987,97.987,0,0,0-13.846.983C167.729,191.226,161.09,193.1,161.09,193.1Z" transform="translate(-112.073 -147.452)" fill="#ffb224"/>
        <path id="Path_32931" data-name="Path 32931" d="M185.171,173.49c-.551,4.524-.826,12.785,2.508,15.49,0,0-.885,4.6-9.166,5.212-9.1.659-4.681-4.209-4.681-4.209,4.917-1.544,4.485-5.222,3.373-8.615Z" transform="translate(-112.276 -147.192)" fill="#b55b52"/>
        <path id="Path_32932" data-name="Path 32932" d="M182,176.76l-4.721,4.662a14.536,14.536,0,0,1,.61,2.419c1.878-.413,4.327-2.685,4.386-4.681a6.649,6.649,0,0,0-.275-2.4Z" transform="translate(-112.35 -147.246)" opacity="0.2"/>
        <path id="Path_32933" data-name="Path 32933" d="M190.186,165.638c-1.7,7.268-2.272,10.385-6.629,13.523-6.55,4.721-15.106,1.033-15.608-6.6-.452-6.884,2.409-17.6,10.11-19.306a10.189,10.189,0,0,1,12.126,12.382Z" transform="translate(-112.195 -146.853)" fill="#b55b52"/>
        <path id="Path_32934" data-name="Path 32934" d="M177.786,165.78a1.051,1.051,0,0,1-.885.983c-.384,0-.629-.61-.531-1.21a1.059,1.059,0,0,1,.895-.983C177.648,164.57,177.894,165.18,177.786,165.78Z" transform="translate(-112.335 -147.045)" fill="#263238"/>
        <path id="Path_32935" data-name="Path 32935" d="M170.916,164.61c-.108.59-.5.983-.895.983s-.629-.6-.521-1.2.5-.983.895-.983S170.975,163.99,170.916,164.61Z" transform="translate(-112.221 -147.025)" fill="#263238"/>
        <path id="Path_32936" data-name="Path 32936" d="M170.557,163.459l-1.367-.669S169.731,164.039,170.557,163.459Z" transform="translate(-112.217 -147.015)" fill="#263238"/>
        <path id="Path_32937" data-name="Path 32937" d="M173.313,166.08a16.239,16.239,0,0,1-2.783,3.462,2.626,2.626,0,0,0,2.065.757Z" transform="translate(-112.239 -147.069)" fill="#a02724"/>
        <path id="Path_32938" data-name="Path 32938" d="M191.325,172.986A5.517,5.517,0,0,1,188,175.513c-1.849.472-2.734-1.2-2.183-2.95.492-1.554,2.055-3.668,3.934-3.383a2.459,2.459,0,0,1,1.574,3.806Z" transform="translate(-112.489 -147.12)" fill="#b55b52"/>
        <path id="Path_32939" data-name="Path 32939" d="M180.758,164.816a.354.354,0,0,1-.334-.256,4.209,4.209,0,0,0-2.518-2.252.358.358,0,1,1,.226-.679,4.917,4.917,0,0,1,2.95,2.724.354.354,0,0,1-.236.443A.246.246,0,0,1,180.758,164.816Z" transform="translate(-112.357 -146.996)" fill="#263238"/>
        <path id="Path_32940" data-name="Path 32940" d="M169.4,161.08a.364.364,0,0,1-.167-.669,3.531,3.531,0,0,1,3.245-.216.358.358,0,1,1-.325.639h0a2.783,2.783,0,0,0-2.567.2A.4.4,0,0,1,169.4,161.08Z" transform="translate(-112.215 -146.967)" fill="#263238"/>
        <path id="Path_32941" data-name="Path 32941" d="M177.427,164.629l-1.367-.659S176.611,165.219,177.427,164.629Z" transform="translate(-112.33 -147.035)" fill="#263238"/>
        <path id="Path_32942" data-name="Path 32942" d="M173.23,172.246a39.589,39.589,0,0,1,7.6-.826c-.58,1.721-1.741,3.157-4.622,3.265a2.626,2.626,0,0,1-2.98-2.439Z" transform="translate(-112.283 -147.158)" fill="#263238"/>
        <path id="Path_32943" data-name="Path 32943" d="M177.5,173.33a5.212,5.212,0,0,0-3.088.983,3.059,3.059,0,0,0,1.819.423,5.212,5.212,0,0,0,3.088-.983A2.95,2.95,0,0,0,177.5,173.33Z" transform="translate(-112.303 -147.189)" fill="#a02724"/>
        <path id="Path_32944" data-name="Path 32944" d="M173.49,172.187a1.18,1.18,0,0,0,.924.8,30.262,30.262,0,0,0,4.917-.669,1.574,1.574,0,0,0,1.229-.885,45.673,45.673,0,0,0-7.071.757Z" transform="translate(-112.288 -147.158)" fill="#fff"/>
        <path id="Path_32945" data-name="Path 32945" d="M169.24,160.287a13.769,13.769,0,0,0,5.645-4.416s0,5.232,2.134,4.829-1.072-4.839-1.072-4.839,4.917,2.183,6.6,6.452,3.6,8.93,7.386,7.769,2.95-13.257-2.626-16.276l-7.868-1.416-2.321.344a8.713,8.713,0,0,0-3.393,1.239h0a8.851,8.851,0,0,0-3.5,4.042Z" transform="translate(-112.217 -146.843)" fill="#263238"/>
        <path id="Path_32946" data-name="Path 32946" d="M187.816,161.051c-.364-.767-2.1-.7-3.934.148s-1.859,1.642-1.495,2.409.983,1.21,2.813.364S188.18,161.818,187.816,161.051Zm-4.219,1.967c-.256-.551-.207-1.111,1.072-1.721s2.528-.649,2.783-.1-.561,1.485-1.839,2.085-1.751.315-2.016-.236Z" transform="translate(-112.432 -146.978)" fill="#ffb224"/>
        <path id="Path_32947" data-name="Path 32947" d="M197.73,200.247l-2.311-1.967-1.711.777a26.072,26.072,0,0,0,4.357,17.162c.147-3.275.452-6.963.983-11.369C198.32,202.194,197.73,200.247,197.73,200.247Z" transform="translate(-112.62 -147.602)" opacity="0.2"/>
        <path id="Path_32948" data-name="Path 32948" d="M229.448,224.421l-1.249.128-.59-5.635a7.455,7.455,0,0,1,6.176-8.055,6.629,6.629,0,0,1,7.7,5.9l.6,5.635-1.249.138-.59-5.645a5.448,5.448,0,0,0-2.085-3.777,5.389,5.389,0,0,0-4.18-1.042,6.186,6.186,0,0,0-5.124,6.688Z" transform="translate(-113.182 -147.808)" fill="#263238"/>
        <path id="Path_32949" data-name="Path 32949" d="M205.77,199c.177.846.413,1.888.639,2.842s.492,1.967.767,2.95c.551,1.967,1.131,3.865,1.829,5.724a38.789,38.789,0,0,0,5.3,10.13l.207.266.1.138-.118-.118a1.525,1.525,0,0,0-.541-.3c-.3-.079-.285,0-.089,0a6.648,6.648,0,0,0,2.036-.433,35.545,35.545,0,0,0,5.271-2.429c3.57-1.967,7.179-4.209,10.671-6.481l2.724,3.206a77.312,77.312,0,0,1-9.953,8.714,37.246,37.246,0,0,1-6.019,3.619,13.877,13.877,0,0,1-4.131,1.239,7.16,7.16,0,0,1-3.255-.354,5.9,5.9,0,0,1-1.888-1.141c-.138-.128-.285-.266-.4-.393l-.157-.167-.315-.344a33.034,33.034,0,0,1-4.229-5.852,48.065,48.065,0,0,1-3.039-6.245,66.406,66.406,0,0,1-2.2-6.5c-.3-1.082-.59-2.173-.846-3.275s-.492-2.173-.688-3.432Z" transform="translate(-112.683 -147.614)" fill="#b55b52"/>
        <path id="Path_32950" data-name="Path 32950" d="M201.09,190c3.118.708,8.576,11.979,8.576,11.979l-12.254,8.31s-4.917-8.468-3.934-12.51C194.481,193.588,197.53,189.212,201.09,190Z" transform="translate(-112.616 -147.463)" fill="#ffb224"/>
        <path id="Path_32951" data-name="Path 32951" d="M231.879,211.374,239,207.44l-1.495,7.5s-4.6,1.465-6.884-.718Z" transform="translate(-113.232 -147.753)" fill="#b55b52"/>
        <path id="Path_32952" data-name="Path 32952" d="M245.36,208.453l-1.593,6.225-6.147.275,1.495-7.5Z" transform="translate(-113.348 -147.753)" fill="#b55b52"/>
        <path id="Path_32953" data-name="Path 32953" d="M248.3,221.434l-1.18-5.547a6.186,6.186,0,0,0-6.934-4.78,5.389,5.389,0,0,0-4.475,6.52l1.18,5.547-1.22.266-1.18-5.547a6.629,6.629,0,0,1,5.5-8.015,7.455,7.455,0,0,1,8.359,5.753l1.18,5.547Z" transform="translate(-113.293 -147.792)" fill="#263238"/>
        <g id="Group_38024" data-name="Group 38024" transform="translate(121.032 62.007)" opacity="0.3">
          <path id="Path_32954" data-name="Path 32954" d="M248.3,221.434l-1.18-5.547a6.186,6.186,0,0,0-6.934-4.78,5.389,5.389,0,0,0-4.475,6.52l1.18,5.547-1.22.266-1.18-5.547a6.629,6.629,0,0,1,5.5-8.015,7.455,7.455,0,0,1,8.359,5.753l1.18,5.547Z" transform="translate(-234.325 -209.799)" fill="#fff"/>
        </g>
        <path id="Path_32955" data-name="Path 32955" d="M255.377,217.86,218.9,223.633l5.616,43.469,5.212-2.095,5.606.384,28.127-4.455Z" transform="translate(-113.038 -147.925)" fill="#ffb224"/>
        <path id="Path_32956" data-name="Path 32956" d="M255.377,217.86,218.9,223.633l5.616,43.469,5.212-2.095,5.606.384,28.127-4.455Z" transform="translate(-113.038 -147.925)" fill="#fff" opacity="0.6"/>
        <path id="Path_32957" data-name="Path 32957" d="M235.334,265.466l-5.606-.384-5.212,2.095L218.9,223.708l8.34-1.318Z" transform="translate(-113.038 -148)" fill="#ffb224"/>
        <path id="Path_32958" data-name="Path 32958" d="M235.334,265.466l-5.606-.384-5.212,2.095L218.9,223.708l8.34-1.318Z" transform="translate(-113.038 -148)" fill="#fff" opacity="0.3"/>
        <rect id="Rectangle_18317" data-name="Rectangle 18317" width="18.243" height="3.108" rx="1.51" transform="translate(122.202 91.282) rotate(-9)" fill="#fff"/>
      </g>
    </g>
  </g>
</svg>
