<svg xmlns="http://www.w3.org/2000/svg" width="322.254" height="442.27" viewBox="0 0 322.254 442.27">
  <g id="Group_40484" data-name="Group 40484" transform="translate(-53.873 -60)">
    <path id="Path_4423" data-name="Path 4423" d="M123.5,0A123.5,123.5,0,0,1,247,123.5v189a123.5,123.5,0,0,1-247,0v-189A123.5,123.5,0,0,1,123.5,0Z" transform="translate(92 60)" fill="#263238"/>
    <g id="Hotel_Booking-pana" data-name="Hotel Booking-pana" transform="translate(53.873 196.545)">
      <g id="freepik--background-complete--inject-80" transform="translate(0 3.429)">
        <rect id="Rectangle_18006" data-name="Rectangle 18006" width="75.495" height="239.257" transform="translate(40.173 59.862)" fill="#f5f5f5"/>
        <rect id="Rectangle_18007" data-name="Rectangle 18007" width="37.744" height="238.602" transform="translate(77.917 59.862)" fill="#ebebeb"/>
        <rect id="Rectangle_18008" data-name="Rectangle 18008" width="26.659" height="23.488" transform="translate(48.793 36.373)" fill="#f5f5f5"/>
        <rect id="Rectangle_18009" data-name="Rectangle 18009" width="6.355" height="23.488" transform="translate(69.097 36.373)" fill="#ebebeb"/>
        <path id="Path_65" data-name="Path 65" d="M71.98,128.188V126.82h83.994v1.368" transform="translate(-38.098 -68.326)" fill="#e0e0e0"/>
        <rect id="Rectangle_18010" data-name="Rectangle 18010" width="6.39" height="13.472" transform="translate(55.077 70.106)" fill="#fafafa"/>
        <path id="Path_66" data-name="Path 66" d="M118.554,169.356c0,.142-8.449.256-18.872.256s-18.872-.114-18.872-.256,8.449-.256,18.872-.256S118.554,169.214,118.554,169.356Z" transform="translate(-40.637 -80.485)" fill="#e0e0e0"/>
        <rect id="Rectangle_18011" data-name="Rectangle 18011" width="6.39" height="13.472" transform="translate(93.148 70.106)" fill="#e0e0e0"/>
        <path id="Path_67" data-name="Path 67" d="M172,169.356c0,.142-8.449.256-18.872.256s-18.872-.114-18.872-.256,8.442-.256,18.872-.256S172,169.214,172,169.356Z" transform="translate(-56.008 -80.485)" fill="#e0e0e0"/>
        <rect id="Rectangle_18012" data-name="Rectangle 18012" width="6.39" height="13.472" transform="translate(93.148 96.857)" fill="#e0e0e0"/>
        <path id="Path_68" data-name="Path 68" d="M172,206.9c0,.143-8.449.256-18.872.256s-18.872-.114-18.872-.256,8.442-.256,18.872-.256S172,206.761,172,206.9Z" transform="translate(-56.008 -91.281)" fill="#e0e0e0"/>
        <rect id="Rectangle_18013" data-name="Rectangle 18013" width="6.39" height="13.472" transform="translate(93.148 124.421)" fill="#e0e0e0"/>
        <path id="Path_69" data-name="Path 69" d="M172,245.594c0,.135-8.449.256-18.872.256s-18.872-.121-18.872-.256,8.442-.264,18.872-.264S172,245.451,172,245.594Z" transform="translate(-56.008 -102.408)" fill="#e0e0e0"/>
        <rect id="Rectangle_18014" data-name="Rectangle 18014" width="6.39" height="13.472" transform="translate(93.148 151.977)" fill="#e0e0e0"/>
        <path id="Path_70" data-name="Path 70" d="M172,284.276c0,.143-8.449.257-18.872.257s-18.872-.114-18.872-.257,8.442-.256,18.872-.256S172,284.134,172,284.276Z" transform="translate(-56.008 -113.535)" fill="#e0e0e0"/>
        <rect id="Rectangle_18015" data-name="Rectangle 18015" width="6.39" height="13.472" transform="translate(93.148 178.749)" fill="#e0e0e0"/>
        <path id="Path_71" data-name="Path 71" d="M172,321.9c0,.143-8.449.257-18.872.257s-18.872-.114-18.872-.257,8.442-.256,18.872-.256S172,321.726,172,321.9Z" transform="translate(-56.008 -124.354)" fill="#e0e0e0"/>
        <rect id="Rectangle_18016" data-name="Rectangle 18016" width="6.39" height="13.472" transform="translate(93.148 205.629)" fill="#e0e0e0"/>
        <rect id="Rectangle_18017" data-name="Rectangle 18017" width="6.39" height="13.472" transform="translate(93.148 232.857)" fill="#e0e0e0"/>
        <path id="Path_72" data-name="Path 72" d="M172,359.587c0,.142-8.449.256-18.872.256s-18.872-.114-18.872-.256,8.442-.257,18.872-.257S172,359.444,172,359.587Z" transform="translate(-56.008 -135.193)" fill="#e0e0e0"/>
        <rect id="Rectangle_18018" data-name="Rectangle 18018" width="6.39" height="13.472" transform="translate(55.077 97.271)" fill="#fafafa"/>
        <path id="Path_73" data-name="Path 73" d="M118.554,207.476c0,.143-8.449.264-18.872.264s-18.872-.121-18.872-.264,8.449-.256,18.872-.256S118.554,207.334,118.554,207.476Z" transform="translate(-40.637 -91.448)" fill="#e0e0e0"/>
        <rect id="Rectangle_18019" data-name="Rectangle 18019" width="6.39" height="13.472" transform="translate(55.077 124.428)" fill="#fafafa"/>
        <path id="Path_74" data-name="Path 74" d="M118.554,245.606c0,.142-8.449.257-18.872.257s-18.872-.114-18.872-.257,8.449-.256,18.872-.256S118.554,245.464,118.554,245.606Z" transform="translate(-40.637 -102.414)" fill="#e0e0e0"/>
        <rect id="Rectangle_18020" data-name="Rectangle 18020" width="6.39" height="13.472" transform="translate(55.077 151.592)" fill="#fafafa"/>
        <path id="Path_75" data-name="Path 75" d="M118.554,283.726c0,.143-8.449.257-18.872.257s-18.872-.114-18.872-.257,8.449-.256,18.872-.256S118.554,283.584,118.554,283.726Z" transform="translate(-40.637 -113.376)" fill="#e0e0e0"/>
        <rect id="Rectangle_18021" data-name="Rectangle 18021" width="6.39" height="13.472" transform="translate(55.077 178.749)" fill="#fafafa"/>
        <path id="Path_76" data-name="Path 76" d="M118.554,321.9c0,.143-8.449.257-18.872.257s-18.872-.114-18.872-.257,8.449-.256,18.872-.256S118.554,321.726,118.554,321.9Z" transform="translate(-40.637 -124.354)" fill="#e0e0e0"/>
        <rect id="Rectangle_18022" data-name="Rectangle 18022" width="6.39" height="13.472" transform="translate(55.077 205.907)" fill="#fafafa"/>
        <path id="Path_77" data-name="Path 77" d="M118.554,359.976c0,.143-8.449.256-18.872.256s-18.872-.114-18.872-.256,8.449-.256,18.872-.256S118.554,359.834,118.554,359.976Z" transform="translate(-40.637 -135.305)" fill="#e0e0e0"/>
        <rect id="Rectangle_18023" data-name="Rectangle 18023" width="6.39" height="13.472" transform="translate(55.077 233.071)" fill="#fafafa"/>
        <path id="Path_78" data-name="Path 78" d="M122.247,408.088H35L34.62,270.2h87.249Z" transform="translate(-27.353 -109.56)" fill="#ebebeb"/>
        <rect id="Rectangle_18024" data-name="Rectangle 18024" width="43.621" height="137.888" transform="translate(50.895 160.64)" fill="#e0e0e0"/>
        <rect id="Rectangle_18025" data-name="Rectangle 18025" width="30.812" height="27.143" transform="translate(17.233 133.497)" fill="#ebebeb"/>
        <rect id="Rectangle_18026" data-name="Rectangle 18026" width="7.345" height="27.143" transform="translate(40.7 133.497)" fill="#e0e0e0"/>
        <rect id="Rectangle_18027" data-name="Rectangle 18027" width="97.067" height="1.582" transform="translate(0 159.058)" fill="#e0e0e0"/>
        <rect id="Rectangle_18028" data-name="Rectangle 18028" width="7.388" height="15.573" transform="translate(24.493 172.48)" fill="#fff"/>
        <path id="Path_79" data-name="Path 79" d="M78.248,317.139c0,.164-9.767.3-21.814.3s-21.814-.135-21.814-.3,9.767-.3,21.814-.3S78.248,316.954,78.248,317.139Z" transform="translate(-27.353 -122.973)" fill="#e0e0e0"/>
        <rect id="Rectangle_18029" data-name="Rectangle 18029" width="7.388" height="15.573" transform="translate(68.492 172.48)" fill="#f5f5f5"/>
        <path id="Path_80" data-name="Path 80" d="M140.011,317.139c0,.164-9.767.3-21.807.3s-21.814-.135-21.814-.3,9.767-.3,21.814-.3S140.011,316.954,140.011,317.139Z" transform="translate(-45.117 -122.973)" fill="#ebebeb"/>
        <rect id="Rectangle_18030" data-name="Rectangle 18030" width="7.388" height="15.573" transform="translate(68.492 203.399)" fill="#f5f5f5"/>
        <path id="Path_81" data-name="Path 81" d="M140.011,360.532c0,.171-9.767.3-21.807.3s-21.814-.128-21.814-.3,9.767-.292,21.814-.292S140.011,360.368,140.011,360.532Z" transform="translate(-45.117 -135.454)" fill="#ebebeb"/>
        <rect id="Rectangle_18031" data-name="Rectangle 18031" width="7.388" height="15.573" transform="translate(68.492 235.244)" fill="#f5f5f5"/>
        <path id="Path_82" data-name="Path 82" d="M140.011,405.239c0,.164-9.767.3-21.807.3s-21.814-.135-21.814-.3,9.767-.3,21.814-.3S140.011,405.075,140.011,405.239Z" transform="translate(-45.117 -148.309)" fill="#ebebeb"/>
        <rect id="Rectangle_18032" data-name="Rectangle 18032" width="7.388" height="15.573" transform="translate(68.492 267.096)" fill="#f5f5f5"/>
        <path id="Path_83" data-name="Path 83" d="M140.011,449.949c0,.164-9.767.292-21.807.292s-21.814-.128-21.814-.292,9.767-.3,21.814-.3S140.011,449.785,140.011,449.949Z" transform="translate(-45.117 -161.167)" fill="#ebebeb"/>
        <rect id="Rectangle_18033" data-name="Rectangle 18033" width="7.388" height="15.573" transform="translate(24.493 203.869)" fill="#fff"/>
        <path id="Path_84" data-name="Path 84" d="M78.248,361.2c0,.164-9.767.292-21.814.292s-21.814-.128-21.814-.292,9.767-.3,21.814-.3S78.248,361.035,78.248,361.2Z" transform="translate(-27.353 -135.644)" fill="#e0e0e0"/>
        <rect id="Rectangle_18034" data-name="Rectangle 18034" width="7.388" height="15.573" transform="translate(24.493 235.258)" fill="#fff"/>
        <path id="Path_85" data-name="Path 85" d="M78.248,405.271c0,.164-9.767.292-21.814.292s-21.814-.128-21.814-.292S44.387,405,56.434,405,78.248,405.107,78.248,405.271Z" transform="translate(-27.353 -148.327)" fill="#e0e0e0"/>
        <rect id="Rectangle_18035" data-name="Rectangle 18035" width="7.388" height="15.573" transform="translate(24.493 266.647)" fill="#fff"/>
        <path id="Path_86" data-name="Path 86" d="M78.248,449.306c0,.171-9.767.3-21.814.3s-21.814-.128-21.814-.3S44.387,449,56.434,449,78.248,449.143,78.248,449.306Z" transform="translate(-27.353 -160.98)" fill="#e0e0e0"/>
        <rect id="Rectangle_18036" data-name="Rectangle 18036" width="86.558" height="114.164" transform="translate(175.169 184.477)" fill="#ebebeb"/>
        <rect id="Rectangle_18037" data-name="Rectangle 18037" width="40.586" height="114.164" transform="translate(221.134 184.477)" fill="#e0e0e0"/>
        <rect id="Rectangle_18038" data-name="Rectangle 18038" width="7.78" height="18.907" transform="translate(193.314 199.929)" fill="#f5f5f5"/>
        <rect id="Rectangle_18039" data-name="Rectangle 18039" width="7.78" height="18.907" transform="translate(193.314 273.935)" fill="#f5f5f5"/>
        <path id="Path_87" data-name="Path 87" d="M316.265,362.155c0,.214-10.287.385-22.983.385s-22.983-.171-22.983-.385,10.287-.385,22.983-.385S316.265,361.934,316.265,362.155Z" transform="translate(-95.131 -135.894)" fill="#f5f5f5"/>
        <rect id="Rectangle_18040" data-name="Rectangle 18040" width="7.78" height="18.907" transform="translate(193.314 237.217)" fill="#f5f5f5"/>
        <path id="Path_88" data-name="Path 88" d="M316.265,414.485c0,.214-10.287.385-22.983.385s-22.983-.171-22.983-.385,10.287-.385,22.983-.385S316.265,414.278,316.265,414.485Z" transform="translate(-95.131 -150.944)" fill="#f5f5f5"/>
        <rect id="Rectangle_18041" data-name="Rectangle 18041" width="7.78" height="18.907" transform="translate(229.754 199.929)" fill="#f5f5f5"/>
        <rect id="Rectangle_18042" data-name="Rectangle 18042" width="7.78" height="18.907" transform="translate(246.638 199.929)" fill="#f5f5f5"/>
        <rect id="Rectangle_18043" data-name="Rectangle 18043" width="7.78" height="18.907" transform="translate(229.754 235.814)" fill="#f5f5f5"/>
        <rect id="Rectangle_18044" data-name="Rectangle 18044" width="7.78" height="18.907" transform="translate(246.638 235.814)" fill="#f5f5f5"/>
        <rect id="Rectangle_18045" data-name="Rectangle 18045" width="7.78" height="18.907" transform="translate(229.754 271.691)" fill="#f5f5f5"/>
        <rect id="Rectangle_18046" data-name="Rectangle 18046" width="7.78" height="18.907" transform="translate(246.638 271.691)" fill="#f5f5f5"/>
        <rect id="Rectangle_18047" data-name="Rectangle 18047" width="99.567" height="4.118" transform="translate(168.657 180.502)" fill="#e0e0e0"/>
        <path id="Path_89" data-name="Path 89" d="M357.756,304.245c0,.214-19.349.385-43.208.385s-43.208-.171-43.208-.385,19.342-.385,43.208-.385S357.756,304.031,357.756,304.245Z" transform="translate(-95.43 -119.24)" fill="#ebebeb"/>
        <path id="Path_90" data-name="Path 90" d="M368.6,65.212c.42-3.049-3.883-5.557-7.124-5.813-1.539-.128-3.142.107-4.6-.4-3.163-1.1-4.424-5.194-7.509-6.49-2.308-.976-4.987-.107-7.2,1.019s-4.445,2.543-6.946,2.7c-2.173.142-4.538-.663-6.412.4-1.425.791-2.137,2.422-3.462,3.384a8.282,8.282,0,0,1-4.531,1.232,12.9,12.9,0,0,0-4.673.762,3.688,3.688,0,0,0-2.337,3.747Z" transform="translate(-107.628 -46.834)" fill="#ebebeb"/>
        <path id="Path_91" data-name="Path 91" d="M443.41,112.121c.634-4.581-5.835-8.35-10.686-8.741-2.315-.192-4.723.164-6.918-.6-4.752-1.66-6.654-7.837-11.292-9.76-3.469-1.425-7.466-.157-10.829,1.532S397,98.378,393.249,98.614c-3.27.214-6.818-1-9.682.6-2.137,1.19-3.241,3.64-5.208,5.094s-4.431,1.717-6.811,1.845-4.852.157-7.024,1.147-3.961,3.291-3.512,5.635Z" transform="translate(-121.199 -58.429)" fill="#f5f5f5"/>
        <path id="Path_92" data-name="Path 92" d="M79.159,54.77c.321-2.33-2.964-4.239-5.436-4.438a14.026,14.026,0,0,1-3.512-.306c-2.415-.841-3.384-3.968-5.742-4.987-1.767-.748-3.79-.085-5.5.777s-3.377,1.952-5.315,2.094c-1.66.107-3.462-.513-4.916.3-1.083.606-1.653,1.852-2.65,2.593a6.369,6.369,0,0,1-3.462.94,9.853,9.853,0,0,0-3.562.577,2.818,2.818,0,0,0-1.788,2.85Z" transform="translate(-28.107 -44.714)" fill="#f5f5f5"/>
      </g>
      <g id="freepik--Floor--inject-80" transform="translate(8.122 302.292)">
        <path id="Path_93" data-name="Path 93" d="M345.264,464.405c0,.107-69.275.185-154.715.185s-154.729-.078-154.729-.185,69.261-.185,154.729-.185S345.264,464.306,345.264,464.405Z" transform="translate(-35.82 -464.22)" fill="#263238"/>
      </g>
      <g id="freepik--Device--inject-80" transform="translate(72.937 0)">
        <path id="Path_94" data-name="Path 94" d="M251.957,342.377l-102.78-.057A22.391,22.391,0,0,1,126.8,319.95l.05-257.666A22.384,22.384,0,0,1,149.255,39.9l102.78.057A22.384,22.384,0,0,1,274.412,62.32l-.05,257.673A22.384,22.384,0,0,1,251.957,342.377Z" transform="translate(-126.8 -39.9)" fill="#263238"/>
        <path id="Path_95" data-name="Path 95" d="M255.876,52.673H235.929a4.944,4.944,0,0,0-4.837,5.051v3.619a4.944,4.944,0,0,1-4.844,5.051H187.406a4.987,4.987,0,0,1-4.837-5.058V57.688a4.987,4.987,0,0,0-4.837-5.058H153.3A15.673,15.673,0,0,0,137.63,68.3l-.05,251.482a15.673,15.673,0,0,0,15.673,15.673l102.588.057a15.673,15.673,0,0,0,15.673-15.673l.05-251.482a15.673,15.673,0,0,0-15.687-15.687Z" transform="translate(-129.9 -43.561)" fill="#fff"/>
        <path id="Path_96" data-name="Path 96" d="M255.778,52.6h.541a10.3,10.3,0,0,1,1.589.121,14.7,14.7,0,0,1,5.877,2.03,15.116,15.116,0,0,1,3.562,2.9,15.767,15.767,0,0,1,2.985,4.681,16.236,16.236,0,0,1,1.176,6.369v7.388c0,20.9,0,51.123.05,88.468s0,81.828,0,131.213v23.51a16.762,16.762,0,0,1-.6,4.78,15.842,15.842,0,0,1-2,4.417,16.84,16.84,0,0,1-3.27,3.626,15.815,15.815,0,0,1-9,3.548c-3.284.093-6.547,0-9.853.043h-92.5a16.534,16.534,0,0,1-10.216-2.85,16.008,16.008,0,0,1-6.212-8.592,17.154,17.154,0,0,1-.655-5.3V174.17c0-24.7,0-48.159.036-70.123V68.491c0-.634.057-1.268.093-1.9a9.136,9.136,0,0,1,.321-1.867,15.911,15.911,0,0,1,16.079-12.346h23.467a4.987,4.987,0,0,1,3.085.862,5.2,5.2,0,0,1,1.924,2.515,8.386,8.386,0,0,1,.313,3.1v1.525a11.453,11.453,0,0,0,.05,1.5,4.987,4.987,0,0,0,1.168,2.629,4.609,4.609,0,0,0,2.444,1.517,5.157,5.157,0,0,0,1.425.142h7.124l20.66.036H226.69a4.545,4.545,0,0,0,1.916-.712,4.987,4.987,0,0,0,2.2-3.156,8.963,8.963,0,0,0,.121-1.9V58.574a10.369,10.369,0,0,1,.085-1.824,5.249,5.249,0,0,1,.591-1.681,4.93,4.93,0,0,1,2.5-2.216,7.73,7.73,0,0,1,3.113-.328h0a7.609,7.609,0,0,0-3.056.335A4.766,4.766,0,0,0,231.741,55a5.165,5.165,0,0,0-.57,1.631,10.732,10.732,0,0,0-.078,1.8v1.881a8.548,8.548,0,0,1-.121,1.938,5.151,5.151,0,0,1-2.265,3.277,4.923,4.923,0,0,1-1.995.712c-.712.064-1.425,0-2.137,0H187.65a5.457,5.457,0,0,1-1.475-.143,4.9,4.9,0,0,1-2.536-1.567,5.251,5.251,0,0,1-1.24-2.764,12.279,12.279,0,0,1-.05-1.532V58.887a8.115,8.115,0,0,0-.306-3,4.944,4.944,0,0,0-1.81-2.358,4.738,4.738,0,0,0-2.928-.805H153.838a15.573,15.573,0,0,0-12.5,5.535,15.751,15.751,0,0,0-3.227,6.5c-.157.6-.2,1.218-.306,1.831a11.622,11.622,0,0,0-.085,1.867V318.919a16.7,16.7,0,0,0,.641,5.179,15.551,15.551,0,0,0,6.041,8.342,16.065,16.065,0,0,0,9.974,2.743h92.479c3.291,0,6.59.05,9.831-.043a15.424,15.424,0,0,0,8.813-3.42,16.427,16.427,0,0,0,3.177-3.526,15.339,15.339,0,0,0,1.952-4.275,16.387,16.387,0,0,0,.591-4.666v-23.5c0-49.385.05-93.861.071-131.212s.071-67.573.093-88.468V68.683a16.115,16.115,0,0,0-1.14-6.319,15.812,15.812,0,0,0-12.332-9.646,13.3,13.3,0,0,0-1.582-.142Z" transform="translate(-129.801 -43.485)" fill="#263238"/>
        <path id="Path_97" data-name="Path 97" d="M303.217,88.308c0,.071-2.593.142-5.792.171s-5.785,0-5.785-.078,2.586-.142,5.785-.164S303.217,88.244,303.217,88.308Z" transform="translate(-174.206 -53.799)" fill="#263238"/>
        <path id="Path_98" data-name="Path 98" d="M303.247,92.464c0,.064-2.586.142-5.785.171s-5.792,0-5.792-.078,2.593-.142,5.792-.171S303.247,92.393,303.247,92.464Z" transform="translate(-174.214 -54.991)" fill="#263238"/>
        <path id="Path_99" data-name="Path 99" d="M303.327,96.624c0,.064-2.593.142-5.792.164s-5.785,0-5.785-.071,2.586-.142,5.785-.171S303.327,96.553,303.327,96.624Z" transform="translate(-174.237 -56.188)" fill="#263238"/>
        <path id="Path_100" data-name="Path 100" d="M160.09,97.526H161l2.465-.057-.064.064V94.712a.955.955,0,0,1,.834-.762h1.183a.962.962,0,0,1,.805.955v2.615l-.114-.114h3.12l-.121.121v-4.88a1.012,1.012,0,0,0-.435-.712l-1.361-1.346L166,89.291l-.641-.627a1.425,1.425,0,0,0-.641-.484.833.833,0,0,0-.712.135c-.192.164-.392.392-.584.577L162.3,90.017c-.712.712-1.425,1.425-1.966,2.03a2.137,2.137,0,0,0-.157,1.161c0,.392,0,.755,0,1.1v3.306a2.285,2.285,0,0,1,0-.37c0-.306,0-.67-.036-1.118s0-1.1,0-1.781V92.611a1.254,1.254,0,0,1,.178-.648c.577-.712,1.261-1.332,1.973-2.087l1.111-1.14c.2-.192.363-.392.6-.591a1.047,1.047,0,0,1,.9-.178,1.624,1.624,0,0,1,.748.534l.641.627,1.318,1.289,1.368,1.346a2.6,2.6,0,0,1,.349.378,1.019,1.019,0,0,1,.164.52v5h-3.348V94.933a.762.762,0,0,0-.634-.755h-1.133a.748.748,0,0,0-.67.606V97.64h-3.234a1.034,1.034,0,0,1-.385-.114Z" transform="translate(-136.374 -53.713)" fill="#263238"/>
        <path id="Path_101" data-name="Path 101" d="M220.931,110.239c0,.826-.655,1.3-1.909,1.3H216.55V106.77h2.33c1.2,0,1.81.5,1.81,1.24a1.147,1.147,0,0,1-.634,1.054,1.175,1.175,0,0,1,.876,1.175Zm-3.284-2.636v1.126h1.1c.541,0,.834-.192.834-.57s-.292-.556-.834-.556Zm2.137,2.522c0-.4-.306-.591-.883-.591h-1.289v1.183H218.9c.613,0,.919-.178.919-.591Z" transform="translate(-152.611 -59.131)" fill="#263238"/>
        <path id="Path_102" data-name="Path 102" d="M223.388,110.029a2.023,2.023,0,1,1,2.023,1.888,1.9,1.9,0,0,1-2.023-1.888Zm2.956,0a.933.933,0,1,0-.244.711.94.94,0,0,0,.244-.711Z" transform="translate(-154.576 -59.447)" fill="#263238"/>
        <path id="Path_103" data-name="Path 103" d="M229.668,110.029a2.023,2.023,0,1,1,2.016,1.888,1.888,1.888,0,0,1-2.016-1.888Zm2.957,0a.933.933,0,1,0-.246.714A.94.94,0,0,0,232.625,110.029Z" transform="translate(-156.382 -59.447)" fill="#263238"/>
        <path id="Path_104" data-name="Path 104" d="M237.9,109.986l-.513.506v.933H236.33V106.36h1.062v2.85l1.56-1.475h1.268l-1.532,1.553,1.667,2.137h-1.29Z" transform="translate(-158.299 -59.013)" fill="#263238"/>
        <path id="Path_105" data-name="Path 105" d="M242.43,106.527a.613.613,0,0,1,.663-.6.6.6,0,0,1,.663.577.663.663,0,0,1-1.325,0Zm.128,1.1h1.069V111.3h-1.069Z" transform="translate(-160.053 -58.888)" fill="#263238"/>
        <path id="Path_106" data-name="Path 106" d="M249.254,109.862V112h-1.069v-1.938c0-.591-.271-.862-.712-.862a.883.883,0,0,0-.9.955v1.81H245.5V108.3h1.019v.427a1.6,1.6,0,0,1,1.211-.484,1.425,1.425,0,0,1,1.525,1.624Z" transform="translate(-160.936 -59.552)" fill="#263238"/>
        <path id="Path_107" data-name="Path 107" d="M255.881,108.29v3.056c0,1.368-.712,1.995-2.066,1.995a3.042,3.042,0,0,1-1.8-.506l.427-.762a2.215,2.215,0,0,0,1.3.413c.712,0,1.076-.342,1.076-1v-.157a1.51,1.51,0,0,1-1.161.456,1.781,1.781,0,1,1,0-3.562,1.475,1.475,0,0,1,1.218.527v-.47Zm-1.069,1.717a.969.969,0,1,0-.962.9.89.89,0,0,0,.962-.9Z" transform="translate(-162.768 -59.547)" fill="#263238"/>
        <rect id="Rectangle_18048" data-name="Rectangle 18048" width="44.084" height="39.774" rx="2.55" transform="translate(21.023 113.737)" fill="#263238"/>
        <path id="Path_108" data-name="Path 108" d="M235.038,204.851v3.925h-.912v-1.61h-1.781v1.61h-.9v-3.925h.9v1.525h1.781V204.83Z" transform="translate(-156.893 -87.331)" fill="#263238"/>
        <path id="Path_109" data-name="Path 109" d="M237.4,207.537a1.66,1.66,0,1,1,1.66,1.553,1.553,1.553,0,0,1-1.66-1.553Zm2.422,0a.769.769,0,1,0-.762.834.755.755,0,0,0,.762-.834Z" transform="translate(-158.605 -87.602)" fill="#263238"/>
        <path id="Path_110" data-name="Path 110" d="M244.668,208.742a1.2,1.2,0,0,1-.712.192.99.99,0,0,1-1.126-1.083v-1.24h-.47v-.67h.456v-.712h.876v.712h.748v.67h-.748v1.232a.349.349,0,0,0,.37.4.605.605,0,0,0,.356-.114Z" transform="translate(-160.033 -87.447)" fill="#263238"/>
        <path id="Path_111" data-name="Path 111" d="M249.01,207.872h-2.287a.812.812,0,0,0,.862.606,1.061,1.061,0,0,0,.762-.292l.463.506a1.767,1.767,0,0,1-2.971-1.069,1.539,1.539,0,0,1,1.61-1.553,1.5,1.5,0,0,1,1.574,1.567C249.024,207.7,249.01,207.793,249.01,207.872Zm-2.3-.513H248.2a.755.755,0,0,0-1.489,0Z" transform="translate(-161.034 -87.687)" fill="#263238"/>
        <path id="Path_112" data-name="Path 112" d="M251.13,204.53h.876v4.161h-.876Z" transform="translate(-162.555 -87.245)" fill="#263238"/>
        <path id="Path_113" data-name="Path 113" d="M258.247,205.83l.328.655.72.107-.52.513.121.72-.648-.342-.648.342.128-.72-.527-.513.727-.107Z" transform="translate(-164.301 -87.619)" fill="#076f82"/>
        <path id="Path_114" data-name="Path 114" d="M262.207,205.83l.321.655.727.107-.52.513.121.72-.648-.342-.648.342.128-.72-.527-.513.727-.107Z" transform="translate(-165.44 -87.619)" fill="#076f82"/>
        <path id="Path_115" data-name="Path 115" d="M266.167,205.83l.328.655.72.107-.52.513.121.72-.648-.342-.648.342.128-.72-.527-.513.727-.107Z" transform="translate(-166.579 -87.619)" fill="#076f82"/>
        <path id="Path_116" data-name="Path 116" d="M270.127,205.83l.328.655.72.107-.52.513.121.72-.648-.342-.648.342.128-.72-.527-.513.727-.107Z" transform="translate(-167.718 -87.619)" fill="#076f82"/>
        <path id="Path_117" data-name="Path 117" d="M274.087,205.83l.328.655.72.107-.52.513.121.72-.648-.342-.648.342.128-.72-.527-.513.727-.107Z" transform="translate(-168.856 -87.619)" fill="#076f82"/>
        <path id="Path_118" data-name="Path 118" d="M262.96,215.815c0,.107-6.832.185-15.26.185s-15.26-.078-15.26-.185,6.832-.185,15.26-.185S262.96,215.716,262.96,215.815Z" transform="translate(-157.18 -90.437)" fill="#e0e0e0"/>
        <path id="Path_119" data-name="Path 119" d="M286.721,223.085c0,.1-12.36.185-27.592.185s-27.6-.085-27.6-.185,12.353-.185,27.6-.185S286.721,222.971,286.721,223.085Z" transform="translate(-156.919 -92.528)" fill="#263238"/>
        <path id="Path_120" data-name="Path 120" d="M259.422,230.525c0,.1-6.07.185-13.536.185s-13.536-.085-13.536-.185,6.063-.185,13.536-.185S259.422,230.418,259.422,230.525Z" transform="translate(-157.155 -94.668)" fill="#263238"/>
        <rect id="Rectangle_18049" data-name="Rectangle 18049" width="32.201" height="10.245" rx="5.122" transform="translate(74.113 141.521)" fill="#263238"/>
        <path id="Path_121" data-name="Path 121" d="M248.853,245.493c0,.492-.378.777-1.111.777H246.36v-2.9h1.3c.663,0,1.04.285,1.04.755a.741.741,0,0,0,.15,1.368Zm-2.08-1.781v.926h.855c.42,0,.663-.157.663-.463s-.242-.463-.663-.463Zm1.66,1.745c0-.335-.242-.484-.712-.484h-.955v.983h.955C248.191,245.956,248.433,245.792,248.433,245.457Z" transform="translate(-161.184 -98.415)" fill="#fff"/>
        <path id="Path_122" data-name="Path 122" d="M250.39,245.428a1.147,1.147,0,1,1,1.147,1.126,1.09,1.09,0,0,1-1.147-1.126Zm1.881,0a.737.737,0,1,0-.737.737A.737.737,0,0,0,252.27,245.428Z" transform="translate(-162.342 -98.671)" fill="#fff"/>
        <path id="Path_123" data-name="Path 123" d="M254.09,245.434a1.14,1.14,0,1,1,1.14,1.126,1.09,1.09,0,0,1-1.14-1.126Zm1.874,0a.737.737,0,1,0-.737.737A.737.737,0,0,0,255.963,245.434Z" transform="translate(-163.406 -98.677)" fill="#fff"/>
        <path id="Path_124" data-name="Path 124" d="M258.915,245.172l-.456.42v.6h-.4v-3.07h.4v1.973l1.2-1.1h.5l-.919.912,1.012,1.282h-.492Z" transform="translate(-164.548 -98.343)" fill="#fff"/>
        <path id="Path_125" data-name="Path 125" d="M188.968,236.2a3.856,3.856,0,0,1,0-.449v-1.254c0-1.118,0-2.7-.043-4.688,0-4.018-.05-9.667-.085-16.314l.171.164H173.7c-.043,0,.349-.349.185-.185h0v22.7l-.15-.15,11.114.078h3.911a1.427,1.427,0,0,1,.292,0,1.687,1.687,0,0,1-.264,0h-3.847l-11.206.078h-.142v-22.69h0c-.164.164.228-.228.192-.185h15.481v.171c-.036,6.69-.064,12.382-.085,16.428,0,1.966-.036,3.562-.05,4.645v1.225A2.794,2.794,0,0,1,188.968,236.2Z" transform="translate(-140.246 -89.766)" fill="#fff"/>
        <path id="Path_126" data-name="Path 126" d="M190.109,209.257a20.414,20.414,0,0,1,.171,3.021v.164h-2.194l-.185-.192h0v-3.17h.15a11.036,11.036,0,0,1,2.023.15,15.13,15.13,0,0,1-2.023.15l.15-.15v3.035h0c.164.171-.228-.221-.185-.178h2.023l-.171.171A25.6,25.6,0,0,1,190.109,209.257Z" transform="translate(-144.371 -88.553)" fill="#fff"/>
        <path id="Path_127" data-name="Path 127" d="M200.827,236.327a1.942,1.942,0,0,1-.363,0h-5.493v-.107c-.043-5.108-.071-13.379-.071-22.7v-.185h6.091v.185c0,6.511-.057,12.232-.078,16.386,0,2-.043,3.619-.057,4.773v1.268a2.978,2.978,0,0,1,0,.427,4.362,4.362,0,0,1,0-.47v-1.311c0-1.161,0-2.793-.05-4.816,0-4.1-.05-9.767-.085-16.229l.185.178h-5.7l.185-.185c0,9.326,0,17.6-.078,22.7l-.107-.114,4.182.15,1.133.05A2.964,2.964,0,0,1,200.827,236.327Z" transform="translate(-146.385 -89.776)" fill="#fff"/>
        <rect id="Rectangle_18050" data-name="Rectangle 18050" width="2.372" height="2.372" transform="translate(35.849 126.568)" fill="#fff"/>
        <rect id="Rectangle_18051" data-name="Rectangle 18051" width="2.372" height="2.372" transform="translate(39.881 126.568)" fill="#fff"/>
        <rect id="Rectangle_18052" data-name="Rectangle 18052" width="2.372" height="2.372" transform="translate(43.906 126.568)" fill="#fff"/>
        <rect id="Rectangle_18053" data-name="Rectangle 18053" width="2.372" height="2.372" transform="translate(35.849 130.65)" fill="#fff"/>
        <rect id="Rectangle_18054" data-name="Rectangle 18054" width="2.372" height="2.372" transform="translate(39.881 130.65)" fill="#fff"/>
        <rect id="Rectangle_18055" data-name="Rectangle 18055" width="2.372" height="2.372" transform="translate(43.906 130.65)" fill="#fff"/>
        <rect id="Rectangle_18056" data-name="Rectangle 18056" width="2.372" height="2.372" transform="translate(35.849 134.732)" fill="#fff"/>
        <rect id="Rectangle_18057" data-name="Rectangle 18057" width="2.372" height="2.372" transform="translate(39.881 134.732)" fill="#fff"/>
        <rect id="Rectangle_18058" data-name="Rectangle 18058" width="2.372" height="2.372" transform="translate(43.906 134.732)" fill="#fff"/>
        <rect id="Rectangle_18059" data-name="Rectangle 18059" width="2.372" height="2.372" transform="translate(35.849 138.814)" fill="#fff"/>
        <rect id="Rectangle_18060" data-name="Rectangle 18060" width="2.372" height="2.372" transform="translate(39.881 138.814)" fill="#fff"/>
        <rect id="Rectangle_18061" data-name="Rectangle 18061" width="2.372" height="2.372" transform="translate(43.906 138.814)" fill="#fff"/>
        <rect id="Rectangle_18062" data-name="Rectangle 18062" width="2.372" height="2.372" transform="translate(50.197 126.568)" fill="#fff"/>
        <rect id="Rectangle_18063" data-name="Rectangle 18063" width="2.372" height="2.372" transform="translate(50.197 130.65)" fill="#fff"/>
        <rect id="Rectangle_18064" data-name="Rectangle 18064" width="2.372" height="2.372" transform="translate(50.197 134.732)" fill="#fff"/>
        <rect id="Rectangle_18065" data-name="Rectangle 18065" width="2.372" height="2.372" transform="translate(50.197 138.814)" fill="#fff"/>
        <rect id="Rectangle_18066" data-name="Rectangle 18066" width="2.322" height="3.676" transform="translate(40.152 142.754)" fill="#fff"/>
        <path id="Path_128" data-name="Path 128" d="M197.066,245.365c0,.1-7.366.185-16.457.185s-16.45-.085-16.45-.185,7.366-.185,16.45-.185S197.066,245.266,197.066,245.365Z" transform="translate(-137.544 -98.936)" fill="#fff"/>
        <path id="Path_129" data-name="Path 129" d="M265.091,242.02a4.386,4.386,0,0,0,.869-.128,3.562,3.562,0,0,0,2.052-1.425,3.454,3.454,0,0,0,.6-1.76v-8.036c0-8.642,0-21.137-.064-36.575a4.588,4.588,0,0,0-.128-1.425,3.511,3.511,0,0,0-.648-1.254,3.427,3.427,0,0,0-2.5-1.254H150.534a3.405,3.405,0,0,0-3.2,2.258,5.7,5.7,0,0,0-.2,2.137V238.7a3.427,3.427,0,0,0,2.137,2.9,3.561,3.561,0,0,0,.912.221h10.686l54.243.043,36.547.071,9.974.036h0l-9.974.036-36.575.057-54.243.036h-10.7a4.11,4.11,0,0,1-1.012-.242,3.769,3.769,0,0,1-2.351-3.2V193.383a3.562,3.562,0,0,1,.221-1.126,3.776,3.776,0,0,1,3.562-2.508H265.312A3.726,3.726,0,0,1,268,191.111a3.661,3.661,0,0,1,.712,1.354,4.987,4.987,0,0,1,.135,1.475c0,15.438-.043,27.934-.057,36.575v8.043a3.562,3.562,0,0,1-2.736,3.234,2.764,2.764,0,0,1-.648.093Z" transform="translate(-132.546 -82.995)" fill="#076f82"/>
        <rect id="Rectangle_18067" data-name="Rectangle 18067" width="44.084" height="39.774" rx="2.55" transform="translate(19.72 172.54)" fill="#263238"/>
        <path id="Path_130" data-name="Path 130" d="M233.2,287.4v3.925h-.912v-1.61h-1.781v1.61H229.6V287.4h.912v1.546h1.781V287.4Z" transform="translate(-156.364 -111.077)" fill="#263238"/>
        <path id="Path_131" data-name="Path 131" d="M235.559,290.077a1.66,1.66,0,1,1,1.66,1.553,1.553,1.553,0,0,1-1.66-1.553Zm2.429,0a.33.33,0,1,0,.021,0Z" transform="translate(-158.076 -111.339)" fill="#263238"/>
        <path id="Path_132" data-name="Path 132" d="M242.838,291.282a1.226,1.226,0,0,1-.712.192,1,1,0,0,1-1.133-1.083v-1.24h-.463v-.67h.463v-.712h.876v.712h.755v.67h-.755v1.233a.356.356,0,0,0,.378.4.627.627,0,0,0,.356-.114Z" transform="translate(-159.507 -111.184)" fill="#263238"/>
        <path id="Path_133" data-name="Path 133" d="M247.173,290.412h-2.28a.8.8,0,0,0,.862.606,1.033,1.033,0,0,0,.755-.292l.47.506a1.589,1.589,0,0,1-1.247.485,1.567,1.567,0,0,1-1.724-1.553,1.539,1.539,0,0,1,1.61-1.553,1.489,1.489,0,0,1,1.567,1.567C247.187,290.241,247.18,290.312,247.173,290.412Zm-2.294-.513h1.489a.755.755,0,0,0-1.489,0Z" transform="translate(-160.508 -111.425)" fill="#263238"/>
        <path id="Path_134" data-name="Path 134" d="M249.29,287.07h.876v4.161h-.876Z" transform="translate(-162.026 -110.982)" fill="#263238"/>
        <path id="Path_135" data-name="Path 135" d="M256.417,288.37l.321.655.727.107-.527.513.128.72-.648-.342-.648.342.121-.72-.52-.513.72-.107Z" transform="translate(-163.775 -111.356)" fill="#076f82"/>
        <path id="Path_136" data-name="Path 136" d="M260.377,288.37l.321.655.727.107-.527.513.128.72-.648-.342-.648.342.121-.72-.52-.513.72-.107Z" transform="translate(-164.914 -111.356)" fill="#076f82"/>
        <path id="Path_137" data-name="Path 137" d="M264.337,288.37l.321.655.727.107-.527.513.128.72-.648-.342-.648.342.121-.72-.52-.513.72-.107Z" transform="translate(-166.052 -111.356)" fill="#076f82"/>
        <path id="Path_138" data-name="Path 138" d="M268.3,288.37l.321.655.727.107-.527.513.128.72-.648-.342-.648.342.121-.72-.52-.513.72-.107Z" transform="translate(-167.191 -111.356)" fill="#e0e0e0"/>
        <path id="Path_139" data-name="Path 139" d="M272.257,288.37l.321.655.727.107-.527.513.128.72-.648-.342-.648.342.121-.72-.52-.513.72-.107Z" transform="translate(-168.33 -111.356)" fill="#e0e0e0"/>
        <path id="Path_140" data-name="Path 140" d="M261.123,298.355c0,.107-6.832.185-15.253.185s-15.26-.078-15.26-.185,6.832-.185,15.26-.185S261.123,298.256,261.123,298.355Z" transform="translate(-156.654 -114.175)" fill="#e0e0e0"/>
        <path id="Path_141" data-name="Path 141" d="M284.9,305.625c0,.1-12.353.185-27.592.185s-27.592-.086-27.592-.185,12.353-.185,27.592-.185S284.9,305.518,284.9,305.625Z" transform="translate(-156.398 -116.265)" fill="#263238"/>
        <path id="Path_142" data-name="Path 142" d="M257.582,313.065c0,.1-6.063.185-13.536.185s-13.536-.086-13.536-.185,6.063-.185,13.536-.185S257.582,312.965,257.582,313.065Z" transform="translate(-156.625 -118.405)" fill="#263238"/>
        <path id="Path_143" data-name="Path 143" d="M256.845,331.193a4.137,4.137,0,0,0,.776-.107,4.31,4.31,0,0,0,1.973-.983,4.189,4.189,0,0,0,1.425-3.085V324.8a4.274,4.274,0,0,0-.94-2.208,4.189,4.189,0,0,0-2.223-1.375,5.184,5.184,0,0,0-1.425-.114H233.243a4.118,4.118,0,0,0-4.025,3.313,11.487,11.487,0,0,0-.078,1.866,5.542,5.542,0,0,0,.185,1.8,4.118,4.118,0,0,0,3.883,2.9l12.318.043,8.307.057,2.258.036h.784a.713.713,0,0,1-.2,0h-2.843l-8.307.064-12.325.036a4.467,4.467,0,0,1-4.217-3.135,5.806,5.806,0,0,1-.207-1.909,11.218,11.218,0,0,1,.085-1.938,4.48,4.48,0,0,1,4.381-3.612h23.189a5.8,5.8,0,0,1,1.489.135,4.445,4.445,0,0,1,2.365,1.489,4.5,4.5,0,0,1,.969,2.344c.043.819,0,1.539,0,2.244a4.353,4.353,0,0,1-1.546,3.192,4.2,4.2,0,0,1-2.052.947,3.526,3.526,0,0,1-.584.05A.67.67,0,0,1,256.845,331.193Z" transform="translate(-156.124 -120.632)" fill="#076f82"/>
        <path id="Path_144" data-name="Path 144" d="M246.993,328.026c0,.5-.378.784-1.111.784H244.5v-2.9h1.3c.67,0,1.04.285,1.04.712a.771.771,0,0,0,.157,1.4Zm-2.08-1.781v.933h.848c.42,0,.663-.164.663-.47s-.242-.463-.663-.463Zm1.66,1.753c0-.335-.249-.484-.712-.484h-.955v.962h.955c.484,0,.734-.142.734-.477Z" transform="translate(-160.649 -122.152)" fill="#076f82"/>
        <path id="Path_145" data-name="Path 145" d="M248.56,327.974a1.14,1.14,0,1,1,1.147,1.126,1.09,1.09,0,0,1-1.147-1.126Zm1.881,0a.741.741,0,1,0-.741.741.741.741,0,0,0,.741-.741Z" transform="translate(-161.816 -122.414)" fill="#076f82"/>
        <path id="Path_146" data-name="Path 146" d="M252.25,327.974A1.14,1.14,0,1,1,253.4,329.1a1.09,1.09,0,0,1-1.147-1.126Zm1.881,0a.737.737,0,1,0-.737.737A.737.737,0,0,0,254.131,327.974Z" transform="translate(-162.877 -122.414)" fill="#076f82"/>
        <path id="Path_147" data-name="Path 147" d="M257.078,327.728l-.456.42v.613h-.392V325.69h.392v1.966l1.2-1.09h.484l-.926.9,1.019,1.289H257.9Z" transform="translate(-164.022 -122.089)" fill="#076f82"/>
        <path id="Path_148" data-name="Path 148" d="M187.122,318.759v-1.7c0-1.118,0-2.7-.05-4.688,0-4.018-.05-9.667-.078-16.321l.164.171h-15.31l.185-.178h0v22.7l-.15-.15,11.107.078,3.1.036h.819a1.275,1.275,0,0,1,.285,0,1.519,1.519,0,0,1-.257,0h-.791l-3.063.043-11.2.078h-.15V296.061h0c-.164.164.228-.228.185-.192H187.4v.164c-.036,6.7-.064,12.389-.085,16.428,0,1.973,0,3.562-.043,4.652v1.225A2.8,2.8,0,0,1,187.122,318.759Z" transform="translate(-139.711 -113.512)" fill="#fff"/>
        <path id="Path_149" data-name="Path 149" d="M188.246,291.792a21.555,21.555,0,0,1,.171,3.014v.171h-2.2l-.185-.185h0V291.6h.142a11.285,11.285,0,0,1,2.03.15,15.463,15.463,0,0,1-2.03.15l.15-.15v3.035h0l-.185-.185h2.03l-.171.164A25.542,25.542,0,0,1,188.246,291.792Z" transform="translate(-143.834 -112.285)" fill="#fff"/>
        <path id="Path_150" data-name="Path 150" d="M198.987,318.864a3.164,3.164,0,0,1-.363,0h-5.486v-.107c-.043-5.108-.078-13.386-.078-22.712v-.185h6.091v.178c0,6.519-.064,12.232-.085,16.386,0,2-.036,3.619-.05,4.773v1.268a1.717,1.717,0,0,1,0,.427,4.354,4.354,0,0,1,0-.47v-1.311c0-1.168,0-2.793-.05-4.816,0-4.1-.05-9.767-.085-16.236l.178.185h-5.7l.185-.185c0,9.325,0,17.6-.071,22.712l-.107-.114,4.182.15,1.133.05A2.788,2.788,0,0,1,198.987,318.864Z" transform="translate(-145.855 -113.51)" fill="#fff"/>
        <rect id="Rectangle_18068" data-name="Rectangle 18068" width="2.372" height="2.372" transform="translate(34.545 185.37)" fill="#fff"/>
        <rect id="Rectangle_18069" data-name="Rectangle 18069" width="2.372" height="2.372" transform="translate(38.57 185.37)" fill="#fff"/>
        <rect id="Rectangle_18070" data-name="Rectangle 18070" width="2.372" height="2.372" transform="translate(42.602 185.37)" fill="#fff"/>
        <rect id="Rectangle_18071" data-name="Rectangle 18071" width="2.372" height="2.372" transform="translate(34.545 189.452)" fill="#fff"/>
        <rect id="Rectangle_18072" data-name="Rectangle 18072" width="2.372" height="2.372" transform="translate(38.57 189.452)" fill="#fff"/>
        <rect id="Rectangle_18073" data-name="Rectangle 18073" width="2.372" height="2.372" transform="translate(42.602 189.452)" fill="#fff"/>
        <rect id="Rectangle_18074" data-name="Rectangle 18074" width="2.372" height="2.372" transform="translate(34.545 193.535)" fill="#fff"/>
        <rect id="Rectangle_18075" data-name="Rectangle 18075" width="2.372" height="2.372" transform="translate(38.57 193.535)" fill="#fff"/>
        <rect id="Rectangle_18076" data-name="Rectangle 18076" width="2.372" height="2.372" transform="translate(42.602 193.535)" fill="#fff"/>
        <rect id="Rectangle_18077" data-name="Rectangle 18077" width="2.372" height="2.372" transform="translate(34.545 197.617)" fill="#fff"/>
        <rect id="Rectangle_18078" data-name="Rectangle 18078" width="2.372" height="2.372" transform="translate(38.57 197.617)" fill="#fff"/>
        <rect id="Rectangle_18079" data-name="Rectangle 18079" width="2.372" height="2.372" transform="translate(42.602 197.617)" fill="#fff"/>
        <rect id="Rectangle_18080" data-name="Rectangle 18080" width="2.372" height="2.372" transform="translate(48.886 185.37)" fill="#fff"/>
        <rect id="Rectangle_18081" data-name="Rectangle 18081" width="2.372" height="2.372" transform="translate(48.886 189.452)" fill="#fff"/>
        <rect id="Rectangle_18082" data-name="Rectangle 18082" width="2.372" height="2.372" transform="translate(48.886 193.535)" fill="#fff"/>
        <rect id="Rectangle_18083" data-name="Rectangle 18083" width="2.372" height="2.372" transform="translate(48.886 197.617)" fill="#fff"/>
        <rect id="Rectangle_18084" data-name="Rectangle 18084" width="2.322" height="3.676" transform="translate(38.848 201.556)" fill="#fff"/>
        <path id="Path_151" data-name="Path 151" d="M195.234,327.925c0,.1-7.373.185-16.457.185s-16.457-.086-16.457-.185,7.366-.185,16.457-.185S195.234,327.8,195.234,327.925Z" transform="translate(-137.015 -122.679)" fill="#fff"/>
        <rect id="Rectangle_18085" data-name="Rectangle 18085" width="44.084" height="39.774" rx="2.55" transform="translate(20.261 230.951)" fill="#263238"/>
        <path id="Path_152" data-name="Path 152" d="M233.965,369.39v3.925h-.912v-1.61h-1.781v1.61h-.912V369.39h.912v1.546h1.781V369.39Z" transform="translate(-156.582 -134.657)" fill="#263238"/>
        <path id="Path_153" data-name="Path 153" d="M236.319,372.07a1.66,1.66,0,1,1,1.66,1.56,1.56,1.56,0,0,1-1.66-1.56Zm2.429,0a.762.762,0,1,0-.2.593A.769.769,0,0,0,238.748,372.07Z" transform="translate(-158.295 -134.921)" fill="#263238"/>
        <path id="Path_154" data-name="Path 154" d="M243.6,373.279a1.254,1.254,0,0,1-.712.192,1,1,0,0,1-1.126-1.09v-1.232h-.47v-.677h.506v-.712h.869v.712h.755v.677h-.755v1.225a.356.356,0,0,0,.378.4.627.627,0,0,0,.356-.114Z" transform="translate(-159.726 -134.763)" fill="#263238"/>
        <path id="Path_155" data-name="Path 155" d="M247.93,372.4h-2.287a.805.805,0,0,0,.862.606,1,1,0,0,0,.755-.292l.47.506a1.6,1.6,0,0,1-1.247.492,1.574,1.574,0,0,1-1.724-1.56,1.539,1.539,0,0,1,1.6-1.553,1.5,1.5,0,0,1,1.574,1.567A.648.648,0,0,1,247.93,372.4Zm-2.294-.513h1.489a.755.755,0,0,0-1.489,0Z" transform="translate(-160.724 -135.004)" fill="#263238"/>
        <path id="Path_156" data-name="Path 156" d="M250.06,369.06h.869v4.16h-.869Z" transform="translate(-162.248 -134.562)" fill="#263238"/>
        <path id="Path_157" data-name="Path 157" d="M257.177,370.37l.321.655.727.1-.527.513.128.72-.648-.342-.648.342.128-.72-.527-.513.72-.1Z" transform="translate(-163.993 -134.938)" fill="#076f82"/>
        <path id="Path_158" data-name="Path 158" d="M261.137,370.37l.321.655.727.1-.527.513.128.72-.648-.342-.648.342.121-.72-.52-.513.727-.1Z" transform="translate(-165.132 -134.938)" fill="#076f82"/>
        <path id="Path_159" data-name="Path 159" d="M265.1,370.37l.321.655.727.1-.527.513.128.72-.648-.342-.648.342.128-.72-.527-.513.727-.1Z" transform="translate(-166.271 -134.938)" fill="#e0e0e0"/>
        <path id="Path_160" data-name="Path 160" d="M269.057,370.37l.321.655.727.1-.527.513.128.72-.648-.342-.648.342.128-.72-.527-.513.727-.1Z" transform="translate(-167.41 -134.938)" fill="#e0e0e0"/>
        <path id="Path_161" data-name="Path 161" d="M273.017,370.37l.321.655.727.1-.52.513.121.72-.648-.342-.648.342.128-.72-.527-.513.727-.1Z" transform="translate(-168.549 -134.938)" fill="#e0e0e0"/>
        <path id="Path_162" data-name="Path 162" d="M261.89,380.352c0,.1-6.832.185-15.26.185s-15.26-.086-15.26-.185,6.832-.192,15.26-.192S261.89,380.246,261.89,380.352Z" transform="translate(-156.873 -137.754)" fill="#e0e0e0"/>
        <path id="Path_163" data-name="Path 163" d="M285.721,387.615c0,.1-12.36.185-27.6.185s-27.592-.086-27.592-.185,12.353-.185,27.592-.185S285.721,387.516,285.721,387.615Z" transform="translate(-156.631 -139.845)" fill="#263238"/>
        <path id="Path_164" data-name="Path 164" d="M258.342,395.055c0,.1-6.063.185-13.536.185s-13.536-.086-13.536-.185,6.063-.185,13.536-.185S258.342,394.963,258.342,395.055Z" transform="translate(-156.844 -141.984)" fill="#263238"/>
        <path id="Path_165" data-name="Path 165" d="M257.646,413.2a3.959,3.959,0,0,0,.776-.114,4.275,4.275,0,0,0,1.966-.983,4.2,4.2,0,0,0,1.425-3.085c0-.712,0-1.425-.036-2.216a4.139,4.139,0,0,0-3.163-3.562,5.748,5.748,0,0,0-1.425-.114H234a4.118,4.118,0,0,0-3.277,1.638,3.954,3.954,0,0,0-.748,1.674,10.177,10.177,0,0,0-.078,1.874,5.391,5.391,0,0,0,.178,1.8,4.222,4.222,0,0,0,.862,1.517,4.082,4.082,0,0,0,3.021,1.375l12.318.043,8.307.064h3.049a1.129,1.129,0,0,1-.2,0h-.591l-2.258.036-8.307.057-12.325.036a4.445,4.445,0,0,1-3.277-1.482,4.509,4.509,0,0,1-.94-1.646,5.648,5.648,0,0,1-.2-1.909,10.608,10.608,0,0,1,.078-1.945A4.481,4.481,0,0,1,234,402.648H257.19a5.826,5.826,0,0,1,1.489.135,4.4,4.4,0,0,1,3.327,3.84c.043.812,0,1.539,0,2.244a4.338,4.338,0,0,1-1.546,3.184,4.2,4.2,0,0,1-2.052.947,2.846,2.846,0,0,1-.584.05A.823.823,0,0,1,257.646,413.2Z" transform="translate(-156.341 -144.22)" fill="#076f82"/>
        <path id="Path_166" data-name="Path 166" d="M247.783,410.023c0,.492-.378.777-1.111.777H245.29v-2.9h1.3c.663,0,1.033.285,1.033.755a.67.67,0,0,1-.385.641A.712.712,0,0,1,247.783,410.023Zm-2.08-1.781v.926h.848c.427,0,.663-.157.663-.463s-.235-.463-.663-.463Zm1.66,1.745c0-.335-.249-.484-.712-.484H245.7v.962h.955C247.114,410.465,247.363,410.322,247.363,409.987Z" transform="translate(-160.876 -145.731)" fill="#076f82"/>
        <path id="Path_167" data-name="Path 167" d="M249.32,409.958a1.147,1.147,0,1,1,1.147,1.126,1.09,1.09,0,0,1-1.147-1.126Zm1.881,0a.307.307,0,1,0,.028,0Z" transform="translate(-162.035 -145.987)" fill="#076f82"/>
        <path id="Path_168" data-name="Path 168" d="M253,409.958a1.147,1.147,0,1,1,1.147,1.126A1.09,1.09,0,0,1,253,409.958Zm1.881,0a.737.737,0,1,0-.737.737A.737.737,0,0,0,254.881,409.958Z" transform="translate(-163.093 -145.987)" fill="#076f82"/>
        <path id="Path_169" data-name="Path 169" d="M257.848,409.72l-.456.42v.62H257v-3.07h.4v1.973l1.2-1.1h.477l-.926.912.99,1.282h-.492Z" transform="translate(-164.244 -145.671)" fill="#076f82"/>
        <path id="Path_170" data-name="Path 170" d="M187.895,400.761a3.857,3.857,0,0,1,0-.449v-1.254c0-1.118,0-2.7-.043-4.688,0-4.018-.05-9.667-.086-16.314l.171.171h-15.31c-.05.036.349-.349.178-.185h0v22.7l-.15-.15,11.114.078,3.092.036h1.111a1.042,1.042,0,0,1-.264,0h-.791l-3.056.036-11.206.078h-.142V378.064h0c-.164.164.228-.228.192-.185h15.481v.171c0,6.7-.057,12.382-.078,16.428,0,1.966-.036,3.562-.05,4.645v1.225A2.412,2.412,0,0,1,187.895,400.761Z" transform="translate(-139.935 -137.097)" fill="#fff"/>
        <path id="Path_171" data-name="Path 171" d="M189.009,373.785a20.414,20.414,0,0,1,.171,3.021v.164h-2.194l-.185-.185h0V373.6h.15a11.243,11.243,0,0,1,2.023.15,15.419,15.419,0,0,1-2.023.15l.143-.15v3.035h0l-.185-.185h2.023l-.171.171A25.721,25.721,0,0,1,189.009,373.785Z" transform="translate(-144.055 -135.867)" fill="#fff"/>
        <path id="Path_172" data-name="Path 172" d="M199.777,400.86a1.927,1.927,0,0,1-.363,0h-5.443v-.1c-.043-5.108-.071-13.379-.071-22.7v-.185h6.084v.185c0,6.511-.057,12.232-.078,16.385,0,2.009-.043,3.619-.057,4.773v1.275a2.9,2.9,0,0,1,0,.42v-1.781c0-1.161,0-2.793-.05-4.816,0-4.1-.05-9.767-.086-16.229l.185.178h-5.7l.185-.185c0,9.326,0,17.6-.078,22.7l-.107-.107,4.047.085,1.133.05Z" transform="translate(-146.097 -137.095)" fill="#fff"/>
        <rect id="Rectangle_18086" data-name="Rectangle 18086" width="2.372" height="2.372" transform="translate(35.086 243.781)" fill="#fff"/>
        <rect id="Rectangle_18087" data-name="Rectangle 18087" width="2.372" height="2.372" transform="translate(39.112 243.781)" fill="#fff"/>
        <rect id="Rectangle_18088" data-name="Rectangle 18088" width="2.372" height="2.372" transform="translate(43.144 243.781)" fill="#fff"/>
        <rect id="Rectangle_18089" data-name="Rectangle 18089" width="2.372" height="2.372" transform="translate(35.086 247.863)" fill="#fff"/>
        <rect id="Rectangle_18090" data-name="Rectangle 18090" width="2.372" height="2.372" transform="translate(39.112 247.863)" fill="#fff"/>
        <rect id="Rectangle_18091" data-name="Rectangle 18091" width="2.372" height="2.372" transform="translate(43.144 247.863)" fill="#fff"/>
        <rect id="Rectangle_18092" data-name="Rectangle 18092" width="2.372" height="2.372" transform="translate(35.086 251.945)" fill="#fff"/>
        <rect id="Rectangle_18093" data-name="Rectangle 18093" width="2.372" height="2.372" transform="translate(39.112 251.945)" fill="#fff"/>
        <rect id="Rectangle_18094" data-name="Rectangle 18094" width="2.372" height="2.372" transform="translate(43.144 251.945)" fill="#fff"/>
        <rect id="Rectangle_18095" data-name="Rectangle 18095" width="2.372" height="2.372" transform="translate(35.086 256.028)" fill="#fff"/>
        <rect id="Rectangle_18096" data-name="Rectangle 18096" width="2.372" height="2.372" transform="translate(39.112 256.028)" fill="#fff"/>
        <rect id="Rectangle_18097" data-name="Rectangle 18097" width="2.372" height="2.372" transform="translate(43.144 256.028)" fill="#fff"/>
        <rect id="Rectangle_18098" data-name="Rectangle 18098" width="2.372" height="2.372" transform="translate(49.434 243.781)" fill="#fff"/>
        <rect id="Rectangle_18099" data-name="Rectangle 18099" width="2.372" height="2.372" transform="translate(49.434 247.863)" fill="#fff"/>
        <rect id="Rectangle_18100" data-name="Rectangle 18100" width="2.372" height="2.372" transform="translate(49.434 251.945)" fill="#fff"/>
        <rect id="Rectangle_18101" data-name="Rectangle 18101" width="2.372" height="2.372" transform="translate(49.434 256.028)" fill="#fff"/>
        <rect id="Rectangle_18102" data-name="Rectangle 18102" width="2.322" height="3.676" transform="translate(39.389 259.967)" fill="#fff"/>
        <path id="Path_173" data-name="Path 173" d="M195.994,409.925c0,.1-7.366.185-16.457.185s-16.457-.086-16.457-.185,7.366-.185,16.457-.185S195.994,409.8,195.994,409.925Z" transform="translate(-137.234 -146.261)" fill="#fff"/>
        <path id="Path_174" data-name="Path 174" d="M165.641,125.58h90.612a5.051,5.051,0,0,1,5.051,5.051V135.7a5.058,5.058,0,0,1-5.058,5.058h-90.6a5.051,5.051,0,0,1-5.051-5.051v-5.072a5.051,5.051,0,0,1,5.051-5.058Z" transform="translate(-136.518 -64.54)" fill="#ebebeb"/>
        <path id="Path_175" data-name="Path 175" d="M289.254,133.954a1.628,1.628,0,0,0-.114-.5,2.052,2.052,0,0,0-2.664-1.375,2,2,0,1,0,1.9,3.477,2.037,2.037,0,0,0,.769-1.1c.093-.313.093-.5.114-.5s0,.043,0,.135a1.381,1.381,0,0,1-.036.385,2.08,2.08,0,0,1-.755,1.218,2.194,2.194,0,1,1,0-3.477,2.087,2.087,0,0,1,.755,1.211,1.427,1.427,0,0,1,.036.392C289.3,133.9,289.29,133.954,289.254,133.954Z" transform="translate(-172.276 -66.318)" fill="#263238"/>
        <path id="Path_176" data-name="Path 176" d="M291.9,139.1a4.061,4.061,0,0,1-1.026-.933,4.012,4.012,0,0,1-.855-1.1,4.173,4.173,0,0,1,1.033.94,4.224,4.224,0,0,1,.848,1.1Z" transform="translate(-173.74 -67.842)" fill="#263238"/>
        <path id="Path_177" data-name="Path 177" d="M173.726,135.025H172.8v-.335h2.237v.335h-.926V137.4h-.385Z" transform="translate(-140.029 -67.16)" fill="#263238"/>
        <path id="Path_178" data-name="Path 178" d="M175.89,136.613a1.069,1.069,0,1,1,1.069,1.054,1.019,1.019,0,0,1-1.069-1.054Zm1.76,0a.712.712,0,1,0-.712.712.677.677,0,0,0,.712-.712Z" transform="translate(-140.917 -67.402)" fill="#263238"/>
        <path id="Path_179" data-name="Path 179" d="M179.359,135.894a.256.256,0,0,1,.264-.264.249.249,0,0,1,.256.264.256.256,0,0,1-.256.264A.264.264,0,0,1,179.359,135.894Zm0,1.56a.256.256,0,0,1,.264-.264.249.249,0,0,1,.256.264.256.256,0,0,1-.256.271.264.264,0,0,1-.264-.3Z" transform="translate(-141.914 -67.43)" fill="#263238"/>
        <path id="Path_180" data-name="Path 180" d="M242.429,137.1c0,.1-11.548.185-25.789.185s-25.789-.086-25.789-.185,11.548-.185,25.789-.185S242.429,136.974,242.429,137.1Z" transform="translate(-145.22 -67.799)" fill="#263238"/>
        <rect id="Rectangle_18103" data-name="Rectangle 18103" width="100.721" height="15.182" rx="7.09" transform="translate(24.065 81.443)" fill="#ebebeb"/>
        <path id="Path_181" data-name="Path 181" d="M289.25,163.571a1.627,1.627,0,0,0-.114-.5,2.087,2.087,0,0,0-.769-1.1,2,2,0,1,0,0,3.206,2.052,2.052,0,0,0,.769-1.1c.093-.313.093-.506.114-.506s0,.05,0,.135a1.423,1.423,0,0,1-.036.392,2.088,2.088,0,0,1-.755,1.211,2.173,2.173,0,0,1-2.073.342,2.2,2.2,0,0,1,0-4.153,2.173,2.173,0,0,1,2.151.313,2.066,2.066,0,0,1,.755,1.211,1.38,1.38,0,0,1,.036.385C289.293,163.528,289.286,163.571,289.25,163.571Z" transform="translate(-172.272 -74.825)" fill="#263238"/>
        <path id="Path_182" data-name="Path 182" d="M291.9,168.738a4.367,4.367,0,0,1-1.026-.94,4.161,4.161,0,0,1-.855-1.1,4.174,4.174,0,0,1,1.033.94A4.223,4.223,0,0,1,291.9,168.738Z" transform="translate(-173.74 -76.366)" fill="#263238"/>
        <path id="Path_183" data-name="Path 183" d="M173.34,162.257h1.183a1.361,1.361,0,1,1,0,2.707h-1.147Zm1.118,2.372a1.019,1.019,0,0,0,0-2.038h-.712v2.038Z" transform="translate(-140.184 -75.086)" fill="#263238"/>
        <path id="Path_184" data-name="Path 184" d="M179.278,163.983v1.24h-.356v-.271a.755.755,0,0,1-.67.292c-.463,0-.762-.249-.762-.606s.214-.6.826-.6h.591v-.071c0-.313-.185-.5-.556-.5a1.033,1.033,0,0,0-.648.221l-.157-.278a1.368,1.368,0,0,1,.848-.264C178.986,163.15,179.278,163.42,179.278,163.983Zm-.37.613v-.285h-.577c-.363,0-.47.142-.47.313s.171.335.456.335a.6.6,0,0,0,.62-.363Z" transform="translate(-141.378 -75.345)" fill="#263238"/>
        <path id="Path_185" data-name="Path 185" d="M182.036,164.929a.662.662,0,0,1-.449.143.584.584,0,0,1-.648-.641v-1.126h-.349V163h.349v-.449h.37V163h.591v.306h-.591v1.111a.3.3,0,0,0,.321.342.492.492,0,0,0,.292-.093Z" transform="translate(-142.269 -75.172)" fill="#263238"/>
        <path id="Path_186" data-name="Path 186" d="M184.916,164.318h-1.667a.712.712,0,0,0,.712.606.8.8,0,0,0,.6-.249l.2.235a1,1,0,0,1-.805.335,1.026,1.026,0,0,1-1.1-1.047,1,1,0,0,1,1.033-1.047.99.99,0,0,1,1.012,1.061A.536.536,0,0,1,184.916,164.318Zm-1.667-.264h1.318a.641.641,0,0,0-.655-.591.648.648,0,0,0-.663.591Z" transform="translate(-142.919 -75.345)" fill="#263238"/>
        <path id="Path_187" data-name="Path 187" d="M186.24,163.414a.264.264,0,0,1,.264-.264.271.271,0,0,1,0,.534.264.264,0,0,1-.264-.271Zm0,1.567a.256.256,0,0,1,.264-.264.249.249,0,0,1,.249.264.257.257,0,0,1-.249.264A.264.264,0,0,1,186.24,164.981Z" transform="translate(-143.894 -75.345)" fill="#263238"/>
        <path id="Path_188" data-name="Path 188" d="M202,164.716a31.333,31.333,0,0,1-6.8,0,31.33,31.33,0,0,1,6.8,0Z" transform="translate(-146.471 -75.736)" fill="#263238"/>
        <path id="Path_189" data-name="Path 189" d="M232.414,164.8c0,.107-4.894.185-10.936.185s-10.928-.078-10.928-.185,4.894-.185,10.928-.185S232.414,164.7,232.414,164.8Z" transform="translate(-150.885 -75.765)" fill="#263238"/>
      </g>
      <g id="freepik--Character--inject-80" transform="translate(189.919 54.822)">
        <path id="Path_190" data-name="Path 190" d="M439.645,203.644H432.03l-11.57,33.206,17.654,26.146c5.471,1.147,11.862,2.073,16.044-1.631,3.441-3.049,4.032-8.143,4.21-12.745a183.073,183.073,0,0,0-.477-22.192c-.456-5.543-1.24-11.263-4.2-15.979s-8.627-8.129-14.049-6.8" transform="translate(-328.234 -141.729)" fill="#455a64"/>
        <path id="Path_191" data-name="Path 191" d="M455.966,263.573a6.166,6.166,0,0,0,.634-.128,3.563,3.563,0,0,0,1.546-.948,5.222,5.222,0,0,0,1.332-2.536,24.631,24.631,0,0,0,.449-3.854,219.353,219.353,0,0,0,.456-22.569,113.482,113.482,0,0,0-.933-12.382,38.393,38.393,0,0,0-2.657-9.739,26.667,26.667,0,0,0-3.441-5.87c-.506-.634-.919-1.1-1.2-1.425l-.321-.363a.811.811,0,0,1-.107-.128s.05,0,.135.107l.349.335c.306.3.712.755,1.254,1.375a25.609,25.609,0,0,1,3.562,5.856,38.045,38.045,0,0,1,2.736,9.8,107.382,107.382,0,0,1,.969,12.417,196.129,196.129,0,0,1-.57,22.6,22.95,22.95,0,0,1-.506,3.89,5.336,5.336,0,0,1-1.425,2.586,3.563,3.563,0,0,1-1.624.912A1.988,1.988,0,0,1,455.966,263.573Z" transform="translate(-337.224 -141.808)" fill="#263238"/>
        <path id="Path_192" data-name="Path 192" d="M471.256,258.71a5.87,5.87,0,0,1-3.313,1.19,5.934,5.934,0,0,1-3.484-.549,18.285,18.285,0,0,0,3.448.178,19.464,19.464,0,0,0,3.348-.819Z" transform="translate(-340.888 -157.648)" fill="#263238"/>
        <path id="Path_193" data-name="Path 193" d="M470.54,235.636a7.394,7.394,0,0,1-3.355,1.311,7.246,7.246,0,0,1-3.6-.085c0-.114,1.617.071,3.562-.278S470.49,235.529,470.54,235.636Z" transform="translate(-340.635 -151.009)" fill="#263238"/>
        <path id="Path_194" data-name="Path 194" d="M448.277,201.958s-.947-3.733.805-3.954,6.832,2.016,6.056,4.011a15.845,15.845,0,0,1-1.738,3.291l-.712-.969s1.211-1.5,1.069-2.522-3.512-2.786-4.025-1.76a4.844,4.844,0,0,0-.513,1.959Z" transform="translate(-336.16 -140.186)" fill="#263238"/>
        <path id="Path_195" data-name="Path 195" d="M340.236,210.018l-30.441.591-4.923-.427s-11.135-.313-12.2-.477c-1.232-.192-1.624.356-1.66.812-.064.712.712,1.354,1.781,1.553.363.064,6.148.912,6.148.912a14.136,14.136,0,0,0-1.731.876c-1.211.712-2.137,2.6-2.394,4.666s-.142,2.672.655,2.807a1.04,1.04,0,0,0,.841-.285,2.907,2.907,0,0,0,.784-1.525c.677-3.94,2.244-3.683,2.244-3.683h.712s-1.781,1.852-1.425,3.562a1.838,1.838,0,0,0,.3.712,2.607,2.607,0,0,0,3.5,2.85c.413-.157.826-.5.805-.94a1.275,1.275,0,0,0-.264-.634,2.856,2.856,0,0,1-.171-.328l1.824-.1s4.089-.435,5.892-.42l28.6.948c4.068.427,8.478-.435,8.834-4.51h0C348.3,212.475,344.689,209.775,340.236,210.018Z" transform="translate(-291.005 -143.544)" fill="#ffbe9d"/>
        <path id="Path_196" data-name="Path 196" d="M313.23,211.906a1.517,1.517,0,0,1-1.054,1.425c-.584.249-1.24.285-1.838.484-1.8.6-2.921,2.558-4.752,3.07-.249.071-.591.078-.712-.157s.043-.47.192-.663l3.854-4.987" transform="translate(-294.981 -143.951)" fill="#ffbe9d"/>
        <path id="Path_197" data-name="Path 197" d="M308.853,211.1a2.5,2.5,0,0,0-.477.492c-.285.335-.712.826-1.175,1.425l-1.717,2.137-.492.627a1.211,1.211,0,0,0-.392.855.527.527,0,0,0,.406.435,1.155,1.155,0,0,0,.52,0,4.49,4.49,0,0,0,.855-.349,23.171,23.171,0,0,0,2.686-2.073,4.661,4.661,0,0,1,1.24-.712c.413-.15.841-.214,1.225-.321a2.237,2.237,0,0,0,1.553-1.047.826.826,0,0,0,.078-.712,1.854,1.854,0,0,1-.207.62,2.137,2.137,0,0,1-1.489.876,12.535,12.535,0,0,0-1.261.278,4.815,4.815,0,0,0-1.332.712,29.536,29.536,0,0,1-2.657,2.023,4.215,4.215,0,0,1-.777.313c-.256.064-.491,0-.491-.121a1.464,1.464,0,0,1,.313-.6l.484-.627,1.653-2.2c.463-.627.841-1.14,1.09-1.5A2.96,2.96,0,0,0,308.853,211.1Z" transform="translate(-294.915 -143.956)" fill="#eb996e"/>
        <path id="Path_198" data-name="Path 198" d="M301.678,218.272a2.451,2.451,0,0,0-1.168.207,2.01,2.01,0,0,0-.883.891,5.178,5.178,0,0,0-.463,1.525,8.318,8.318,0,0,1-.4,1.61,2.578,2.578,0,0,1-.791,1.118,1.047,1.047,0,0,1-.9.192c-.214-.064-.306-.15-.3-.157a.839.839,0,0,1,.321.071,1,1,0,0,0,.784-.235,2.6,2.6,0,0,0,.712-1.069,8.985,8.985,0,0,0,.37-1.574,5.062,5.062,0,0,1,.506-1.589,2.1,2.1,0,0,1,1-.933,1.839,1.839,0,0,1,.912-.142C301.572,218.208,301.686,218.258,301.678,218.272Z" transform="translate(-292.663 -145.992)" fill="#eb996e"/>
        <path id="Path_199" data-name="Path 199" d="M293,212.92a6.254,6.254,0,0,1,1.147.164l2.757.456,2.764.413a7.949,7.949,0,0,1,1.147.2,4.566,4.566,0,0,1-1.161-.036c-.712-.064-1.7-.178-2.785-.349s-2.052-.363-2.75-.527A5.362,5.362,0,0,1,293,212.92Z" transform="translate(-291.579 -144.48)" fill="#eb996e"/>
        <path id="Path_200" data-name="Path 200" d="M304.4,220.42a1.555,1.555,0,0,1-.185.313,1.083,1.083,0,0,0-.178.883.584.584,0,0,0,.435.37,3.048,3.048,0,0,0,.755.064,1.3,1.3,0,0,1,.883.278,1.125,1.125,0,0,1,.321.948,1.268,1.268,0,0,1-.534.841,1.532,1.532,0,0,1-.869.306,5.021,5.021,0,0,1-1.475-.256,2.97,2.97,0,0,1-.9-.435.825.825,0,0,1-.242-.278s.1.078.292.2a3.561,3.561,0,0,0,.9.356,5.486,5.486,0,0,0,1.425.2,1.24,1.24,0,0,0,1.175-.962.883.883,0,0,0-.242-.755,1.1,1.1,0,0,0-.712-.228,3.361,3.361,0,0,1-.805-.093.755.755,0,0,1-.534-.506,1.126,1.126,0,0,1,.264-.983C304.3,220.5,304.39,220.413,304.4,220.42Z" transform="translate(-294.285 -146.637)" fill="#eb996e"/>
        <path id="Path_201" data-name="Path 201" d="M305.635,225.158a.485.485,0,0,1,.321.085,1,1,0,0,1,.484.762,1.346,1.346,0,0,1-.584,1.2,2.244,2.244,0,0,1-1.61.328,2.671,2.671,0,0,1-1.46-.712,2.564,2.564,0,0,1-.67-1.154,2.465,2.465,0,0,1-.071-.9c0-.207.071-.321.085-.313a3.939,3.939,0,0,0,.142,1.161,2.529,2.529,0,0,0,.663,1.054,2.557,2.557,0,0,0,1.346.655,2.059,2.059,0,0,0,1.425-.278,1.2,1.2,0,0,0,.541-1.012.976.976,0,0,0-.37-.712C305.742,225.2,305.628,225.179,305.635,225.158Z" transform="translate(-294.176 -147.798)" fill="#eb996e"/>
        <path id="Path_202" data-name="Path 202" d="M312.573,219.389a1.153,1.153,0,0,1,.093-.549,2.138,2.138,0,0,1,.912-1.09v.2a5.773,5.773,0,0,1-.755-.242,4.987,4.987,0,0,1-2.223-1.567,12.112,12.112,0,0,0,2.308,1.347,7.354,7.354,0,0,0,.712.249l.249.078-.228.128a2.286,2.286,0,0,0-.9.955A2.985,2.985,0,0,1,312.573,219.389Z" transform="translate(-296.64 -145.406)" fill="#eb996e"/>
        <path id="Path_203" data-name="Path 203" d="M299.547,218.718c.036-.05.413.235.556.776s-.05.976-.107.948,0-.42-.121-.891S299.5,218.761,299.547,218.718Z" transform="translate(-293.46 -146.146)" fill="#eb996e"/>
        <path id="Path_204" data-name="Path 204" d="M371.538,183.17c-.47.663-21.273,17.134-23.852,17.81s-26.359,1.04-26.359,1.04-1.859,14.626-1.247,15.623c2.258,3.648,29.423,13.3,42.382.228l9.069-33.156" transform="translate(-299.331 -135.924)" fill="#ffb224"/>
        <path id="Path_205" data-name="Path 205" d="M355.591,217.285a3.647,3.647,0,0,1-.256-1.282,11.7,11.7,0,0,1,1.183-6.155,3.7,3.7,0,0,1,.712-1.1,26.625,26.625,0,0,0-1.361,4.16A27,27,0,0,0,355.591,217.285Z" transform="translate(-309.494 -143.281)" fill="#263238"/>
        <path id="Path_206" data-name="Path 206" d="M358.653,217.616a4.833,4.833,0,0,1-.292-1.425,30.564,30.564,0,0,1-.142-6.846,4.651,4.651,0,0,1,.242-1.425c.107,0-.05,2.137,0,4.823S358.738,217.6,358.653,217.616Z" transform="translate(-310.298 -143.042)" fill="#263238"/>
        <g id="Group_37823" data-name="Group 37823" transform="translate(43.643 65.298)" opacity="0.3">
          <path id="Path_207" data-name="Path 207" d="M356.244,208.709a11.662,11.662,0,0,0-3.391,12.424c.228.67.62,1.425,1.311,1.532a1.539,1.539,0,0,0,1.546-.891,4.5,4.5,0,0,0,.356-1.867l.534-11.4" transform="translate(-352.266 -208.51)"/>
        </g>
        <path id="Path_208" data-name="Path 208" d="M390.127,185.445l.549-3.505-4.424,3.9-2.2,7.637Z" transform="translate(-317.763 -135.57)" fill="#263238"/>
        <path id="Path_209" data-name="Path 209" d="M387.9,176.325l-3.106,1.745-9.974,16.777.043,8.784s-2.351,6.148-2.493,11.078,0,22.982,0,22.982l-12.66,83.694,10.793,3.484,21.373-97.451V175Z" transform="translate(-310.763 -133.575)" fill="#ffb224"/>
        <g id="Group_37824" data-name="Group 37824" transform="translate(51.191 64.223)" opacity="0.3">
          <path id="Path_210" data-name="Path 210" d="M371.409,334.073l-8.549-2.757,12.211-90.79s-2.045-13.308,0-19.135S380.257,207,380.257,207L376.7,223.257c.449,12.175-.3,26.708-1.6,42.367h3.263Z" transform="translate(-362.86 -207)" fill="#ffb224"/>
        </g>
        <path id="Path_211" data-name="Path 211" d="M385.623,189.14a2.455,2.455,0,0,1-.257.442c-.164.292-.449.712-.769,1.247a38.277,38.277,0,0,0-2.394,4.809,50.469,50.469,0,0,0-2.415,7.594,82.09,82.09,0,0,0-1.6,9.639c-.392,3.455-.627,6.754-.712,9.76s-.093,5.7-.071,7.993,0,4.082,0,5.4v1.468a3.429,3.429,0,0,1,0,.506,2.239,2.239,0,0,1-.043-.506c0-.37,0-.862-.05-1.468-.036-1.318-.085-3.149-.143-5.393s-.093-4.987,0-8.015.321-6.326.712-9.781a79.8,79.8,0,0,1,1.639-9.682,47.942,47.942,0,0,1,2.508-7.616,33.65,33.65,0,0,1,2.515-4.787c.335-.534.641-.933.834-1.211A2.506,2.506,0,0,1,385.623,189.14Z" transform="translate(-315.767 -137.641)" fill="#263238"/>
        <g id="Group_37825" data-name="Group 37825" transform="translate(56.448 72.059)" opacity="0.3">
          <path id="Path_212" data-name="Path 212" d="M370.461,232.248A51.193,51.193,0,0,1,375.882,218a74.462,74.462,0,0,1-.591,9.6,3.683,3.683,0,0,1-.627,1.931,3.8,3.8,0,0,1-1.154.855l-3.27,1.817" transform="translate(-370.24 -218)"/>
        </g>
        <path id="Path_213" data-name="Path 213" d="M432.2,140.175a9.147,9.147,0,0,1,3.982-4.417,6.277,6.277,0,0,1,5.82-.064,4.8,4.8,0,0,1,2.408,5.1,6.584,6.584,0,0,1-5.849,11.8c1.66,2.194.242,5.778-2.358,6.661s-5.628-.648-6.925-3.071a9.084,9.084,0,0,1,.085-7.951" transform="translate(-330.517 -122.074)" fill="#263238"/>
        <path id="Path_214" data-name="Path 214" d="M431.111,143.5a2.935,2.935,0,0,1,2.258-1.774,2.358,2.358,0,0,1,2.422,1.425,1.988,1.988,0,0,1-1.047,2.493,2.757,2.757,0,0,1-1.076,5.272,2.55,2.55,0,0,1-3.783,3.277,3.427,3.427,0,0,1-1.175-2.337,10.259,10.259,0,0,1,.171-2.679c.207-1.339.406-2.686.613-4.025a4.339,4.339,0,0,1,.506-1.7,1.5,1.5,0,0,1,1.5-.762" transform="translate(-330.6 -124.001)" fill="#ffb224"/>
        <path id="Path_215" data-name="Path 215" d="M384.333,125.335a4.641,4.641,0,0,1,1.069-5.407,7.616,7.616,0,0,1,5.478-1.824,22.25,22.25,0,0,1,5.792,1.2,6.312,6.312,0,0,1,11.071,2.137,4,4,0,0,1,5.379,4.616l-8.371,4.21L397.334,148.3a7.73,7.73,0,0,1-12.567-8.727,6.456,6.456,0,0,1-1.56-1.489,6.754,6.754,0,0,1-3.633-3.754,7.124,7.124,0,0,1,4.759-9Z" transform="translate(-316.379 -116.852)" fill="#263238"/>
        <path id="Path_216" data-name="Path 216" d="M398.56,162.377c.192-2.814.328-4.745.328-4.723s-5.429-1.346-6.006-8.62c-.285-3.619.363-9.454,1.04-14.248.613-4.274,3.883-9.347,8.143-8.549l13.137,4.445c1.289.242,1.66,1.382,1.532,2.686l.057.627-2.251,20.546-.891,9.155A7.58,7.58,0,0,1,406,170.477h0a7.587,7.587,0,0,1-7.438-8.1Z" transform="translate(-320.283 -119.527)" fill="#ffbe9d"/>
        <path id="Path_217" data-name="Path 217" d="M396.289,145.981a.94.94,0,0,0,.819,1,.883.883,0,0,0,1.012-.755.926.926,0,0,0-.812-1,.89.89,0,0,0-1.019.755Z" transform="translate(-321.282 -125.009)" fill="#263238"/>
        <path id="Path_218" data-name="Path 218" d="M396.056,143.453c.1.128.841-.335,1.831-.249s1.681.634,1.8.52-.043-.278-.342-.534a2.529,2.529,0,0,0-1.425-.563,2.458,2.458,0,0,0-1.468.349C396.12,143.183,396.014,143.4,396.056,143.453Z" transform="translate(-321.213 -124.262)" fill="#263238"/>
        <path id="Path_219" data-name="Path 219" d="M408.919,147a.926.926,0,0,0,.819,1,.883.883,0,0,0,1.012-.755.919.919,0,0,0-.812-1,.883.883,0,0,0-1.019.755Z" transform="translate(-324.914 -125.302)" fill="#263238"/>
        <path id="Path_220" data-name="Path 220" d="M409.356,144.24c.107.128.848-.335,1.838-.256s1.674.634,1.8.52-.043-.271-.342-.527a2.557,2.557,0,0,0-1.425-.57,2.43,2.43,0,0,0-1.475.356C409.427,143.97,409.306,144.176,409.356,144.24Z" transform="translate(-325.038 -124.487)" fill="#263238"/>
        <path id="Path_221" data-name="Path 221" d="M402.608,150.69a6.339,6.339,0,0,0-1.582-.42c-.256-.05-.492-.114-.52-.292a1.339,1.339,0,0,1,.228-.712l.9-1.874a33.583,33.583,0,0,0,2.08-4.9,32.945,32.945,0,0,0-2.472,4.723l-.869,1.881a1.467,1.467,0,0,0-.214.983.634.634,0,0,0,.392.406,1.5,1.5,0,0,0,.42.093A6.9,6.9,0,0,0,402.608,150.69Z" transform="translate(-322.394 -124.225)" fill="#263238"/>
        <path id="Path_222" data-name="Path 222" d="M401.277,169.682a18.352,18.352,0,0,0,9.817-1.8s-2.85,4.873-9.974,3.633Z" transform="translate(-322.672 -131.527)" fill="#eb996e"/>
        <path id="Path_223" data-name="Path 223" d="M409.648,140.494c.1.271,1.09.135,2.258.271s2.137.442,2.265.2c.071-.114-.1-.37-.477-.627a3.7,3.7,0,0,0-1.681-.577,3.854,3.854,0,0,0-1.767.214C409.819,140.152,409.605,140.366,409.648,140.494Z" transform="translate(-325.123 -123.433)" fill="#263238"/>
        <path id="Path_224" data-name="Path 224" d="M396.31,140.706c.185.242,1.012.071,1.988.142s1.781.292,1.988.071c.093-.107,0-.342-.363-.584a3.092,3.092,0,0,0-1.582-.5,3.028,3.028,0,0,0-1.617.328C396.36,140.371,396.225,140.592,396.31,140.706Z" transform="translate(-321.282 -123.46)" fill="#263238"/>
        <path id="Path_225" data-name="Path 225" d="M409.873,125.632a4.93,4.93,0,0,1-6.17,4.41c-1.083-.285-2.244-.933-3.234-.42s-1.2,2.037-2.137,2.743c-1.354,1-3.284-.185-4.93.164-1.268.278-2.137,1.425-3.035,2.337s-2.209,1.788-3.427,1.325a15.088,15.088,0,0,1,.748-3.277,4.923,4.923,0,0,1,2.087-2.55c.541-.3,1.154-.456,1.66-.805,1.1-.748,1.425-2.18,2.137-3.291a5.407,5.407,0,0,1,4.31-2.408c1.425-.036,2.85.5,4.275.264,1.033-.178,1.973-.777,3.021-.891,2.037-.228,3.8,1.361,5.144,2.907" transform="translate(-318.594 -118.68)" fill="#263238"/>
        <path id="Path_226" data-name="Path 226" d="M409.787,128.408c.919-.185,2.807-.627,3.348-1.375a5.535,5.535,0,0,1,4.987-2.379,4.56,4.56,0,0,1,3.812,3.9,6.554,6.554,0,0,1,5.336,4.047,7.594,7.594,0,0,1-.712,7.024,13.362,13.362,0,0,0-.883,1.653,11.126,11.126,0,0,1,1.382,1.6c1.9,3.092-1.959,4.866-1.959,4.866.271,2.208-1.767,2.458-3.071,2.622s-1.582,3.733-2.615,3.726l-.349-10.879a1.424,1.424,0,0,1-.47.15c-2.451.356-2.408-4.381-1.767-5.7a13.992,13.992,0,0,1-2.223-2.736,10.109,10.109,0,0,1-.712-4.987C412.993,130,409.381,128.493,409.787,128.408Z" transform="translate(-325.156 -119.091)" fill="#263238"/>
        <path id="Path_227" data-name="Path 227" d="M422.187,150.883a2.137,2.137,0,0,1,3.206-1.553c.712.477,1.183,1.368,1,2.985-.513,4.31-4.738,2.907-4.73,2.786S421.966,152.664,422.187,150.883Z" transform="translate(-328.579 -126.107)" fill="#ffbe9d"/>
        <path id="Path_228" data-name="Path 228" d="M423.778,154.138a2.157,2.157,0,0,0,.185.128.769.769,0,0,0,.563.078,1.859,1.859,0,0,0,1.062-1.56,2.565,2.565,0,0,0-.085-1.1.862.862,0,0,0-.5-.641.378.378,0,0,0-.463.15c-.078.114-.057.207-.078.207s-.085-.078,0-.257a.449.449,0,0,1,.2-.249.577.577,0,0,1,.427-.057,1.062,1.062,0,0,1,.712.762,2.593,2.593,0,0,1,.121,1.232,1.98,1.98,0,0,1-1.318,1.731.812.812,0,0,1-.677-.2C423.771,154.238,423.764,154.138,423.778,154.138Z" transform="translate(-329.187 -126.619)" fill="#eb996e"/>
        <path id="Path_229" data-name="Path 229" d="M388.608,141.487a6.326,6.326,0,0,1-1.026-.826,6.248,6.248,0,0,1-1.745-3.078,6.027,6.027,0,0,1-.078-2.436,5.242,5.242,0,0,1,1.19-2.5,6.127,6.127,0,0,1,5.813-1.924,5.135,5.135,0,0,1,.591.164c.192.064.37.15.549.221l.278.114-.036-.285a2.137,2.137,0,0,1,.349-1.425,3.356,3.356,0,0,1,1.09-1.012,4.438,4.438,0,0,1,2.764-.563c1.838.178,3.462.8,4.923.777a4.588,4.588,0,0,0,3.149-1.062,2.586,2.586,0,0,0,.556-.712,1.42,1.42,0,0,0,.107-.3,3.633,3.633,0,0,1-.712.933,4.588,4.588,0,0,1-3.071.933,11.491,11.491,0,0,1-2.258-.349,19.138,19.138,0,0,0-2.643-.506,5.778,5.778,0,0,0-1.482.043,4.517,4.517,0,0,0-1.468.541,3.656,3.656,0,0,0-1.2,1.111,2.444,2.444,0,0,0-.406,1.66l.242-.178-.584-.242a6.27,6.27,0,0,0-.627-.171,6.447,6.447,0,0,0-6.134,2.052,5.514,5.514,0,0,0-1.225,2.657,6.247,6.247,0,0,0,.121,2.543,6.112,6.112,0,0,0,1.867,3.113,4.424,4.424,0,0,0,.812.584A1.946,1.946,0,0,0,388.608,141.487Z" transform="translate(-318.16 -119.667)" fill="#455a64"/>
        <path id="Path_230" data-name="Path 230" d="M388.44,125.256a4.572,4.572,0,0,1,1.282-.634,3.64,3.64,0,0,1,1.617-.064,3.163,3.163,0,0,1,1.8.99l.185.207.064-.271a4.923,4.923,0,0,1,3.562-3.448,6.411,6.411,0,0,1,3.947.606,16.751,16.751,0,0,0,3.213,1.175,4.759,4.759,0,0,0,2.322,0,2.883,2.883,0,0,0,.584-.242c.121-.071.185-.114.178-.128a6.836,6.836,0,0,1-.8.242,4.93,4.93,0,0,1-2.23-.078,18.566,18.566,0,0,1-3.149-1.225,10.245,10.245,0,0,0-1.931-.655,4.987,4.987,0,0,0-2.216,0,5.151,5.151,0,0,0-3.762,3.719l.249-.064a3.355,3.355,0,0,0-1.973-1.026,3.562,3.562,0,0,0-1.71.135,2.922,2.922,0,0,0-.962.52,1.153,1.153,0,0,0-.278.242Z" transform="translate(-319.026 -118.219)" fill="#455a64"/>
        <path id="Path_231" data-name="Path 231" d="M404.378,156.8a1.425,1.425,0,0,1,1.1-.484,1.689,1.689,0,0,1,1.19.663h0l.043.05h0a.826.826,0,0,1,.185.47,1.19,1.19,0,0,1-.57.969,1.51,1.51,0,0,1-1.731,0A1.232,1.232,0,0,1,404.378,156.8Z" transform="translate(-323.543 -128.202)" fill="#076f82"/>
        <path id="Path_232" data-name="Path 232" d="M406.683,155.83c-.057,0-.142.214-.356.513a2.33,2.33,0,0,1-2.472.955c-.356-.078-.577-.185-.605-.135s.142.235.527.4a2.194,2.194,0,0,0,2.786-1.083C406.74,156.1,406.732,155.837,406.683,155.83Z" transform="translate(-323.284 -128.062)" fill="#263238"/>
        <path id="Path_233" data-name="Path 233" d="M427.739,133.941a1.232,1.232,0,0,0,.185-.142,4.841,4.841,0,0,0,.484-.477,4.986,4.986,0,0,0,1.168-2.216,3.925,3.925,0,0,0,0-1.753,3.626,3.626,0,0,0-.962-1.76,2.85,2.85,0,0,0-2.052-.834,2.679,2.679,0,0,0-2.137,1.012l.2.107v-.05a5.942,5.942,0,0,0-.121-4.517,3.918,3.918,0,0,0-2.907-2.23,3.234,3.234,0,0,0-2.4.712,2.688,2.688,0,0,0-.463.506.711.711,0,0,0-.114.214,3.761,3.761,0,0,1,.634-.648,3.149,3.149,0,0,1,2.322-.584,3.747,3.747,0,0,1,2.743,2.137,5.792,5.792,0,0,1,.085,4.353v.05l-.221.663.42-.563a2.443,2.443,0,0,1,1.959-.919,2.664,2.664,0,0,1,1.9.755,3.377,3.377,0,0,1,.926,1.66,3.676,3.676,0,0,1,0,1.667,5.107,5.107,0,0,1-1.076,2.187C427.974,133.713,427.718,133.927,427.739,133.941Z" transform="translate(-327.705 -118.063)" fill="#263238"/>
        <path id="Path_234" data-name="Path 234" d="M439.754,151.227l.121.05.349.128c.306.107.762.264,1.361.449a19.4,19.4,0,0,0,2.208.556,10.259,10.259,0,0,0,3.014.135,6.953,6.953,0,0,0,3.405-1.289,5.379,5.379,0,0,0,2.038-3.591,8.314,8.314,0,0,0-.712-4.567,5.7,5.7,0,0,0-1.425-1.995,3.633,3.633,0,0,0-2.38-.9,2.85,2.85,0,0,0-1.745.563l.157.171a5.044,5.044,0,0,0,1.14-2.137,5.756,5.756,0,0,0,.093-2.308,5.165,5.165,0,0,0-2.322-3.562,6.042,6.042,0,0,0-3.776-.94,5.827,5.827,0,0,0-3.142,1.2,6.768,6.768,0,0,0-1.781,2.137,7.172,7.172,0,0,0-.712,1.973,6.221,6.221,0,0,0-.114,1.311v.456a8.4,8.4,0,0,1,.164-1.753,7.127,7.127,0,0,1,.712-1.931,6.513,6.513,0,0,1,1.76-2.066,5.763,5.763,0,0,1,3.063-1.154,5.956,5.956,0,0,1,3.64.9,4.987,4.987,0,0,1,2.216,3.441,5.592,5.592,0,0,1-.1,2.223,4.744,4.744,0,0,1-1.083,2l.15.164a2.586,2.586,0,0,1,1.6-.513,3.42,3.42,0,0,1,2.23.841,5.45,5.45,0,0,1,1.425,1.916,8.221,8.221,0,0,1,.712,4.445,5.193,5.193,0,0,1-1.966,3.477,6.911,6.911,0,0,1-3.313,1.282,10.33,10.33,0,0,1-2.971-.107,20.571,20.571,0,0,1-2.2-.513l-1.375-.406-.356-.107A.594.594,0,0,1,439.754,151.227Z" transform="translate(-332.568 -121.2)" fill="#263238"/>
        <path id="Path_235" data-name="Path 235" d="M432.23,165.928a3.875,3.875,0,0,0,.513.321,10.223,10.223,0,0,0,1.5.712,6.369,6.369,0,0,0,2.415.427,4.417,4.417,0,0,0,2.793-1.09,3.4,3.4,0,0,0,.876-1.318,4.537,4.537,0,0,0,.249-1.425,6.3,6.3,0,0,0-.506-2.4,12.039,12.039,0,0,0-.712-1.482,2.757,2.757,0,0,0-.321-.513,3.725,3.725,0,0,0,.242.549c.164.356.413.855.655,1.5a6.332,6.332,0,0,1,.442,2.344,3.562,3.562,0,0,1-1.061,2.6,4.275,4.275,0,0,1-2.65,1.04,6.54,6.54,0,0,1-2.358-.363C432.992,166.334,432.251,165.878,432.23,165.928Z" transform="translate(-331.619 -129.019)" fill="#263238"/>
        <path id="Path_236" data-name="Path 236" d="M427.968,169.254a1.423,1.423,0,0,1-.549-.221,1.553,1.553,0,0,1-.6-1.425,1.29,1.29,0,0,1,.5-.919.9.9,0,0,1,1.1,0,.813.813,0,0,1,.257.556.613.613,0,0,1-.306.527,1.026,1.026,0,0,1-.677.1,1.745,1.745,0,0,1-.712-.264,3.142,3.142,0,0,1-1.332-2.493,5.863,5.863,0,0,1,.456-2.387,4.992,4.992,0,0,1,.712-1.468.67.67,0,0,1,.52-.235.306.306,0,0,0-.157,0,.713.713,0,0,0-.427.2,1.924,1.924,0,0,0-.42.6c-.128.249-.271.541-.406.869a5.922,5.922,0,0,0-.52,2.458,3.732,3.732,0,0,0,.363,1.425,2.927,2.927,0,0,0,1.061,1.225,1.6,1.6,0,0,0,1.61.164.813.813,0,0,0,.406-.712,1.019,1.019,0,0,0-.328-.712.983.983,0,0,0-.712-.235,1.3,1.3,0,0,0-.655.235,1.425,1.425,0,0,0-.541,1.062,1.646,1.646,0,0,0,.712,1.51,1.1,1.1,0,0,0,.442.157C427.911,169.276,427.968,169.261,427.968,169.254Z" transform="translate(-329.658 -129.553)" fill="#263238"/>
        <path id="Path_237" data-name="Path 237" d="M446.579,155.457a.585.585,0,0,0,.2,0,1.6,1.6,0,0,0,.556-.071,2.279,2.279,0,0,0,1.425-1.425,2.971,2.971,0,0,0-.8-2.885,4.381,4.381,0,0,0-3.441-1.354,4.865,4.865,0,0,0-.883.142l.135.15a3.484,3.484,0,0,0-.655-3.313,3.127,3.127,0,0,0-1.218-.883,3.392,3.392,0,0,0-1.282-.228,3.256,3.256,0,0,0-1.774.52,2.239,2.239,0,0,0-.4.306c-.078.086-.121.128-.114.135a6.5,6.5,0,0,1,.556-.37,3.37,3.37,0,0,1,2.942-.192,2.85,2.85,0,0,1,1.133.848,3.284,3.284,0,0,1,.6,3.1l-.071.207.207-.057a4.5,4.5,0,0,1,.841-.135,4.232,4.232,0,0,1,3.277,1.268,2.85,2.85,0,0,1,.8,2.693,2.237,2.237,0,0,1-1.3,1.425A2.563,2.563,0,0,1,446.579,155.457Z" transform="translate(-333.373 -125.116)" fill="#455a64"/>
        <path id="Path_238" data-name="Path 238" d="M447.037,140.686a.862.862,0,0,0-.292-.114,2.414,2.414,0,0,0-.869-.05,2.849,2.849,0,0,0-1.254.442,2.729,2.729,0,0,0-1.083,1.289l.185-.036a2.258,2.258,0,0,0-1.368-.712,3.213,3.213,0,0,0-2.137.5,4.858,4.858,0,0,0-1.289,1.268,8.012,8.012,0,0,0-.634,1.026,1.358,1.358,0,0,0-.185.406c.036,0,.335-.541.947-1.339a5.3,5.3,0,0,1,1.275-1.183,3.021,3.021,0,0,1,2.009-.449,2.066,2.066,0,0,1,1.232.62l.121.135.064-.164a2.593,2.593,0,0,1,.983-1.211,2.935,2.935,0,0,1,1.168-.463A4.19,4.19,0,0,1,447.037,140.686Z" transform="translate(-333.31 -123.654)" fill="#455a64"/>
        <path id="Path_239" data-name="Path 239" d="M410.748,171.2l-16.122,2.287-.712,5.094s-8.015,14.013-8.727,18.124-4.275,14.248-3.562,21.928S380,255.315,380,255.315h4.1l15.887-38.663Z" transform="translate(-316.598 -132.482)" fill="#263238"/>
        <path id="Path_240" data-name="Path 240" d="M435.051,431.708l4.046,14.64s-13.757,7.951-13.272,10.729l28.9-5.749-5.372-23.068Z" transform="translate(-329.773 -206.408)" fill="#ffb224"/>
        <g id="Group_37826" data-name="Group 37826" transform="translate(116.711 236.584)" opacity="0.6">
          <path id="Path_241" data-name="Path 241" d="M456.013,448.94a1.211,1.211,0,0,1,1.126,1.147,1.154,1.154,0,0,1-1.126,1.126,1.268,1.268,0,0,1-1.183-1.218,1.2,1.2,0,0,1,1.3-1.04" transform="translate(-454.83 -448.94)" fill="#fff"/>
        </g>
        <g id="Group_37827" data-name="Group 37827" transform="translate(95.941 242.597)" opacity="0.6">
          <path id="Path_242" data-name="Path 242" d="M454.688,459.7l-.541-2.322L426.434,463.9a2.023,2.023,0,0,0-.748,1.788Z" transform="translate(-425.675 -457.38)" fill="#fff"/>
        </g>
        <path id="Path_243" data-name="Path 243" d="M443.759,453.49c.043.135.755,0,1.553.321s1.3.791,1.425.712-.285-.841-1.254-1.168S443.7,453.368,443.759,453.49Z" transform="translate(-334.934 -213.585)" fill="#263238"/>
        <path id="Path_244" data-name="Path 244" d="M440,456.3c0,.143.662.235,1.275.712s.9,1.076,1.047,1.033,0-.848-.712-1.425S439.942,456.169,440,456.3Z" transform="translate(-333.853 -214.441)" fill="#263238"/>
        <path id="Path_245" data-name="Path 245" d="M438.091,461.122c.128,0,.157-.748-.385-1.425s-1.268-.834-1.3-.712.47.442.9,1S437.948,461.122,438.091,461.122Z" transform="translate(-332.821 -215.234)" fill="#263238"/>
        <path id="Path_246" data-name="Path 246" d="M442.995,448.405c.086.114.712-.228,1.489-.363s1.482-.036,1.525-.171-.67-.5-1.617-.321S442.888,448.313,442.995,448.405Z" transform="translate(-334.711 -211.942)" fill="#263238"/>
        <g id="Group_37828" data-name="Group 37828" transform="translate(106.082 224.951)" opacity="0.3">
          <path id="Path_247" data-name="Path 247" d="M439.91,435.859l.72,2.607,14.056-3.484-.549-2.372Z" transform="translate(-439.91 -432.61)"/>
        </g>
        <path id="Path_248" data-name="Path 248" d="M441.92,443.318a2.756,2.756,0,0,0,1.425-.349,6.814,6.814,0,0,0,1.389-.819,6.6,6.6,0,0,0,.712-.634,2.134,2.134,0,0,0,.349-.442.627.627,0,0,0-.114-.762.791.791,0,0,0-.712-.171,2.2,2.2,0,0,0-.52.2,6.2,6.2,0,0,0-.819.52,5.145,5.145,0,0,0-1.111,1.183c-.52.777-.627,1.354-.57,1.368s.292-.484.848-1.154a5.826,5.826,0,0,1,1.111-1.026,5.229,5.229,0,0,1,.762-.449c.285-.15.542-.214.655-.1s.05.064,0,.171a1.586,1.586,0,0,1-.264.321,7.421,7.421,0,0,1-.655.613,7.984,7.984,0,0,1-1.261.862,10.046,10.046,0,0,0-1.225.67Z" transform="translate(-334.406 -209.818)" fill="#263238"/>
        <path id="Path_249" data-name="Path 249" d="M441.147,443.094a2.337,2.337,0,0,0,.05-1.475,5.03,5.03,0,0,0-.57-1.532,5.137,5.137,0,0,0-.577-.784,1.218,1.218,0,0,0-1.083-.506.712.712,0,0,0-.506.542,1.926,1.926,0,0,0,0,.563,3.446,3.446,0,0,0,.228.969,3.346,3.346,0,0,0,.969,1.339,1.881,1.881,0,0,0,1.361.584,6.025,6.025,0,0,1-1.126-.848,3.356,3.356,0,0,1-.769-1.24,2.894,2.894,0,0,1-.171-.834c0-.321,0-.591.15-.584a1.015,1.015,0,0,1,.613.349,5.36,5.36,0,0,1,.541.712,5.536,5.536,0,0,1,.62,1.368C441.09,442.5,441.069,443.087,441.147,443.094Z" transform="translate(-333.405 -209.438)" fill="#263238"/>
        <path id="Path_250" data-name="Path 250" d="M372.191,431.86,370.4,446.92s-15.744,2.137-16.343,4.9l28.924,5.621,3.754-23.346Z" transform="translate(-309.138 -207.444)" fill="#ffb224"/>
        <g id="Group_37829" data-name="Group 37829" transform="translate(68.886 239.554)" opacity="0.6">
          <path id="Path_251" data-name="Path 251" d="M389.267,453.188a1.2,1.2,0,0,1,.613,1.489,1.154,1.154,0,0,1-1.468.613,1.261,1.261,0,0,1-.634-1.574,1.2,1.2,0,0,1,1.6-.47" transform="translate(-387.699 -453.108)" fill="#fff"/>
        </g>
        <g id="Group_37830" data-name="Group 37830" transform="translate(44.722 243.21)" opacity="0.6">
          <path id="Path_252" data-name="Path 252" d="M382.9,465.051l.378-2.358-28.119-4.453a2.045,2.045,0,0,0-1.375,1.375Z" transform="translate(-353.78 -458.24)" fill="#fff"/>
        </g>
        <path id="Path_253" data-name="Path 253" d="M376.36,452.689c0,.142.712.313,1.311.883s.912,1.218,1.047,1.183.057-.891-.712-1.56S376.353,452.553,376.36,452.689Z" transform="translate(-315.552 -213.411)" fill="#263238"/>
        <path id="Path_254" data-name="Path 254" d="M371.8,453.8c-.057.135.527.47.912,1.147s.435,1.332.577,1.354.356-.776-.142-1.61S371.82,453.669,371.8,453.8Z" transform="translate(-314.239 -213.743)" fill="#263238"/>
        <path id="Path_255" data-name="Path 255" d="M368.261,457.513c.121.05.435-.627.185-1.46s-.862-1.254-.94-1.14.271.584.463,1.275S368.118,457.477,368.261,457.513Z" transform="translate(-313.002 -214.068)" fill="#263238"/>
        <path id="Path_256" data-name="Path 256" d="M377.469,447.865c.043.135.712.043,1.517.221s1.382.527,1.475.42-.428-.712-1.368-.912S377.419,447.708,377.469,447.865Z" transform="translate(-315.87 -211.95)" fill="#263238"/>
        <g id="Group_37831" data-name="Group 37831" transform="translate(62.376 227.401)" opacity="0.3">
          <path id="Path_257" data-name="Path 257" d="M378.888,436.05l-.328,2.686,14.334,2.1.392-2.408Z" transform="translate(-378.56 -436.05)"/>
        </g>
        <path id="Path_258" data-name="Path 258" d="M378.06,442.969a2.672,2.672,0,0,0,1.46.221,6.708,6.708,0,0,0,1.6-.228,7.206,7.206,0,0,0,.9-.313,1.781,1.781,0,0,0,.5-.278.627.627,0,0,0,.178-.748.8.8,0,0,0-.57-.42,2.138,2.138,0,0,0-.563,0,5.035,5.035,0,0,0-.955.171,5.21,5.21,0,0,0-1.482.67c-.769.52-1.083,1.019-1.04,1.054s.456-.342,1.225-.748a5.786,5.786,0,0,1,1.425-.527,5,5,0,0,1,.883-.128c.321-.036.584,0,.641.15s0,.078-.057.164a2.084,2.084,0,0,1-.363.2c-.285.128-.57.228-.841.321a8.883,8.883,0,0,1-1.5.321,11.352,11.352,0,0,0-1.446.121Z" transform="translate(-316.041 -210.125)" fill="#263238"/>
        <path id="Path_259" data-name="Path 259" d="M377.669,442.058a2.436,2.436,0,0,0,.606-1.346,4.682,4.682,0,0,0,.05-1.631,4.776,4.776,0,0,0-.235-.94,1.211,1.211,0,0,0-.812-.883.712.712,0,0,0-.712.314,2.137,2.137,0,0,0-.228.513,3.183,3.183,0,0,0-.157.983,3.433,3.433,0,0,0,.392,1.6c.449.841,1.019,1.1,1.033,1.054a5.961,5.961,0,0,1-.712-1.2,3.327,3.327,0,0,1-.249-1.425,3.18,3.18,0,0,1,.157-.834c.093-.306.249-.534.363-.484a1.08,1.08,0,0,1,.435.556,4.875,4.875,0,0,1,.235.848,5.434,5.434,0,0,1,.057,1.5C377.833,441.531,377.6,442.058,377.669,442.058Z" transform="translate(-315.5 -208.993)" fill="#263238"/>
        <path id="Path_260" data-name="Path 260" d="M399.734,367.263c0,.534-6.618,52.256-6.618,52.256l-19.235-3.648,7.73-53.381Z" transform="translate(-314.838 -187.494)" fill="#263238"/>
        <path id="Path_261" data-name="Path 261" d="M434.808,361.43c.178.506,13.536,52.719,13.536,52.719l-18.281,4.21L414.39,362.185Z" transform="translate(-326.489 -187.189)" fill="#263238"/>
        <path id="Path_262" data-name="Path 262" d="M405.678,173l3.762-1.282,6.568,8.976,1.767,28.839-4.538,14.854s12.823,28.269,13,35.286,5.956,72.346,5.956,72.346L373,336.843l10.936-106.862s1.425-26.2,3.1-30.121S405.678,173,405.678,173Z" transform="translate(-314.585 -132.631)" fill="#ffb224"/>
        <path id="Path_263" data-name="Path 263" d="M421.833,295.912a.711.711,0,0,1-.228.114,3.677,3.677,0,0,1-.712.192,5.044,5.044,0,0,1-2.707-.392,7.223,7.223,0,0,1-3.056-2.657,19.541,19.541,0,0,1-2.094-4.5,28.751,28.751,0,0,1-1.525-8.827,25.77,25.77,0,0,1,.121-2.714,4.336,4.336,0,0,1,.157-.983,6.187,6.187,0,0,1,0,.99c0,.641-.043,1.567,0,2.7a31.127,31.127,0,0,0,1.61,8.72,20.233,20.233,0,0,0,2.03,4.417,7.124,7.124,0,0,0,2.85,2.607,5.252,5.252,0,0,0,2.579.492C421.491,295.991,421.833,295.877,421.833,295.912Z" transform="translate(-325.66 -162.664)" fill="#263238"/>
        <path id="Path_264" data-name="Path 264" d="M432.108,363.206h-.292l-.869.086-3.341.306-12.432,1.069-42.26,3.541H372.7v-.221c.47-4.645.962-9.454,1.468-14.384,2.094-20.283,4-38.641,5.372-51.942.712-6.633,1.268-12.011,1.667-15.737.207-1.845.363-3.284.47-4.275.057-.477.1-.848.135-1.111a3.55,3.55,0,0,1,.057-.378v.378c0,.249-.05.641-.093,1.119-.093.99-.228,2.436-.406,4.274-.363,3.733-.9,9.112-1.553,15.751-1.347,13.308-3.206,31.667-5.258,51.949-.506,4.93-1,9.739-1.475,14.384l-.2-.2,42.26-3.377,12.439-.962,3.348-.242.862-.05a2.353,2.353,0,0,1,.314.021Z" transform="translate(-314.499 -163.817)" fill="#263238"/>
        <path id="Path_265" data-name="Path 265" d="M416.879,178.18a1.808,1.808,0,0,1-.157.114l-.47.292-1.824,1.111c-.791.477-1.76,1.069-2.85,1.781-.556.363-1.147.748-1.724,1.2a1.77,1.77,0,0,0-.349.342,4.493,4.493,0,0,1-.071.563c-.043.392-.093.8-.157,1.2a48.6,48.6,0,0,1-1.09,5.329,26.182,26.182,0,0,1-2.216,5.849c-1.076,1.995-3,3.427-4.773,4.987a12.11,12.11,0,0,0-2.394,2.65,5.2,5.2,0,0,0-.784,3.462,19.107,19.107,0,0,0,1.033,3.562,12.708,12.708,0,0,1,.712,3.6,17.163,17.163,0,0,1-1.211,6.8,32.238,32.238,0,0,1-2.793,5.592c-1.019,1.667-2.023,3.185-2.935,4.567-1.831,2.764-3.291,4.987-4.239,6.611-.47.8-.826,1.425-1.061,1.845l-.271.484a.947.947,0,0,1-.107.164.385.385,0,0,1,.071-.178l.235-.506c.221-.435.556-1.076,1.012-1.881.9-1.624,2.337-3.9,4.139-6.682.9-1.425,1.9-2.914,2.892-4.581a32.2,32.2,0,0,0,2.736-5.55,17.02,17.02,0,0,0,1.168-6.661,12.363,12.363,0,0,0-.712-3.512,18.908,18.908,0,0,1-1.047-3.626,5.492,5.492,0,0,1,.834-3.7,12.264,12.264,0,0,1,2.472-2.729c1.8-1.567,3.669-2.964,4.709-4.88a26.4,26.4,0,0,0,2.216-5.756,48.664,48.664,0,0,0,1.133-5.286q.1-.606.171-1.2a2.935,2.935,0,0,1,.078-.591,1.425,1.425,0,0,1,.435-.47c.606-.456,1.2-.834,1.76-1.183,1.119-.712,2.1-1.275,2.907-1.738l1.859-1.047.492-.264A1.243,1.243,0,0,1,416.879,178.18Z" transform="translate(-318.655 -134.489)" fill="#263238"/>
        <path id="Path_266" data-name="Path 266" d="M423.514,242.126a5.89,5.89,0,0,1-1.81-.2,13.665,13.665,0,0,1-4.089-1.653,13.856,13.856,0,0,1-3.341-2.85,5.486,5.486,0,0,1-1-1.525,20.02,20.02,0,0,0,4.538,4.082A20.466,20.466,0,0,0,423.514,242.126Z" transform="translate(-326.166 -151.089)" fill="#263238"/>
        <path id="Path_267" data-name="Path 267" d="M425.383,246.351a4.851,4.851,0,0,1-1.389.349,20.176,20.176,0,0,1-6.882-.05,4.5,4.5,0,0,1-1.382-.378c0-.107,2.137.314,4.823.328S425.362,246.237,425.383,246.351Z" transform="translate(-326.874 -154.067)" fill="#263238"/>
        <path id="Path_268" data-name="Path 268" d="M426.859,181.21s-4.894.071-6.59,2.964-5.1,23.88,5.094,42.032c.47.834.912.883.912.883l1.5-4.9s-2.771-20.247-3.184-22.477-1.083-15.317.869-15.566a12.918,12.918,0,0,1,1.46-.093,10.017,10.017,0,0,1,6.455,2.287l1.425,1.133A11.014,11.014,0,0,0,426.859,181.21Z" transform="translate(-327.623 -135.36)" fill="#263238"/>
        <g id="Group_37832" data-name="Group 37832" transform="translate(91.062 54.862)" opacity="0.3">
          <path id="Path_269" data-name="Path 269" d="M423.659,193.86c-5.279,9.753-5.7,21.494-3.8,32.422A7.88,7.88,0,0,0,421.194,230a2.941,2.941,0,0,0,3.562.976c.891-.5,1.631-.271,1.966-1.232,1.076-3.028,2.009-6.939,3.085-9.974C427.8,211.058,425.633,202.594,423.659,193.86Z" transform="translate(-418.827 -193.86)"/>
        </g>
        <g id="Group_37833" data-name="Group 37833" transform="translate(85.516 116.357)" opacity="0.3">
          <path id="Path_270" data-name="Path 270" d="M411.632,280.18a35.03,35.03,0,0,0,2.664,21.152A12.5,12.5,0,0,0,417,305.371a5.592,5.592,0,0,0,4.46,1.6,5.8,5.8,0,0,0,4.317-3.954,4.16,4.16,0,0,0-.456-4.2c-1.225-1.325-3.327-1.1-5.108-1.425-3.256-.6-5.8-3.334-7.074-6.412s-1.51-6.412-1.724-9.739" transform="translate(-411.041 -280.18)"/>
        </g>
        <path id="Path_271" data-name="Path 271" d="M449.982,220.573c-.171-4.417-8.592-21.878-8.592-21.878s-3.9-8.677-4.816-10.43c-2-3.811-7.587-4.218-9.6-3.056l1.56,21.543,4.624,15.673-9,16.991,11.213,11.042C450.317,248.613,450.146,224.99,449.982,220.573Z" transform="translate(-329.295 -136.346)" fill="#ffb224"/>
        <path id="Path_272" data-name="Path 272" d="M450.047,237.487A5.479,5.479,0,0,1,448,237.2c-1.247-.313-2.85-1.04-4.723-1.475a7.837,7.837,0,0,0-2.65-.2,5.316,5.316,0,0,0-2.045.663,5.621,5.621,0,0,0-1.475,1.354,1.318,1.318,0,0,1,.235-.506,3.727,3.727,0,0,1,1.1-1.069,5.327,5.327,0,0,1,2.137-.784,7.73,7.73,0,0,1,2.771.178c1.924.456,3.512,1.218,4.716,1.582S450.055,237.43,450.047,237.487Z" transform="translate(-333.022 -150.866)" fill="#263238"/>
        <path id="Path_273" data-name="Path 273" d="M444.644,229.043a8.509,8.509,0,0,1-1.646.292,10.871,10.871,0,0,0-3.762,1.161,5.051,5.051,0,0,0-2.365,2.971,5.77,5.77,0,0,0-.093,1.624,1.528,1.528,0,0,1-.164-.435,3.159,3.159,0,0,1,0-1.247,4.987,4.987,0,0,1,2.429-3.241,9.6,9.6,0,0,1,3.911-1.09,6.184,6.184,0,0,1,1.688-.036Z" transform="translate(-332.862 -149.105)" fill="#263238"/>
        <path id="Path_274" data-name="Path 274" d="M435.931,270.878a4.16,4.16,0,0,1-.819-.321,20.451,20.451,0,0,1-2.137-1.1,25.664,25.664,0,0,1-2.935-2.009,29.426,29.426,0,0,1-3.2-2.957,30.393,30.393,0,0,1-2.686-3.427,27.217,27.217,0,0,1-1.76-3.092,20.717,20.717,0,0,1-.926-2.208,4.1,4.1,0,0,1-.249-.841c.064,0,.484,1.147,1.425,2.928a29.772,29.772,0,0,0,1.81,3.021,34.02,34.02,0,0,0,2.672,3.37,31.993,31.993,0,0,0,3.142,2.942,29.339,29.339,0,0,0,2.85,2.045C434.82,270.294,435.96,270.814,435.931,270.878Z" transform="translate(-328.453 -156.558)" fill="#263238"/>
        <path id="Path_275" data-name="Path 275" d="M434.924,231.242a15.4,15.4,0,0,1-.883-2.287c-.5-1.425-1.147-3.412-1.788-5.628s-1.161-4.239-1.5-5.7a14.858,14.858,0,0,1-.456-2.408,16.909,16.909,0,0,1,.712,2.344c.4,1.425.962,3.462,1.6,5.7s1.218,4.1,1.681,5.649a17.149,17.149,0,0,1,.627,2.33Z" transform="translate(-331.064 -145.141)" fill="#263238"/>
        <path id="Path_276" data-name="Path 276" d="M424.149,254.7c-.093-.05,1.852-3.89,4.339-8.585s4.574-8.456,4.666-8.414-1.852,3.9-4.339,8.585S424.241,254.748,424.149,254.7Z" transform="translate(-329.294 -151.606)" fill="#263238"/>
        <path id="Path_277" data-name="Path 277" d="M415.735,372.634c-.1,0,.442-6.875,1.218-15.331s1.482-15.3,1.582-15.3-.442,6.875-1.211,15.331S415.842,372.634,415.735,372.634Z" transform="translate(-326.872 -181.601)" fill="#263238"/>
        <path id="Path_278" data-name="Path 278" d="M423.971,383.5a127.553,127.553,0,0,1-2.721-13.336,122.889,122.889,0,0,1,2.721,13.336Z" transform="translate(-328.461 -189.7)" fill="#263238"/>
        <path id="Path_279" data-name="Path 279" d="M405.942,363.558c0,.107-6.255-.057-13.963-.356s-13.956-.62-13.949-.712,6.255.057,13.963.349S405.942,363.422,405.942,363.558Z" transform="translate(-316.032 -187.486)" fill="#fafafa"/>
        <path id="Path_280" data-name="Path 280" d="M443.137,367.878c0,.107-5.756.043-12.823-.135s-12.823-.406-12.823-.513,5.756-.036,12.859.143S443.144,367.764,443.137,367.878Z" transform="translate(-327.38 -188.843)" fill="#fafafa"/>
        <path id="Path_281" data-name="Path 281" d="M406.675,352.91c0,.1-6.291-.107-14.035-.463s-14.027-.712-14.02-.841,6.283.107,14.035.47S406.71,352.81,406.675,352.91Z" transform="translate(-316.202 -184.354)" fill="#fafafa"/>
        <path id="Path_282" data-name="Path 282" d="M442.707,357.748c0,.107-5.528,0-12.332-.207s-12.332-.477-12.325-.577,5.521,0,12.332.207S442.714,357.648,442.707,357.748Z" transform="translate(-327.541 -185.894)" fill="#fafafa"/>
      </g>
      <g id="freepik--Plant--inject-80" transform="translate(15.771 207.206)">
        <path id="Path_283" data-name="Path 283" d="M67.718,428.576c.52-2.03-.805-4.061-2.294-5.528s-3.263-2.786-4.039-4.723c-1.254-3.149.435-7.217-1.71-9.846-1.254-1.539-3.512-2.059-4.631-3.7a8.47,8.47,0,0,1-1-2.949,29.964,29.964,0,0,0-7.445-13.935,25.932,25.932,0,0,0,2.921,13.429c.862,1.653,1.931,3.256,2.216,5.1.47,2.992-1.2,6.07-.47,9,.841,3.355,4.616,5.607,4.795,9.062.15,2.921-2.394,5.486-2.208,8.406a7.965,7.965,0,0,0,1.3,3.469c2.258,3.754,5.578,6.34,10.608,6.255l6.162.221Z" transform="translate(-46.557 -347.183)" fill="#076f82"/>
        <g id="Group_37834" data-name="Group 37834" transform="translate(0 40.707)" opacity="0.3">
          <path id="Path_284" data-name="Path 284" d="M67.718,428.576c.52-2.03-.805-4.061-2.294-5.528s-3.263-2.786-4.039-4.723c-1.254-3.149.435-7.217-1.71-9.846-1.254-1.539-3.512-2.059-4.631-3.7a8.47,8.47,0,0,1-1-2.949,29.964,29.964,0,0,0-7.445-13.935,25.932,25.932,0,0,0,2.921,13.429c.862,1.653,1.931,3.256,2.216,5.1.47,2.992-1.2,6.07-.47,9,.841,3.355,4.616,5.607,4.795,9.062.15,2.921-2.394,5.486-2.208,8.406a7.965,7.965,0,0,0,1.3,3.469c2.258,3.754,5.578,6.34,10.608,6.255l6.162.221Z" transform="translate(-46.557 -387.89)"/>
        </g>
        <path id="Path_285" data-name="Path 285" d="M82.652,434.418a4.988,4.988,0,0,0,1.7,0,10.02,10.02,0,0,0,2-.506,8.321,8.321,0,0,0,2.472-1.354,3.392,3.392,0,0,0,1.019-1.354,6.455,6.455,0,0,0,.292-1.845,19.328,19.328,0,0,1,.142-1.988,5.45,5.45,0,0,1,.755-1.981c.712-1.282,1.931-2.486,2.322-4.217a14.47,14.47,0,0,0-.171-5.407,11.324,11.324,0,0,1,.15-5.785c.712-1.924,2.009-3.669,2.686-5.842s.356-4.552.5-6.882a9.1,9.1,0,0,1,.805-3.42c.5-1.09,1.19-2.137,1.731-3.27,1.09-2.322,1.282-4.951,1.582-7.53.15-1.3.3-2.615.442-3.94a19.428,19.428,0,0,1,.712-3.94,34.658,34.658,0,0,1,1.468-3.811,12.722,12.722,0,0,0,.712-1.995,19.647,19.647,0,0,0,.2-2.137,25.918,25.918,0,0,0-.164-4.274c-.171-1.425-.427-2.85-.577-4.274v-.242l-.036-.285-.249.128a9.574,9.574,0,0,0-3.32,2.8,15.018,15.018,0,0,0-2.037,3.754,44.219,44.219,0,0,0-1.916,8.072,22.021,22.021,0,0,1-2.529,7.452c-.677,1.1-1.5,2.095-2.208,3.17a8.77,8.77,0,0,0-1.532,3.512c-.363,2.607,1.069,4.894.769,7.2a7.951,7.951,0,0,1-1.118,3.2c-.563.983-1.218,1.895-1.845,2.814a18.43,18.43,0,0,0-1.653,2.85A8.991,8.991,0,0,0,85,406.185c-.15,2.073.142,4.047,0,5.906a13.65,13.65,0,0,1-1.567,5.08c-.712,1.517-1.574,2.892-2.265,4.218a21.285,21.285,0,0,0-.933,1.966,9.261,9.261,0,0,0-.541,1.945,12.224,12.224,0,0,0-.05,3.519,8.862,8.862,0,0,0,1.767,4.488,4.127,4.127,0,0,0,.5.534,2.377,2.377,0,0,0,.406.349l.349.242a7.709,7.709,0,0,1-1.19-1.175,8.9,8.9,0,0,1-1.674-4.46,11.9,11.9,0,0,1,.078-3.462,9.674,9.674,0,0,1,.541-1.9c.264-.641.591-1.282.94-1.938.712-1.318,1.539-2.686,2.3-4.21a13.792,13.792,0,0,0,1.574-5.151c.164-1.9-.128-3.883,0-5.913a8.727,8.727,0,0,1,.712-2.985,18.2,18.2,0,0,1,1.631-2.786c.627-.912,1.289-1.831,1.867-2.85a8.228,8.228,0,0,0,1.175-3.327c.3-2.458-1.126-4.766-.755-7.188a8.307,8.307,0,0,1,1.475-3.356c.712-1.054,1.525-2.052,2.223-3.177A22.391,22.391,0,0,0,96.2,373a46.324,46.324,0,0,1,1.909-8,14.818,14.818,0,0,1,1.981-3.662,9.162,9.162,0,0,1,3.177-2.679l-.278-.157v.249c.15,1.425.406,2.85.577,4.274a25.241,25.241,0,0,1,.164,4.2,20.045,20.045,0,0,1-.192,2.059,12.372,12.372,0,0,1-.712,1.916,35.7,35.7,0,0,0-1.489,3.861,19.564,19.564,0,0,0-.712,4q-.221,1.988-.435,3.94c-.3,2.586-.492,5.179-1.546,7.416-.52,1.118-1.211,2.137-1.724,3.277a9.589,9.589,0,0,0-.826,3.562c-.128,2.379.178,4.7-.463,6.811s-1.988,3.847-2.664,5.835a12.224,12.224,0,0,0-.128,5.927,13.844,13.844,0,0,1,.2,5.3c-.392,1.639-1.532,2.85-2.273,4.168A5.649,5.649,0,0,0,90,427.365a18.524,18.524,0,0,0-.135,2.016,6.247,6.247,0,0,1-.256,1.8,3.455,3.455,0,0,1-.962,1.3,8.678,8.678,0,0,1-2.408,1.361,10.689,10.689,0,0,1-1.981.534,7.658,7.658,0,0,1-1.247.121Z" transform="translate(-56.041 -338.627)" fill="#263238"/>
        <path id="Path_286" data-name="Path 286" d="M103.4,363.31a.647.647,0,0,0-.057.185,3.421,3.421,0,0,1-.135.556c-.121.484-.271,1.218-.5,2.137s-.805,1.945-1.282,3.213q-.821,2.15-1.425,4.374c-.47,1.646-.891,3.469-1.325,5.421a22.8,22.8,0,0,1-1.973,6.02c-.506,1-1.076,2.016-1.525,3.12a14.748,14.748,0,0,0-.891,3.562,70.722,70.722,0,0,1-1.325,7.452c-1.232,5.051-2.415,9.86-3.484,14.248l-2.921,11.612c-.812,3.284-1.468,5.956-1.938,7.836-.214.9-.385,1.617-.506,2.137-.05.228-.085.406-.121.556a.57.57,0,0,0,0,.192.776.776,0,0,0,0-.178l.157-.541.577-2.137c.5-1.874,1.2-4.531,2.059-7.8s1.881-7.259,3.014-11.605,2.265-9.19,3.512-14.248a69.546,69.546,0,0,0,1.325-7.487,14.375,14.375,0,0,1,.855-3.448c.435-1.076,1-2.087,1.5-3.1a23.088,23.088,0,0,0,1.966-6.112c.42-1.959.819-3.776,1.268-5.414a42.641,42.641,0,0,1,1.425-4.367,28.1,28.1,0,0,0,1.225-3.263c.228-.947.328-1.66.427-2.137a3.182,3.182,0,0,1,.093-.563A.714.714,0,0,0,103.4,363.31Z" transform="translate(-57.322 -340.114)" fill="#263238"/>
        <path id="Path_287" data-name="Path 287" d="M76.451,426.563c4.025-2.394,5.179-9.653,3.5-14.027s-4.616-8.364-5.072-13.023c-.349-3.562.826-7.259,0-10.765-1.126-4.723-5.742-8.385-5.7-13.237,0-2.729,1.582-5.293,1.425-8.015-.15-3.341-2.714-5.991-4.274-8.934-2.429-4.5-2.586-9.824-3.42-14.875s-2.75-10.458-7.231-12.937c-.655,4.275-1.788,7.224-1.425,13.03.128,2.087,2.55,6.077,2.85,10.651.2,2.729.335,5.464.5,8.2a25.658,25.658,0,0,0,1.289,7.837c.712,1.909,1.909,3.64,2.451,5.607,1.019,3.7-.321,7.723.506,11.477.712,3.177,2.9,5.913,3.348,9.14.627,4.531-2.3,9.261-.805,13.536.712,2.137,2.515,3.868,3.014,6.084.385,1.717,0,3.562.313,5.258.57,2.786,5.87,4.944,8.706,4.773" transform="translate(-48.75 -330.75)" fill="#2c7195"/>
        <path id="Path_288" data-name="Path 288" d="M57.847,336.72a1.032,1.032,0,0,0,0,.242l.085.712c.093.62.2,1.532.406,2.707s.834,2.508,1.325,4.118,1.019,3.441,1.475,5.507.841,4.353,1.247,6.811a28.425,28.425,0,0,0,2.059,7.7c.57,1.289,1.2,2.579,1.674,3.947a17.4,17.4,0,0,1,.848,4.353,88.976,88.976,0,0,0,1.183,9.375l3.477,17.9c1.126,5.486,2.137,10.43,3,14.59s1.56,7.48,2.052,9.824c.242,1.14.442,2.03.577,2.672.064.285.121.513.157.712a1.348,1.348,0,0,0,.071.235,1.426,1.426,0,0,0,0-.242,5.929,5.929,0,0,0-.121-.712c-.121-.641-.292-1.539-.506-2.686-.463-2.351-1.118-5.7-1.931-9.853s-1.817-9.112-2.914-14.6-2.223-11.548-3.441-17.9a88.1,88.1,0,0,1-1.183-9.34,17.967,17.967,0,0,0-.883-4.453c-.484-1.425-1.126-2.693-1.7-3.968a28.639,28.639,0,0,1-2.073-7.608c-.413-2.458-.819-4.752-1.3-6.818s-1-3.925-1.539-5.521-1.14-2.928-1.382-4.082-.356-2.073-.477-2.686c-.05-.285-.093-.52-.128-.712a.928.928,0,0,0-.064-.221Z" transform="translate(-49.802 -332.467)" fill="#263238"/>
      </g>
    </g>
  </g>
</svg>
