<svg xmlns="http://www.w3.org/2000/svg" xmlns:xlink="http://www.w3.org/1999/xlink" width="354.497" height="359.944" viewBox="0 0 354.497 359.944">
  <defs>
    <clipPath id="clip-path">
      <path id="Path_39344" data-name="Path 39344" d="M286.181,222.533a1.149,1.149,0,0,0,0-.171,19.812,19.812,0,0,0-.96-6.13,71.62,71.62,0,0,0-1.749-7.33,17.249,17.249,0,0,0-7.819-10.382,6.456,6.456,0,0,0-.772-.48.7.7,0,0,0-.171-.1l-.18-.094c-4.887-2.692-10.382-1.432-14.574.48a13.6,13.6,0,0,0-5.272,4.218,21.048,21.048,0,0,0-3.806,6.739,20.087,20.087,0,0,0-2.915,21.613,28.921,28.921,0,0,0,.249,3.1c0,.137.206.111.206,0v-2.169a16.249,16.249,0,0,0,.857,1.389v1.063c0,.5.737,1.037,1.989,1.577a20.1,20.1,0,0,0,30.169-.463,20.241,20.241,0,0,0,3.515-2.092c.54-.4.712-2.572.557-5.607a16.559,16.559,0,0,0,.48-2.169c.24,2.255.429,4.518.609,6.781,0,.163.257.146.257,0a96.972,96.972,0,0,0-.669-9.773ZM279.52,202.5c-.18-.266-.377-.523-.566-.772a20.945,20.945,0,0,1,4.518,9.028c.223.857.429,1.766.617,2.649a20.055,20.055,0,0,0-1.1-1.912h0C282.014,207.728,280.857,204.41,279.52,202.5Z" transform="translate(-246.05 -196.297)" fill="none"/>
    </clipPath>
    <clipPath id="clip-path-2">
      <path id="Path_39366" data-name="Path 39366" d="M296.18,145.63a20.1,20.1,0,1,1-30.323-17.292c.934-3,3.352-5.855,8.745-7.21,10.554-2.632,12.86,4.981,13.117,5.8h0a29.314,29.314,0,0,1,.934,2.983,19.993,19.993,0,0,1,7.527,15.715Z" transform="translate(-255.987 -120.578)" fill="none"/>
    </clipPath>
  </defs>
  <g id="Online_Review-cuate" data-name="Online Review-cuate" transform="translate(-42.723 -41.3)">
    <g id="freepik--background-complete--inject-146" transform="translate(74.172 79.912)">
      <circle id="Ellipse_1541" data-name="Ellipse 1541" cx="30.52" cy="30.52" r="30.52" transform="translate(0 71.031) rotate(-80.52)" fill="#c7c7c7"/>
      <circle id="Ellipse_1542" data-name="Ellipse 1542" cx="29.123" cy="29.123" r="29.123" transform="translate(7.402 17.499)" fill="#a6a6a6"/>
      <circle id="Ellipse_1543" data-name="Ellipse 1543" cx="27.288" cy="27.288" r="27.288" transform="translate(9.236 19.334)" fill="#fff"/>
      <rect id="Rectangle_20217" data-name="Rectangle 20217" width="0.523" height="4.132" transform="translate(36.259 21.323)" fill="#dbdbdb"/>
      <rect id="Rectangle_20218" data-name="Rectangle 20218" width="0.532" height="4.132" transform="translate(23.649 24.838) rotate(-30)" fill="#dbdbdb"/>
      <rect id="Rectangle_20219" data-name="Rectangle 20219" width="0.523" height="4.132" transform="translate(14.471 34.198) rotate(-60)" fill="#dbdbdb"/>
      <rect id="Rectangle_20220" data-name="Rectangle 20220" width="4.132" height="0.532" transform="translate(11.217 46.356)" fill="#dbdbdb"/>
      <rect id="Rectangle_20221" data-name="Rectangle 20221" width="4.132" height="0.523" transform="translate(14.485 59.04) rotate(-30.01)" fill="#dbdbdb"/>
      <rect id="Rectangle_20222" data-name="Rectangle 20222" width="4.132" height="0.532" transform="translate(23.647 68.415) rotate(-60.03)" fill="#dbdbdb"/>
      <rect id="Rectangle_20223" data-name="Rectangle 20223" width="0.523" height="4.132" transform="translate(36.259 67.789)" fill="#dbdbdb"/>
      <rect id="Rectangle_20224" data-name="Rectangle 20224" width="0.532" height="4.132" transform="translate(46.873 65.081) rotate(-30)" fill="#dbdbdb"/>
      <rect id="Rectangle_20225" data-name="Rectangle 20225" width="0.523" height="4.132" transform="translate(54.717 57.423) rotate(-60)" fill="#dbdbdb"/>
      <rect id="Rectangle_20226" data-name="Rectangle 20226" width="4.132" height="0.532" transform="translate(57.692 46.356)" fill="#dbdbdb"/>
      <rect id="Rectangle_20227" data-name="Rectangle 20227" width="4.132" height="0.523" transform="translate(54.719 35.82) rotate(-30)" fill="#dbdbdb"/>
      <rect id="Rectangle_20228" data-name="Rectangle 20228" width="4.132" height="0.532" transform="translate(46.88 28.165) rotate(-60.03)" fill="#dbdbdb"/>
      <rect id="Rectangle_20229" data-name="Rectangle 20229" width="26.405" height="0.523" transform="translate(28.675 61.462) rotate(-63.03)" fill="#dbdbdb"/>
      <rect id="Rectangle_20230" data-name="Rectangle 20230" width="0.703" height="26.002" transform="translate(34.33 37.416) rotate(-11.32)" fill="#263238"/>
      <g id="freepik--xsrjP0--inject-146" transform="translate(101.671)">
        <path id="Path_39230" data-name="Path 39230" d="M212.348,113.362c-.669-.42-1.243-1.029-2.143-.943-.343,0-.266-.249-.266-.437V101.891a.549.549,0,0,1,.283-.583c2.572-1.295,3.678-3.841,5.255-6a10.039,10.039,0,0,0,1.86-7.63c-.1-.763.249-1.1.934-1.252a1.715,1.715,0,0,1,1.912.6,13.511,13.511,0,0,1,1.475,4.407,15.75,15.75,0,0,1-.472,3.781c-.12.926-.334,1.843-.506,2.778.223.163.489.077.729.077h8.522c1.2,0,1.783.343,1.955,1.132a2.289,2.289,0,0,1-1.243,2.469c-.206.1-.592,0-.617.343s.369.3.566.437c1.029.712.857,2.16-.352,3-.292.206-.857.111-.857.532s.514.334.746.566a1.9,1.9,0,0,1-.857,2.975,4.945,4.945,0,0,0-.5.189c-.146.094-.283.206,0,.394a1.686,1.686,0,0,1,0,3l-.369.266a2.435,2.435,0,0,1-1.5.326H213.539a1.569,1.569,0,0,1-1.192-.334Z" transform="translate(-199.702 -86.338)" fill="#dbdbdb" fill-rule="evenodd"/>
        <path id="Path_39231" data-name="Path 39231" d="M198,109.766v-6.413c0-.429,0-.643.574-.643h7.819c.514,0,.592.171.592.626V116.2c0,.54-.146.7-.694.686h-7.579c-.634,0-.72-.214-.712-.763Z" transform="translate(-197.999 -88.674)" fill="#dbdbdb" fill-rule="evenodd"/>
      </g>
      <g id="freepik--xsrjp0--inject-146-2" data-name="freepik--xsrjp0--inject-146" transform="translate(278.908 116.682)">
        <path id="Path_39232" data-name="Path 39232" d="M424.294,223.812c.669.42,1.252,1.029,2.143.943.343,0,.266.249.274.437v10.091c0,.24,0,.446-.274.583-2.572,1.295-3.686,3.841-5.264,6a10.073,10.073,0,0,0-1.86,7.63c.111.763-.249,1.1-.926,1.252a1.715,1.715,0,0,1-1.92-.6A13.5,13.5,0,0,1,415,245.742a15.735,15.735,0,0,1,.463-3.781c.12-.926.334-1.835.514-2.778-.231-.163-.489-.077-.729-.077h-8.53c-1.2,0-1.783-.343-1.946-1.132a2.28,2.28,0,0,1,1.235-2.469c.214-.1.6,0,.626-.343s-.377-.3-.566-.437c-1.029-.712-.857-2.16.352-3,.283-.206.857-.111.857-.532s-.506-.334-.746-.566a1.9,1.9,0,0,1,.857-2.975,3.744,3.744,0,0,0,.5-.189c.146-.094.283-.206,0-.394a1.692,1.692,0,0,1,0-3l.369-.266a2.434,2.434,0,0,1,1.5-.326H423.12A1.569,1.569,0,0,1,424.294,223.812Z" transform="translate(-404.734 -222.586)" fill="#dbdbdb" fill-rule="evenodd"/>
        <path id="Path_39233" data-name="Path 39233" d="M440.835,229.6v6.413c0,.429,0,.643-.574.643q-3.909-.051-7.819,0c-.514,0-.592-.171-.592-.626v-12.9c0-.54.146-.694.694-.686h7.587c.626,0,.712.214.712.763C440.817,225.321,440.835,227.455,440.835,229.6Z" transform="translate(-408.603 -222.44)" fill="#dbdbdb" fill-rule="evenodd"/>
      </g>
      <path id="Path_39234" data-name="Path 39234" d="M291.81,284.69V402.408h71.157V284.69Zm64.684,74.252H298.266V328.31h58.229Zm0-37.928H298.266V290.383h58.229Z" transform="translate(-109.713 -114.64)" fill="#ebebeb"/>
      <rect id="Rectangle_20231" data-name="Rectangle 20231" width="28.446" height="117.675" transform="translate(253.237 170.05)" fill="#dbdbdb"/>
      <rect id="Rectangle_20232" data-name="Rectangle 20232" width="13.837" height="30.632" transform="translate(188.561 175.734)" fill="#dbdbdb"/>
      <path id="Path_39235" data-name="Path 39235" d="M357.987,408.837H299.27V378.78h58.717Zm-57.86-.857h57V379.637h-57Z" transform="translate(-110.778 -128.066)" fill="#dbdbdb"/>
      <rect id="Rectangle_20233" data-name="Rectangle 20233" width="11.488" height="5.813" transform="translate(209.676 259.356)" fill="#dbdbdb"/>
      <path id="Path_39236" data-name="Path 39236" d="M339.794,394.665H327.44v-5.8h12.354Zm-11.5-.857h10.639v-4.081H328.3Z" transform="translate(-114.797 -129.505)" fill="#dbdbdb"/>
      <rect id="Rectangle_20234" data-name="Rectangle 20234" width="13.837" height="30.632" transform="translate(188.561 213.67)" fill="#dbdbdb"/>
    </g>
    <g id="freepik--Floor--inject-146" transform="translate(75.118 367.08)">
      <path id="Path_39237" data-name="Path 39237" d="M80.51,421.72l38.1-.206,38.091-.077,76.2-.137,76.19.137,38.1.077,38.1.206-38.1.214-38.1.077-76.19.137-76.2-.137-38.091-.077Z" transform="translate(-80.51 -421.3)" fill="#263238"/>
    </g>
    <g id="freepik--Shadows--inject-146" transform="translate(48.765 373.621)">
      <ellipse id="Ellipse_1544" data-name="Ellipse 1544" cx="121.679" cy="13.811" rx="121.679" ry="13.811" fill="#ebebeb"/>
      <ellipse id="Ellipse_1545" data-name="Ellipse 1545" cx="60.784" cy="7.939" rx="60.784" ry="7.939" transform="translate(226.888 5.873)" fill="#ebebeb"/>
    </g>
    <g id="freepik--Puff--inject-146" transform="translate(42.723 208.887)">
      <path id="Path_39238" data-name="Path 39238" d="M78.453,414.716l140.6.609c34.173-26.842,37.722-66.6,13.323-90.7-14.754-14.574-33.5-11.634-51.336-13.957h-.051a52.516,52.516,0,0,1-18.1-5.307c-18.372-9.7-28.729-32.578-44.186-51.79-1.929-2.409-3.944-4.758-6.053-7.013-12.714-13.571-38.013-14.017-51.242,5.067C27.8,300.093,43.209,372.253,78.453,414.716Z" transform="translate(-42.723 -236.779)" fill="#dbdbdb"/>
      <path id="Path_39239" data-name="Path 39239" d="M80.724,306.01c3.686,57.689,70.3,79.224,111.922,61.941,36.179-15.029,24.339-49.321-6.2-55.065h-.069a52.516,52.516,0,0,1-18.1-5.307c-18.372-9.7-28.729-32.578-44.186-51.79C101.085,243.821,78.023,263.77,80.724,306.01Z" transform="translate(-48.115 -239.002)" fill="#c7c7c7"/>
    </g>
    <g id="freepik--Character--inject-146" transform="translate(88.779 174.146)">
      <path id="Path_39240" data-name="Path 39240" d="M209.287,426.021c-1.946-.712-45.918-35.861-46.749-38.262-.326-.909,4.424-7.613,10.391-15.552,1.286-1.715,2.623-3.429,4-5.255,8.89-11.582,18.587-23.662,18.587-23.662l29.483,23.43L205.6,389.731l-4.287,5.058s10.819,20.987,11.445,23.713S211.233,426.732,209.287,426.021Z" transform="translate(-105.872 -217.235)" fill="#ad6359"/>
      <path id="Path_39241" data-name="Path 39241" d="M209.287,429.959c-1.946-.712-45.918-35.861-46.749-38.262-.386-1.106,6.7-10.776,14.386-20.807L205.6,393.669l-4.287,5.058s10.819,20.987,11.445,23.713S211.233,430.671,209.287,429.959Z" transform="translate(-105.873 -221.173)" fill="#fff"/>
      <path id="Path_39242" data-name="Path 39242" d="M209.287,430.834c-1.946-.712-45.918-35.861-46.749-38.262-.326-.909,4.424-7.613,10.391-15.552L201.339,399.6s10.819,20.987,11.445,23.713S211.233,431.545,209.287,430.834Z" transform="translate(-105.872 -222.048)" fill="#ffc727"/>
      <path id="Path_39243" data-name="Path 39243" d="M210.57,431.266c-7.227-6.07-36.95-29.886-44.58-35.339-.069-.043-.094,0,0,.051,7.03,6.173,36.95,29.74,44.495,35.407C210.613,431.506,210.7,431.394,210.57,431.266Z" transform="translate(-106.358 -224.743)" fill="#263238"/>
      <path id="Path_39244" data-name="Path 39244" d="M217.559,426.244a7.57,7.57,0,0,0-5.847-1.715,7.3,7.3,0,0,0-4.792,2.623c0,.043.043.111.086.069a8.762,8.762,0,0,1,10.476-.857.071.071,0,1,0,.077-.12Z" transform="translate(-112.207 -228.818)" fill="#263238"/>
      <path id="Path_39245" data-name="Path 39245" d="M208.625,406.312c-2.923-2.4-7.176-4.089-10.939-3.146-.146.043-.086.249,0,.274a52.347,52.347,0,0,1,10.665,3.275.244.244,0,0,0,.274-.4Z" transform="translate(-110.877 -225.741)" fill="#263238"/>
      <path id="Path_39246" data-name="Path 39246" d="M210.446,409.432c-2.915-2.4-7.167-4.089-10.931-3.146-.146.043-.086.249,0,.274a52.508,52.508,0,0,1,10.691,3.309.249.249,0,1,0,.24-.437Z" transform="translate(-111.138 -226.186)" fill="#263238"/>
      <path id="Path_39247" data-name="Path 39247" d="M212.276,412.632c-2.915-2.4-7.167-4.089-10.931-3.146-.146,0-.094.249,0,.266A52.838,52.838,0,0,1,212,413.035a.244.244,0,1,0,.274-.4Z" transform="translate(-111.399 -226.642)" fill="#263238"/>
      <path id="Path_39248" data-name="Path 39248" d="M214.106,415.792c-2.915-2.4-7.167-4.089-10.931-3.146-.146,0-.094.24,0,.266a52.3,52.3,0,0,1,10.656,3.284.244.244,0,1,0,.274-.4Z" transform="translate(-111.66 -227.093)" fill="#263238"/>
      <path id="Path_39249" data-name="Path 39249" d="M173.834,389.389c-3.318-2.632-7.416,2.521-4.1,5.144S177.16,392.029,173.834,389.389Z" transform="translate(-106.726 -223.709)" fill="#263238"/>
      <path id="Path_39250" data-name="Path 39250" d="M219.17,400.268c-.5-2.435-3.352-2.726-5.3-2.178a19.838,19.838,0,0,0-8.71,5.4.1.1,0,0,0,0,.163.454.454,0,0,0,.343.66c3.258.223,6.721.857,9.953.086C217.37,403.981,219.65,402.566,219.17,400.268Zm-8.625,3.378c-1.612-.069-3.206-.223-4.81-.24,1.715-1.046,3.344-2.16,5.144-3.043a21.953,21.953,0,0,1,2.666-1.123c1.423-.463,6.293-.617,4.021,2.829-1.243,1.912-5.11,1.663-7.021,1.577Z" transform="translate(-111.949 -225.021)" fill="#263238"/>
      <path id="Path_39251" data-name="Path 39251" d="M195.324,397.829c2.255,2.443,5.487,3.832,8.325,5.453a.454.454,0,0,0,.652-.36c.06,0,.12,0,.111-.111a19.778,19.778,0,0,0-4.244-9.336c-1.312-1.543-3.841-2.881-5.615-1.14S194,396.4,195.324,397.829Zm-.437-3.1c0-4.132,3.987-1.295,4.912-.129a20.694,20.694,0,0,1,1.586,2.426,51.777,51.777,0,0,1,2.572,5.392c-1.346-.857-2.752-1.646-4.132-2.478-1.586-.994-4.955-2.941-4.938-5.212Z" transform="translate(-110.316 -224.116)" fill="#263238"/>
      <path id="Path_39252" data-name="Path 39252" d="M248.406,313.607c-.051,4.407-4.458,12.448-10.494,21.433-11.608,17.309-29.277,38.1-33.641,43.174l-.994,1.149-31.223-24,.36-.463,27.494-36.007-82.028-.48,31.146-24.219s2.529,1.457,7.776.686c18.106-2.649,58.923-8.513,68.542-8.127C237.758,287.279,248.595,299.427,248.406,313.607Z" transform="translate(-99.503 -209.165)" fill="#455a64"/>
      <path id="Path_39253" data-name="Path 39253" d="M246.989,340.4c-11.608,17.309-29.277,38.1-33.641,43.174l-31.858-23.31,27.494-36.007Z" transform="translate(-108.579 -214.52)" fill="#263238"/>
      <path id="Path_39254" data-name="Path 39254" d="M223.214,308.645a36.574,36.574,0,0,0-2.838,3.635l-2.923,3.807v.043c.171-.377.343-.754.523-1.123.609-1.269,1.1-2.572,1.826-3.789.043-.077-.069-.146-.111-.069-.746,1.2-1.612,2.349-2.246,3.618-.3.592-.583,1.2-.857,1.809-.146.334-.3.677-.429,1.012-.06.163-.129.326-.18.5-.429.592-.857,1.183-1.277,1.792-.926,1.337-1.715,2.752-2.683,4.089-.051.069.069.137.12.069.943-1.252,2.006-2.418,2.975-3.661s1.912-2.572,2.829-3.875,1.775-2.572,2.675-3.841a39.237,39.237,0,0,0,2.7-3.952.06.06,0,0,0-.1-.06Z" transform="translate(-112.933 -212.288)" fill="#263238"/>
      <path id="Path_39255" data-name="Path 39255" d="M130.746,253.762c5.813,7.159,26.92,27.623,40.1,30.623,7.261,1.655,42.351,6.567,47.152,2.186,5.641-5.144,3.026-24.442-1.457-24.622-13.666-.54-38.956,2.135-45.275.746-2.863-.634-18-10.408-34.19-18.218C131,241.519,126.828,248.892,130.746,253.762Z" transform="translate(-101.121 -203.039)" fill="#ad6359"/>
      <path id="Path_39256" data-name="Path 39256" d="M210.907,260.131s-.077.746-.206,2.015a2.557,2.557,0,0,1-.06.66c-.077.729-.163,1.586-.257,2.529v.334q-.111,1.183-.257,2.521c0,.214-.051.437-.069.66-.086.814-.18,1.663-.266,2.529v.334c-.094.857-.18,1.715-.274,2.572,0,.214-.051.437-.069.652-.094.857-.189,1.715-.283,2.529a.9.9,0,0,1-.043.334c-.094.857-.189,1.715-.283,2.529l-.077.652c-.069.54-.129,1.072-.189,1.586-.043.317-.086.634-.12.943v.334q-.094.72-.18,1.389c-.051.394-.1.78-.146,1.14a3.976,3.976,0,0,1-.1.652c-.171,1.174-.317,2.058-.446,2.572a1.227,1.227,0,0,1-.111.334s-.043.051-.06.051l-.437-.051-1.217-.129-.66-.069-1.406-.137-1.115-.111h-.343l-2.521-.257-.66-.069-2.521-.257h-.343l-2.521-.266-.66-.069-2.521-.274h-.343l-2.521-.274-.66-.077-2.521-.292H184.1l-2.52-.3-.66-.077-.54-.069-1.98-.249-.343-.043-2.521-.334h-.163l-.5-.069-2.521-.36-.343-.051q-1.363-.206-2.521-.412l-.66-.12c-.994-.18-1.852-.352-2.521-.523l-.343-.086-.18-.051a10.622,10.622,0,0,1-2.023-.857l-.317-.163-.309-.171-.352-.2c-.78-.463-1.62-1-2.521-1.629-.111-.069-.223-.154-.343-.24l-.652-.463-.9-.652-.969-.729-.66-.506-1.629-1.295-.42-.334-.472-.386-.343-.283-.454-.369c-.583-.489-1.183-.977-1.775-1.492a3.754,3.754,0,0,1-.291-.249l-.48-.4-.18-.154c-.857-.72-1.715-1.449-2.521-2.195l-.206-.18-.137-.12-.24-.214-2.28-2.049-.532-.48-.129-.12-.6-.54c-.652-.592-1.295-1.192-1.929-1.783l-.48-.523-.463-.429-.36-.334-1.715-1.6-.66-.626-.317-.3-.694-.66-1.517-1.457-.334-.326-.754-.737-.352-.343-1.406-1.423-.652-.652-.472-.463-.549-.557-.094-.1a14.069,14.069,0,0,1-1.415-1.672c-.12-.154-.231-.317-.334-.48s-.163-.249-.24-.369a2.8,2.8,0,0,1-.206-.343,11.694,11.694,0,0,1-1.14-2.521,6.418,6.418,0,0,1-.2-.66,8.444,8.444,0,0,1-.274-2.521v-.343a4.964,4.964,0,0,1,.934-2.521,4.191,4.191,0,0,1,.634-.66,3.65,3.65,0,0,1,.454-.334,3.12,3.12,0,0,1,.334-.2,5.821,5.821,0,0,1,2.529-.609h.686a12.092,12.092,0,0,1,2.126.291h0l.4.1a2.394,2.394,0,0,1,.334.086,19.666,19.666,0,0,1,1.98.652l.549.223.66.283.326.154c.437.2.857.42,1.355.669l.857.437.334.18L144.3,247.2l.223.12.411.223a2.308,2.308,0,0,1,.249.137c.857.454,1.715.917,2.521,1.38l.343.189,1.457.857,1.063.6.111.06.549.309,2.521,1.432.343.2,1.02.583.6.343.857.514.66.386,2.521,1.44.309.18h0l1.115.643,1.406.789.66.377,2.452,1.355h.069l.343.18.24.129c.857.437,1.586.857,2.28,1.175l.66.309a16.819,16.819,0,0,0,2.521,1h.129l.214.051a3.144,3.144,0,0,0,.36.06,20.493,20.493,0,0,0,2.16.043h.66c.737,0,1.586,0,2.521-.077h.343l1.02-.043,1.5-.069h.66l2.521-.137h.343l2.521-.146h.66l2.521-.154h.343l2.521-.154.66-.043,2.521-.163h.343l2.521-.171.66-.043,2.521-.171h.343l2.521-.171.66-.051,2.521-.18h.343Z" transform="translate(-100.874 -202.909)" fill="#ffc727"/>
      <path id="Path_39257" data-name="Path 39257" d="M129.938,243.5v10.948c-.12-.154-.231-.317-.334-.48V243.679a3.125,3.125,0,0,1,.334-.18Zm5.71-.206v17.086l.334.326V243.379a2.394,2.394,0,0,0-.326-.086Zm-3.181-.4v14.351l.652.652v-15Zm6.044,1.363v18.861l.66.626v-19.2Zm3.181,1.543v20.336l.334.309V245.976Zm6.044,3.275V271.61l.137.12.206.18V249.26Zm-2.769-1.517-.412-.223v21.536h.129l.532.48V247.691a2.308,2.308,0,0,0-.249-.137Zm5.744,3.181-.111-.06V274.1l.18.154.48.4V251.043Zm3.069,1.715v24.3l.343.283V252.672Zm6.353,3.644-.309-.18v25.479c.12.086.231.171.343.24V256.118Zm-3.489-1.963v24.956l.66.506V254.5Zm6.044,3.429v25.917h.352l.309.171V257.927Zm3.181,1.766v25.394l.343.086V259.513Zm6.173,2.829h-.129v23.7l.343.051V262.162Zm-3.309-1.346v24.519l.66.12V261.125Zm6,1.5v24h.66V262.3Zm3.181-.094v24.493l.343.043V262.205Zm6-.3v25.522h.343V261.905Zm-3.181.171v24.974l.66.077V262.06Zm6-.334v26.011l.66.077V261.725Zm3.181-.189v26.577h.343V261.562Zm6.044-.386v27.588h.343V261.159Zm-3.181.206v27.04l.66.069V261.348Zm6.044-.4v28.068l.66.069V260.988Zm3.181-.214v28.609h.343V260.748Zm6.044-.429V285.2q.086-.669.18-1.389v-.334a7.277,7.277,0,0,1,.12-.943V260.319Zm-3.181.231v29.089l.66.069v-29.2Zm-1.406,28.952,1.406.137.66.069,1.217.129h.5a1.227,1.227,0,0,0,.111-.334Zm-28.291-3.181h.163l2.521.334.343.043,1.98.249h27.751a3.664,3.664,0,0,1,.1-.652Zm-12.234-2.863.309.171.317.163h44.795v-.334Zm-8.445-6.044.42.334h54.011a.9.9,0,0,1,.043-.334Zm3.678,2.863.9.652H208.6l.077-.652Zm-7.493-6,.48.4a3.741,3.741,0,0,0,.291.249h57.937a5.6,5.6,0,0,1,.069-.652Zm-3.284-2.863.24.214.137.12h61.864v-.334Zm-6.627-6.044.36.334h69.134v-.334Zm3.086,2.855.6.54v.12h65.482a5.553,5.553,0,0,1,.069-.66Zm35.364-6.044-1.02.043h-.343c-.934,0-1.783.069-2.521.077h-.66a20.5,20.5,0,0,1-2.16-.043,3.151,3.151,0,0,1-.36-.06v-.051H137.5l.694.66h72.46c0-.231.043-.454.06-.66Zm-13.108-2.649-.343-.18H134.541l.352.343h31.558Zm-10.965-6.276H129.157a2.8,2.8,0,0,0,.206.343h26.38Zm5.024,2.881h-28.8l.094.1.549.557H161.3ZM150.6,250.7l-1.063-.6H127.82a6.418,6.418,0,0,0,.2.66H150.71Zm-6.044-3.344-.223-.12H127.58v.343H145Zm-5.384-2.795-.66-.283-.549-.223h-8.813a4.193,4.193,0,0,0-.634.66H139.5Z" transform="translate(-100.887 -202.909)" fill="#fff" opacity="0.2"/>
      <path id="Path_39258" data-name="Path 39258" d="M153.317,276.421c-8.17-6.756-17.532-15.792-21.879-20.181-6-6.044-5.375-15.1,3.8-13.04h0C137.731,247.333,148.611,267.617,153.317,276.421Z" transform="translate(-100.879 -202.911)" fill="#263238"/>
      <path id="Path_39259" data-name="Path 39259" d="M217.788,266.069c0-.077-.111-.1-.129,0-.394,1.989-.557,4.029-.78,6.044s-.437,4.158-.626,6.25c-.369,4.149-.806,8.333-.943,12.508a.137.137,0,0,0,.266,0c.626-4.1.96-8.264,1.346-12.388.189-2.04.377-4.089.523-6.138S217.813,268.152,217.788,266.069Z" transform="translate(-113.405 -206.207)" fill="#263238"/>
      <path id="Path_39260" data-name="Path 39260" d="M151.049,306.625a4.184,4.184,0,0,1-1.363.437l-.343.069-.857.18-1.629.291-.266.043-.394.06-2.521.4-.343.043c-.8.129-1.637.249-2.521.377l-.66.094-2.521.352-.343.043-2.521.343-.66.086-2.521.326-.343.043-1.02.129-1.5.2h-.291a.916.916,0,0,0-.369.051l-2.521.309-.343.043-2.135.257-.386.043-.66.086-2.521.309-.343.043-2.521.291-.66.077-2.521.291-.343.043-2.521.291a4.205,4.205,0,0,0-.66.077l-2.521.274-.343.043h-.429l-2.092.223-.66.077-2.521.257-.343.043h-.12c-.934.094-1.715.171-2.4.223l-.66.06-.72.051a2.644,2.644,0,0,1-.583,0,.609.609,0,0,1-.051-.334,24.084,24.084,0,0,1,.12-2.52,2.971,2.971,0,0,1,.051-.66c.069-.746.154-1.586.257-2.529v-.334c.086-.789.18-1.629.283-2.529l.077-.652c.094-.806.2-1.655.309-2.572v-.334q.094-.669.18-1.363l.154-1.166a5.908,5.908,0,0,1,.086-.652c.111-.857.231-1.663.352-2.529l.051-.334a.953.953,0,0,1,0-.146c.111-.78.223-1.577.343-2.383a4.422,4.422,0,0,1,.094-.652c.129-.857.257-1.672.386-2.529l.051-.334c.129-.857.257-1.715.394-2.572a4.506,4.506,0,0,1,.111-.652c.129-.857.274-1.715.412-2.529a.76.76,0,0,1,.051-.334c.146-.857.291-1.715.446-2.529a3.455,3.455,0,0,1,.111-.652c.043-.214.077-.463.12-.686l.334-1.843v-.06l.051-.274c.154-.857.317-1.715.48-2.529a2.922,2.922,0,0,1,.129-.652c.154-.857.326-1.715.489-2.572l.077-.334c.171-.857.343-1.715.523-2.529.051-.223.094-.437.137-.66.189-.857.377-1.715.574-2.521a.459.459,0,0,1,.06-.274c.06-.094,0-.043,0-.06.2-.857.4-1.715.6-2.529l.051-.2a1.845,1.845,0,0,1,.12-.463c.214-.857.429-1.715.652-2.521a1.281,1.281,0,0,1,.094-.343c.231-.857.472-1.715.712-2.521l.206-.66c.24-.8.489-1.56.737-2.28a.676.676,0,0,1,.086-.24c.034-.077.077-.231.12-.343s.086-.257.137-.377c.146-.42.3-.857.454-1.209s.249-.634.377-.934.2-.446.291-.66a16.29,16.29,0,0,1,1.38-2.521h0s.154-.223.231-.317a6.607,6.607,0,0,1,.429-.506l.24-.24.454-.411c.583-.514,1.123-.969,1.629-1.363a1.549,1.549,0,0,1,.2-.154l.343-.266.326-.24c.789-.583,1.509-1.054,2.195-1.483l.8-.231.137-.086a5.667,5.667,0,0,1,1.166-.532,10.88,10.88,0,0,1,1.217-.326h.094l.249-.051a24.068,24.068,0,0,1,2.521-.317h.66c.857,0,1.715-.06,2.521,0h.343a23.517,23.517,0,0,1,2.521.154l.66.077a7.764,7.764,0,0,1,1.175.214l.146.051a1.885,1.885,0,0,1,.463.291,6.86,6.86,0,0,1,.737.712l.343.386a16.426,16.426,0,0,1,1.089,1.423c.154.214.309.429.463.66.317.472.643.986.969,1.526.2.317.4.652.592.994l.069.111.129.231c.454.806.857,1.655,1.3,2.521.111.214.214.437.317.66q.412.9.772,1.826c.094.231.18.463.266.694l.077.206.051.137a25.3,25.3,0,0,1,.737,2.435.257.257,0,0,1,0,.086c.051.189.1.412.171.66.163.66.377,1.509.643,2.521a1.374,1.374,0,0,0,.094.343c.2.763.412,1.6.66,2.521a2.524,2.524,0,0,0,.146.583.249.249,0,0,1,0,.077q.309,1.14.643,2.418v.111a1.6,1.6,0,0,0,.086.334l.669,2.521c.051.214.111.437.171.66.214.857.437,1.663.66,2.529a1.225,1.225,0,0,0,.094.334c.214.857.437,1.715.66,2.572l.154.592a.547.547,0,0,1,0,.06c.111.4.214.814.326,1.226l.334,1.3a1.225,1.225,0,0,0,.094.334c.214.857.437,1.715.652,2.529.06.214.12.429.171.652.223.857.446,1.715.66,2.529a1.6,1.6,0,0,0,.086.334c.171.669.352,1.337.523,2.006l.129.523c.06.214.111.437.171.652l.36,1.4c.094.386.189.763.291,1.132a1.2,1.2,0,0,0,.086.334l.634,2.529c.06.223.111.437.171.652.214.857.429,1.715.626,2.529a1.6,1.6,0,0,0,.086.334l.617,2.529h0l.154.634c.06.283.129.557.189.857.146.592.283,1.166.4,1.715l.077.334c.223.969.4,1.818.549,2.572.051.231.094.454.129.652A5.144,5.144,0,0,1,151.049,306.625Z" transform="translate(-96.45 -202.56)" fill="#ffc727"/>
      <path id="Path_39261" data-name="Path 39261" d="M101.327,277.353v35.939l-.343.043V279.256l.334-1.843A.484.484,0,0,0,101.327,277.353Zm-2.881,17.858-.051.334c-.12.857-.24,1.715-.352,2.529a5.413,5.413,0,0,1-.086.652l-.18,1.166v13.717l.66-.06V295.065A.952.952,0,0,0,98.447,295.211Zm6-32.749c-.2.857-.4,1.672-.6,2.529h0V313l.66-.077V262.264Zm2.761-9.55a1.493,1.493,0,0,1-.12.343c-.034.12-.06.163-.086.24v59.215l.343-.043V252.517A1.811,1.811,0,0,1,107.208,252.911Zm5.838-8.719v67.831l.343-.043V243.909Zm-2.949,2.675c-.077.094-.154.206-.231.317v65.207a6,6,0,0,0,.66-.077v-65.97q-.214.243-.4.506Zm5.813-4.664v69.485l.66-.077V241.766Zm3.275-1.38h-.094v70.5l.343-.043V240.754Zm5.95-.446v70.206l.343-.043V240.36Zm-3.181.077v70.5l.66-.086V240.4Zm6,.077v69.7a.916.916,0,0,0,.369-.051h.291V240.591Zm3.181,1.346V309.82l.343-.043V242.246Zm6.378,11.034c-.086-.231-.171-.463-.266-.694v56.806l.343-.043V252.911Zm-2.855-6c-.189-.343-.394-.677-.592-.995v63.578l.66-.086V246.961Zm5.47,15.612a.249.249,0,0,0,0-.077v46.192l.66-.094V264.913q-.351-1.3-.66-2.452Zm3.181,12.088a.547.547,0,0,0,0-.06V308.2l.343-.043V275.836c-.129-.471-.231-.883-.343-1.286Zm6.181,24.176-.154-.634v9.028l.343-.069v-7.493c-.06-.334-.129-.609-.189-.892ZM146.456,286.7c-.06-.214-.111-.437-.171-.652l-.129-.523v22.17l.394-.06.266-.043v-19.53ZM96.449,313.343a.609.609,0,0,0,.051.334h1.277v-.051l.66-.06c.66-.051,1.466-.129,2.4-.223Zm.171-3.181a2.751,2.751,0,0,1-.051.66h26.457l2.135-.257.343-.043,2.521-.309a.916.916,0,0,0,.369-.051Zm.291-2.863v.334h49.673l.266-.043,1.629-.291Zm53.154-6.044H97.624v.334H150.16Zm.626,2.863H97.272l-.077.652h53.642c-.034-.2-.077-.42-.129-.652Zm-1.372-6H98.044a5.413,5.413,0,0,1-.086.652h51.533Zm-.712-2.881H98.447l-.051.334h50.316c-.026-.137-.06-.249-.086-.36Zm-1.517-6H99.338l-.051.334h47.907c-.034-.18-.06-.292-.086-.4Zm.72,2.863H98.9a4.114,4.114,0,0,1-.094.652H148c-.06-.283-.111-.5-.171-.72Zm-1.543-6.044H99.844a4.138,4.138,0,0,1-.111.652h46.724c-.06-.283-.111-.506-.171-.72Zm-.737-2.863H100.35a.76.76,0,0,1-.051.334h45.378a2.929,2.929,0,0,1-.129-.4Zm-1.577-6.044H101.379l-.051.274v.06h42.746a1.146,1.146,0,0,0-.1-.4Zm.746,2.863H100.864a4.315,4.315,0,0,1-.111.652H144.93c-.094-.317-.154-.506-.214-.72Zm-1.423-5.453-.154-.592H101.97c-.051.214-.094.437-.129.652h41.451a.549.549,0,0,0,0-.129Zm-.909-3.429H102.553l-.077.334h40a1.3,1.3,0,0,0-.12-.429Zm-1.586-6.044h-36.95v.06a.459.459,0,0,1-.06.274h37.1a1.928,1.928,0,0,0-.069-.429Zm.754,2.855H103.213a3.017,3.017,0,0,1-.137.66h38.648c-.06-.317-.12-.54-.171-.754Zm-1.44-5.461c-.051-.2-.1-.394-.146-.583H104.637a2.3,2.3,0,0,1-.12.463l-.051.2h35.664a.248.248,0,0,0-.017-.172Zm-.857-3.429H105.374a1.7,1.7,0,0,1-.094.343h34.027c-.034-.232-.069-.343-.094-.48Zm-1.62-5.838v-.3H107.208a1.493,1.493,0,0,1-.12.343h30.555Zm.806,2.658H106.291l-.206.66h32.484c-.069-.36-.12-.583-.171-.772Zm-2.238-6H108.494c-.094.214-.2.429-.291.66h28.291a6.668,6.668,0,0,0-.334-.815Zm-1.432-2.752-.069-.111H110.123c-.077.094-.154.206-.231.317h24.982Zm-4.724-6.1-.146-.051H119.117a10.877,10.877,0,0,0-1.217.326h12.568a1.887,1.887,0,0,0-.463-.429Zm2.632,2.812H113.8l-.326.24-.343.266a1.553,1.553,0,0,0-.2.154H133.1a4.136,4.136,0,0,0-.463-.815Z" transform="translate(-96.444 -202.548)" fill="#fff" opacity="0.2"/>
      <path id="Path_39262" data-name="Path 39262" d="M131.875,310.819c-8.084,1.037-16.975,2.083-23.585,2.8l1.226-61.427a14.594,14.594,0,0,1,2.966-5.2l.454-.411Z" transform="translate(-98.134 -203.436)" fill="#263238"/>
      <path id="Path_39263" data-name="Path 39263" d="M146.651,302.729q-.617-2.855-1.243-5.71-1.26-5.71-2.572-11.411-2.649-11.5-5.615-22.916c-1.1-4.287-2.272-8.522-3.352-12.8a.069.069,0,0,0-.129,0c1.98,7.579,3.7,15.226,5.478,22.856s3.515,15.192,5.212,22.8l1.415,6.4c.472,2.16.857,4.389,1.475,6.5.069.24.489.189.454-.069C147.551,306.561,147.054,304.615,146.651,302.729Z" transform="translate(-101.766 -203.902)" fill="#263238"/>
      <path id="Path_39264" data-name="Path 39264" d="M132.207,248.559c-3.172.437-8.059-4.818-9.8-8.865a63.816,63.816,0,0,1,1.209-6.387c.386-2.049.772-4.338.977-6.447,0-.437,1.44.5,1.44.5l2.666.926,8.839,3.052a33.761,33.761,0,0,0-2.049,7.99,4.286,4.286,0,0,0,0,.857v.146C135.61,242.027,135.276,248.131,132.207,248.559Z" transform="translate(-100.147 -200.606)" fill="#ad6359"/>
      <path id="Path_39265" data-name="Path 39265" d="M135.963,240.388v.146a8.374,8.374,0,0,1-1.363-.06c-8.907-1.046-8.95-12.474-8.95-12.474l3.515.489L138,231.541a33.763,33.763,0,0,0-2.049,7.99A4.286,4.286,0,0,0,135.963,240.388Z" transform="translate(-100.611 -200.785)" fill="#263238"/>
      <path id="Path_39266" data-name="Path 39266" d="M126.52,206.354c-2.375,4.287-2.726,18.184-.069,21.844,3.866,5.315,11.574,7.356,16.443,2.4,4.715-4.81,4.852-22.882,1.715-26.354C140.074,199.127,130.035,199.959,126.52,206.354Z" transform="translate(-100.461 -196.92)" fill="#ad6359"/>
      <path id="Path_39267" data-name="Path 39267" d="M140.069,220.66s-.077.043-.077.077c0,.934-.154,2.006-1.012,2.289v.051C140.026,222.966,140.215,221.543,140.069,220.66Z" transform="translate(-102.513 -199.738)" fill="#263238"/>
      <path id="Path_39268" data-name="Path 39268" d="M139.1,219.489c-1.5-.154-1.715,2.846-.317,3S140.353,219.626,139.1,219.489Z" transform="translate(-102.352 -199.57)" fill="#263238"/>
      <path id="Path_39269" data-name="Path 39269" d="M146.5,221.27s.077.051.069.094c-.094.926,0,2.006.78,2.375v.051C146.312,223.61,146.269,222.136,146.5,221.27Z" transform="translate(-103.57 -199.825)" fill="#263238"/>
      <path id="Path_39270" data-name="Path 39270" d="M147.4,220.21c1.509,0,1.415,3,0,3.009S146.143,220.219,147.4,220.21Z" transform="translate(-103.572 -199.673)" fill="#263238"/>
      <path id="Path_39271" data-name="Path 39271" d="M137.867,217.449a11.678,11.678,0,0,0,1.192-.326,1.98,1.98,0,0,0,1.149-.566.643.643,0,0,0-.043-.78,1.586,1.586,0,0,0-1.577-.274,2.315,2.315,0,0,0-1.406.909.677.677,0,0,0,.686,1.037Z" transform="translate(-102.241 -198.988)" fill="#263238"/>
      <path id="Path_39272" data-name="Path 39272" d="M148.654,218.187c-.411-.1-.772-.257-1.175-.394a2.006,2.006,0,0,1-1.115-.634.634.634,0,0,1,.086-.772,1.6,1.6,0,0,1,1.595-.189,2.349,2.349,0,0,1,1.355.986.686.686,0,0,1-.746,1Z" transform="translate(-103.554 -199.082)" fill="#263238"/>
      <path id="Path_39273" data-name="Path 39273" d="M138.979,230.277c.206.231.412.549.746.6a2.452,2.452,0,0,0,1.02-.163v.051a1.269,1.269,0,0,1-1.217.42.994.994,0,0,1-.677-.857C138.859,230.251,138.979,230.243,138.979,230.277Z" transform="translate(-102.495 -201.107)" fill="#263238"/>
      <path id="Path_39274" data-name="Path 39274" d="M139.907,225.863a3.181,3.181,0,0,0,2.015,1.56,3.919,3.919,0,0,0,1.14.129.952.952,0,0,0,.223,0h.206a.231.231,0,0,0,.2-.2h0a.351.351,0,0,0,0-.094h0v-.111c.069-.72.069-1.809.069-1.809.257.146,1.552.857,1.552.463a47.754,47.754,0,0,0-.557-9.688.086.086,0,0,0-.171,0c-.154,2.992.231,6,.129,9a5.588,5.588,0,0,0-1.466-.566,19.17,19.17,0,0,0,0,2.443h0a4.415,4.415,0,0,1-3.206-1.252C139.933,225.726,139.856,225.786,139.907,225.863Z" transform="translate(-102.643 -199.077)" fill="#263238"/>
      <path id="Path_39275" data-name="Path 39275" d="M145.056,208.27c-4.775,2.718-10.554-2.478-10.554-2.478a4.93,4.93,0,0,1-5.238,2.692s-1.526,7.562-3.541,7.381c-3.069-.274-3.146-10.776-2.006-12.74a5.51,5.51,0,0,1,3.789-2.272,5.058,5.058,0,0,1,2.34-2.863c2.229-1.432,9.276,1.337,9.276,1.337a6.773,6.773,0,0,1,2.066-2.349,1.9,1.9,0,0,1,2.709.48,4.5,4.5,0,0,0-.857,1.826c-.549,2.2,1.277,2.349,1.432.326a3.224,3.224,0,0,0-.54-2.152c1.012-1.252,2.521-1.56,3.352-.772C148.768,198.111,149.025,206.016,145.056,208.27Z" transform="translate(-100.239 -196.255)" fill="#263238"/>
      <path id="Path_39276" data-name="Path 39276" d="M126.585,219.931s-2.212-4.9-4.381-4.192-1.072,7.416,1.072,8.71a2.392,2.392,0,0,0,3.386-.669Z" transform="translate(-99.951 -199.025)" fill="#ad6359"/>
      <path id="Path_39277" data-name="Path 39277" d="M122.816,218s-.051.043,0,.06a6.047,6.047,0,0,1,2.375,4.287,1.32,1.32,0,0,0-1.878-.72c-.043,0,0,.094,0,.094a1.475,1.475,0,0,1,1.5.806,7.408,7.408,0,0,1,.514,1.423c.051.163.326.137.3-.043h0C126.057,221.8,124.994,218.609,122.816,218Z" transform="translate(-100.204 -199.358)" fill="#263238"/>
      <path id="Path_39278" data-name="Path 39278" d="M135.1,242.223l-2.881,7.184-9.953-9.568-2.649,3.232s9.911,15.38,9.953,14.677l3.009-6.807,4.767,4.535-.712-11.711Z" transform="translate(-99.751 -202.474)" fill="#ffc727"/>
      <path id="Path_39279" data-name="Path 39279" d="M137.29,250.193c-.18-1.929-.309-3.884-.583-5.8a.069.069,0,0,0-.129,0c-.334,1.878.4,9.25.446,11.025h0c-.206-.2-4.415-3.987-4.458-3.926-.66,1.089-2.872,6-3.026,6.49-1.569-2.443-8.2-12.062-10.039-14.36a.069.069,0,0,0-.111.069c1.4,2.572,9.971,15.286,10.091,15.252a74.486,74.486,0,0,0,3.146-7.193c.72.857,4.99,5.144,5,4.827a60.5,60.5,0,0,0-.334-6.378Z" transform="translate(-99.718 -203.011)" fill="#263238"/>
      <path id="Path_39280" data-name="Path 39280" d="M183.41,295.04h34.816l6.576-49.27H189.994Z" transform="translate(-108.853 -203.32)" fill="#a6a6a6"/>
      <path id="Path_39281" data-name="Path 39281" d="M185.41,295.04h34.807l6.584-49.27H191.986Z" transform="translate(-109.138 -203.32)" fill="#dbdbdb"/>
      <path id="Path_39282" data-name="Path 39282" d="M212.37,271.089a3.772,3.772,0,0,1-3.686,3.386,3.052,3.052,0,0,1-3.086-3.386,3.764,3.764,0,0,1,3.678-3.429,3.061,3.061,0,0,1,3.095,3.429Z" transform="translate(-112.016 -206.444)" fill="#fff"/>
      <path id="Path_39283" data-name="Path 39283" d="M110.288,256.9c-1.637,22.933,2.4,38.725,6.438,40.414,10.888,4.561,43.989,7.1,51.576,6.293,2.966-.309,1.012-24.9-2.178-24.862-7.9.214-36.865.454-37.242.283-2.46-1.157-2.572-8.8-8.265-25.145C116.032,240.694,110.957,247.518,110.288,256.9Z" transform="translate(-98.366 -203.431)" fill="#ad6359"/>
      <path id="Path_39284" data-name="Path 39284" d="M199.957,278.071a3.558,3.558,0,0,1,0,4.055,5.247,5.247,0,0,1,2.709,2.34c.969,1.946-1.646,4.287-1.646,4.287a6.524,6.524,0,0,1,2.46,2.932c.746,1.955-1.56,4.724-1.56,4.724a5.727,5.727,0,0,1,.549,3.935c-.592,2.28-6.276,5.187-9.662,6.267s-13.991.986-16.023,1.166l-7.124-21.656s13.786-9.165,17.944-9.876C191.153,275.679,198.32,275.859,199.957,278.071Z" transform="translate(-106.891 -207.63)" fill="#ad6359"/>
      <path id="Path_39285" data-name="Path 39285" d="M202.833,282.792c-3.875-.266-7.613.634-11.4,1.329-.086,0-.06.146,0,.129,3.755-.729,7.613-.7,11.394-1.277a.094.094,0,0,0,.009-.18Z" transform="translate(-109.989 -208.596)" fill="#263238"/>
      <path id="Path_39286" data-name="Path 39286" d="M204.3,290.609a10.04,10.04,0,0,0-2.572.42c-.917.214-1.826.446-2.735.686-1.809.489-3.618,1.02-5.4,1.6a.069.069,0,1,0,0,.129c1.809-.48,3.626-.943,5.453-1.346.917-.206,1.835-.394,2.752-.583a12,12,0,0,0,2.572-.66.129.129,0,0,0-.069-.249Z" transform="translate(-110.293 -209.718)" fill="#263238"/>
      <path id="Path_39287" data-name="Path 39287" d="M205.616,299.86a6.944,6.944,0,0,0-2.332.506l-2.469.7c-1.655.463-3.3.917-4.964,1.32-.086,0-.06.154,0,.129,1.715-.394,3.429-.772,5.075-1.192.857-.2,1.663-.412,2.495-.626a6.491,6.491,0,0,0,2.195-.763S205.659,299.86,205.616,299.86Z" transform="translate(-110.62 -211.038)" fill="#263238"/>
      <path id="Path_39288" data-name="Path 39288" d="M162.9,277.494V305.1l-2.195-.111h-1.4l-1.783-.094h-.343l-2.521-.163H154l-2.521-.171h-.343l-2.521-.2-.66-.051-2.521-.214h-.343l-2.521-.231-.66-.069-2.521-.266h-.343c-.857-.086-1.715-.189-2.521-.283l-.66-.077-2.521-.326-.334-.266-1.226-.171-1.295-.189-.66-.1-.24-.043c-.78-.12-1.535-.249-2.28-.386l-.343-.06c-.857-.154-1.715-.317-2.521-.489l-.66-.146c-.857-.2-1.715-.394-2.521-.609l-.343-.094q-1.312-.36-2.392-.746l-.129-.043-.66-.257c-.274-.12-.54-.231-.78-.352a7.441,7.441,0,0,1-1.715-1.072l-.086-.077-.257-.266a7.023,7.023,0,0,1-.857-1.115c-.069-.1-.129-.214-.2-.334a16.668,16.668,0,0,1-1.166-2.529l-.231-.652-.077-.24c-.231-.686-.454-1.423-.66-2.2v-.086l-.077-.334c-.214-.806-.4-1.655-.592-2.572a4.553,4.553,0,0,0-.12-.652c-.171-.814-.317-1.663-.454-2.529a2.283,2.283,0,0,0-.06-.334c-.129-.857-.249-1.672-.36-2.529a5.651,5.651,0,0,0-.086-.652c-.1-.857-.206-1.715-.291-2.529v-.334c-.086-.857-.163-1.715-.231-2.529l-.051-.652c-.051-.652-.094-1.3-.137-1.955v-.909c-.051-.857-.086-1.715-.12-2.529v-.66c0-.857-.051-1.715-.069-2.521v-3.524c0-.857,0-1.715.051-2.521v-.343c0-.857.06-1.715.111-2.521v-.66c0-.412.06-.8.094-1.175s.094-.926.146-1.346v-.343c.077-.592.171-1.123.266-1.586.069-.326.137-.634.223-.934s.129-.446.2-.66a9.987,9.987,0,0,1,1.175-2.521l.257-.343.214-.257a4.1,4.1,0,0,1,.66-.626,3.249,3.249,0,0,1,2.521-.737l.343.069a5.41,5.41,0,0,1,2.5,1.552h0c.1.1.206.206.309.326s.24.266.352.412a14.284,14.284,0,0,1,1.406,2.109l.36.66c.257.506.506,1.046.754,1.629.111.274.231.557.343.857h0l.129.343c.249.677.5,1.4.729,2.16a1.451,1.451,0,0,0,.111.36c.034.12.129.437.206.66l.763,2.521.1.343c.154.523.309,1.037.463,1.535.1.334.206.66.3.986s.137.446.2.66.111.343.163.514l.617,2.015a1.278,1.278,0,0,0,.111.334c.266.857.532,1.715.78,2.521.077.223.146.446.206.66.283.857.549,1.715.806,2.478v.051a1.871,1.871,0,0,0,.111.334l.214.634c.231.694.454,1.32.66,1.895l.249.652a15.515,15.515,0,0,0,1.14,2.529,2.059,2.059,0,0,0,.266.334.36.36,0,0,0,.206.094h.66l2.521-.051h3.524l2.521-.06h.343l2.521-.06h.66l2.521-.06h.343l2.521-.06h.66l2.521-.069h.343l2.521-.069h.66l2.521-.06h.343l2.521-.069h.66Z" transform="translate(-98.246 -203.35)" fill="#ffc727"/>
      <path id="Path_39289" data-name="Path 39289" d="M109.139,255.43v16.409c-.051-.857-.086-1.715-.12-2.529v-.66c0-.857-.051-1.715-.069-2.521v-3.524c0-.857,0-1.715.051-2.521v-.343c0-.857.06-1.715.111-2.521v-.66A5.416,5.416,0,0,1,109.139,255.43Zm5.7-9.43v51.439l.257.266.086.077V246.1Zm-3.181,1.363v42.994c.206.78.429,1.517.66,2.2V246.772a4.1,4.1,0,0,0-.66.626Zm6.353.6c-.1-.12-.206-.223-.309-.326V299.2l.66.257V248.409c-.111-.146-.231-.283-.351-.412Zm2.872,4.81v47.47l.343.094V253.656c-.111-.291-.249-.574-.343-.849Zm6.173,19.367c-.043-.111-.077-.223-.111-.334s0,0,0-.051V301.58l.343.06V272.808Zm-2.812-8.908c-.06-.214-.129-.437-.2-.66s-.2-.652-.3-.986v39.359l.66.146V263.266Zm5.547,15.046v23.79l.66.1V278.3Zm3.181-.094v24.4l.343.051V278.218Zm6-.111v25.2h.343V278.1Zm-3.181.077v24.759l.66.077V278.124Zm6-.146v25.565l.66.069V278.021Zm3.181-.077v25.942h.343V277.952Zm6-.154v26.577h.343V277.8Zm-2.855.077h-.326v26.268l.66.051V277.875Zm5.718-.154v26.868h.66V277.721Zm3.181-.077v27.151h.343V277.643Zm2.863-.077v27.383h.66V277.489ZM129.551,302.06l.24.043.66.1,1.295.189h31.121v-.334Zm29.723,2.863h1.4l2.195.111v-.18Zm-42.351-6.044c.24.12.506.231.78.352l.66.257.129.043h44.375v-.652Zm-3.129-2.863c.069.12.129.231.2.334h48.867v-.334Zm-2.238-6,.077.334h51.233v-.334Zm.857,2.863.231.652h50.239v-.652Zm-1.552-6.044a3.355,3.355,0,0,0,.12.652h51.9v-.652Zm-.514-2.863a.662.662,0,0,0,.06.334h52.476v-.334Zm-.772-6.044v.334h19.975a2.057,2.057,0,0,1-.266-.334Zm38.365,0h0l-2.521.06h-.343l-2.521.06h-.66l-2.521.06h-.394l-2.521.06h26.371v-.334ZM109.9,280.79a4.241,4.241,0,0,0,.086.652h52.9v-.652Zm18.046-6H109.276l.051.652h18.861Zm-.969-2.949h-17.9v.334h17.952A.76.76,0,0,1,126.979,271.839Zm-1.92-6.044h-16.2v.334h16.289c-.043-.111-.077-.223-.12-.334Zm.857,2.855H108.924v.66h17.146a2.373,2.373,0,0,0-.154-.66Zm-1.869-6.044H108.83v.66h15.432c-.077-.214-.146-.437-.214-.66Zm-.857-2.863h-14.3v.343h14.4Zm-1.938-6H109.336v.343h12.088Zm.969,2.863H109.044v.66h13.417a5.409,5.409,0,0,1-.249-.7Zm-2.443-6h-9.765c-.069.214-.137.437-.2.66H120.1Zm-2.075-2.889h-6.258l-.257.343h6.859A1.268,1.268,0,0,0,117.7,247.715Z" transform="translate(-98.211 -203.353)" fill="#fff" opacity="0.2"/>
      <path id="Path_39290" data-name="Path 39290" d="M165.439,279.837a.283.283,0,0,0-.257-.412c-4.338-.051-8.7.18-13.04.291s-8.693.2-13.04.343c-2.443.086-7.141.3-7.184.231s-1.355-4.149-1.637-5c-.549-1.655-1.123-3.3-1.715-4.955-.163-.48-.334-.96-.506-1.432-.051-.326-.111-.652-.146-.969s-.1-.857-.154-1.337a24.772,24.772,0,0,0-.437-2.632.069.069,0,0,0-.129.043,14.737,14.737,0,0,1,.274,2.743l.051.66c-.857-2.28-1.063-2.683-1.792-4.99a.069.069,0,1,0-.129,0c.857,3.335,1.32,4.767,2.366,8.059.532,1.663,1.054,3.326,1.612,4.99.274.806,1.526,4.578,1.929,5.333.051.094,4.458-.154,6.627-.189s4.347-.069,6.524-.12l13.04-.326c2.409-.06,4.835-.06,7.244-.2,0,.283.214,1.715.2,1.809a.065.065,0,1,0,.129,0C165.259,281.671,165.447,279.862,165.439,279.837Z" transform="translate(-100.604 -205.684)" fill="#263238"/>
      <path id="Path_39291" data-name="Path 39291" d="M165.99,285.3a.069.069,0,0,0-.137,0c-.274,1.912-.317,3.866-.429,5.8s-.2,4-.266,6c-.129,3.987-.326,7.99-.214,12a.129.129,0,0,0,.257,0c.394-3.935.489-7.922.634-11.874q.111-2.932.171-5.881C166.033,289.321,166.136,287.28,165.99,285.3Z" transform="translate(-106.213 -208.952)" fill="#263238"/>
      <path id="Path_39292" data-name="Path 39292" d="M165.773,301.536v-1.277a.309.309,0,0,0,0-.189h0v-.24H165.7v.24h0v.06c-.077,2.066-.3,4.132-.394,6.2s-.129,4.158-.111,6.25c-2.358-.2-4.75-.172-7.116-.292s-4.9-.3-7.356-.5c-4.912-.394-9.816-.857-14.7-1.552l-4.072-.574c-1.38-.2-2.821-.3-4.175-.626-.086,0-.12.12,0,.137,1.243.154,2.478.5,3.712.72s2.418.429,3.635.617q3.635.583,7.3,1.029,7.3.909,14.66,1.277l4.209.18c1.38.043,2.778.129,4.158.06a.249.249,0,0,0,.231-.223c0-2.169.111-4.338.137-6.507v-3.189C165.8,302.6,165.79,302.068,165.773,301.536Z" transform="translate(-100.904 -211.034)" fill="#263238"/>
      <path id="Path_39293" data-name="Path 39293" d="M229.283,262.31c2.186,2.812,7.244,5.881,8.119,8.376a3.043,3.043,0,0,1-.96,3.5s2.846.712,3.266,3.1c.214,1.235-1.569,2.666-1.569,2.666a3.618,3.618,0,0,1,2.495,2.821c.189,1.715-1.62,2.889-1.62,2.889s1.86,1.646,1.492,3.429c-.737,3.669-15.209,6.859-18.621,2.023-1.595-2.255,1.98-2.838,1.98-2.838s-5.341-.4-6.078-3.369,3.961-3.429,3.961-3.429-5.187-.429-5.633-3.584,4.287-2.966,4.287-2.966-3.7-1.466-3.489-3.961c.343-4.115,8.419-.609,11.437-2.066Z" transform="translate(-113.515 -205.68)" fill="#ad6359"/>
      <path id="Path_39294" data-name="Path 39294" d="M239.994,289.81v.077a25.719,25.719,0,0,1-15.106,2.4c-.163,0-.189-.309,0-.309a52.544,52.544,0,0,0,15.106-2.169Z" transform="translate(-114.752 -209.604)" fill="#263238"/>
      <path id="Path_39295" data-name="Path 39295" d="M239.1,282.9c.051,0,.086.077,0,.1a24.074,24.074,0,0,1-16.64,1.595c-.189-.051-.309-.3-.077-.249C226.22,285.172,234.518,284.332,239.1,282.9Z" transform="translate(-114.395 -208.618)" fill="#263238"/>
      <path id="Path_39296" data-name="Path 39296" d="M220.691,276.692c5.444,1.389,10.794.857,16.212-.412.069,0,.086.077,0,.111-2.469,1.363-6,1.826-8.8,1.963a14.754,14.754,0,0,1-7.493-1.475C220.545,276.837,220.571,276.666,220.691,276.692Z" transform="translate(-114.156 -207.674)" fill="#263238"/>
      <path id="Path_39297" data-name="Path 39297" d="M336.275,390.683c-.72,1.938-36.007,45.806-38.408,46.629-.909.317-7.6-4.449-15.517-10.442-1.715-1.295-3.429-2.641-5.247-4.012-11.548-8.925-23.593-18.664-23.593-18.664l23.516-29.414,22.95,19.478,5.041,4.287s21.021-10.751,23.756-11.368S337,388.737,336.275,390.683Z" transform="translate(-118.855 -221.728)" fill="#ad6359"/>
      <path id="Path_39298" data-name="Path 39298" d="M340.2,392.729c-.72,1.938-36.007,45.806-38.408,46.629-1.115.377-10.751-6.738-20.764-14.454L303.9,396.3l5.041,4.287s21.021-10.751,23.756-11.368S340.922,390.783,340.2,392.729Z" transform="translate(-122.782 -223.774)" fill="#fff"/>
      <path id="Path_39299" data-name="Path 39299" d="M341.075,392.726c-.72,1.938-36.007,45.806-38.408,46.629-.909.317-7.6-4.449-15.517-10.442l22.667-28.343s21.021-10.751,23.756-11.368S341.8,390.78,341.075,392.726Z" transform="translate(-123.655 -223.771)" fill="#ffc727"/>
      <path id="Path_39300" data-name="Path 39300" d="M341.514,392.4c-6.1,7.21-30.006,36.865-35.484,44.443,0,.06,0,.094.043,0,6.2-7,29.869-36.865,35.561-44.375C341.754,392.337,341.643,392.252,341.514,392.4Z" transform="translate(-126.349 -224.231)" fill="#263238"/>
      <path id="Path_39301" data-name="Path 39301" d="M336.514,391a7.561,7.561,0,0,0-1.715,5.838,7.347,7.347,0,0,0,2.572,4.8c.043,0,.111-.043.069-.086a8.77,8.77,0,0,1-.857-10.485.06.06,0,0,0-.069-.069Z" transform="translate(-130.445 -224.042)" fill="#263238"/>
      <path id="Path_39302" data-name="Path 39302" d="M316.547,399.822c-2.409,2.906-4.115,7.159-3.181,10.922,0,.146.249.094.274,0A52.126,52.126,0,0,1,316.95,400.1a.244.244,0,1,0-.4-.274Z" transform="translate(-127.359 -225.286)" fill="#263238"/>
      <path id="Path_39303" data-name="Path 39303" d="M319.717,397.982c-2.409,2.906-4.115,7.159-3.181,10.922,0,.146.24.094.266,0a52.151,52.151,0,0,1,3.318-10.648.244.244,0,1,0-.4-.274Z" transform="translate(-127.811 -225.024)" fill="#263238"/>
      <path id="Path_39304" data-name="Path 39304" d="M322.877,396.182c-2.409,2.906-4.115,7.159-3.181,10.922.043.146.249.094.274,0a52.127,52.127,0,0,1,3.309-10.648.244.244,0,1,0-.4-.274Z" transform="translate(-128.262 -224.767)" fill="#263238"/>
      <path id="Path_39305" data-name="Path 39305" d="M326.047,394.362c-2.409,2.915-4.115,7.159-3.181,10.922,0,.146.24.094.266,0a52.3,52.3,0,0,1,3.318-10.648.244.244,0,1,0-.4-.274Z" transform="translate(-128.714 -224.507)" fill="#263238"/>
      <path id="Path_39306" data-name="Path 39306" d="M299.517,435.307c-2.649,3.309,2.495,7.433,5.144,4.115S302.166,432,299.517,435.307Z" transform="translate(-125.314 -230.19)" fill="#263238"/>
      <path id="Path_39307" data-name="Path 39307" d="M310.6,388.75c-2.435.5-2.735,3.344-2.195,5.29a19.762,19.762,0,0,0,5.375,8.727.094.094,0,0,0,.154,0,.463.463,0,0,0,.669-.343c.232-3.258.857-6.713.12-9.953C314.223,390.567,312.851,388.278,310.6,388.75Zm3.344,8.642c-.077,1.6-.231,3.2-.249,4.81q-1.64-2.495-3.026-5.144a21.341,21.341,0,0,1-1.115-2.666c-.463-1.423-.6-6.293,2.838-4.012,1.852,1.235,1.638,5.1,1.509,7.013Z" transform="translate(-126.655 -223.713)" fill="#263238"/>
      <path id="Path_39308" data-name="Path 39308" d="M308.019,413.16c2.452-2.246,3.849-5.478,5.487-8.307a.454.454,0,0,0-.36-.652.1.1,0,0,0-.12-.111,19.719,19.719,0,0,0-9.353,4.209c-1.543,1.3-2.889,3.832-1.157,5.607S306.587,414.472,308.019,413.16Zm-3.1.429c-4.132-.043-1.286-4-.1-4.912a20.7,20.7,0,0,1,2.426-1.586c1.715-1,3.584-1.715,5.4-2.572-.857,1.337-1.655,2.743-2.495,4.115C309.15,410.271,307.187,413.606,304.915,413.589Z" transform="translate(-125.731 -225.91)" fill="#263238"/>
      <path id="Path_39309" data-name="Path 39309" d="M276.59,379.021l-24.476,33.024-82.594-57.3-7.964-5.53s-2.255,1.517-5.65,3.429c-4.715,2.572-11.625,5.907-17.738,6.807-10.288,1.517-27.374,1.355-36.007-10.2-7.279-9.731-2.306-27.357-2.306-27.357l12-1.329s24.862-20.773,42.163-21.433c7.33-.291,18,5.264,27.888,11.068S276.59,379.021,276.59,379.021Z" transform="translate(-96.694 -210.932)" fill="#455a64"/>
      <path id="Path_39310" data-name="Path 39310" d="M167.982,354.666s-2.255,1.517-5.65,3.429c-6-7.184-18.707-20.233-19.092-20.7Z" transform="translate(-103.121 -216.395)" fill="#263238"/>
      <path id="Path_39311" data-name="Path 39311" d="M120.531,317.079c-1.595,1.1-3.129,2.28-4.707,3.429s-3.138,2.169-4.6,3.386-2.915,2.572-4.287,3.9c-.677.643-1.355,1.295-2.006,1.955a19.135,19.135,0,0,0-1.92,2.083c-.051.069.051.154.12.111a24.155,24.155,0,0,0,2.135-1.715c.746-.626,1.475-1.269,2.22-1.895,1.432-1.217,2.889-2.4,4.287-3.626s2.735-2.572,4.141-3.764,3.086-2.572,4.655-3.789C120.591,317.1,120.565,317.053,120.531,317.079Z" transform="translate(-97.379 -213.494)" fill="#263238"/>
      <path id="Path_39312" data-name="Path 39312" d="M295.852,390.937c-1.595,1.715-3.061,3.558-4.544,5.367s-2.966,3.644-4.432,5.478c-2.932,3.661-5.9,7.313-8.779,11.017-1.586,2.04-3.146,4.089-4.621,6.207a.1.1,0,1,0,.154.12c3.163-3.472,6-7.176,8.976-10.836s5.864-7.356,8.736-11.068c1.577-2.032,3.206-4.055,4.655-6.181a.094.094,0,0,0-.146-.1Z" transform="translate(-121.701 -224.031)" fill="#263238"/>
      <path id="Path_39313" data-name="Path 39313" d="M219.182,328.1c-2.906-3.369-15.372-12.208-23.336-16.16a.069.069,0,0,0-.06.12c7.939,5.1,21.021,14.772,23.276,16.212C219.165,328.331,219.259,328.186,219.182,328.1Z" transform="translate(-110.615 -212.762)" fill="#263238"/>
    </g>
    <g id="freepik--Stars--inject-146" transform="translate(155.783 151.671)">
      <path id="Path_39314" data-name="Path 39314" d="M181.716,224.94l2.2,4.458,4.912.712-3.558,3.472.84,4.9-4.4-2.315-4.389,2.315.832-4.9L174.6,230.11l4.921-.712Z" transform="translate(-174.6 -177.873)" fill="#ffc727"/>
      <path id="Path_39315" data-name="Path 39315" d="M201.085,208.28l1.586,3.344,3.541.532-2.563,2.6.609,3.669-3.172-1.732-3.181,1.732.609-3.669-2.563-2.6,3.549-.532Z" transform="translate(-177.646 -175.496)" fill="#ffc727"/>
      <path id="Path_39316" data-name="Path 39316" d="M186.6,183.96l1,2.032,2.238.326-1.62,1.577.386,2.238-2.006-1.055-2.006,1.055.386-2.238-1.62-1.577,2.238-.326Z" transform="translate(-175.85 -172.026)" fill="#ffc727"/>
      <path id="Path_39317" data-name="Path 39317" d="M201.529,170.04l.754,1.543,1.706.24-1.235,1.2.292,1.7-1.517-.806-1.526.806.291-1.7-1.235-1.2,1.706-.24Z" transform="translate(-178.09 -170.04)" fill="#ffc727"/>
    </g>
    <g id="freepik--Reviews--inject-146" transform="translate(212.323 41.3)">
      <rect id="Rectangle_20235" data-name="Rectangle 20235" width="129.077" height="51.602" transform="translate(0 131.846)" fill="#ebebeb"/>
      <path id="Path_39318" data-name="Path 39318" d="M240.58,255.29v10.254l9.293-10.254Z" transform="translate(-240.554 -71.833)" fill="#ebebeb"/>
      <circle id="Ellipse_1546" data-name="Ellipse 1546" cx="20.087" cy="20.087" r="20.087" transform="translate(4.672 138.851)" fill="#fff"/>
      <path id="Path_39319" data-name="Path 39319" d="M308.921,206.37l1.466,2.975,3.275.472-2.366,2.315.557,3.266-2.932-1.543-2.932,1.543.557-3.266-2.366-2.315,3.275-.472Z" transform="translate(-249.629 -64.853)" fill="#ffc727"/>
      <path id="Path_39320" data-name="Path 39320" d="M323.979,206.37l1.466,2.975,3.275.472-2.375,2.315.566,3.266-2.932-1.543-2.932,1.543.557-3.266-2.375-2.315,3.284-.472Z" transform="translate(-251.776 -64.853)" fill="#c7c7c7"/>
      <path id="Path_39321" data-name="Path 39321" d="M339.031,206.37l1.466,2.975,3.284.472-2.375,2.315.557,3.266-2.932-1.543L336.1,215.4l.566-3.266-2.375-2.315,3.275-.472Z" transform="translate(-253.925 -64.853)" fill="#c7c7c7"/>
      <path id="Path_39322" data-name="Path 39322" d="M354.091,206.37l1.466,2.975,3.284.472-2.375,2.315.557,3.266-2.932-1.543-2.932,1.543.566-3.266-2.375-2.315,3.275-.472Z" transform="translate(-256.074 -64.853)" fill="#c7c7c7"/>
      <path id="Path_39323" data-name="Path 39323" d="M369.151,206.37l1.466,2.975,3.275.472-2.366,2.315.557,3.266-2.932-1.543-2.932,1.543.557-3.266-2.366-2.315,3.275-.472Z" transform="translate(-258.223 -64.853)" fill="#c7c7c7"/>
      <rect id="Rectangle_20236" data-name="Rectangle 20236" width="61.247" height="1.286" transform="translate(54.551 157.652)" fill="#263238"/>
      <rect id="Rectangle_20237" data-name="Rectangle 20237" width="54.551" height="1.286" transform="translate(54.551 161.57)" fill="#fff"/>
      <rect id="Rectangle_20238" data-name="Rectangle 20238" width="45.095" height="1.286" transform="translate(54.551 165.487)" fill="#fff"/>
      <rect id="Rectangle_20239" data-name="Rectangle 20239" width="49.296" height="1.286" transform="translate(54.551 169.405)" fill="#fff"/>
      <g id="Group_38996" data-name="Group 38996" transform="translate(4.715 132.881)" clip-path="url(#clip-path)">
        <path id="Path_39324" data-name="Path 39324" d="M260.433,198.334c-9.3,4.184-11.308,17.292-10.7,35.947.094,2.838,24.082,7.767,35.69-.977,1.869-1.415-.789-24.236-5.393-30.8C274.321,194.33,266.185,195.745,260.433,198.334Z" transform="translate(-246.562 -196.3)" fill="#263238"/>
        <path id="Path_39325" data-name="Path 39325" d="M259.966,198.887c-4.861,2.478-7.99,7.4-9.43,12.56a79.048,79.048,0,0,0-1.929,11.668,45.885,45.885,0,0,0-.171,11.265.1.1,0,1,0,.206,0,96.938,96.938,0,0,1,2.186-21.021c1.209-5.787,4.184-10.965,9.293-14.094C260.352,199.127,260.181,198.784,259.966,198.887Z" transform="translate(-246.353 -196.664)" fill="#263238"/>
        <path id="Path_39326" data-name="Path 39326" d="M287.767,208.987a17.249,17.249,0,0,0-11.677-12.1v.069c6.447,2.435,10.065,7.347,11.694,13.863a131.7,131.7,0,0,1,3.078,21.561.129.129,0,1,0,.257,0A88.355,88.355,0,0,0,287.767,208.987Z" transform="translate(-250.337 -196.382)" fill="#263238"/>
        <path id="Path_39327" data-name="Path 39327" d="M254.18,247.83l.077.06c4.209,2.872,12.525,7.913,16.966,6.31a10,10,0,0,0,5.658-5.873,45.965,45.965,0,0,0-5.5-3.815C264.828,240.148,258.912,242.763,254.18,247.83Z" transform="translate(-247.21 -202.861)" fill="#a6a6a6"/>
        <path id="Path_39328" data-name="Path 39328" d="M261.542,243.023c.3.969,5.435,7.056,9.928,6.541,1.466-.163.9-8.2.9-8.2l.094-.6,1.3-8.436-10.142-5.615-1.466-.737s-.206,2.332-.429,5.238v.412a1.888,1.888,0,0,1-.043.48c0,.429-.077.857-.1,1.312s-.051.669-.06,1.02a7.252,7.252,0,0,1-.06,1.054A54.951,54.951,0,0,0,261.542,243.023Z" transform="translate(-248.236 -200.533)" fill="#f7a9a0"/>
        <path id="Path_39329" data-name="Path 39329" d="M261.74,231.218a17.146,17.146,0,0,0,10.776,9.55l1.3-8.436-10.142-5.615-1.466-.737S261.963,228.312,261.74,231.218Z" transform="translate(-248.289 -200.533)" fill="#263238"/>
        <path id="Path_39330" data-name="Path 39330" d="M283.538,214.267c2.349,14.8-6.25,17.875-9.43,18.381-2.889.454-12.242,1.157-16.109-13.314s1.715-19.718,8.265-21.15S281.18,199.487,283.538,214.267Z" transform="translate(-247.574 -196.518)" fill="#f7a9a0"/>
        <path id="Path_39331" data-name="Path 39331" d="M284.6,215.8a10.038,10.038,0,0,1-.986.3,1.612,1.612,0,0,1-1.072.12.532.532,0,0,1-.317-.566,1.329,1.329,0,0,1,.994-.9,1.92,1.92,0,0,1,1.4,0,.574.574,0,0,1-.017,1.046Z" transform="translate(-251.212 -198.913)" fill="#263238"/>
        <path id="Path_39332" data-name="Path 39332" d="M272.225,216.29a10.2,10.2,0,0,0,1.029.1,1.637,1.637,0,0,0,1.072-.086.549.549,0,0,0,.2-.626,1.3,1.3,0,0,0-1.149-.686,1.972,1.972,0,0,0-1.372.274.574.574,0,0,0,.223,1.02Z" transform="translate(-249.721 -198.961)" fill="#263238"/>
        <path id="Path_39333" data-name="Path 39333" d="M274.946,220.51s-.077.06-.069.094c.146,1.012.146,2.195-.737,2.632v.06C275.255,223.013,275.246,221.444,274.946,220.51Z" transform="translate(-250.058 -199.752)" fill="#263238"/>
        <path id="Path_39334" data-name="Path 39334" d="M273.7,219.39c-1.646.06-1.406,3.344.111,3.292S275.073,219.347,273.7,219.39Z" transform="translate(-249.834 -199.592)" fill="#263238"/>
        <path id="Path_39335" data-name="Path 39335" d="M272.83,219.646c-.274.206-.532.557-.857.609s-.72-.249-1.012-.566c0,0-.051,0-.051.043a1.172,1.172,0,0,0,1,1.3c.677.043,1.029-.54,1.14-1.192C273.053,219.723,272.942,219.56,272.83,219.646Z" transform="translate(-249.597 -199.625)" fill="#263238"/>
        <path id="Path_39336" data-name="Path 39336" d="M282.465,219.43a.084.084,0,0,1,.086.086c0,1.02.249,2.186,1.192,2.46v.06C282.6,221.951,282.336,220.407,282.465,219.43Z" transform="translate(-251.242 -199.598)" fill="#263238"/>
        <path id="Path_39337" data-name="Path 39337" d="M283.315,218.118c1.629-.223,1.963,3.052.454,3.258S281.943,218.315,283.315,218.118Z" transform="translate(-251.243 -199.409)" fill="#263238"/>
        <path id="Path_39338" data-name="Path 39338" d="M284.252,218.234c.274.146.566.437.857.429s.592-.394.78-.763h.06c.077.626-.06,1.295-.652,1.475s-.994-.326-1.209-.934C284.072,218.363,284.141,218.174,284.252,218.234Z" transform="translate(-251.478 -199.38)" fill="#263238"/>
        <path id="Path_39339" data-name="Path 39339" d="M276.3,229.568c.249.232.506.557.857.574a2.571,2.571,0,0,0,1.089-.283l.043.051a1.355,1.355,0,0,1-1.277.583,1.072,1.072,0,0,1-.857-.857C276.184,229.559,276.261,229.533,276.3,229.568Z" transform="translate(-250.345 -201.042)" fill="#263238"/>
        <path id="Path_39340" data-name="Path 39340" d="M280.224,223.226s.334,1.5.394,2.212a11.084,11.084,0,0,0-4.441.626c-.077,0-.231-.094-.043-.231a6.284,6.284,0,0,1,3.892-.909c0-.2-.634-2.358-.523-2.375a6.61,6.61,0,0,1,1.655.231c-.609-3.138-1.715-6.164-2.28-9.3a.1.1,0,1,1,.18-.069,52.3,52.3,0,0,1,2.889,9.928C282.008,223.74,280.516,223.337,280.224,223.226Z" transform="translate(-250.33 -198.73)" fill="#263238"/>
        <path id="Path_39341" data-name="Path 39341" d="M257.453,219.193c1.595-.223,5.427-4.99,4.921-12.765,0,0,0,7.013-.472,8.084s2.135-2.683,1.818-8.959a25.625,25.625,0,0,0,6.7,2.812c3.026.583,4.835.411,5.032.18s-4.287-1.252-5.564-2.512c0,0,8.17,3.018,11.814,3,.42,0-.086-7.8-6-11.008s-14.154.6-16.358,3.1c0,0-2.769.626-5.478,5.024S255.721,219.441,257.453,219.193Z" transform="translate(-247.045 -196.369)" fill="#263238"/>
        <path id="Path_39342" data-name="Path 39342" d="M261.22,223.812s-3.592-4.424-5.624-3.112.857,7.9,3.429,8.642a2.572,2.572,0,0,0,3.292-1.595Z" transform="translate(-247.315 -199.744)" fill="#f7a9a0"/>
        <path id="Path_39343" data-name="Path 39343" d="M256.74,222.91v.069c1.792.583,2.821,2.135,3.584,3.764a1.389,1.389,0,0,0-2.109-.231.051.051,0,0,0,.051.086,1.577,1.577,0,0,1,1.715.42,7.8,7.8,0,0,1,.917,1.329c.094.146.369.043.3-.129h0C261.087,225.953,259.14,222.987,256.74,222.91Z" transform="translate(-247.576 -200.094)" fill="#263238"/>
      </g>
      <rect id="Rectangle_20240" data-name="Rectangle 20240" width="129.077" height="51.602" transform="translate(8.573 65.927)" fill="#ebebeb"/>
      <path id="Path_39345" data-name="Path 39345" d="M250.58,178.39v10.253l9.293-10.253Z" transform="translate(-241.981 -60.861)" fill="#ebebeb"/>
      <circle id="Ellipse_1547" data-name="Ellipse 1547" cx="20.087" cy="20.087" r="20.087" transform="translate(13.246 72.932)" fill="#fff"/>
      <path id="Path_39346" data-name="Path 39346" d="M318.93,130.16l1.466,2.975,3.284.48L321.3,135.93l.557,3.275-2.932-1.552-2.941,1.552.566-3.275-2.375-2.315,3.284-.48Z" transform="translate(-251.056 -53.979)" fill="#ffc727"/>
      <path id="Path_39347" data-name="Path 39347" d="M334.018,130.16l1.466,2.975,3.284.48-2.375,2.315.557,3.275-2.932-1.552-2.941,1.552.557-3.275-2.375-2.315,3.284-.48Z" transform="translate(-253.208 -53.979)" fill="#ffc727"/>
      <path id="Path_39348" data-name="Path 39348" d="M349.1,130.16l1.475,2.975,3.284.48-2.375,2.315.557,3.275-2.941-1.552-2.932,1.552.557-3.275-2.375-2.315,3.283-.48Z" transform="translate(-255.361 -53.979)" fill="#ffc727"/>
      <path id="Path_39349" data-name="Path 39349" d="M364.19,130.16l1.466,2.975,3.283.48-2.375,2.315.566,3.275-2.941-1.552-2.941,1.552.566-3.275-2.375-2.315,3.284-.48Z" transform="translate(-257.514 -53.979)" fill="#c7c7c7"/>
      <path id="Path_39350" data-name="Path 39350" d="M379.278,130.16l1.466,2.975,3.284.48-2.375,2.315.557,3.275-2.932-1.552-2.941,1.552.566-3.275-2.383-2.315,3.284-.48Z" transform="translate(-259.666 -53.979)" fill="#c7c7c7"/>
      <rect id="Rectangle_20241" data-name="Rectangle 20241" width="61.247" height="1.286" transform="translate(63.124 91.724)" fill="#263238"/>
      <rect id="Rectangle_20242" data-name="Rectangle 20242" width="35.81" height="1.286" transform="translate(63.124 95.642)" fill="#fff"/>
      <rect id="Rectangle_20243" data-name="Rectangle 20243" width="52.871" height="1.286" transform="translate(63.124 99.569)" fill="#fff"/>
      <rect id="Rectangle_20244" data-name="Rectangle 20244" width="48.31" height="1.286" transform="translate(63.124 103.486)" fill="#fff"/>
      <g id="Group_38997" data-name="Group 38997" transform="translate(13.234 67.966)" clip-path="url(#clip-path-2)">
        <path id="Path_39351" data-name="Path 39351" d="M283.321,165.283l-1.783,8.05L269.4,165l-3.018,4.449s7.947,10.751,16.409,10.751c4.449,0,5.315-10.193,5.315-10.193Z" transform="translate(-257.47 -126.916)" fill="#ffc727"/>
        <path id="Path_39352" data-name="Path 39352" d="M281.778,172.395c-3.258,1.012-9.31-3.669-11.848-7.622-.171-.274.051-3.275.154-6.936.051-2.22.06-4.7-.094-6.953,0-.463,1.6.274,1.6.274l2.975.506,9.825,1.715a36.009,36.009,0,0,0-.763,8.762,4.441,4.441,0,0,0,.163.926,1.438,1.438,0,0,0,0,.154C284.23,164.936,284.941,171.417,281.778,172.395Z" transform="translate(-257.967 -124.88)" fill="#eb9481"/>
        <path id="Path_39353" data-name="Path 39353" d="M283.941,163.258a1.43,1.43,0,0,0,0,.154,8.919,8.919,0,0,1-1.449.18c-9.551.446-11.582-11.6-11.582-11.6l3.781-.1,9.825,1.715a36.076,36.076,0,0,0-.763,8.77,4.356,4.356,0,0,0,.189.883Z" transform="translate(-258.116 -125.045)" fill="#263238"/>
        <path id="Path_39354" data-name="Path 39354" d="M268.476,128.668c-1.715,4.964.291,19.615,3.729,23,4.99,4.921,13.46,5.727,17.721-.334,4.124-5.881,1.132-24.922-2.743-28.034C281.482,118.715,271.065,121.338,268.476,128.668Z" transform="translate(-257.68 -120.641)" fill="#eb9481"/>
        <path id="Path_39355" data-name="Path 39355" d="M284.879,141.778c0-.043-.069.051-.06.094.163.986.18,2.135-.669,2.572v.06C285.256,144.213,285.213,142.678,284.879,141.778Z" transform="translate(-260.006 -123.601)" fill="#263238"/>
        <path id="Path_39356" data-name="Path 39356" d="M283.651,140.71c-1.6.094-1.3,3.292.189,3.206S285,140.633,283.651,140.71Z" transform="translate(-259.781 -123.45)" fill="#263238"/>
        <path id="Path_39357" data-name="Path 39357" d="M291.727,141.33a.084.084,0,0,1,.086.086c.06.994.3,2.118,1.235,2.366v.051C291.959,143.782,291.633,142.282,291.727,141.33Z" transform="translate(-261.085 -123.539)" fill="#263238"/>
        <path id="Path_39358" data-name="Path 39358" d="M292.516,140c1.586-.274,2.015,2.915.549,3.163S291.187,140.246,292.516,140Z" transform="translate(-261.084 -123.346)" fill="#263238"/>
        <path id="Path_39359" data-name="Path 39359" d="M282.039,138.751c.42-.154.789-.369,1.192-.557a2.075,2.075,0,0,0,1.115-.8.686.686,0,0,0-.18-.814,1.715,1.715,0,0,0-1.715,0,2.478,2.478,0,0,0-1.32,1.2.729.729,0,0,0,.909.969Z" transform="translate(-259.567 -122.828)" fill="#263238"/>
        <path id="Path_39360" data-name="Path 39360" d="M293.463,137.658a8.41,8.41,0,0,1-1.3-.206,2.118,2.118,0,0,1-1.295-.472.686.686,0,0,1,0-.857,1.715,1.715,0,0,1,1.637-.472,2.469,2.469,0,0,1,1.595.8.72.72,0,0,1-.634,1.209Z" transform="translate(-260.942 -122.722)" fill="#263238"/>
        <path id="Path_39361" data-name="Path 39361" d="M284.981,152.608c.257.214.523.506.857.506a2.572,2.572,0,0,0,1.046-.351l.051.051a1.337,1.337,0,0,1-1.209.652,1.054,1.054,0,0,1-.857-.8C284.843,152.608,284.912,152.583,284.981,152.608Z" transform="translate(-260.107 -125.147)" fill="#263238"/>
        <path id="Path_39362" data-name="Path 39362" d="M285.645,147.608c1.012.857,4.4.857,4.407.7l-.274-2.375c.291.12,1.775.626,1.715.223a51.288,51.288,0,0,0-2.28-10.091.094.094,0,0,0-.18,0c.369,3.172,1.286,6.267,1.715,9.43a6.113,6.113,0,0,0-1.637-.334c-.112.043.394,2.22.386,2.572a10.287,10.287,0,0,1-3.635-.489C285.464,147.145,285.379,147.386,285.645,147.608Z" transform="translate(-260.197 -122.779)" fill="#263238"/>
        <path id="Path_39363" data-name="Path 39363" d="M270.128,140.435c1.252-.317,2.426-4.424,2.469-8.4,0-2.572,1.055-5.787,3.909-6.747,1.895-.643,5.2.917,7.09.454s2.238-1.535,3.352-1.509,2.358,2.778,2.358,2.778-1.989-8.667-13.143-5.881c-11.745,2.941-9.379,13-8.247,16.22C268.782,139.843,270.128,140.435,270.128,140.435Z" transform="translate(-257.548 -120.577)" fill="#263238"/>
        <path id="Path_39364" data-name="Path 39364" d="M270.588,143.274s-3.181-4.775-5.341-3.652.154,8,2.641,8.985a2.572,2.572,0,0,0,3.429-1.295Z" transform="translate(-257.186 -123.271)" fill="#eb9481"/>
        <path id="Path_39365" data-name="Path 39365" d="M266.22,142v.069a6.531,6.531,0,0,1,3.241,4.107,1.415,1.415,0,0,0-2.1-.437.06.06,0,0,0,.051.094,1.552,1.552,0,0,1,1.715.592,6.748,6.748,0,0,1,.8,1.415c.077.154.369.077.309-.1v-.043C270.318,145.429,268.6,142.274,266.22,142Z" transform="translate(-257.447 -123.634)" fill="#263238"/>
      </g>
      <rect id="Rectangle_20245" data-name="Rectangle 20245" width="129.077" height="51.602" transform="translate(17.146)" fill="#ebebeb"/>
      <path id="Path_39367" data-name="Path 39367" d="M260.58,101.49v10.262l9.293-10.262Z" transform="translate(-243.408 -49.888)" fill="#ebebeb"/>
      <circle id="Ellipse_1548" data-name="Ellipse 1548" cx="20.087" cy="20.087" r="20.087" transform="translate(21.819 7.004)" fill="#fff"/>
      <path id="Path_39368" data-name="Path 39368" d="M328.93,54.06l1.466,2.975,3.284.48L331.3,59.83l.557,3.275-2.932-1.543L325.989,63.1l.566-3.275-2.375-2.315,3.284-.48Z" transform="translate(-252.483 -43.121)" fill="#ffc727"/>
      <path id="Path_39369" data-name="Path 39369" d="M344.018,54.06l1.466,2.975,3.284.48-2.375,2.315.557,3.275-2.932-1.543L341.078,63.1l.557-3.275-2.375-2.315,3.284-.48Z" transform="translate(-254.634 -43.121)" fill="#ffc727"/>
      <path id="Path_39370" data-name="Path 39370" d="M359.1,54.06l1.475,2.975,3.284.48-2.375,2.315.557,3.275L359.1,61.562,356.167,63.1l.557-3.275-2.375-2.315,3.284-.48Z" transform="translate(-256.788 -43.121)" fill="#ffc727"/>
      <path id="Path_39371" data-name="Path 39371" d="M374.19,54.06l1.466,2.975,3.284.48-2.375,2.315.566,3.275-2.941-1.543L371.249,63.1l.566-3.275-2.375-2.315,3.284-.48Z" transform="translate(-258.941 -43.121)" fill="#ffc727"/>
      <path id="Path_39372" data-name="Path 39372" d="M389.278,54.06l1.466,2.975,3.284.48-2.375,2.315.557,3.275-2.932-1.543L386.337,63.1l.566-3.275-2.383-2.315,3.284-.48Z" transform="translate(-261.092 -43.121)" fill="#ffc727"/>
      <rect id="Rectangle_20246" data-name="Rectangle 20246" width="61.247" height="1.286" transform="translate(71.697 25.805)" fill="#263238"/>
      <rect id="Rectangle_20247" data-name="Rectangle 20247" width="45.566" height="1.286" transform="translate(71.697 29.723)" fill="#fff"/>
      <rect id="Rectangle_20248" data-name="Rectangle 20248" width="54.551" height="1.286" transform="translate(71.697 33.641)" fill="#fff"/>
      <rect id="Rectangle_20249" data-name="Rectangle 20249" width="23.405" height="1.286" transform="translate(71.697 37.559)" fill="#fff"/>
      <path id="Path_39373" data-name="Path 39373" d="M307.345,84.085H305.63c-.171-2.186-1.56-5.53-1.209-3.841a16.549,16.549,0,0,1,.223,3.841h-29.02c-.334-3.292,1.132-8.7,1.132-8.7-1.715,2.718-2.323,6.576-2.572,8.7h-2.735a20.362,20.362,0,0,1,.412-5.324,17.507,17.507,0,0,0-1.38,5.324H267.36a20.447,20.447,0,0,1,3.626-11.539c2.109-3.146-.5-4.981-.446-11.145.051-8.153,5.65-11.282,6.576-12.14,12.663-11.728,24.151-.857,25.377,6.9,1.192,7.579-.986,8.573,2.572,15.432C307.662,76.833,307.345,84.085,307.345,84.085Z" transform="translate(-244.375 -41.7)" fill="#263238"/>
      <path id="Path_39374" data-name="Path 39374" d="M274.18,94.789l.077.051c4.209,2.872,12.525,7.913,16.966,6.31a9.988,9.988,0,0,0,5.658-5.864,45.183,45.183,0,0,0-5.5-3.824C284.828,87.107,278.912,89.714,274.18,94.789Z" transform="translate(-245.349 -48.143)" fill="#455a64"/>
      <path id="Path_39375" data-name="Path 39375" d="M281.542,89.975c.3.969,5.435,7.056,9.928,6.541,1.466-.163.9-8.2.9-8.2l.094-.6,1.3-8.436-10.142-5.615-1.466-.729s-.206,2.323-.429,5.23v.42a1.791,1.791,0,0,1-.043.472c0,.429-.077.857-.1,1.312s-.051.669-.06,1.02a7.253,7.253,0,0,1-.06,1.055,54.951,54.951,0,0,0,.077,7.527Z" transform="translate(-246.375 -45.815)" fill="#dd6a57"/>
      <path id="Path_39376" data-name="Path 39376" d="M281.74,78.135a17.146,17.146,0,0,0,10.776,9.55l1.3-8.436-10.142-5.581-1.466-.729S281.963,75.263,281.74,78.135Z" transform="translate(-246.427 -45.815)" fill="#263238"/>
      <path id="Path_39377" data-name="Path 39377" d="M303.457,61.263c2.349,14.8-6.25,17.875-9.43,18.381-2.889.454-12.86,1.646-16.683-12.86s2.272-20.241,8.839-21.639S301.1,46.44,303.457,61.263Z" transform="translate(-245.631 -41.802)" fill="#dd6a57"/>
      <path id="Path_39378" data-name="Path 39378" d="M278.145,67.688c3.7-.446,3.832-12,3.832-13.366.051.857.309,5.6.686,5.761a3.772,3.772,0,0,0,1.149-.317h0a11.067,11.067,0,0,1,0-1.715,7.516,7.516,0,0,1,.377,1.56l.669-.249a13.494,13.494,0,0,1,.06-3.6c.069-.454.352,1.535.926,3.241a45.267,45.267,0,0,1,9.585-2.5c.926-.111,1.715-.163,2.435-.189a25.346,25.346,0,0,1-.266-2.572,13.469,13.469,0,0,1,.8,2.572h1.063c-.069-1.963-1.26-5.015-.909-4.569a13.855,13.855,0,0,1,2.3,4.672c1.363.154,1.715.386,1.758,0a16.4,16.4,0,0,0-5.813-9.731c-5.015-3.987-14.369-4.287-19.032,2.855,0,0-4.072,3.163-4.372,7.716S276,67.937,278.145,67.688Z" transform="translate(-245.232 -41.668)" fill="#263238"/>
      <path id="Path_39379" data-name="Path 39379" d="M279.428,70.77s-3.592-4.432-5.633-3.121.857,7.9,3.429,8.642a2.521,2.521,0,0,0,3.284-1.595Z" transform="translate(-245.195 -45.025)" fill="#dd6a57"/>
      <path id="Path_39380" data-name="Path 39380" d="M274.995,69.87c-.043,0-.043.051,0,.06,1.792.583,2.821,2.135,3.584,3.764a1.389,1.389,0,0,0-2.109-.231.051.051,0,0,0,.051.086,1.577,1.577,0,0,1,1.715.42,7.8,7.8,0,0,1,.917,1.329c.094.154.369.051.292-.129h0C279.281,72.9,277.352,69.921,274.995,69.87Z" transform="translate(-245.46 -45.377)" fill="#263238"/>
      <path id="Path_39381" data-name="Path 39381" d="M300.2,73.9a4.089,4.089,0,0,1-1.38,1.595,1.886,1.886,0,0,1-1.106.3c-.857-.051-1.02-.789-1-1.457a4.459,4.459,0,0,1,.171-1.046A5.444,5.444,0,0,0,300.2,73.9Z" transform="translate(-248.563 -45.865)" fill="#fff"/>
      <path id="Path_39382" data-name="Path 39382" d="M304.025,61.583a8.406,8.406,0,0,1-1.029-.12,1.646,1.646,0,0,1-1.02-.326.532.532,0,0,1-.06-.652,1.337,1.337,0,0,1,1.269-.42,1.963,1.963,0,0,1,1.277.574.566.566,0,0,1-.437.943Z" transform="translate(-249.294 -43.974)" fill="#263238"/>
      <path id="Path_39383" data-name="Path 39383" d="M292.266,62.981a8.146,8.146,0,0,0,.986-.3,1.663,1.663,0,0,0,.952-.5.54.54,0,0,0-.06-.652,1.3,1.3,0,0,0-1.32-.189,1.938,1.938,0,0,0-1.157.789.566.566,0,0,0,.6.849Z" transform="translate(-247.832 -44.146)" fill="#263238"/>
      <path id="Path_39384" data-name="Path 39384" d="M294.946,67.46s-.077.06-.069.094c.146,1.012.146,2.195-.737,2.632v.06C295.255,69.963,295.246,68.394,294.946,67.46Z" transform="translate(-248.197 -45.033)" fill="#263238"/>
      <path id="Path_39385" data-name="Path 39385" d="M293.7,66.34c-1.646.06-1.406,3.344.111,3.292S295.073,66.3,293.7,66.34Z" transform="translate(-247.972 -44.873)" fill="#263238"/>
      <path id="Path_39386" data-name="Path 39386" d="M292.83,66.6c-.274.206-.532.557-.857.617s-.72-.257-1.012-.566h-.051a1.186,1.186,0,0,0,1,1.312c.677.051,1.029-.549,1.14-1.192C293.053,66.682,292.942,66.51,292.83,66.6Z" transform="translate(-247.736 -44.906)" fill="#263238"/>
      <path id="Path_39387" data-name="Path 39387" d="M302.465,66.38s.086.043.086.086c0,1.02.249,2.186,1.192,2.46v.06C302.6,68.9,302.336,67.357,302.465,66.38Z" transform="translate(-249.38 -44.879)" fill="#263238"/>
      <path id="Path_39388" data-name="Path 39388" d="M303.315,65.078c1.629-.231,1.963,3.043.454,3.258S301.943,65.267,303.315,65.078Z" transform="translate(-249.381 -44.691)" fill="#263238"/>
      <path id="Path_39389" data-name="Path 39389" d="M304.252,65.184c.274.154.566.437.857.429s.592-.394.78-.763h.06c.077.626-.06,1.295-.652,1.483S304.3,66,304.09,65.39C304.072,65.313,304.141,65.133,304.252,65.184Z" transform="translate(-249.616 -44.66)" fill="#263238"/>
      <path id="Path_39390" data-name="Path 39390" d="M296.3,76.518c.249.231.506.557.857.574a2.572,2.572,0,0,0,1.089-.283l.043.051a1.354,1.354,0,0,1-1.277.583,1.072,1.072,0,0,1-.857-.857C296.184,76.509,296.261,76.483,296.3,76.518Z" transform="translate(-248.483 -46.323)" fill="#263238"/>
      <path id="Path_39391" data-name="Path 39391" d="M300.344,70.177s.334,1.5.394,2.212c0,.069-.163.12-.4.154h0a3.429,3.429,0,0,1-3.429-.994c-.051-.06,0-.146.1-.1a5.144,5.144,0,0,0,3.181.626c0-.206-.66-2.572-.549-2.572a6.276,6.276,0,0,1,1.655.24c-.609-3.146-1.715-6.173-2.28-9.31a.095.095,0,1,1,.18-.06,52.057,52.057,0,0,1,2.872,9.962C302.128,70.691,300.636,70.271,300.344,70.177Z" transform="translate(-248.588 -44.012)" fill="#263238"/>
    </g>
    <g id="freepik--Plant--inject-146" transform="translate(279.39 216.038)">
      <path id="Path_39392" data-name="Path 39392" d="M396.3,353.777s19.718-4.458,30.469-14.394,16.812-27.743,16.812-27.743a168.592,168.592,0,0,0-22.067,5.8c-1.766,1.886-5.144,5.77-6.678,9.43a44.828,44.828,0,0,1-.051-6.747,30.006,30.006,0,0,0-7.013,4.287C398.829,332.207,396.3,353.777,396.3,353.777Z" transform="translate(-329.841 -254.611)" fill="#ffc727"/>
      <path id="Path_39393" data-name="Path 39393" d="M429.366,320.766c2.683-1.852,5.41-3.644,8.084-5.521a.154.154,0,0,0-.163-.257c-5.075,3.026-10.073,6.267-14.909,9.653-1.715,1.183-3.344,2.409-4.981,3.669l.343-.583c.592-.994,1.217-1.963,1.835-2.932a42.009,42.009,0,0,1,4.184-5.573c.051-.069-.043-.163-.1-.094-1.526,1.766-3.061,3.515-4.458,5.393a32.947,32.947,0,0,0-1.869,2.752c-.309.5-.6.986-.857,1.492l-.3.506c-2.572,2-5.015,4.081-7.381,6.284q-2.195,2.04-4.227,4.227c.754-2.383,1.423-4.792,2.306-7.133a.069.069,0,1,0-.129,0c-.857,2.46-1.8,4.93-2.46,7.459-1.509,1.629-2.949,3.309-4.287,5.067a1.4,1.4,0,0,1,.069-.317c.223-.926.454-1.852.7-2.778.48-1.775,1-3.549,1.6-5.29a30.864,30.864,0,0,1,5.29-9.988c.051-.06-.043-.154-.1-.086a38.4,38.4,0,0,0-7.536,15.732c-.206.857-.412,1.715-.6,2.521-.1.454-.214.909-.291,1.363-.6.806-1.183,1.62-1.715,2.452a85.594,85.594,0,0,0-8.324,16.289,189.5,189.5,0,0,0-6.31,19.667c0,.129.163.171.206,0,3.849-11.514,7.776-23.147,14.369-33.487a76.81,76.81,0,0,1,4.492-6.284,37.222,37.222,0,0,0,9.568-1.9,42.533,42.533,0,0,0,9.593-4.638,57.194,57.194,0,0,0,4.912-3.712.069.069,0,1,0-.086-.1,39.127,39.127,0,0,1-9.019,5.461,48.8,48.8,0,0,1-9.928,3.326c-1.449.317-2.923.557-4.4.754a80.835,80.835,0,0,1,5.8-6.43c.66-.66,1.346-1.295,2.032-1.938a46.026,46.026,0,0,1,7.279-4.167c3.224-1.56,6.4-3.215,9.585-4.835,1.8-.917,3.592-1.852,5.41-2.735.077-.043,0-.154-.077-.12-3.232,1.569-6.516,3.026-9.782,4.518-3.069,1.406-6.181,2.821-9.13,4.475l-.369.223c2.666-2.315,5.427-4.527,8.247-6.661C424.025,324.556,426.692,322.627,429.366,320.766Z" transform="translate(-327.911 -255.087)" fill="#263238"/>
      <path id="Path_39394" data-name="Path 39394" d="M434.219,333.569c-1.6.694-3.232,1.32-4.81,2.058s-3.181,1.655-4.724,2.572a.06.06,0,0,0,.06.1c1.569-.754,3.164-1.457,4.715-2.238s3.164-1.655,4.8-2.366C434.382,333.663,434.3,333.535,434.219,333.569Z" transform="translate(-333.887 -257.74)" fill="#263238"/>
      <path id="Path_39395" data-name="Path 39395" d="M321.74,245.12a28.146,28.146,0,0,1,5.881,16.34c.06,1.766-.214,4.227-.42,7.116,7.339,3.918,12.86,10.974,12.86,10.974-4.167-2.5-9.893-3.515-12.98-3.1a38.9,38.9,0,0,0,.754,5.881c1.363-.077,4,.1,8.342,1.646a18.7,18.7,0,0,0-7.519,1.5c3.506,11.145,13.931,22.625,42.72,27.494a60.429,60.429,0,0,0-5.092-40.517C357.636,255.476,321.74,245.12,321.74,245.12Z" transform="translate(-319.202 -245.12)" fill="#ffc727"/>
      <path id="Path_39396" data-name="Path 39396" d="M382.614,362.023c-.5-4.767-1.132-9.525-1.869-14.257a281.84,281.84,0,0,0-5.8-28.189,111.639,111.639,0,0,0-4.158-12.86,18.8,18.8,0,0,0,.111-2.306v-2.761c0-1.852-.1-3.686-.257-5.53a66.7,66.7,0,0,0-1.775-10.794c-.523-2.049-1.14-4.072-1.715-6.1a.069.069,0,0,0-.129.043,79.052,79.052,0,0,1,2.109,10.742,99.134,99.134,0,0,1,.969,10.8c0,.994.051,1.98.06,2.975v1.269a93.187,93.187,0,0,0-4.9-10.022,122.349,122.349,0,0,0-9.859-14.746,6.423,6.423,0,0,0-.231-1.612c-.137-.643-.274-1.286-.42-1.929-.3-1.312-.626-2.623-.986-3.918-.712-2.572-1.655-5.144-2.478-7.716a.069.069,0,0,0-.129,0c.763,2.572,1.269,5.2,1.852,7.793.291,1.277.574,2.572.857,3.849l.411,1.929v.146q-1.715-2.195-3.566-4.338c-5.5-6.447-11.531-12.4-17.592-18.3-.746-.729-1.517-1.432-2.272-2.152-.06-.06-.154,0-.094.1,5.8,6,11.514,12.165,16.915,18.569,1.286,1.526,2.572,3.061,3.8,4.621l-1.963-1.3c-1.715-1.1-3.378-2.16-5.144-3.138s-3.506-1.938-5.3-2.829-3.824-1.655-5.6-2.692c-.077-.043-.146.086-.069.12a40.834,40.834,0,0,1,5.255,2.906c1.715,1.037,3.5,2.083,5.221,3.181s3.429,2.126,5.075,3.224c1.4.909,2.778,1.9,4.235,2.743a136.866,136.866,0,0,1,9.225,13.426,100.029,100.029,0,0,1,4.767,9.045l-1.037-.454-2.589-1.123c-1.715-.754-3.429-1.483-5.092-2.229-3.232-1.4-6.516-2.692-9.679-4.235a44.021,44.021,0,0,1-5.144-2.863c-.069-.051-.137.069-.069.111,5.907,4.072,12.525,6.936,19.058,9.833l2.838,1.252c.78.343,1.552.729,2.358,1.029a100.755,100.755,0,0,1,4.87,13.34,271.755,271.755,0,0,1,6.293,27.854c1.646,9.43,2.761,18.861,3.626,28.386.111,1.183.214,2.366.352,3.549a.377.377,0,0,0,.746,0C383.609,371.617,383.12,366.781,382.614,362.023Z" transform="translate(-320.484 -246.389)" fill="#263238"/>
      <path id="Path_39397" data-name="Path 39397" d="M370.449,285.762c-.532-2.923-1.312-5.787-2.1-8.65,0-.086-.146-.051-.129,0,.729,2.812,1.252,5.684,1.783,8.573s1.012,5.83,1.423,8.762c0,.051.086.051.077,0A77.7,77.7,0,0,0,370.449,285.762Z" transform="translate(-325.834 -249.677)" fill="#263238"/>
      <path id="Path_39398" data-name="Path 39398" d="M354.2,295.368a52.065,52.065,0,0,0-6.258-3.524c-1.046-.54-2.109-1.055-3.172-1.569s-2.238-.977-3.326-1.526a.069.069,0,0,0-.06.12c1.046.532,2.049,1.166,3.086,1.715l3.189,1.715c2.109,1.132,4.175,2.383,6.387,3.3a.163.163,0,0,0,.154-.232Z" transform="translate(-322.001 -251.345)" fill="#263238"/>
      <path id="Path_39399" data-name="Path 39399" d="M396.72,312.7s18.209-4.347,26.577-16.563c7.99-11.668,10.571-31.549,10.776-33.3-.334,1.6-4.089,18.981-16.486,27.074C408.105,296.147,398.915,301.248,396.72,312.7Z" transform="translate(-329.9 -247.648)" fill="#263238" opacity="0.1"/>
      <path id="Path_39400" data-name="Path 39400" d="M415.211,284.327a23.294,23.294,0,0,0-6.721,11.059s.051.06.06,0a27.236,27.236,0,0,1,6.747-10.974C415.357,284.37,415.271,284.267,415.211,284.327Z" transform="translate(-331.58 -250.712)" fill="#263238"/>
      <path id="Path_39401" data-name="Path 39401" d="M396.662,312.68s18.209-4.347,26.577-16.563c7.99-11.668,10.571-31.549,10.776-33.3a.736.736,0,0,0,0-.129s-8.727,12.414-17.909,15.586S394.03,292.413,396.662,312.68Z" transform="translate(-329.843 -247.627)" fill="#ffc727"/>
      <path id="Path_39402" data-name="Path 39402" d="M429.566,270.7a74.53,74.53,0,0,1-5.607,9.628,38.45,38.45,0,0,1-7.493,7.716c-2.469,1.963-5.084,3.746-7.587,5.667l.051-.086c.471-.7.977-1.38,1.492-2.04,1.046-1.329,2.186-2.572,3.335-3.832,2.263-2.452,4.569-4.861,6.6-7.519a28.292,28.292,0,0,0,2.915-4.707c.043-.077-.086-.12-.129-.043-2.949,6.156-8.848,10.091-13.057,15.286-.6.746-1.166,1.509-1.715,2.306a10.022,10.022,0,0,0-1.046,1.878,38.037,38.037,0,0,0-6.207,6.276,24.591,24.591,0,0,1,.729-3.532,18.005,18.005,0,0,1,1.929-4.612c.043-.077-.069-.146-.111-.077a22.059,22.059,0,0,0-2.126,4.587,15.819,15.819,0,0,0-.66,3.927h0a35.811,35.811,0,0,0-2.461,3.824c.077-.386.146-.78.223-1.166.36-1.817.763-3.626,1.235-5.41a32.329,32.329,0,0,1,4.381-10.288c.051-.069-.06-.146-.111-.077a38.95,38.95,0,0,0-4.852,10.039c-.583,1.783-1.046,3.6-1.457,5.435-.2.9-.377,1.8-.549,2.7-.094.463-.189.943-.266,1.423a65.3,65.3,0,0,0-4.2,12.345,180.192,180.192,0,0,0-3.884,23.019,190.987,190.987,0,0,0-1.26,24.459c0,1.02.077,2.049.129,3.069a.21.21,0,1,0,.42,0c.18-4.047.283-8.084.523-12.122s.592-8.076,1.029-12.1a215.69,215.69,0,0,1,3.789-23.542c1.483-6.661,3.429-13.365,7.03-19.2a35.869,35.869,0,0,1,6.576-7.81c2.572-2.3,5.341-4.287,8.033-6.421a44.743,44.743,0,0,0,7.373-7.09,58.113,58.113,0,0,0,5.8-9.43c.429-.857.857-1.637,1.3-2.46C429.712,270.7,429.6,270.627,429.566,270.7Z" transform="translate(-328.608 -248.766)" fill="#263238"/>
      <path id="Path_39403" data-name="Path 39403" d="M432.2,273.813a61.134,61.134,0,0,1-4.055,7.1c0,.051.043.1.086.051a49.151,49.151,0,0,0,4.1-7.107C432.358,273.779,432.229,273.736,432.2,273.813Z" transform="translate(-334.384 -249.208)" fill="#263238"/>
      <path id="Path_39404" data-name="Path 39404" d="M318.78,311.64s-.291,25.874,15.183,33.35,23.765,1.243,34.293,3.746h0c-.4-.617-7.9-11.411-19.838-14.377C336.115,331.29,322.5,322.425,318.78,311.64Z" transform="translate(-318.78 -254.611)" fill="#ffc727"/>
      <path id="Path_39405" data-name="Path 39405" d="M318.78,311.64s-.291,25.874,15.183,33.35,23.765,1.243,34.293,3.746h0a58.374,58.374,0,0,0-17.584-5.2C340.882,342.358,322.235,336,318.78,311.64Z" transform="translate(-318.78 -254.611)" fill="#263238" opacity="0.1"/>
      <path id="Path_39406" data-name="Path 39406" d="M370.392,351.827a25.986,25.986,0,0,0-6.147-4.167c-.334-.163-.677-.292-1.012-.437-.163-.206-.343-.4-.523-.592-.463-.48-.943-.943-1.457-1.38a21.1,21.1,0,0,0-3.112-2.246c-2.572-1.509-5.367-2.572-7.99-3.961-.077-.043-.146.077-.069.111,1.295.677,2.572,1.415,3.815,2.152s2.478,1.4,3.669,2.169a26.644,26.644,0,0,1,3.061,2.3c.274.24.54.5.8.763a39.51,39.51,0,0,0-5.23-1.389c-2.829-.574-5.693-.977-8.522-1.586a39.738,39.738,0,0,1-4.107-1.106c-1.286-1.037-2.572-2.058-3.781-3.181a31.641,31.641,0,0,1-4-4.432c-.051-.077-.163,0-.111.069a47.63,47.63,0,0,0,6.344,7q-1-.377-1.98-.857a31.926,31.926,0,0,1-13.185-10.965c-.043-.069-.163,0-.111.069A36.161,36.161,0,0,0,337.4,340.442a32.741,32.741,0,0,0,6.738,3.189,63.586,63.586,0,0,0,8.376,1.98,58.525,58.525,0,0,1,8.2,1.946,25.025,25.025,0,0,1,6.858,3.618,32.158,32.158,0,0,1,9.268,11.5c2.932,5.873,4.329,12.44,5.144,18.921,0,.274.463.274.437,0C381.692,370.7,378.785,359.38,370.392,351.827Z" transform="translate(-319.913 -257.239)" fill="#263238"/>
      <path id="Path_39407" data-name="Path 39407" d="M355.539,344.6a8.882,8.882,0,0,0-3.181-2.889,11.6,11.6,0,0,1-3.781-3.129c-.051-.069-.171,0-.12.069a12.8,12.8,0,0,0,3.344,2.992,11.694,11.694,0,0,1,3.644,3.009C355.488,344.715,355.582,344.664,355.539,344.6Z" transform="translate(-323.012 -258.452)" fill="#263238"/>
      <path id="Path_39408" data-name="Path 39408" d="M366.3,377.73l.7,14.223,2.152,43.483h32.466l2.152-43.483.7-14.223Z" transform="translate(-325.56 -264.042)" fill="#37474f"/>
      <path id="Path_39409" data-name="Path 39409" d="M366.3,377.73l.7,14.223h36.77l.7-14.223Z" transform="translate(-325.56 -264.042)" fill="#263238"/>
      <rect id="Rectangle_20250" data-name="Rectangle 20250" width="42.737" height="13.571" transform="translate(81.197 121.319) rotate(180)" fill="#37474f"/>
    </g>
  </g>
</svg>
