<svg xmlns="http://www.w3.org/2000/svg" width="350.844" height="439" viewBox="0 0 350.844 439">
  <g id="Group_40483" data-name="Group 40483" transform="translate(-39.578 -60)">
    <path id="Path_4423" data-name="Path 4423" d="M123.5,0A123.5,123.5,0,0,1,247,123.5v189a123.5,123.5,0,0,1-247,0v-189A123.5,123.5,0,0,1,123.5,0Z" transform="translate(92 60)" fill="#263238"/>
    <g id="Questions-pana" transform="translate(10.348 121.868)">
      <g id="freepik--background-complete--inject-5" transform="translate(43.137 40.687)">
        <path id="Path_39077" data-name="Path 39077" d="M272.836,438.288c-13.7-6.484-19.158-21.9-21.088-36.257-.326-2.384-1.009-4.863-.23-7.151s3.178-4.156,5.483-3.512c1.915.532,3.035,2.455,4.315,3.973a14.032,14.032,0,0,0,6.484,4.386c1.653.532,3.615.7,4.974-.381,1.859-1.486,1.589-4.362,1.208-6.73q-1.168-6.587-2.288-13.174a22.439,22.439,0,0,1-.469-7.151c.35-2.384,1.629-4.768,3.774-5.753s5.157-.183,6.023,2.058a22.5,22.5,0,0,1,.572,2.932,2.532,2.532,0,0,0,1.851,2.106c.977.119,1.828-.715,2.424-1.534a32.1,32.1,0,0,0,4.211-9.5,44.293,44.293,0,0,1,3.782-9.71c1.78-2.988,4.5-5.562,7.859-6.357s7.334.715,8.741,3.9.048,6.913-1.589,9.98a53.785,53.785,0,0,1-9.289,12.348,4.426,4.426,0,0,0-1.51,2.288c-.246,1.669,1.518,2.988,3.178,3.242,1.859.286,3.75-.222,5.634-.318s4.021.381,5.022,2.01c1.375,2.257-.222,5.141-1.931,7.151a46.086,46.086,0,0,1-12.1,10.012,15.463,15.463,0,0,0-4.577,3.266c-1.2,1.462-1.685,3.735-.556,5.26s3.409,1.693,5.173,1.041a33.024,33.024,0,0,0,4.863-2.861c3.051-1.78,7.294-2.273,9.861.191a7.6,7.6,0,0,1,1.915,6.5,17.425,17.425,0,0,1-2.6,6.46,46.293,46.293,0,0,1-17.147,16.972c-7.112,3.894-13.993,5.793-21.963,4.315" transform="translate(-88.723 -103.467)" fill="#f5f5f5"/>
        <path id="Path_39078" data-name="Path 39078" d="M281.17,429.079a215.221,215.221,0,0,1,4.561-24.291l1.526-6.3c.5-2.074,1-4.124,1.589-6.095a108.072,108.072,0,0,1,4.18-11.124c1.5-3.48,3.051-6.738,4.521-9.766s2.908-5.824,4.323-8.311A85.023,85.023,0,0,1,309.4,351.94c.993-1.255,1.8-2.2,2.344-2.837.262-.3.477-.54.628-.723s.223-.238.23-.23a2.388,2.388,0,0,1-.191.262l-.6.747c-.524.652-1.3,1.589-2.273,2.884a90.341,90.341,0,0,0-7.4,11.307c-1.391,2.5-2.8,5.292-4.267,8.319s-2.988,6.285-4.474,9.766a106.838,106.838,0,0,0-4.132,11.124c-.612,1.963-1.1,3.973-1.589,6.071l-1.526,6.309a220.154,220.154,0,0,0-4.585,24.235" transform="translate(-94.888 -103.842)" fill="#e0e0e0"/>
        <path id="Path_39079" data-name="Path 39079" d="M288.964,397.2a4.6,4.6,0,0,1-.405-.977c-.238-.628-.548-1.589-.914-2.71-.731-2.3-1.637-5.522-2.622-9.066s-1.931-6.746-2.7-9.027c-.381-1.144-.7-2.074-.922-2.7a5.84,5.84,0,0,1-.31-1.009,4.64,4.64,0,0,1,.469.946c.278.612.636,1.526,1.057,2.654.85,2.273,1.843,5.459,2.837,9.019s1.828,6.675,2.5,9.09c.31,1.1.564,2.018.795,2.757A5.984,5.984,0,0,1,288.964,397.2Z" transform="translate(-94.871 -108.681)" fill="#e0e0e0"/>
        <path id="Path_39080" data-name="Path 39080" d="M320.515,390.13a6,6,0,0,1-1.192.358c-.795.2-1.883.485-3.25.882-2.741.795-6.484,1.971-10.56,3.48s-7.708,3.043-10.33,4.219c-1.3.58-2.344,1.081-3.067,1.422a6.931,6.931,0,0,1-1.136.493,5.965,5.965,0,0,1,1.057-.652c.7-.389,1.724-.93,3.012-1.589,2.567-1.255,6.19-2.837,10.274-4.354a107.271,107.271,0,0,1,10.64-3.361c1.383-.365,2.511-.6,3.3-.755A6.783,6.783,0,0,1,320.515,390.13Z" transform="translate(-96.903 -112.465)" fill="#e0e0e0"/>
        <path id="Path_39081" data-name="Path 39081" d="M275.849,439.841a2.075,2.075,0,0,1-.27-.342l-.707-1.009c-.612-.89-1.462-2.185-2.487-3.806-2.066-3.242-4.768-7.811-7.684-12.9s-5.562-9.67-7.572-12.944l-2.384-3.886-.636-1.057a1.519,1.519,0,0,1-.2-.381,3.037,3.037,0,0,1,.27.334c.167.23.429.6.707,1.017.612.882,1.462,2.177,2.5,3.806,2.058,3.242,4.768,7.8,7.684,12.888s5.562,9.67,7.565,12.952l2.384,3.878c.254.421.469.795.636,1.057a1.472,1.472,0,0,1,.2.389Z" transform="translate(-89.288 -115.215)" fill="#e0e0e0"/>
        <path id="Path_39082" data-name="Path 39082" d="M319.8,424.18a1.478,1.478,0,0,1-.373.238l-1.1.588-4.1,2.137c-3.464,1.812-8.216,4.362-13.46,7.151s-10.02,5.34-13.508,7.072c-1.748.866-3.178,1.589-4.164,2.01l-1.192.524a1.841,1.841,0,0,1-.413.159,1.709,1.709,0,0,1,.373-.238l1.112-.588,4.1-2.145c3.456-1.8,8.208-4.354,13.452-7.151s10.028-5.332,13.508-7.064c1.748-.866,3.178-1.589,4.164-2.01l1.144-.524A1.59,1.59,0,0,1,319.8,424.18Z" transform="translate(-94.951 -119.459)" fill="#e0e0e0"/>
        <path id="Path_39083" data-name="Path 39083" d="M150.141,247.362s-9.44,1.311-4.14,21.986,9.8,31.339,9.8,31.339.707,4.68-3.067,4.537-11.474-3.178-14.088.866c-2.7,4.227-.334,9.313,5.562,14.644s18.466,17.481,19.595,18.586,1.955,3.377-.636,3.687-20.961-1.843-21.454,6.937,18.443,20.922,20.485,22.288,2.384,2.431,1.907,3.623-6.563-.119-11.816-.524-11.418.064-11.283,5.149S151.086,398.438,180.089,408l13.739,3.552,10.147-10c20.421-22.717,22.654-38.824,20.246-43.305s-7.946-1.82-12.348,1.136-9.011,7.151-10,6.357-1.24-1.891-.143-4.092,11.5-22.145,6.7-29.519-19.674,3.607-22.058,4.617-2.813-1.391-2.384-2.884,5.276-18.276,7.771-25.864,2.018-13.166-2.431-15.487c-4.291-2.233-9.448,4.251-12.658,6.253s-4.911-2.384-4.911-2.384-1.4-11.482-7.072-32.062-14.724-16.893-14.724-16.893" transform="translate(-65.383 -83.101)" fill="#ebebeb"/>
        <path id="Path_39084" data-name="Path 39084" d="M198.3,419.811c-4.108-15.1-10.965-42.113-16.965-65.308s-11.45-44.108-15.487-59.253c-2.018-7.565-3.655-13.683-4.768-17.934-.556-2.106-.993-3.75-1.3-4.879l-.334-1.271c-.072-.286-.1-.437-.1-.437s.056.135.143.421.207.723.366,1.263c.326,1.128.795,2.757,1.383,4.855,1.192,4.219,2.876,10.33,4.926,17.894,4.108,15.1,9.615,36.082,15.614,59.229s12.8,50.186,16.837,65.331" transform="translate(-69.867 -87.939)" fill="#e0e0e0"/>
        <path id="Path_39085" data-name="Path 39085" d="M152.27,327.26a5.136,5.136,0,0,1,.906.485c.564.334,1.375.842,2.384,1.478,1.979,1.279,4.672,3.115,7.6,5.189l7.485,5.34,2.28,1.589a4.512,4.512,0,0,1,.795.628,5,5,0,0,1-.914-.485c-.564-.334-1.375-.842-2.384-1.486-1.963-1.3-4.632-3.178-7.565-5.244l-7.525-5.284-2.288-1.589a4.662,4.662,0,0,1-.779-.62Z" transform="translate(-68.41 -99.551)" fill="#e0e0e0"/>
        <path id="Path_39086" data-name="Path 39086" d="M180.719,338.4c-.1-.064,3.433-5.777,7.89-12.761s8.168-12.594,8.272-12.531-3.433,5.785-7.9,12.769S180.823,338.449,180.719,338.4Z" transform="translate(-74.254 -96.644)" fill="#e0e0e0"/>
        <path id="Path_39087" data-name="Path 39087" d="M190.3,385.491a4.187,4.187,0,0,1,.755-.731l2.137-1.875c1.8-1.589,4.291-3.782,6.945-6.309s4.99-4.887,6.659-6.611c.795-.795,1.446-1.5,1.979-2.042a5.49,5.49,0,0,1,.795-.723,4.171,4.171,0,0,1-.636.834c-.429.516-1.073,1.248-1.883,2.137-1.589,1.788-3.909,4.2-6.579,6.722s-5.181,4.7-7.04,6.23c-.938.795-1.7,1.367-2.241,1.772A4.857,4.857,0,0,1,190.3,385.491Z" transform="translate(-76.222 -107.755)" fill="#e0e0e0"/>
        <path id="Path_39088" data-name="Path 39088" d="M161.05,379.89a3.974,3.974,0,0,1,.938.23l2.519.795c2.114.675,5.03,1.637,8.24,2.717s6.11,2.1,8.2,2.853l2.471.906a4.288,4.288,0,0,1,.882.389,3.663,3.663,0,0,1-.938-.222l-2.519-.795c-2.114-.675-5.03-1.637-8.24-2.725s-6.11-2.1-8.2-2.845l-2.471-.914A3.6,3.6,0,0,1,161.05,379.89Z" transform="translate(-70.214 -110.361)" fill="#e0e0e0"/>
        <path id="Path_39089" data-name="Path 39089" d="M164.43,420.94a6.308,6.308,0,0,1,1.2.3l3.226.985c2.717.85,6.46,2.05,10.592,3.409s7.859,2.6,10.552,3.528l3.178,1.112a8.121,8.121,0,0,1,1.152.469,6.287,6.287,0,0,1-1.208-.3l-3.226-.985c-2.717-.85-6.46-2.05-10.592-3.409s-7.859-2.606-10.544-3.528l-3.178-1.12a6.872,6.872,0,0,1-1.152-.461Z" transform="translate(-70.908 -118.793)" fill="#e0e0e0"/>
        <path id="Path_39090" data-name="Path 39090" d="M201.24,426.562a7.1,7.1,0,0,1,.93-.946l2.63-2.471c2.217-2.09,5.268-4.99,8.55-8.288s6.182-6.357,8.264-8.582l2.463-2.638a8.436,8.436,0,0,1,.946-.938,7.039,7.039,0,0,1-.795,1.049c-.54.66-1.351,1.589-2.384,2.733-2.026,2.288-4.887,5.387-8.184,8.685s-6.357,6.174-8.645,8.208c-1.144,1.009-2.074,1.828-2.733,2.384A7.9,7.9,0,0,1,201.24,426.562Z" transform="translate(-78.469 -115.047)" fill="#e0e0e0"/>
        <path id="Path_39091" data-name="Path 39091" d="M94.049,84.469l-7.755-2.384S84.26,88.6,77.458,86.607a6.587,6.587,0,0,1-4.823-5.9,7.247,7.247,0,0,1,2.5-6.142c1.994-1.764,5.491-2.837,10.425-.286l5.459-17.481L83.354,54.41,80.175,64.652s-11.633-.58-15.328,11.267c-3.536,11.339,5.808,17.147,10.163,18.506C78.316,95.459,89.925,98.192,94.049,84.469Z" transform="translate(-50.293 -43.506)" fill="#f5f5f5"/>
        <rect id="Rectangle_20208" data-name="Rectangle 20208" width="8.153" height="7.612" transform="translate(41.883 9.695) rotate(-162.67)" fill="#f5f5f5"/>
        <path id="Path_39092" data-name="Path 39092" d="M128.651,65.464l3.107-.795a2.725,2.725,0,0,1,2.01-3.361,2.606,2.606,0,0,1,2.861.961,2.868,2.868,0,0,1,.437,2.567c-.294,1.009-1.24,2.106-3.433,2.288l1.851,7,3.067-.795-1.081-4.1a6.19,6.19,0,0,0,2.757-6.992c-1.192-4.545-5.562-4.521-7.286-4.068C131.607,58.48,127.149,60,128.651,65.464Z" transform="translate(-63.496 -44.238)" fill="#ebebeb"/>
        <rect id="Rectangle_20209" data-name="Rectangle 20209" width="3.24" height="3.024" transform="translate(73.008 30.952) rotate(-15.005)" fill="#ebebeb"/>
        <path id="Path_39093" data-name="Path 39093" d="M451.54,167.558l3.019,1.089a2.733,2.733,0,0,1,3.576-1.589,2.59,2.59,0,0,1,1.8,2.384,2.884,2.884,0,0,1-1.1,2.384c-.795.66-2.217,1.017-4.124-.079l-2.471,6.81,2.988,1.081,1.446-3.973a6.206,6.206,0,0,0,6.253-4.18c1.589-4.418-1.994-6.873-3.687-7.485C457.944,163.49,453.415,162.211,451.54,167.558Z" transform="translate(-129.883 -65.911)" fill="#ebebeb"/>
        <rect id="Rectangle_20210" data-name="Rectangle 20210" width="3.226" height="3.012" transform="translate(321.865 114.005) rotate(19.91)" fill="#ebebeb"/>
        <path id="Path_39094" data-name="Path 39094" d="M47.946,207.619l6.357-2.463s-2.066-5.363,3.472-7.612a5.562,5.562,0,0,1,6.277,1.375,6.142,6.142,0,0,1,1.542,5.348c-.4,2.209-2.145,4.768-6.746,5.65l5.562,14.406,6.357-2.431-3.258-8.439a13.283,13.283,0,0,0,4.219-15.479c-3.615-9.344-12.864-8.28-16.416-6.905C52.571,192.125,43.481,196.392,47.946,207.619Z" transform="translate(-46.732 -71.392)" fill="#f5f5f5"/>
        <rect id="Rectangle_20211" data-name="Rectangle 20211" width="6.873" height="6.42" transform="translate(18.825 155.901) rotate(-21.07)" fill="#f5f5f5"/>
        <path id="Path_39095" data-name="Path 39095" d="M450.143,239.579l-4.529,1.74a4.129,4.129,0,0,1-2.463,5.4,3.973,3.973,0,0,1-4.45-.969,4.346,4.346,0,0,1-1.089-3.79c.286-1.589,1.526-3.369,4.768-3.973l-3.893-10.242-4.482,1.724,2.3,5.983a9.368,9.368,0,0,0-2.988,10.965c2.551,6.619,9.082,5.872,11.625,4.895C446.87,250.553,453.306,247.533,450.143,239.579Z" transform="translate(-125.999 -79.109)" fill="#f5f5f5"/>
        <rect id="Rectangle_20212" data-name="Rectangle 20212" width="4.871" height="4.545" transform="translate(311.665 146.53) rotate(158.93)" fill="#f5f5f5"/>
      </g>
      <g id="freepik--Floor--inject-5" transform="translate(29.23 376.659)">
        <path id="Path_39096" data-name="Path 39096" d="M380.074,463.717c0,.119-78.546.207-175.414.207s-175.43-.087-175.43-.207,78.53-.207,175.43-.207S380.074,463.605,380.074,463.717Z" transform="translate(-29.23 -463.51)" fill="#263238"/>
      </g>
      <g id="freepik--Plant--inject-5" transform="translate(49.057 238.773)">
        <path id="Path_39097" data-name="Path 39097" d="M84.741,422.625c.795-2.924-1.168-5.856-3.313-7.946s-4.712-4.013-5.832-6.818c-1.812-4.545.62-10.425-2.463-14.215-1.82-2.225-5.077-2.972-6.69-5.356a12.1,12.1,0,0,1-1.454-4.251A43.162,43.162,0,0,0,54.236,363.92a37.521,37.521,0,0,0,4.219,19.388c1.248,2.384,2.789,4.7,3.178,7.366.675,4.315-1.74,8.74-.675,13,1.216,4.847,6.659,8.1,6.913,13.087.222,4.219-3.456,7.946-3.178,12.141a11.3,11.3,0,0,0,1.9,5.006c3.258,5.427,8.057,9.162,15.32,9.042l8.9.31Z" transform="translate(-54.183 -305.168)" fill="#ffaf1b"/>
        <g id="Group_38989" data-name="Group 38989" transform="translate(0 58.752)" opacity="0.3">
          <path id="Path_39098" data-name="Path 39098" d="M84.741,422.625c.795-2.924-1.168-5.856-3.313-7.946s-4.712-4.013-5.832-6.818c-1.812-4.545.62-10.425-2.463-14.215-1.82-2.225-5.077-2.972-6.69-5.356a12.1,12.1,0,0,1-1.454-4.251A43.162,43.162,0,0,0,54.236,363.92a37.521,37.521,0,0,0,4.219,19.388c1.248,2.384,2.789,4.7,3.178,7.366.675,4.315-1.74,8.74-.675,13,1.216,4.847,6.659,8.1,6.913,13.087.222,4.219-3.456,7.946-3.178,12.141a11.3,11.3,0,0,0,1.9,5.006c3.258,5.427,8.057,9.162,15.32,9.042l8.9.31Z" transform="translate(-54.183 -363.92)"/>
        </g>
        <path id="Path_39099" data-name="Path 39099" d="M101.4,435.533a7.151,7.151,0,0,0,2.455-.048,15.312,15.312,0,0,0,2.884-.731,12.356,12.356,0,0,0,3.576-1.955,4.943,4.943,0,0,0,1.47-1.963,9.272,9.272,0,0,0,.413-2.654,25.839,25.839,0,0,1,.215-2.876,7.779,7.779,0,0,1,1.081-2.861c1.049-1.843,2.8-3.592,3.353-6.095a21.206,21.206,0,0,0-.238-7.795c-.413-2.67-.795-5.562.207-8.359s2.908-5.3,3.886-8.431.516-6.579.723-9.94a13.111,13.111,0,0,1,1.16-4.942c.715-1.589,1.716-3.059,2.5-4.712,1.589-3.353,1.859-7.151,2.288-10.878.215-1.875.421-3.774.636-5.681a28.24,28.24,0,0,1,.993-5.7,50.976,50.976,0,0,1,2.13-5.507,19.141,19.141,0,0,0,1.033-2.868,28.963,28.963,0,0,0,.286-3.067,36.4,36.4,0,0,0-.238-6.158c-.238-2.05-.612-4.084-.834-6.142v-.358l-.048-.405-.358.175a13.747,13.747,0,0,0-4.768,4.044,21.971,21.971,0,0,0-2.948,5.427c-1.486,3.822-2.018,7.827-2.765,11.649a32.111,32.111,0,0,1-3.655,10.759c-.977,1.589-2.161,3.035-3.178,4.577a12.539,12.539,0,0,0-2.209,5.07c-.532,3.766,1.542,7.072,1.112,10.409a11.514,11.514,0,0,1-1.589,4.617c-.795,1.422-1.756,2.741-2.662,4.06a26.032,26.032,0,0,0-2.384,4.108,12.928,12.928,0,0,0-1.1,4.458c-.215,3,.207,5.848,0,8.534a19.666,19.666,0,0,1-2.2,7.318c-1.073,2.185-2.273,4.164-3.274,6.087-.5.954-.969,1.891-1.351,2.837a14.2,14.2,0,0,0-.795,2.813,17.64,17.64,0,0,0-.064,5.077,12.8,12.8,0,0,0,2.543,6.476,6.448,6.448,0,0,0,.723.795,3.617,3.617,0,0,0,.58.493c.334.246.509.358.509.358a11.067,11.067,0,0,1-1.724-1.7,12.833,12.833,0,0,1-2.384-6.436,17.552,17.552,0,0,1,.111-5.006,13.509,13.509,0,0,1,.795-2.741,29.024,29.024,0,0,1,1.359-2.8c1.009-1.907,2.217-3.878,3.313-6.079a19.865,19.865,0,0,0,2.273-7.445c.238-2.741-.175-5.6.048-8.526a12.761,12.761,0,0,1,1.073-4.315,25.919,25.919,0,0,1,2.384-4.021c.906-1.319,1.867-2.638,2.694-4.092a11.919,11.919,0,0,0,1.7-4.807c.429-3.552-1.629-6.873-1.1-10.377a12.181,12.181,0,0,1,2.137-4.847c1.009-1.518,2.2-2.964,3.178-4.593a31.988,31.988,0,0,0,3.743-10.934c.739-3.838,1.287-7.811,2.749-11.561a21.383,21.383,0,0,1,2.868-5.276,13.182,13.182,0,0,1,4.585-3.878l-.405-.23a1.173,1.173,0,0,0,.04.366c.222,2.082.6,4.116.795,6.15a35.248,35.248,0,0,1,.23,6.063,29.7,29.7,0,0,1-.27,2.972,17.877,17.877,0,0,1-1,2.773,52.483,52.483,0,0,0-2.145,5.562,28.845,28.845,0,0,0-1,5.785c-.207,1.915-.421,3.814-.628,5.689-.429,3.743-.707,7.477-2.225,10.711-.795,1.589-1.748,3.107-2.487,4.728a13.6,13.6,0,0,0-1.192,5.125c-.2,3.433.246,6.794-.683,9.829s-2.861,5.562-3.838,8.431-.62,5.9-.191,8.566.858,5.284.286,7.644-2.209,4.124-3.274,6.015a8.1,8.1,0,0,0-1.1,2.98,25.012,25.012,0,0,0-.191,2.908,8.9,8.9,0,0,1-.381,2.59,4.68,4.68,0,0,1-1.375,1.867,12.245,12.245,0,0,1-3.488,1.971,15.41,15.41,0,0,1-2.853.795,10.937,10.937,0,0,1-1.8.175C101.614,435.533,101.4,435.533,101.4,435.533Z" transform="translate(-62.975 -297.258)" fill="#263238"/>
        <path id="Path_39100" data-name="Path 39100" d="M130.661,332.1a.955.955,0,0,0-.087.27l-.191.795c-.175.707-.389,1.764-.723,3.083s-1.152,2.813-1.843,4.648a66.329,66.329,0,0,0-2.114,6.309c-.683,2.384-1.279,5.006-1.915,7.835a32.952,32.952,0,0,1-2.845,8.685,47.568,47.568,0,0,0-2.2,4.513,20.7,20.7,0,0,0-1.279,5.1,104.154,104.154,0,0,1-1.923,10.767c-1.78,7.286-3.48,14.231-5.03,20.556s-3.012,11.982-4.219,16.766-2.122,8.6-2.789,11.323c-.31,1.3-.556,2.328-.731,3.083-.072.326-.135.588-.183.795a1.469,1.469,0,0,0,0,.278,1.041,1.041,0,0,0,.1-.262c.056-.215.135-.469.23-.795.2-.739.477-1.764.834-3.059.715-2.7,1.724-6.539,2.972-11.267s2.7-10.449,4.331-16.734,3.282-13.278,5.077-20.572a99.1,99.1,0,0,0,1.875-10.8,20.524,20.524,0,0,1,1.24-4.982c.628-1.589,1.43-3.012,2.161-4.474a32.455,32.455,0,0,0,2.845-8.82c.628-2.8,1.184-5.459,1.836-7.827s1.335-4.482,2.018-6.309a48.333,48.333,0,0,0,1.764-4.7c.326-1.367.477-2.384.62-3.115q.079-.493.143-.795C130.661,332.2,130.677,332.1,130.661,332.1Z" transform="translate(-64.124 -298.632)" fill="#263238"/>
        <path id="Path_39101" data-name="Path 39101" d="M96.213,428.295c5.808-3.456,7.477-13.945,5.054-20.254s-6.667-12.078-7.318-18.808c-.509-5.173,1.192-10.481,0-15.534-1.629-6.826-8.288-12.11-8.208-19.126.04-3.933,2.28-7.636,2.1-11.569-.215-4.815-3.917-8.645-6.206-12.888-3.512-6.508-3.743-14.191-4.942-21.454s-3.973-15.1-10.441-18.681c-.954,6.19-2.582,10.433-2.074,18.816.191,3.012,3.687,8.741,4.164,15.375.286,3.973.477,7.9.723,11.839s.485,7.755,1.859,11.347c1.057,2.757,2.749,5.26,3.536,8.1,1.47,5.348-.469,11.124.723,16.559,1.009,4.593,4.188,8.542,4.839,13.2.906,6.539-3.321,13.341-1.16,19.579,1.081,3.1,3.623,5.562,4.346,8.78.564,2.479-.048,5.109.461,7.6.795,4.021,8.47,7.151,12.563,6.889" transform="translate(-56.216 -289.98)" fill="#ffaf1b"/>
        <path id="Path_39102" data-name="Path 39102" d="M68.808,297.67a1.882,1.882,0,0,0,0,.35c0,.262.079.6.127,1.017.135.9.286,2.209.588,3.909s1.208,3.623,1.907,5.944,1.478,4.974,2.13,7.946,1.224,6.285,1.8,9.837a40.2,40.2,0,0,0,2.98,11.124c.795,1.851,1.732,3.711,2.384,5.7a25.7,25.7,0,0,1,1.224,6.277,125.626,125.626,0,0,0,1.708,13.508c1.78,9.17,3.472,17.9,5.014,25.856s3.091,15.05,4.331,21.057S95.26,421,95.967,424.384l.795,3.854c.1.413.167.739.23.993a1.98,1.98,0,0,0,.1.342,1.455,1.455,0,0,0,0-.35c-.048-.262-.1-.588-.175-1.009-.175-.922-.421-2.225-.731-3.878-.667-3.393-1.589-8.24-2.789-14.223s-2.622-13.158-4.2-21.081-3.178-16.686-4.966-25.848a126.746,126.746,0,0,1-1.716-13.508,26.079,26.079,0,0,0-1.263-6.4c-.707-2.018-1.637-3.886-2.455-5.729A40.388,40.388,0,0,1,75.8,326.554c-.6-3.536-1.184-6.857-1.875-9.845s-1.446-5.657-2.225-7.946-1.645-4.227-1.994-5.888-.516-3-.683-3.878c-.079-.413-.143-.747-.191-1.009a2.694,2.694,0,0,0-.024-.318Z" transform="translate(-57.185 -291.56)" fill="#263238"/>
      </g>
      <g id="freepik--speech-bubble--inject-5" transform="translate(311.702 51.342)">
        <path id="Path_39103" data-name="Path 39103" d="M418.407,86.2h-3.178a2.694,2.694,0,0,1-2.757,2.71,2.559,2.559,0,0,1-2.479-1.637,2.829,2.829,0,0,1,.222-2.559c.54-.89,1.716-1.692,3.846-1.319V76.24h-3.123v4.18a6.1,6.1,0,0,0-4.378,5.959c0,4.625,4.148,5.7,5.928,5.7C413.846,92.108,418.471,91.782,418.407,86.2Z" transform="translate(-389.208 -58.645)" fill="#ffaf1b"/>
        <rect id="Rectangle_20213" data-name="Rectangle 20213" width="3.17" height="2.964" transform="translate(24.876 16.149) rotate(180)" fill="#ffaf1b"/>
        <path id="Path_39104" data-name="Path 39104" d="M431.252,77.42a2.589,2.589,0,0,0,0-.405V75.839a6.8,6.8,0,0,0-.04-.866c-.04-.318-.087-.667-.143-1.033s-.111-.795-.175-1.216l-.334-1.351a22.041,22.041,0,0,0-2.861-6.555,23.115,23.115,0,0,0-17.394-10.632,23.362,23.362,0,0,0-3.178-.064,8.1,8.1,0,0,0-1.589.1l-1.637.246a23.591,23.591,0,0,0-6.452,2.2,25.173,25.173,0,0,0-5.793,4.219,24.117,24.117,0,0,0-4.362,6.071,22.035,22.035,0,0,0-2.352,7.4,14.989,14.989,0,0,0-.167,1.979,16.684,16.684,0,0,0-.04,1.994,23.448,23.448,0,0,0,3.854,11.959v-.246c-1.1,2.757-2.193,5.467-3.258,8.1l-.191.485.5-.143,8.661-2.384-.207-.048a23.186,23.186,0,0,0,9.917,4.338,20.66,20.66,0,0,0,5.07.31,15.471,15.471,0,0,0,2.439-.23l1.184-.183c.389-.072.795-.191,1.144-.278a23.178,23.178,0,0,0,13.206-9.05,22.113,22.113,0,0,0,2.837-5.379c.151-.421.294-.795.429-1.208s.207-.795.294-1.152.183-.723.262-1.057.1-.66.151-.969c.072-.612.183-1.152.207-1.589s0-.858,0-1.192v-.969a.835.835,0,0,0,0,.246,3.734,3.734,0,0,1-.056.723c-.056.3-.048.723-.079,1.184s-.151,1-.246,1.589a23.043,23.043,0,0,1-17.092,18.435c-.373.087-.747.2-1.128.27l-1.168.175a15.837,15.837,0,0,1-2.384.215,21.16,21.16,0,0,1-4.974-.326,22.924,22.924,0,0,1-9.686-4.267l-.1-.079h-.119L385.539,98l.3.342,3.266-8.1.048-.127L389.083,90a22.853,22.853,0,0,1-3.274-7.779,23.282,23.282,0,0,1-.493-3.909,15.891,15.891,0,0,1,.04-1.947,13.014,13.014,0,0,1,.159-1.931,21.5,21.5,0,0,1,2.217-7.239,23.925,23.925,0,0,1,4.251-5.944,24.536,24.536,0,0,1,5.673-4.14,22.876,22.876,0,0,1,6.317-2.185l1.589-.246c.532-.079,1.065-.072,1.589-.111a23.759,23.759,0,0,1,3.107.056,22.868,22.868,0,0,1,17.187,10.33,22,22,0,0,1,2.908,6.452l.358,1.335c.072.421.135.795.2,1.192s.111.715.167,1.033.04.6.064.858a11.479,11.479,0,0,0,.087,1.168,1.342,1.342,0,0,0,.024.429Z" transform="translate(-384.723 -54.096)" fill="#263238"/>
      </g>
      <g id="freepik--question-mark--inject-5" transform="translate(102.253 82.316)">
        <path id="Path_39105" data-name="Path 39105" d="M145.067,179.134h45.888s0-38.53,40.04-39.213c20.794-.366,31.577,13.262,35.963,23.695,5.085,12.118,3.544,25.928-3.274,37.171-7.779,12.833-24.545,25.729-55.471,20.278L207.92,323.3H253.3V262.693s63.639-16.448,63.639-86.611c0-67.1-54.263-81.6-83.432-82.534-16.226-.516-22.106-1.216-42.177,1.637C165.751,98.84,144.527,128.542,145.067,179.134Z" transform="translate(-126.045 -93.077)" fill="#ffaf1b"/>
        <rect id="Rectangle_20214" data-name="Rectangle 20214" width="46.055" height="43.011" transform="translate(81.748 251.538)" fill="#ffaf1b"/>
        <rect id="Rectangle_20215" data-name="Rectangle 20215" width="46.055" height="43.011" transform="translate(81.748 251.538)" opacity="0.1"/>
        <path id="Path_39106" data-name="Path 39106" d="M145.067,179.134h45.888s0-38.53,40.04-39.213c20.794-.366,31.577,13.262,35.963,23.695,5.085,12.118,3.544,25.928-3.274,37.171-7.779,12.833-24.545,25.729-55.471,20.278L207.92,323.3H253.3V262.693s63.639-16.448,63.639-86.611c0-67.1-54.263-81.6-83.432-82.534-16.226-.516-22.106-1.216-42.177,1.637C165.751,98.84,144.527,128.542,145.067,179.134Z" transform="translate(-126.045 -93.077)" opacity="0.1"/>
        <path id="Path_39107" data-name="Path 39107" d="M121.138,179.217h45.9s0-38.53,40.04-39.213c20.794-.366,31.577,13.262,35.955,23.695,5.093,12.118,3.552,25.928-3.266,37.171-7.779,12.833-24.839,24.5-55.765,19.07V323.387h45.379V262.776s63.639-16.448,63.639-86.611c0-67.1-60.182-82.685-85.935-82.685C187.383,93.5,120.272,98.263,121.138,179.217Z" transform="translate(-121.13 -93.16)" fill="#ffaf1b"/>
        <rect id="Rectangle_20216" data-name="Rectangle 20216" width="46.055" height="43.011" transform="translate(62.741 251.538)" fill="#ffaf1b"/>
        <path id="Path_39109" data-name="Path 39109" d="M224.051,152.16a3.97,3.97,0,0,1-.683,0c-.453,0-1.1-.151-1.955-.159a39.643,39.643,0,0,0-7.2.3,51,51,0,0,0-10.385,2.439,44.434,44.434,0,0,0-5.785,2.495,30.577,30.577,0,0,0-5.665,3.663,28,28,0,0,0-4.632,4.895,47.966,47.966,0,0,0-3.472,5.26,47.034,47.034,0,0,0-4.108,9.837,40.008,40.008,0,0,0-1.383,7.072c-.1.842-.119,1.51-.143,1.955a3.616,3.616,0,0,1-.064.683,3.8,3.8,0,0,1,0-.683c0-.453,0-1.12.072-1.971a36.551,36.551,0,0,1,1.263-7.151,45.769,45.769,0,0,1,4.052-9.948,47.588,47.588,0,0,1,3.488-5.316,27.81,27.81,0,0,1,4.688-4.966,30.8,30.8,0,0,1,5.737-3.711,44.5,44.5,0,0,1,5.824-2.543,49.915,49.915,0,0,1,10.481-2.384,36.552,36.552,0,0,1,7.239-.167,17.126,17.126,0,0,1,1.955.238A4.931,4.931,0,0,1,224.051,152.16Z" transform="translate(-132.926 -105.11)" fill="#263238"/>
        <path id="Path_39110" data-name="Path 39110" d="M302.792,132.068s-.056-.056-.151-.175-.238-.326-.4-.556l-1.518-2.145c-.326-.461-.675-.993-1.089-1.542l-1.43-1.74-1.637-2.01c-.6-.7-1.3-1.375-1.994-2.114s-1.414-1.526-2.225-2.28-1.677-1.526-2.567-2.32c-.445-.4-.882-.795-1.359-1.216l-1.478-1.168c-1.009-.795-2.01-1.589-3.1-2.384a99.886,99.886,0,0,0-15.042-8.884l-4.187-1.891-4.156-1.589c-1.359-.564-2.741-.961-4.076-1.406s-2.638-.9-3.973-1.208l-3.8-.993c-1.232-.326-2.455-.524-3.623-.795a33.041,33.041,0,0,0-3.4-.644l-3.178-.461c-2.01-.342-3.854-.413-5.459-.572-.795-.064-1.589-.151-2.249-.183l-1.891-.048-2.622-.087h-.914a.747.747,0,0,1,.23,0h5.2c.691,0,1.446.1,2.257.151,1.589.135,3.464.191,5.475.516l3.178.429c1.1.127,2.233.413,3.409.628s2.384.437,3.647.795l3.814.985c1.319.3,2.622.795,3.973,1.2a33.545,33.545,0,0,1,4.084,1.4l4.18,1.589,4.211,1.9a97.383,97.383,0,0,1,15.1,8.947c1.1.795,2.1,1.645,3.107,2.431l1.478,1.073c.477.4.914.795,1.359,1.224l2.559,2.384c.795.795,1.51,1.589,2.217,2.312s1.383,1.43,1.979,2.137l1.589,2.026,1.414,1.764c.405.556.747,1.1,1.065,1.589.62.93,1.1,1.661,1.446,2.185l.373.58A.913.913,0,0,1,302.792,132.068Z" transform="translate(-142.523 -93.195)" fill="#263238"/>
        <path id="Path_39111" data-name="Path 39111" d="M304.642,266a2.459,2.459,0,0,1-.342.477l-1.1,1.3c-.453.58-1.025,1.271-1.732,2.042s-1.462,1.677-2.384,2.614-1.907,1.986-3.027,3.043-2.336,2.169-3.631,3.329a99.226,99.226,0,0,1-18.562,12.8c-1.542.795-3,1.589-4.4,2.2s-2.717,1.24-3.925,1.748-2.32.93-3.29,1.3-1.82.675-2.519.9l-1.589.516a2.773,2.773,0,0,1-.572.159,2.835,2.835,0,0,1,.54-.238l1.589-.588c.691-.246,1.526-.564,2.487-.961s2.074-.795,3.266-1.359,2.511-1.1,3.886-1.788,2.845-1.422,4.378-2.225c3.027-1.669,6.293-3.623,9.591-5.88a107.863,107.863,0,0,0,8.9-6.873c1.3-1.144,2.535-2.217,3.639-3.3s2.137-2.058,3.051-3,1.716-1.8,2.431-2.567,1.3-1.43,1.78-1.986l1.112-1.263A3.608,3.608,0,0,1,304.642,266Z" transform="translate(-149.155 -128.597)" fill="#263238"/>
        <path id="Path_39112" data-name="Path 39112" d="M256.295,363.542c-.119,0-.215-12.761-.215-28.5s.1-28.51.215-28.51.207,12.761.207,28.51S256.406,363.542,256.295,363.542Z" transform="translate(-148.849 -136.922)" fill="#263238"/>
        <path id="Path_39113" data-name="Path 39113" d="M258.5,449.758c-.119,0-.207-8.955-.207-20s.087-20.008.207-20.008.207,8.955.207,20.008S258.608,449.758,258.5,449.758Z" transform="translate(-149.303 -158.124)" fill="#263238"/>
      </g>
      <g id="freepik--Character--inject-5" transform="translate(252.916 65.514)">
        <path id="Path_39114" data-name="Path 39114" d="M315.366,191.551c-.795,1.589,2.169,2.892,3.878,3.409a15.589,15.589,0,0,0,5.332.366,15.333,15.333,0,0,0,6.881-1.526,10.981,10.981,0,0,0,4.148-4.648,32.7,32.7,0,0,0,2.106-5.952S318.933,184.424,315.366,191.551Z" transform="translate(-311.663 -94.788)" fill="#ffaf1b"/>
        <g id="Group_38990" data-name="Group 38990" transform="translate(3.57 88.412)" opacity="0.4">
          <path id="Path_39115" data-name="Path 39115" d="M315.366,191.551c-.795,1.589,2.169,2.892,3.878,3.409a15.589,15.589,0,0,0,5.332.366,15.333,15.333,0,0,0,6.881-1.526,10.981,10.981,0,0,0,4.148-4.648,32.7,32.7,0,0,0,2.106-5.952S318.933,184.424,315.366,191.551Z" transform="translate(-315.233 -183.2)"/>
        </g>
        <path id="Path_39116" data-name="Path 39116" d="M381.824,185.883a18.022,18.022,0,0,0,10.6,3.321,7.493,7.493,0,0,0,5.046-1.589c.612-.564,1.073-1.279,1.7-1.82.429-.366.93-.644,1.335-1.033a1.708,1.708,0,0,0,.58-1.51,3.123,3.123,0,0,0-1.1-1.748c-2.153-1.224-4.728-1.176-7.207-1.12a24.8,24.8,0,0,0-7.271,1.422c-1.923.652-3.933,1.589-4.911,3.337" transform="translate(-325.09 -94.205)" fill="#ffaf1b"/>
        <g id="Group_38991" data-name="Group 38991" transform="translate(55.51 86.168)" opacity="0.4">
          <path id="Path_39117" data-name="Path 39117" d="M401.085,183.256a3.3,3.3,0,0,0-1.406-1.589c-2.153-1.224-4.418-1.335-6.9-1.279a24.8,24.8,0,0,0-7.271,1.422c-1.923.652-3.933,1.589-4.911,3.337l1.224.739a18.021,18.021,0,0,0,10.6,3.321,7.493,7.493,0,0,0,5.046-1.589c.612-.564,1.073-1.279,1.7-1.82.429-.366.93-.644,1.335-1.033A1.708,1.708,0,0,0,401.085,183.256Z" transform="translate(-380.6 -180.376)"/>
        </g>
        <path id="Path_39118" data-name="Path 39118" d="M330.811,205.288l39.61.524a.516.516,0,0,0,.493-.667l-4.648-14.493s.683-7.247,1.629-15.955c1.438-13.23,3.353-29.861,3.377-29.813-2.71-7.6-18.7-8.884-18.7-8.884l-18.22,1.081-.636-1.073-5.244,2.439a23.942,23.942,0,0,0-3.29,1.859c-3.464,2.312-11.808,7.628-13.333,13.548-3.52,13.707,2.439,29,2.439,29l3.83-3a26.887,26.887,0,0,1,3.035-2.026l7.676,20.572a3.631,3.631,0,0,0-1.669,2.638,4.061,4.061,0,0,0,3.647,4.243" transform="translate(-310.74 -85.092)" fill="#ffaf1b"/>
        <g id="Group_38992" data-name="Group 38992" transform="translate(31.89 75.413)" opacity="0.3">
          <path id="Path_39119" data-name="Path 39119" d="M356.052,187.372c1.255-6.754.6-13.7-.079-20.532-2.193,5.562-2.114,11.919-4.442,17.433a7.468,7.468,0,0,0-.62,1.836,2.058,2.058,0,0,0,.524,1.8c.636.58,1.589.262,2.431.167a9.486,9.486,0,0,0,2.185-.7" transform="translate(-350.874 -166.84)"/>
        </g>
        <g id="Group_38993" data-name="Group 38993" transform="translate(21.955 106.544)" opacity="0.4">
          <path id="Path_39120" data-name="Path 39120" d="M338.871,211.057c3.178,1.1,6.563-.954,9.924-1.319a25.179,25.179,0,0,1,6.659.628,49.948,49.948,0,0,0,13.508.334,5.181,5.181,0,0,0,1.986-.516,2.384,2.384,0,0,0,1.041-1.971c-7.485-.795-14.962-1.224-22.447-1.994a14.017,14.017,0,0,0-5.61.183c-2.257.7-3.973,2.471-5.562,4.227" transform="translate(-338.37 -206.019)"/>
        </g>
        <path id="Path_39121" data-name="Path 39121" d="M398.874,173.627c-3.234-7.286-14.636-27.437-14.636-27.437l-8.828,11.069,2.058,21.732s4.664-5.2,17.7-5.308a6.357,6.357,0,0,1,4.847,2.559Z" transform="translate(-324.024 -87.186)" fill="#ffaf1b"/>
        <path id="Path_39122" data-name="Path 39122" d="M337.564,173.383a29.966,29.966,0,0,1-1.494-4.768,30.106,30.106,0,0,1-1.081-4.855,31.529,31.529,0,0,1,1.486,4.768A30.7,30.7,0,0,1,337.564,173.383Z" transform="translate(-315.721 -90.795)" fill="#263238"/>
        <path id="Path_39123" data-name="Path 39123" d="M374.569,158.27a5.235,5.235,0,0,1,.795.691,23.042,23.042,0,0,1,1.971,2.161,20.985,20.985,0,0,1,4.219,8.629,16.28,16.28,0,0,1,.246,5.324c-.2,1.629-.509,3.059-.715,4.267s-.334,2.193-.4,2.876a5.323,5.323,0,0,1-.111,1.057,4.768,4.768,0,0,1-.048-1.073,25.764,25.764,0,0,1,.27-2.908c.167-1.216.445-2.662.628-4.259a16.441,16.441,0,0,0-.278-5.2,21.907,21.907,0,0,0-4.044-8.534C375.65,159.351,374.506,158.334,374.569,158.27Z" transform="translate(-323.851 -89.667)" fill="#263238"/>
        <path id="Path_39124" data-name="Path 39124" d="M359.025,219.338a3.384,3.384,0,0,1-.866.254,7.731,7.731,0,0,1-1.033.2c-.405.056-.866.143-1.383.167a19.921,19.921,0,0,1-3.639,0,23.5,23.5,0,0,1-4.37-.874,23.837,23.837,0,0,1-4.1-1.756,20.969,20.969,0,0,1-3.012-2.042c-.413-.318-.747-.652-1.049-.93a9.151,9.151,0,0,1-.739-.747,3.107,3.107,0,0,1-.564-.7c.056-.056.906.9,2.535,2.145a22.863,22.863,0,0,0,3.012,1.939,25.263,25.263,0,0,0,4.037,1.692,24.9,24.9,0,0,0,4.291.89,23.531,23.531,0,0,0,3.576.111C357.761,219.576,359.009,219.274,359.025,219.338Z" transform="translate(-316.395 -100.89)" fill="#263238"/>
        <path id="Path_39125" data-name="Path 39125" d="M379.122,215.32a2.765,2.765,0,0,1,.31,1.16,7.152,7.152,0,0,1-.215,2.892,5.022,5.022,0,0,1-1.589,2.463c-.58.485-1.025.636-1.049.6s.35-.3.85-.795a5.626,5.626,0,0,0,1.359-2.384A14.279,14.279,0,0,0,379.122,215.32Z" transform="translate(-324.264 -101.385)" fill="#263238"/>
        <path id="Path_39126" data-name="Path 39126" d="M376.629,218.84a4.307,4.307,0,0,1-1.7,4.386c-.087-.087.652-.874,1.112-2.09S376.509,218.848,376.629,218.84Z" transform="translate(-323.923 -102.108)" fill="#263238"/>
        <path id="Path_39127" data-name="Path 39127" d="M367.425,185.94a16.871,16.871,0,0,1-1.414,2.034,16.285,16.285,0,0,1-1.391,2.05,5.094,5.094,0,0,1,1.049-2.288,5.014,5.014,0,0,1,1.756-1.8Z" transform="translate(-321.807 -95.35)" fill="#263238"/>
        <path id="Path_39128" data-name="Path 39128" d="M330.51,160.424a19.938,19.938,0,0,1-1.756-1.16,22.559,22.559,0,0,0-9.384-3.5,17.708,17.708,0,0,1-2.09-.278,7.754,7.754,0,0,1,2.122,0,18.975,18.975,0,0,1,9.535,3.552A7.58,7.58,0,0,1,330.51,160.424Z" transform="translate(-312.083 -89.079)" fill="#263238"/>
        <path id="Path_39129" data-name="Path 39129" d="M384.714,145.86a34.354,34.354,0,0,0-3.973,3.758,34.168,34.168,0,0,0-3.012,4.593,4.847,4.847,0,0,1,.548-1.542,16.028,16.028,0,0,1,2.145-3.321,15.606,15.606,0,0,1,2.908-2.678A4.672,4.672,0,0,1,384.714,145.86Z" transform="translate(-324.5 -87.118)" fill="#263238"/>
        <path id="Path_39130" data-name="Path 39130" d="M359.993,137.62a1.74,1.74,0,0,1,.175.366,7.087,7.087,0,0,1,.373,1.112,9.353,9.353,0,0,1,0,4.307,10.6,10.6,0,0,1-3.242,5.475,11.005,11.005,0,0,1-7.31,2.606,12.4,12.4,0,0,1-7.429-2.439,14.072,14.072,0,0,1-4.06-4.919,14.9,14.9,0,0,1-1.351-4.092,8.949,8.949,0,0,1-.143-1.16,1.279,1.279,0,0,1,0-.413s.087.556.31,1.542a16.2,16.2,0,0,0,1.454,3.973,14.08,14.08,0,0,0,4.029,4.768,12.141,12.141,0,0,0,7.151,2.384,10.743,10.743,0,0,0,7.064-2.479,10.488,10.488,0,0,0,3.178-5.26,9.7,9.7,0,0,0,.143-4.2C360.184,138.144,359.946,137.636,359.993,137.62Z" transform="translate(-316.132 -85.425)" fill="#263238"/>
        <g id="Group_38994" data-name="Group 38994" transform="translate(42.813 90.846)" opacity="0.3">
          <path id="Path_39131" data-name="Path 39131" d="M368.45,187.413a1.166,1.166,0,0,0-.413-1.065.794.794,0,0,0-.715,0,1.963,1.963,0,0,0-.58.477,9.75,9.75,0,0,0-2.122,3.393l3.893-.342C368.49,189.073,368.474,188.231,368.45,187.413Z" transform="translate(-364.62 -186.263)"/>
        </g>
        <g id="Group_38995" data-name="Group 38995" transform="translate(56.742 77.765)" opacity="0.3">
          <path id="Path_39132" data-name="Path 39132" d="M384.979,175.839a12.769,12.769,0,0,0-2.829-6.039,19.861,19.861,0,0,1,.175,12.372l.207-.524C383.62,179.446,385.273,178.064,384.979,175.839Z" transform="translate(-382.15 -169.8)"/>
        </g>
        <path id="Path_39133" data-name="Path 39133" d="M370.67,409.447l-2.376,35.637L352.8,444.9,350.36,407.85Z" transform="translate(-318.878 -140.932)" fill="#ffbe9d"/>
        <path id="Path_39134" data-name="Path 39134" d="M369.068,448.713v1.033s17.481,7.024,17.648,10.33L352,459.885l.54-11.545A19.9,19.9,0,0,0,369.068,448.713Z" transform="translate(-319.215 -149.249)" fill="#ffaf1b"/>
        <path id="Path_39135" data-name="Path 39135" d="M356.85,452.988a1.414,1.414,0,0,0-.985,1.589,1.351,1.351,0,0,0,1.589.993,1.486,1.486,0,0,0,1.033-1.708,1.406,1.406,0,0,0-1.764-.85" transform="translate(-320.005 -150.194)" fill="#fff"/>
        <path id="Path_39136" data-name="Path 39136" d="M352,462.153l.127-2.773,33.246,1.208s1.542.683,1.359,1.764Z" transform="translate(-319.215 -151.517)" fill="#263238"/>
        <path id="Path_39137" data-name="Path 39137" d="M372.82,450.188c0,.167-.858.238-1.693.795s-1.287,1.248-1.438,1.184.1-1.049,1.128-1.685S372.86,450.005,372.82,450.188Z" transform="translate(-322.841 -149.596)" fill="#263238"/>
        <path id="Path_39138" data-name="Path 39138" d="M377.609,452.137c.04.167-.7.445-1.279,1.16s-.747,1.47-.922,1.462-.27-.969.469-1.836S377.6,452.018,377.609,452.137Z" transform="translate(-323.998 -150.019)" fill="#263238"/>
        <path id="Path_39139" data-name="Path 39139" d="M380.727,456.895c-.159,0-.389-.795.056-1.74s1.232-1.287,1.3-1.152-.421.636-.795,1.406S380.9,456.879,380.727,456.895Z" transform="translate(-325.074 -150.407)" fill="#263238"/>
        <path id="Path_39140" data-name="Path 39140" d="M363.343,79.813a5.654,5.654,0,0,0-2.122-6.357,9.249,9.249,0,0,0-6.905-1.343A27.5,27.5,0,0,0,347.53,74.5a7.652,7.652,0,0,0-13,4.243,4.879,4.879,0,0,0-5.777,6.4L339.5,88.911l11.728,20.659A9.384,9.384,0,0,0,365.035,97.1a8.144,8.144,0,0,0,1.653-2.034,8.216,8.216,0,0,0,3.79-5.085A8.687,8.687,0,0,0,363.343,79.813Z" transform="translate(-314.38 -71.933)" fill="#263238"/>
        <path id="Path_39141" data-name="Path 39141" d="M356.554,124.823c-.667-3.361-1.128-5.665-1.12-5.642s6.357-2.463,5.9-11.307c-.223-4.4-1.9-11.339-3.456-16.965-1.4-5.07-6.126-10.655-11.124-9.042L331.6,89.257c-1.518.493-1.78,1.923-1.422,3.472v.795l5.888,24.362,2.487,10.886a9.193,9.193,0,0,0,10.266,6.977h0a9.2,9.2,0,0,0,7.739-10.926Z" transform="translate(-314.703 -73.915)" fill="#ffbe9d"/>
        <path id="Path_39142" data-name="Path 39142" d="M364.44,100.506a1.128,1.128,0,0,1-.795,1.335,1.081,1.081,0,0,1-1.343-.795,1.12,1.12,0,0,1,.795-1.327,1.073,1.073,0,0,1,1.343.787Z" transform="translate(-321.326 -77.631)" fill="#263238"/>
        <path id="Path_39143" data-name="Path 39143" d="M362.994,98.394c-.111.175-1.073-.262-2.249,0s-1.923,1.025-2.082.906,0-.342.326-.691a3.1,3.1,0,0,1,1.629-.906,2.916,2.916,0,0,1,1.828.2C362.891,98.084,363.042,98.323,362.994,98.394Z" transform="translate(-320.571 -77.213)" fill="#263238"/>
        <path id="Path_39144" data-name="Path 39144" d="M349.92,103.794a1.12,1.12,0,0,1-.795,1.327,1.081,1.081,0,0,1-1.343-.747,1.128,1.128,0,0,1,.795-1.335,1.081,1.081,0,0,1,1.343.755Z" transform="translate(-318.343 -78.313)" fill="#263238"/>
        <path id="Path_39145" data-name="Path 39145" d="M348.614,101.924c-.1.175-1.073-.27-2.249,0s-1.923,1.017-2.082.906,0-.342.326-.7a3.123,3.123,0,0,1,1.629-.9,2.98,2.98,0,0,1,1.828.191C348.487,101.615,348.67,101.829,348.614,101.924Z" transform="translate(-317.617 -77.938)" fill="#263238"/>
        <path id="Path_39146" data-name="Path 39146" d="M356.6,109.012a8.368,8.368,0,0,1,1.843-.747c.294-.1.572-.215.58-.429a1.589,1.589,0,0,0-.389-.85l-1.375-2.114A43.419,43.419,0,0,1,354,99.31a42.663,42.663,0,0,1,3.7,5.316l1.343,2.13a1.82,1.82,0,0,1,.405,1.152.794.794,0,0,1-.405.54,2,2,0,0,1-.493.183A7.3,7.3,0,0,1,356.6,109.012Z" transform="translate(-319.624 -77.556)" fill="#263238"/>
        <path id="Path_39147" data-name="Path 39147" d="M358.87,128.732a22.249,22.249,0,0,1-12.11-.652s4.164,5.435,12.563,2.837Z" transform="translate(-318.139 -83.466)" fill="#eb996e"/>
        <path id="Path_39148" data-name="Path 39148" d="M348.6,99.84c-.079.342-1.3.334-2.678.675s-2.479.858-2.7.588c-.1-.127.064-.461.485-.795a4.561,4.561,0,0,1,1.939-.961,4.664,4.664,0,0,1,2.153,0C348.364,99.451,348.658,99.681,348.6,99.84Z" transform="translate(-317.407 -77.538)" fill="#263238"/>
        <path id="Path_39149" data-name="Path 39149" d="M362.315,93.652c-.191.318-1.208.238-2.384.469s-2.106.628-2.384.4c-.127-.119,0-.421.342-.795a3.8,3.8,0,0,1,1.836-.842,3.742,3.742,0,0,1,1.994.143C362.2,93.246,362.395,93.493,362.315,93.652Z" transform="translate(-320.345 -76.22)" fill="#263238"/>
        <path id="Path_39150" data-name="Path 39150" d="M336.593,83.048a5.983,5.983,0,0,0,8.113,4.346c1.255-.509,2.559-1.462,3.83-1s1.8,2.273,3.012,2.948c1.788,1,3.973-.731,5.967-.556,1.589.135,2.789,1.351,4.021,2.384s2.932,1.812,4.323,1.065a17.56,17.56,0,0,0-1.406-3.83,5.928,5.928,0,0,0-2.908-2.749c-.7-.278-1.454-.373-2.122-.715-1.438-.731-2.082-2.384-3.123-3.631a6.555,6.555,0,0,0-5.562-2.225c-1.716.175-3.345,1.041-5.077.969-1.279-.056-2.5-.628-3.782-.6-2.487,0-4.354,2.225-5.737,4.3" transform="translate(-315.957 -73.395)" fill="#263238"/>
        <path id="Path_39151" data-name="Path 39151" d="M341.907,85.5c-1.144-.087-3.48-.326-4.251-1.136a6.706,6.706,0,0,0-6.357-2.1,5.562,5.562,0,0,0-3.973,5.292,7.946,7.946,0,0,0-5.8,5.7,9.233,9.233,0,0,0,1.986,8.351,16.54,16.54,0,0,1,1.3,1.883,13.459,13.459,0,0,0-1.414,2.145c-1.82,4.021,3.115,5.562,3.115,5.562,0,2.7,2.5,2.686,4.1,2.678s2.479,4.259,3.727,4.092L333.079,104.8a1.637,1.637,0,0,0,.58.111c3.012.056,2.225-5.65,1.255-7.151a17.642,17.642,0,0,0,2.257-3.639,12.324,12.324,0,0,0,.111-6.087C338.292,87.906,342.4,85.53,341.907,85.5Z" transform="translate(-312.897 -74.026)" fill="#263238"/>
        <path id="Path_39152" data-name="Path 39152" d="M335.339,111.038a2.551,2.551,0,0,0-4.092-1.367c-.795.683-1.216,1.828-.739,3.743,1.287,5.117,6.158,2.773,6.126,2.63S335.9,113.151,335.339,111.038Z" transform="translate(-314.759 -79.566)" fill="#ffbe9d"/>
        <path id="Path_39153" data-name="Path 39153" d="M334.954,114.9a1.338,1.338,0,0,1-.207.191.914.914,0,0,1-.659.183,2.256,2.256,0,0,1-1.518-1.724,3.082,3.082,0,0,1-.072-1.335,1.073,1.073,0,0,1,.5-.858.469.469,0,0,1,.588.119c.1.119.1.23.127.238s.087-.119,0-.318a.612.612,0,0,0-.278-.27.7.7,0,0,0-.524,0,1.311,1.311,0,0,0-.739,1.025,3.178,3.178,0,0,0,.056,1.51,2.384,2.384,0,0,0,1.851,1.883,1,1,0,0,0,.795-.342C334.978,115.028,334.978,114.909,334.954,114.9Z" transform="translate(-315.129 -79.973)" fill="#eb996e"/>
        <path id="Path_39154" data-name="Path 39154" d="M364.8,98.574a7.608,7.608,0,0,0,2.71-5.125,7.326,7.326,0,0,0-.286-2.94,6.309,6.309,0,0,0-1.82-2.829,7.485,7.485,0,0,0-7.294-1.462c-.238.079-.461.2-.683.294a6.1,6.1,0,0,0-.628.358l-.318.175V86.7a2.558,2.558,0,0,0-.644-1.669,4.092,4.092,0,0,0-1.5-1.017,5.427,5.427,0,0,0-3.409-.254c-2.193.5-4.052,1.5-5.808,1.708a5.61,5.61,0,0,1-3.973-.795,3.091,3.091,0,0,1-.795-.795c-.127-.215-.191-.334-.175-.342a4.339,4.339,0,0,0,1.041,1.009,5.562,5.562,0,0,0,3.838.644,13.508,13.508,0,0,0,2.67-.795,24.906,24.906,0,0,1,3.1-1.009,6.658,6.658,0,0,1,1.8-.183,5.459,5.459,0,0,1,1.851.429,4.481,4.481,0,0,1,1.589,1.144,3.027,3.027,0,0,1,.747,1.939l-.318-.175.66-.381c.246-.1.477-.222.731-.31a7.811,7.811,0,0,1,7.7,1.534,6.579,6.579,0,0,1,1.891,3,7.731,7.731,0,0,1-1.518,7.151,5.046,5.046,0,0,1-.882.795,1.511,1.511,0,0,1-.27.246Z" transform="translate(-316.787 -74.246)" fill="#455a64"/>
        <path id="Path_39155" data-name="Path 39155" d="M363.948,79.165A6.222,6.222,0,0,0,362.3,78.6a4.323,4.323,0,0,0-1.955.183,3.814,3.814,0,0,0-2.01,1.462l-.2.278-.119-.318a5.967,5.967,0,0,0-4.847-3.6,7.708,7.708,0,0,0-4.656,1.351,20.571,20.571,0,0,1-3.695,1.907,5.856,5.856,0,0,1-2.8.334,4.266,4.266,0,0,1-.739-.207c-.159-.071-.246-.111-.238-.127s.358.1,1,.167a6.1,6.1,0,0,0,2.678-.437,22.906,22.906,0,0,0,3.6-1.971,12.324,12.324,0,0,1,2.225-1.089,6.1,6.1,0,0,1,2.67-.342,6.269,6.269,0,0,1,5.133,3.886h-.31a4.148,4.148,0,0,1,2.217-1.541,4.521,4.521,0,0,1,2.082-.1,3.718,3.718,0,0,1,1.24.477,1.589,1.589,0,0,1,.373.254Z" transform="translate(-316.964 -72.802)" fill="#455a64"/>
        <path id="Path_39156" data-name="Path 39156" d="M355.954,114.377A1.716,1.716,0,0,0,354.6,114a2.042,2.042,0,0,0-1.343.977h0a.253.253,0,0,0-.048.064h0a1.017,1.017,0,0,0-.143.6,1.422,1.422,0,0,0,.795,1.073,1.828,1.828,0,0,0,2.082-.3,1.486,1.486,0,0,0,.008-2.034Z" transform="translate(-319.434 -80.569)" fill="#ffaf1b"/>
        <path id="Path_39157" data-name="Path 39157" d="M356.273,117.037c-.064,0-.135-.238-.35-.564a2.479,2.479,0,0,0-2.582-1.176c-.389.056-.628.167-.652.111s.159-.246.588-.4a2.384,2.384,0,0,1,1.708.1,2.32,2.32,0,0,1,1.2,1.232C356.353,116.751,356.329,117.029,356.273,117.037Z" transform="translate(-319.356 -80.757)" fill="#263238"/>
        <path id="Path_39158" data-name="Path 39158" d="M335.994,118.528a1.092,1.092,0,0,1-.072,1,1.6,1.6,0,0,1-3-.564,1.669,1.669,0,0,1,.326-1.1c.413-.524.874-.54.874-.493a2.451,2.451,0,0,0-.628.66,1.4,1.4,0,0,0-.191.89,1.271,1.271,0,0,0,.6.882,1.311,1.311,0,0,0,1.057.159,1.486,1.486,0,0,0,.723-.556A3.678,3.678,0,0,0,335.994,118.528Z" transform="translate(-315.295 -81.263)" fill="#ffaf1b"/>
        <path id="Path_39159" data-name="Path 39159" d="M332.951,118.058c.04,0,0,.27-.373.445a1.041,1.041,0,0,1-1.391-1.279,1.009,1.009,0,0,1,.421-.516c.326-.2.572-.119.564-.072s-.191.1-.389.3a.795.795,0,0,0,.7,1.287C332.752,118.169,332.9,118.026,332.951,118.058Z" transform="translate(-314.93 -81.103)" fill="#ffaf1b"/>
        <path id="Path_39160" data-name="Path 39160" d="M344.4,201.815s19.674,1.144,31.307,1.248c9,.087,13.023-2.3,14.819-8.1,1.51-4.855-1.732-14.176-1.732-14.176-6.095,0-9.853.874-13.77,2.71l1.041,4.259-31.72,2.733Z" transform="translate(-317.642 -94.293)" fill="#ffbe9d"/>
        <path id="Path_39161" data-name="Path 39161" d="M390.824,194.075a15.827,15.827,0,0,0-2.964-2.948,15.572,15.572,0,0,0-3.83-1.685,2.773,2.773,0,0,1,1.263.111,8.408,8.408,0,0,1,2.8,1.232,8.3,8.3,0,0,1,2.169,2.161C390.7,193.6,390.871,194.051,390.824,194.075Z" transform="translate(-325.794 -96.064)" fill="#eb996e"/>
        <path id="Path_39162" data-name="Path 39162" d="M332.62,177.119h0a38.17,38.17,0,0,0-10.56,4.45l4.768,12.92c1.589,4.243,6.444,6.357,10.33,4.132,5.983-3.425,8.1-13.4,8.1-13.4l6.571-28.51-10.894-6.826-8.272,27.239" transform="translate(-313.065 -87.943)" fill="#ffbe9d"/>
        <path id="Path_39163" data-name="Path 39163" d="M345.218,144.541l.445-9.376-2.439-9.535c-.135-.524-.2-1.184.23-1.5a1.16,1.16,0,0,1,1.47.048c.659.683,3.838,9.019,3.838,9.019s4.823-2.892,5.681-3.035,1.931,2.455,2,2.654a16.152,16.152,0,0,1,0,1.748s2.98.087,3.25.493a10.513,10.513,0,0,1,.342,2.535s1.263.405,1.462,1.359.612,2.527,0,2.876-1.851,1.033-1.851,1.033-.5,4.863-.636,5.308a30.676,30.676,0,0,1-2.924,3.178Z" transform="translate(-317.392 -82.605)" fill="#ffbe9d"/>
        <path id="Path_39164" data-name="Path 39164" d="M333,193.455a4.877,4.877,0,0,0,.914.373,6.309,6.309,0,0,0,2.8.222,7.827,7.827,0,0,0,4.068-1.875,18.713,18.713,0,0,0,3.782-4.768,20.7,20.7,0,0,0,1.47-3.282,34.833,34.833,0,0,0,1.025-3.806c.62-2.678,1.3-5.562,2.01-8.629,1.43-6.126,3.035-12.976,4.768-20.357v-.056h.04c.548-.54,1.1-1.089,1.645-1.661.27-.286.54-.572.795-.866.127-.151.262-.3.365-.453a1.145,1.145,0,0,0,.135-.485c.215-1.589.381-3.234.556-4.895v-.1l.1-.048,1.518-.85c.111-.072.286-.151.358-.215a.452.452,0,0,0,.143-.262,2.861,2.861,0,0,0,0-.795,12.059,12.059,0,0,0-.358-1.724,2.145,2.145,0,0,0-1.263-1.025l-.135-.048v-.135a12.091,12.091,0,0,0-.1-1.406,6.432,6.432,0,0,0-.1-.7,1.159,1.159,0,0,0-.1-.294c0-.056,0,0-.048-.048a.8.8,0,0,0-.135-.056,14.232,14.232,0,0,0-2.908-.326h-.207v-1.8a1.668,1.668,0,0,0-.191-.532c-.079-.191-.175-.373-.27-.564a7.031,7.031,0,0,0-.652-1.049,1.74,1.74,0,0,0-.405-.4.381.381,0,0,0-.421-.048,9.329,9.329,0,0,0-1.12.516c-1.478.795-2.924,1.589-4.338,2.447l-.207.127-.087-.222c-.747-1.883-1.494-3.743-2.225-5.562-.366-.914-.723-1.828-1.089-2.725a1.112,1.112,0,0,0-.874-.795.882.882,0,0,0-1.033.381.922.922,0,0,0-.119.564,4.145,4.145,0,0,0,.159.66c.127.461.246.914.365,1.367.238.914.469,1.812.707,2.7q.7,2.686,1.375,5.244v.056q-.238,4.895-.453,9.376v-.016l-7.239,23.552-2.042,6.555c-.238.739-.421,1.319-.548,1.724a5.721,5.721,0,0,1-.207.58s.04-.207.151-.6l.5-1.74c.461-1.534,1.12-3.75,1.955-6.579,1.716-5.689,4.156-13.81,7.1-23.6v.04q.207-4.466.421-9.376v.056c-.453-1.708-.922-3.456-1.391-5.236l-.715-2.7c-.119-.453-.238-.914-.365-1.367a6.983,6.983,0,0,1-.167-.723,1.319,1.319,0,0,1,.167-.795,1.271,1.271,0,0,1,.644-.54,1.637,1.637,0,0,1,1.549.35,1.589,1.589,0,0,1,.429.683l1.089,2.725c.739,1.828,1.478,3.687,2.233,5.562l-.294-.1c1.422-.842,2.853-1.685,4.362-2.471a11.437,11.437,0,0,1,1.176-.532.8.8,0,0,1,.4-.056.953.953,0,0,1,.381.143,2.272,2.272,0,0,1,.5.493,6.8,6.8,0,0,1,.691,1.112c.1.2.2.389.286.588a2.043,2.043,0,0,1,.223.675c0,.564,0,1.089,0,1.589l-.2-.215a14.176,14.176,0,0,1,3.035.35,1.382,1.382,0,0,1,.2.087.516.516,0,0,1,.207.207,1.726,1.726,0,0,1,.135.405c.048.254.079.493.111.739.048.485.079.961.1,1.438l-.143-.191a2.5,2.5,0,0,1,1.518,1.255,12.271,12.271,0,0,1,.381,1.843,2.813,2.813,0,0,1,0,.961.834.834,0,0,1-.286.493,4.048,4.048,0,0,1-.405.238l-1.51.787.1-.151c-.183,1.661-.35,3.29-.572,4.9l-.048.31a.7.7,0,0,1-.151.342,4.089,4.089,0,0,1-.389.493c-.27.3-.54.6-.795.882-.548.572-1.1,1.12-1.653,1.661l.056-.1c-1.748,7.374-3.369,14.223-4.823,20.35-.723,3.059-1.414,5.944-2.05,8.613a32.793,32.793,0,0,1-1.049,3.83,21.551,21.551,0,0,1-1.51,3.313,18.768,18.768,0,0,1-3.87,4.815,7.946,7.946,0,0,1-4.172,1.859,6.2,6.2,0,0,1-2.853-.286,4.768,4.768,0,0,1-.675-.31Z" transform="translate(-315.312 -82.588)" fill="#eb996e"/>
        <path id="Path_39165" data-name="Path 39165" d="M358.832,137.29c0,.056-.27.087-.691.1a7.986,7.986,0,0,0-1.589.191,3.091,3.091,0,0,0-1.351.723c-.286.27-.413.5-.477.477s0-.31.262-.675a2.638,2.638,0,0,1,1.462-.922,4.394,4.394,0,0,1,1.7-.079C358.578,137.163,358.832,137.235,358.832,137.29Z" transform="translate(-319.77 -85.31)" fill="#eb996e"/>
        <path id="Path_39166" data-name="Path 39166" d="M356.979,137.212c-.1-.04-.111-.286,0-.548s.27-.445.373-.405.119.286,0,.548S357.059,137.252,356.979,137.212Z" transform="translate(-320.221 -85.144)" fill="#eb996e"/>
        <path id="Path_39167" data-name="Path 39167" d="M363.534,141.048a7.358,7.358,0,0,1-2.384.326,1.589,1.589,0,0,0-1.319.628c-.207.326-.135.6-.2.612s-.254-.262-.056-.739a1.248,1.248,0,0,1,.564-.628,2.384,2.384,0,0,1,.954-.286,6.539,6.539,0,0,1,2.439.087Z" transform="translate(-320.754 -86.096)" fill="#eb996e"/>
        <path id="Path_39168" data-name="Path 39168" d="M363.848,144.69c.111,0,.175.588.143,1.311s-.151,1.3-.262,1.3-.183-.6-.151-1.319S363.729,144.682,363.848,144.69Z" transform="translate(-321.592 -86.877)" fill="#eb996e"/>
        <path id="Path_39169" data-name="Path 39169" d="M368.07,170.438l.707-2.431a.667.667,0,0,1,1.112-.286l.93.946.572-2.3a.667.667,0,0,1,1.247-.127l1.3,2.717Z" transform="translate(-322.516 -91.227)" fill="#fff"/>
        <path id="Path_39170" data-name="Path 39170" d="M373.993,171.07a10.726,10.726,0,0,1-2.8.906,10.385,10.385,0,0,1-2.908.509,21.2,21.2,0,0,1,5.713-1.414Z" transform="translate(-322.559 -92.296)" fill="#fff"/>
        <path id="Path_39171" data-name="Path 39171" d="M315.442,154a6.53,6.53,0,0,0-.707.946,7.994,7.994,0,0,0-1.073,3,21.246,21.246,0,0,0-.143,4.768c.087,1.8.23,3.774.453,5.84a102.341,102.341,0,0,0,1.677,10.5c.278,1.335.532,2.384.707,3.178.079.334.151.612.207.85s.064.3.064.3-.04-.1-.1-.286-.143-.524-.23-.85c-.2-.739-.469-1.8-.795-3.139a94.312,94.312,0,0,1-1.724-10.512c-.223-2.066-.358-4.044-.437-5.848a21.3,21.3,0,0,1,.175-4.768,7.946,7.946,0,0,1,1.144-3.019,4.608,4.608,0,0,1,.779-.961Z" transform="translate(-311.263 -88.79)" fill="#fff"/>
        <path id="Path_39172" data-name="Path 39172" d="M332.726,140.38l-.183.1-.524.254c-.453.215-1.112.532-1.9.969a69.789,69.789,0,0,0-5.967,3.735c-2.273,1.589-4.283,3.035-5.753,4.084l-1.74,1.232-.485.326a.97.97,0,0,1-.175.111.644.644,0,0,1,.159-.135l.461-.35,1.708-1.279c1.454-1.073,3.457-2.567,5.729-4.124a60.44,60.44,0,0,1,6.007-3.7c.795-.421,1.462-.723,1.931-.922l.532-.222C332.686,140.4,332.686,140.372,332.726,140.38Z" transform="translate(-311.82 -85.992)" fill="#fff"/>
        <path id="Path_39173" data-name="Path 39173" d="M380.93,145.22a.58.58,0,0,1-.135-.1l-.358-.31a14.841,14.841,0,0,0-1.391-1.041,28.779,28.779,0,0,0-5.109-2.582,51.39,51.39,0,0,0-5.443-1.812c-.715-.2-1.287-.342-1.692-.437l-.453-.119a.635.635,0,0,1-.159-.056h.167l.461.087c.405.079.985.207,1.7.389A44.143,44.143,0,0,1,374,141.009a26.126,26.126,0,0,1,5.109,2.638A10.234,10.234,0,0,1,380.93,145.22Z" transform="translate(-322.13 -85.659)" fill="#fff"/>
        <path id="Path_39174" data-name="Path 39174" d="M336.568,221.46a1.121,1.121,0,0,1-.31-.1,5.563,5.563,0,0,1-.795-.429,3.8,3.8,0,0,1-1.732-2.336,4.569,4.569,0,0,1,.31-2.908,3.823,3.823,0,0,1,.461-.795c.127-.167.215-.246.222-.238a9.006,9.006,0,0,0-.58,1.057,4.712,4.712,0,0,0-.246,2.821,3.853,3.853,0,0,0,1.589,2.28C336.147,221.285,336.584,221.428,336.568,221.46Z" transform="translate(-315.44 -101.248)" fill="#fff"/>
        <path id="Path_39175" data-name="Path 39175" d="M334.15,212.39a3.974,3.974,0,0,1,.373,1,3.672,3.672,0,0,1,.223,1.041,3.264,3.264,0,0,1-.381-.993,3.178,3.178,0,0,1-.215-1.049Z" transform="translate(-315.549 -100.783)" fill="#fff"/>
        <path id="Path_39176" data-name="Path 39176" d="M342.564,392.766l24.235-.119-.437-83.79-.23-85.236-32.84-.421-5.9,11.124a39.952,39.952,0,0,0-4.537,14.414c-.4,3.862,2.495,16.416,3.5,19.595l9.035,28.653Z" transform="translate(-313.22 -103.004)" fill="#263238"/>
        <path id="Path_39177" data-name="Path 39177" d="M379.828,223.844l26.635,72.6a33.484,33.484,0,0,1-3.282,28.367L372.256,385.2,354.87,363.446l25.872-54.032-22.8-36.988,3.838-48.47,10.743-.175Z" transform="translate(-319.805 -103.123)" fill="#263238"/>
        <path id="Path_39178" data-name="Path 39178" d="M374.55,254.47v.373c0,.246.04.628.072,1.1.056.977.127,2.384.223,4.2.183,3.679.437,8.963.795,15.487s.659,14.3,1.057,22.964c.191,4.323.4,8.86.6,13.564.151,2.384.087,4.768.111,7.151s0,4.895,0,7.39c0,19.968.064,38.045.087,51.148v19.722c0-.985,0-2.384-.048-4.219,0-3.679-.064-8.963-.111-15.495-.056-13.1-.127-31.18-.207-51.148v-7.39c0-2.431.048-4.831-.1-7.151-.2-4.7-.4-9.233-.58-13.556-.366-8.645-.7-16.424-.969-22.972s-.469-11.808-.62-15.487c-.064-1.812-.111-3.226-.143-4.211v-1.1C374.717,254.542,374.55,254.47,374.55,254.47Z" transform="translate(-323.847 -109.427)" fill="#455a64"/>
        <path id="Path_39179" data-name="Path 39179" d="M373.78,225.66a2.876,2.876,0,0,1,.167.795c.087.509.183,1.248.294,2.169.207,1.835.429,4.386.556,7.207s.135,5.379.1,7.231c0,.922-.056,1.677-.1,2.193a2.686,2.686,0,0,1-.1.795,22.7,22.7,0,0,1-.1-2.988c0-1.851-.087-4.394-.215-7.215s-.3-5.356-.437-7.151a26.783,26.783,0,0,1-.167-3.035Z" transform="translate(-323.689 -103.509)" fill="#455a64"/>
        <path id="Path_39180" data-name="Path 39180" d="M366.839,227.667c.04.056-.413.262-.54.906a1.041,1.041,0,0,0,.31.969,1.12,1.12,0,0,0,1.192.215,1.144,1.144,0,0,0,.62-1.041,1.041,1.041,0,0,0-.532-.866,1.931,1.931,0,0,0-1.041-.183.589.589,0,0,1,.286-.167,1.351,1.351,0,0,1,.89.087,1.3,1.3,0,0,1,.795,1.1,1.422,1.422,0,0,1-2.447,1.128,1.3,1.3,0,0,1-.326-1.311,1.343,1.343,0,0,1,.509-.739C366.712,227.659,366.831,227.643,366.839,227.667Z" transform="translate(-322.088 -103.879)" fill="#455a64"/>
        <path id="Path_39181" data-name="Path 39181" d="M347.78,225.91a2.382,2.382,0,0,1,.215.795,7.516,7.516,0,0,1,.071,2.161,8.828,8.828,0,0,1-.914,3.075,8.145,8.145,0,0,1-6.214,4.458,8.614,8.614,0,0,1-3.178-.119,7.5,7.5,0,0,1-2.018-.755,2.519,2.519,0,0,1-.652-.445,14.41,14.41,0,0,0,2.733.914,8.351,8.351,0,0,0,9.988-7.151,13.825,13.825,0,0,0-.032-2.932Z" transform="translate(-315.742 -103.561)" fill="#455a64"/>
        <path id="Path_39182" data-name="Path 39182" d="M388.635,232.854a3.337,3.337,0,0,1-1.534-.183,7.08,7.08,0,0,1-3.123-2,6.984,6.984,0,0,1-1.692-3.306,3.178,3.178,0,0,1,0-1.534c.072,0,.079.58.318,1.47a7.684,7.684,0,0,0,4.625,5.093C388.054,232.719,388.642,232.775,388.635,232.854Z" transform="translate(-325.417 -103.544)" fill="#455a64"/>
        <path id="Path_39183" data-name="Path 39183" d="M399.63,332.556a5.069,5.069,0,0,1-1.406,1.12,6.579,6.579,0,0,1-1.8.795,4.338,4.338,0,0,1-2.439-.064,7.1,7.1,0,0,1-3.4-2.7,6.531,6.531,0,0,1-.93-1.526,9.229,9.229,0,0,1,1.16,1.343,7.532,7.532,0,0,0,3.29,2.487,5.085,5.085,0,0,0,3.973-.58A15.568,15.568,0,0,1,399.63,332.556Z" transform="translate(-326.949 -124.978)" fill="#455a64"/>
        <path id="Path_39184" data-name="Path 39184" d="M393.36,337.3a20.1,20.1,0,0,1-2.5-3.178,20.659,20.659,0,0,1-2.177-3.409,19.426,19.426,0,0,1,2.511,3.178,18.994,18.994,0,0,1,2.169,3.409Z" transform="translate(-326.75 -125.087)" fill="#455a64"/>
        <path id="Path_39185" data-name="Path 39185" d="M343.092,257.43c-.111.04-.389-.413-.636-1.025s-.35-1.128-.246-1.176.389.413.628,1.025S343.195,257.43,343.092,257.43Z" transform="translate(-317.196 -109.582)" fill="#fafafa"/>
        <path id="Path_39186" data-name="Path 39186" d="M362.637,260.326c-.119,0-.207-.389-.207-.874s.087-.882.207-.882.207.4.207.882S362.748,260.326,362.637,260.326Z" transform="translate(-321.358 -110.269)" fill="#fafafa"/>
        <path id="Path_39187" data-name="Path 39187" d="M354.654,270.731c-.111,0-.238-.477-.278-1.089s0-1.1.127-1.112.246.477.286,1.089S354.766,270.723,354.654,270.731Z" transform="translate(-319.7 -112.315)" fill="#fafafa"/>
        <path id="Path_39188" data-name="Path 39188" d="M339.765,278.685c-.1.072-.421-.222-.85-.524s-.795-.532-.795-.644.524-.048,1.009.3S339.86,278.685,339.765,278.685Z" transform="translate(-316.364 -114.151)" fill="#fafafa"/>
        <path id="Path_39189" data-name="Path 39189" d="M365.811,288.46c-.1-.064,0-.405.27-.795s.516-.612.612-.548,0,.413-.27.795S365.906,288.524,365.811,288.46Z" transform="translate(-322.045 -116.131)" fill="#fafafa"/>
        <path id="Path_39190" data-name="Path 39190" d="M349.947,290.822c-.111,0-.207-.659-.207-1.462s.1-1.47.207-1.47.207.66.207,1.47A3.1,3.1,0,0,1,349.947,290.822Z" transform="translate(-318.751 -116.292)" fill="#fafafa"/>
        <path id="Path_39191" data-name="Path 39191" d="M344.4,302.49c-.064.087-.477-.1-.922-.421s-.795-.659-.691-.755.485.1.93.421S344.47,302.394,344.4,302.49Z" transform="translate(-317.319 -119.044)" fill="#fafafa"/>
        <path id="Path_39192" data-name="Path 39192" d="M360.5,306.685c.048.1-.207.318-.572.485s-.7.207-.747.1.215-.318.58-.485S360.458,306.582,360.5,306.685Z" transform="translate(-320.689 -120.141)" fill="#fafafa"/>
        <path id="Path_39193" data-name="Path 39193" d="M349.616,324.232c-.1.048-.509-.564-.914-1.375s-.652-1.51-.548-1.589.516.564.914,1.375A3.962,3.962,0,0,1,349.616,324.232Z" transform="translate(-318.42 -123.147)" fill="#fafafa"/>
        <path id="Path_39194" data-name="Path 39194" d="M367.663,322.73c-.1-.056.079-.588.4-1.2s.675-1.057.795-1-.079.588-.405,1.2S367.758,322.785,367.663,322.73Z" transform="translate(-322.426 -122.995)" fill="#fafafa"/>
        <path id="Path_39195" data-name="Path 39195" d="M359.8,338.068c-.119,0-.1-.644-.23-1.391s-.318-1.343-.207-1.4.493.509.62,1.335S359.91,338.092,359.8,338.068Z" transform="translate(-320.72 -126.025)" fill="#fafafa"/>
        <path id="Path_39196" data-name="Path 39196" d="M351.238,347.22c-.079.079-.477-.222-.882-.667s-.667-.866-.58-.946.477.222.882.667S351.325,347.14,351.238,347.22Z" transform="translate(-318.755 -128.145)" fill="#fafafa"/>
        <path id="Path_39197" data-name="Path 39197" d="M371.757,350.576c-.079-.079.215-.509.659-.961s.858-.747.946-.667-.215.516-.652.961S371.844,350.655,371.757,350.576Z" transform="translate(-323.271 -128.831)" fill="#fafafa"/>
        <path id="Path_39198" data-name="Path 39198" d="M360.158,363.566c-.111,0-.111-.628,0-1.359s.286-1.3.405-1.287.111.62,0,1.351S360.27,363.582,360.158,363.566Z" transform="translate(-320.874 -131.293)" fill="#fafafa"/>
        <path id="Path_39199" data-name="Path 39199" d="M352.069,370.151c-.1.056-.453-.358-.795-.922s-.516-1.065-.421-1.12.445.35.795.914S352.164,370.087,352.069,370.151Z" transform="translate(-318.974 -132.768)" fill="#fafafa"/>
        <path id="Path_39200" data-name="Path 39200" d="M370.628,378.785c.072.1-.334.5-.906.906s-1.073.66-1.144.564.342-.5.906-.906S370.564,378.7,370.628,378.785Z" transform="translate(-322.619 -134.959)" fill="#fafafa"/>
        <path id="Path_39201" data-name="Path 39201" d="M355.508,388.562c-.111-.04,0-.675.1-1.47s.04-1.446.159-1.462.326.652.246,1.5S355.611,388.61,355.508,388.562Z" transform="translate(-319.926 -136.368)" fill="#fafafa"/>
        <path id="Path_39202" data-name="Path 39202" d="M361.46,404.057c-.1.072-.429-.2-.755-.6s-.509-.795-.421-.866.421.2.747.6S361.548,403.986,361.46,404.057Z" transform="translate(-320.912 -139.849)" fill="#fafafa"/>
        <path id="Path_39203" data-name="Path 39203" d="M354.519,413.973c-.1.064-.532-.405-.977-1.057s-.723-1.224-.636-1.287.532.405.977,1.057S354.614,413.909,354.519,413.973Z" transform="translate(-319.398 -141.707)" fill="#fafafa"/>
        <path id="Path_39204" data-name="Path 39204" d="M373.731,401.547c-.1-.04-.1-.334,0-.652s.31-.556.421-.516.1.334,0,.659S373.842,401.595,373.731,401.547Z" transform="translate(-323.664 -139.397)" fill="#fafafa"/>
        <path id="Path_39205" data-name="Path 39205" d="M365.443,425.318c-.1-.056.1-.62.254-1.327s.215-1.3.334-1.311.238.636.072,1.4S365.538,425.382,365.443,425.318Z" transform="translate(-321.97 -143.979)" fill="#fafafa"/>
        <path id="Path_39206" data-name="Path 39206" d="M370.644,271.044c-.1.048-.358-.27-.564-.715s-.294-.842-.191-.89.358.27.564.715S370.763,271,370.644,271.044Z" transform="translate(-322.881 -112.501)" fill="#fafafa"/>
        <path id="Path_39207" data-name="Path 39207" d="M356.427,240.315c.064.1-.493.54-1.089,1.176s-1,1.224-1.1,1.168.167-.795.795-1.446S356.348,240.212,356.427,240.315Z" transform="translate(-319.67 -106.516)" fill="#fafafa"/>
        <path id="Path_39208" data-name="Path 39208" d="M369.06,239.465c-.119,0-.3-.453-.58-.993s-.532-.985-.445-1.065.516.27.795.874S369.164,239.4,369.06,239.465Z" transform="translate(-322.505 -105.92)" fill="#fafafa"/>
        <path id="Path_39209" data-name="Path 39209" d="M330.82,249.54c-.1-.048,0-.572.246-1.176s.516-1.073.628-1.025,0,.564-.246,1.176S330.955,249.58,330.82,249.54Z" transform="translate(-314.856 -107.962)" fill="#fafafa"/>
        <path id="Path_39210" data-name="Path 39210" d="M331.623,264.827c-.079.087-.532-.167-1.017-.572s-.795-.795-.747-.89.532.167,1.017.572S331.694,264.74,331.623,264.827Z" transform="translate(-314.666 -111.25)" fill="#fafafa"/>
        <path id="Path_39211" data-name="Path 39211" d="M357.174,227.954c-.1,0-.326-.254-.485-.66s-.207-.795-.1-.795.326.254.485.66S357.277,227.914,357.174,227.954Z" transform="translate(-320.146 -103.682)" fill="#fafafa"/>
        <path id="Path_39212" data-name="Path 39212" d="M381.509,235.18c-.111,0-.1-.5,0-1.065s.31-1.009.421-.985.1.509,0,1.073S381.62,235.2,381.509,235.18Z" transform="translate(-325.26 -105.043)" fill="#fafafa"/>
        <path id="Path_39213" data-name="Path 39213" d="M387.2,246.494c-.1-.048.04-.636.326-1.327s.6-1.208.7-1.168,0,.636-.318,1.327S387.313,246.534,387.2,246.494Z" transform="translate(-326.439 -107.276)" fill="#fafafa"/>
        <path id="Path_39214" data-name="Path 39214" d="M382.812,255.677c-.1.048-.485-.5-.85-1.224s-.572-1.367-.469-1.414.477.5.842,1.224S382.915,255.622,382.812,255.677Z" transform="translate(-325.268 -109.133)" fill="#fafafa"/>
        <path id="Path_39215" data-name="Path 39215" d="M391.809,265.086c-.1-.04,0-.5.175-1.025s.453-.922.564-.882,0,.5-.175,1.025S391.952,265.126,391.809,265.086Z" transform="translate(-327.384 -111.215)" fill="#fafafa"/>
        <path id="Path_39216" data-name="Path 39216" d="M383.88,274.305c-.1.064-.342-.151-.54-.469s-.294-.636-.191-.7.334.151.54.477S383.975,274.25,383.88,274.305Z" transform="translate(-325.605 -113.259)" fill="#fafafa"/>
        <path id="Path_39217" data-name="Path 39217" d="M385.236,292.715c-.079.072-.58-.318-1.1-.89s-.882-1.089-.795-1.168.58.318,1.1.89S385.323,292.636,385.236,292.715Z" transform="translate(-325.649 -116.858)" fill="#fafafa"/>
        <path id="Path_39218" data-name="Path 39218" d="M395.459,282.008c-.087.072-.524-.326-.969-.9s-.731-1.081-.644-1.152.524.334.969.9S395.554,281.944,395.459,282.008Z" transform="translate(-327.807 -114.661)" fill="#fafafa"/>
        <path id="Path_39219" data-name="Path 39219" d="M401.443,296.666c-.1-.048.079-.644.405-1.327s.667-1.208.795-1.16-.072.652-.4,1.335S401.546,296.722,401.443,296.666Z" transform="translate(-329.365 -117.583)" fill="#fafafa"/>
        <path id="Path_39220" data-name="Path 39220" d="M389.116,309.006c-.1.056-.469-.381-.977-.85s-.977-.795-.93-.914.652.1,1.208.612S389.212,308.95,389.116,309.006Z" transform="translate(-326.447 -120.26)" fill="#fafafa"/>
        <path id="Path_39221" data-name="Path 39221" d="M389.9,321.947c0,.111-.4.207-.882.207s-.874-.1-.874-.207.389-.207.874-.207S389.9,321.835,389.9,321.947Z" transform="translate(-326.639 -123.245)" fill="#fafafa"/>
        <path id="Path_39222" data-name="Path 39222" d="M402.513,317.894c-.1-.056.1-.556.254-1.176s.215-1.16.334-1.168.246.572.072,1.263S402.6,317.958,402.513,317.894Z" transform="translate(-329.585 -121.973)" fill="#fafafa"/>
        <path id="Path_39223" data-name="Path 39223" d="M414.362,322.032c-.1.04-.4-.524-.652-1.248s-.373-1.343-.27-1.375.405.516.659,1.24S414.473,321.992,414.362,322.032Z" transform="translate(-331.828 -122.766)" fill="#fafafa"/>
        <path id="Path_39224" data-name="Path 39224" d="M412.675,339.188c-.1-.056.151-.723.548-1.494s.795-1.351.914-1.3-.143.723-.548,1.486S412.778,339.26,412.675,339.188Z" transform="translate(-331.674 -126.255)" fill="#fafafa"/>
        <path id="Path_39225" data-name="Path 39225" d="M401.363,349.321c-.1.04-.429-.509-.731-1.232s-.453-1.343-.342-1.391.429.509.723,1.232S401.467,349.321,401.363,349.321Z" transform="translate(-329.127 -128.371)" fill="#fafafa"/>
        <path id="Path_39226" data-name="Path 39226" d="M389.05,353.857c0,.111-.334.207-.739.207s-.731-.1-.731-.207.334-.207.731-.207S389.05,353.745,389.05,353.857Z" transform="translate(-326.524 -129.799)" fill="#fafafa"/>
        <path id="Path_39227" data-name="Path 39227" d="M396.263,369.433c-.1,0-.326-.437-.493-1.041s-.2-1.128-.087-1.152.326.437.493,1.041S396.374,369.369,396.263,369.433Z" transform="translate(-328.175 -132.591)" fill="#fafafa"/>
        <path id="Path_39228" data-name="Path 39228" d="M387.571,364.22c-.1-.056,0-.429.262-.834s.524-.683.62-.628,0,.437-.262.842S387.674,364.284,387.571,364.22Z" transform="translate(-326.514 -131.669)" fill="#fafafa"/>
        <path id="Path_39229" data-name="Path 39229" d="M387.3,381.665c-.111,0-.27-.532-.35-1.224s-.056-1.255.056-1.271.27.532.35,1.224S387.409,381.649,387.3,381.665Z" transform="translate(-326.384 -135.041)" fill="#fafafa"/>
      </g>
    </g>
  </g>
</svg>
