<svg id="Business_deal-pana" data-name="Business deal-pana" xmlns="http://www.w3.org/2000/svg" width="363.825" height="351.349" viewBox="0 0 363.825 351.349">
  <g id="freepik--background-complete--inject-273" transform="translate(0 0)">
    <path id="Path_926" data-name="Path 926" d="M45.046,303.319s7.142-2.381,10.57,14.141,3.968,25.608,3.968,25.608,1.127,3.563,3.746,2.151,7.015-6.261,10.316-4.277,3.476,6.483,1.127,12.316-7.079,18.823-7.491,19.966-.214,3.071,1.73,2.381,14.213-8.586,17.617-2.539-5.793,21.228-6.769,22.9-.794,2.547-.1,3.23,4.611-2.381,8.2-4.468,8.1-3.928,9.777-.27-.9,16.22-18.141,33.068l-8.5,7.293-10.658-3.563C38.078,422.25,30.9,411.616,31.079,407.6s5.031-4.063,9.142-3.476,8.864,1.92,9.285,1.008.222-1.77-1.325-2.952-15.871-11.7-14.99-18.585,15.2-4.261,17.252-4.373,1.508-1.968.69-2.873-10.094-11.11-14.49-15.633-5.991-8.626-3.65-11.816,8.174-.27,11.11.04,2.643-3.42,2.643-3.42-2.992-8.626-6.118-25.172S45.2,303.263,45.2,303.263" transform="translate(-31.076 -95.898)" fill="#f5f5f5"/>
    <path id="Path_927" data-name="Path 927" d="M75.6,436.35c-2.381-12.149-5.714-28.9-9.523-47.4s-7.19-35.218-9.594-47.36c-1.19-6.055-2.166-10.959-2.833-14.371-.333-1.682-.6-3-.794-3.9-.1-.436-.159-.794-.214-1.016s-.079-.349-.079-.349a2.347,2.347,0,0,0,.04.357c.04.23.1.579.175,1.016.167.913.4,2.238.706,3.92.619,3.4,1.547,8.324,2.722,14.4,2.333,12.149,5.714,28.9,9.523,47.391s7.206,35.242,9.61,47.376" transform="translate(-35.511 -99.769)" fill="#e0e0e0"/>
    <path id="Path_928" data-name="Path 928" d="M74.62,359.61a3.741,3.741,0,0,0-.476.651c-.286.436-.682,1.079-1.167,1.873-.968,1.587-2.238,3.825-3.595,6.309l-3.444,6.388-1.032,1.936a3.715,3.715,0,0,0-.357.722,2.833,2.833,0,0,0,.484-.651c.286-.429.69-1.071,1.159-1.873.952-1.587,2.19-3.849,3.547-6.348l3.492-6.349c.421-.754.794-1.4,1.063-1.928A3.268,3.268,0,0,0,74.62,359.61Z" transform="translate(-37.986 -107.543)" fill="#e0e0e0"/>
    <path id="Path_929" data-name="Path 929" d="M57.946,378.789c.056-.087-4.436-2.912-10.015-6.349s-10.166-6.079-10.221-5.991,4.428,2.92,10.015,6.348S57.89,378.916,57.946,378.789Z" transform="translate(-32.445 -108.955)" fill="#e0e0e0"/>
    <path id="Path_930" data-name="Path 930" d="M66.958,415.867a3.337,3.337,0,0,0-.794-.262L64,415.018c-1.825-.5-4.349-1.2-7.142-2.071s-5.23-1.722-7.007-2.381l-2.055-.738A3.639,3.639,0,0,0,47,409.59a3.412,3.412,0,0,0,.738.373c.484.222,1.19.524,2.071.873,1.77.706,4.23,1.587,7,2.484s5.309,1.524,7.142,1.96c.928.214,1.674.373,2.2.468a3.476,3.476,0,0,0,.809.119Z" transform="translate(-34.363 -117.861)" fill="#e0e0e0"/>
    <path id="Path_931" data-name="Path 931" d="M85.744,400a3.107,3.107,0,0,0-.6.484c-.365.333-.881.794-1.516,1.42-1.27,1.214-3,2.9-4.9,4.761s-3.563,3.65-4.825,4.9c-.6.627-1.1,1.143-1.428,1.508a2.855,2.855,0,0,0-.484.587,3,3,0,0,0,.6-.484c.357-.325.881-.794,1.508-1.421,1.27-1.206,3.008-2.9,4.9-4.761s3.595-3.611,4.817-4.872c.611-.627,1.1-1.143,1.428-1.508a3.173,3.173,0,0,0,.492-.611Z" transform="translate(-39.524 -115.881)" fill="#e0e0e0"/>
    <path id="Path_932" data-name="Path 932" d="M96.547,430.3a4.7,4.7,0,0,0-.794.627l-1.944,1.809c-1.635,1.547-3.873,3.7-6.348,6.095S82.795,443.4,81.216,445l-1.865,1.9a5.2,5.2,0,0,0-.651.73,4.843,4.843,0,0,0,.794-.627l1.952-1.817c1.587-1.54,3.865-3.69,6.348-6.087s4.634-4.571,6.222-6.166l1.865-1.9A5.4,5.4,0,0,0,96.547,430.3Z" transform="translate(-40.908 -122.137)" fill="#e0e0e0"/>
    <path id="Path_933" data-name="Path 933" d="M72.632,449.224a5.559,5.559,0,0,0-.984-.357l-2.722-.809c-2.293-.714-5.468-1.714-8.936-2.912s-6.579-2.381-8.832-3.174l-2.666-1.055a5.8,5.8,0,0,0-.992-.325,5.687,5.687,0,0,0,.936.468c.611.278,1.508.659,2.627,1.119,2.222.921,5.325,2.119,8.809,3.317s6.658,2.158,8.975,2.8c1.167.325,2.1.571,2.762.73A6.017,6.017,0,0,0,72.632,449.224Z" transform="translate(-34.467 -124.261)" fill="#e0e0e0"/>
    <rect id="Rectangle_18285" data-name="Rectangle 18285" width="74.301" height="107.694" transform="translate(264.751 17.204)" fill="#e0e0e0"/>
    <rect id="Rectangle_18286" data-name="Rectangle 18286" width="74.301" height="107.694" transform="translate(261.029 17.204)" fill="#f5f5f5"/>
    <rect id="Rectangle_18287" data-name="Rectangle 18287" width="55.835" height="84.363" transform="translate(270.266 28.87)" fill="#fff"/>
    <path id="Path_934" data-name="Path 934" d="M427.444,162.637V156.4c0-4.047,0-9.935-.048-17.379,0-14.879-.056-35.94-.1-60.747l.19.183H371.657l.2-.2v84.363l-.159-.159,40.638.079,11.229.04h.064l-11.189.04-40.741.087h-.167v-.159c0-23.2,0-52.542-.04-84.363V77.98h56.224v.19c-.04,24.854-.071,45.963-.087,60.866,0,7.428-.04,13.308-.056,17.339v5.769A1.062,1.062,0,0,1,427.444,162.637Z" transform="translate(-101.351 -49.404)" fill="#e0e0e0"/>
    <path id="Path_935" data-name="Path 935" d="M451.268,63.65a12.37,12.37,0,0,1-1.325,1.92c-.857,1.159-2.087,2.73-3.484,4.42s-2.706,3.174-3.674,4.269a12.9,12.9,0,0,1-1.635,1.674,14.287,14.287,0,0,1,1.421-1.857l3.579-4.341L449.72,65.4a13.709,13.709,0,0,1,1.548-1.746Z" transform="translate(-115.731 -46.446)" fill="#e0e0e0"/>
    <path id="Path_936" data-name="Path 936" d="M442.37,184.32a69.156,69.156,0,0,0,9.737,12.173" transform="translate(-115.983 -71.357)" fill="#fff"/>
    <path id="Path_937" data-name="Path 937" d="M452.107,196.493a10.529,10.529,0,0,1-1.7-1.54,52.819,52.819,0,0,1-3.674-4.142,54.934,54.934,0,0,1-3.238-4.5,10.873,10.873,0,0,1-1.127-1.992,15.459,15.459,0,0,1,1.365,1.833c.794,1.151,1.976,2.722,3.317,4.4s2.627,3.174,3.563,4.2a16.2,16.2,0,0,1,1.492,1.738Z" transform="translate(-115.983 -71.357)" fill="#e0e0e0"/>
    <path id="Path_938" data-name="Path 938" d="M360,196.127l9.729-12.007" transform="translate(-98.979 -71.315)" fill="#fff"/>
    <path id="Path_939" data-name="Path 939" d="M369.729,184.12a71.648,71.648,0,0,1-4.706,6.126,74.529,74.529,0,0,1-5.023,5.88,74.5,74.5,0,0,1,4.706-6.134A75.231,75.231,0,0,1,369.729,184.12Z" transform="translate(-98.979 -71.315)" fill="#e0e0e0"/>
    <path id="Path_940" data-name="Path 940" d="M360,63.65a67.211,67.211,0,0,1,4.761,5.642,67.755,67.755,0,0,1,4.4,5.9,67.285,67.285,0,0,1-4.722-5.65A67.611,67.611,0,0,1,360,63.65Z" transform="translate(-98.979 -46.446)" fill="#e0e0e0"/>
    <rect id="Rectangle_18288" data-name="Rectangle 18288" width="18.696" height="53.081" transform="translate(290.01 45.995)" fill="#e0e0e0"/>
    <path id="Path_941" data-name="Path 941" d="M141.452,41.97V101.3H56.223L53.16,42.383Z" transform="translate(-35.635 -41.97)" fill="#e0e0e0"/>
    <rect id="Rectangle_18289" data-name="Rectangle 18289" width="58.795" height="85.228" transform="translate(17.525 59.208) rotate(-90)" fill="#fff"/>
    <path id="Path_942" data-name="Path 942" d="M138.68,101.588H52.65V42h86.03Zm-85.228-.794h84.387v-58H53.452Z" transform="translate(-35.53 -41.976)" fill="#e0e0e0"/>
    <rect id="Rectangle_18290" data-name="Rectangle 18290" width="66.762" height="44.185" transform="translate(26.754 7.721)" fill="#fff"/>
    <path id="Path_943" data-name="Path 943" d="M131.466,51.648h-4.944l-13.76.056L64.7,51.8l.167-.151V95.826h0l-.206-.214,66.762.048-.167.167c0-13.451.063-24.473.087-32.155,0-3.833,0-6.833.04-8.888v-.024c0,2.047,0,5.031.04,8.848,0,7.705.048,18.768.087,32.258v.167H64.37v-.206h0V51.45h.2l48.185.1,13.713.056h4.555Z" transform="translate(-37.949 -43.927)" fill="#e0e0e0"/>
    <path id="Path_944" data-name="Path 944" d="M53.15,42.28a7.214,7.214,0,0,1,1.468.952c.873.627,2.063,1.524,3.341,2.547s2.381,2,3.174,2.722a7.094,7.094,0,0,1,1.222,1.254,55.413,55.413,0,0,1-4.69-3.65A46.979,46.979,0,0,1,53.15,42.28Z" transform="translate(-35.633 -42.034)" fill="#e0e0e0"/>
    <path id="Path_945" data-name="Path 945" d="M158.145,42.49a40.82,40.82,0,0,1-4.484,3.817A42.456,42.456,0,0,1,148.9,49.8a41.361,41.361,0,0,1,4.484-3.825,41.724,41.724,0,0,1,4.761-3.484Z" transform="translate(-55.4 -42.077)" fill="#e0e0e0"/>
    <path id="Path_946" data-name="Path 946" d="M157.993,114.6l-9.523-7.705" transform="translate(-55.311 -55.372)" fill="#fff"/>
    <path id="Path_947" data-name="Path 947" d="M148.49,106.89a45.628,45.628,0,0,1,4.888,3.69A44.738,44.738,0,0,1,158,114.6a44.729,44.729,0,0,1-4.888-3.69,45.9,45.9,0,0,1-4.618-4.015Z" transform="translate(-55.315 -55.372)" fill="#e0e0e0"/>
    <path id="Path_948" data-name="Path 948" d="M53.15,114.7a42.13,42.13,0,0,1,4.444-3.777,40.234,40.234,0,0,1,4.7-3.444,40.471,40.471,0,0,1-4.436,3.777A39.16,39.16,0,0,1,53.15,114.7Z" transform="translate(-35.633 -55.494)" fill="#e0e0e0"/>
    <rect id="Rectangle_18291" data-name="Rectangle 18291" width="14.792" height="42.011" transform="translate(40.308 36.282) rotate(-90)" fill="#e0e0e0"/>
    <path id="Path_949" data-name="Path 949" d="M402.546,276.813a29.941,29.941,0,1,1,1.087-42.249A29.941,29.941,0,0,1,402.546,276.813Z" transform="translate(-97.316 -79.796)" fill="#ebebeb"/>
    <path id="Path_950" data-name="Path 950" d="M399.5,273.5a22.823,22.823,0,1,1,.794-32.227A22.823,22.823,0,0,1,399.5,273.5Z" transform="translate(-99.17 -81.646)" fill="#f5f5f5"/>
    <path id="Path_951" data-name="Path 951" d="M401.754,272.8c-.1-.1.556-.857,1.587-2.325a24.012,24.012,0,0,0,3.27-6.721,23.6,23.6,0,0,0,.928-5.047,22.47,22.47,0,0,0-.381-5.825,20.8,20.8,0,0,0-.794-3.063,22.076,22.076,0,0,0-3.111-5.944,24.119,24.119,0,0,0-2.293-2.666,24.934,24.934,0,0,0-2.69-2.277,22.788,22.788,0,0,0-2.92-1.778,21.358,21.358,0,0,0-3.047-1.27,21.021,21.021,0,0,0-3.071-.794,22.8,22.8,0,0,0-5.857-.3,23.45,23.45,0,0,0-5.039.976,24.266,24.266,0,0,0-6.69,3.333c-1.46,1.024-2.206,1.69-2.309,1.587s.516-.9,1.889-2.135a21.22,21.22,0,0,1,6.714-3.968,22.913,22.913,0,0,1,5.293-1.254,23.221,23.221,0,0,1,6.261.159,22.071,22.071,0,0,1,3.317.794,21.6,21.6,0,0,1,3.3,1.333,23.142,23.142,0,0,1,3.174,1.889,26.472,26.472,0,0,1,2.912,2.452,24.789,24.789,0,0,1,2.468,2.881A23.3,23.3,0,0,1,406.595,246a22.786,22.786,0,0,1,1.357,3.285,21.421,21.421,0,0,1,.794,3.309,23.379,23.379,0,0,1,.214,6.269,23.131,23.131,0,0,1-1.2,5.3,21.332,21.332,0,0,1-3.9,6.753C402.651,272.271,401.826,272.867,401.754,272.8Z" transform="translate(-100.904 -81.444)" fill="#e0e0e0"/>
    <path id="Path_952" data-name="Path 952" d="M377.808,271,375,273.786l-2.476-2.539,2.762-2.7a16.892,16.892,0,0,1-4.134-8.309l4.46-1.627a14.348,14.348,0,0,0,3.008,6.69l4.238-4.142c-2.063-3.484-4.2-7.555-.563-11.11,2.7-2.627,6.912-2.92,11.284.643l2.825-2.754,2.476,2.547-2.77,2.7a16.1,16.1,0,0,1,3.492,6.706l-4.365,1.786a14.751,14.751,0,0,0-2.468-5.182l-4.365,4.19c2.1,3.468,4.174,7.483.6,10.975C386.355,274.231,382.181,274.532,377.808,271Zm8.729-13.491,3.611-3.523c-1.587-1.047-2.881-.857-3.714,0s-.611,2.071.127,3.523Zm-1.857,10.316c.889-.865.651-2.071,0-3.539l-3.508,3.42c1.508,1.032,2.714.913,3.531.119Z" transform="translate(-101.281 -84.49)" fill="#e0e0e0"/>
    <path id="Path_953" data-name="Path 953" d="M251.967,329.512a31.441,31.441,0,1,1-39.972-19.347,31.441,31.441,0,0,1,39.972,19.347Z" transform="translate(-64.056 -96.975)" fill="#ebebeb"/>
    <path id="Path_954" data-name="Path 954" d="M246.881,333.888a23.958,23.958,0,1,1-30.465-14.744A23.957,23.957,0,0,1,246.881,333.888Z" transform="translate(-66.01 -98.915)" fill="#f5f5f5"/>
    <path id="Path_955" data-name="Path 955" d="M246.438,332.943c-.135.056-.579-.9-1.539-2.516a25.639,25.639,0,0,0-5.015-6.031,24.706,24.706,0,0,0-4.428-3.079,23.873,23.873,0,0,0-5.745-2.19,22,22,0,0,0-3.285-.547,23.3,23.3,0,0,0-7.023.4,26.192,26.192,0,0,0-3.547,1.039,25.877,25.877,0,0,0-3.341,1.587,22.444,22.444,0,0,0-2.968,2.024,21.827,21.827,0,0,0-2.539,2.381,22.646,22.646,0,0,0-2.079,2.6,23.809,23.809,0,0,0-2.825,5.468,24.917,24.917,0,0,0-1.246,5.238,25.394,25.394,0,0,0,.286,7.84,14.009,14.009,0,0,1,.532,2.9c-.135.056-.643-.889-1.222-2.73a22.219,22.219,0,0,1-.889-8.182,23.894,23.894,0,0,1,3.968-11.53,22.754,22.754,0,0,1,2.19-2.833,23.146,23.146,0,0,1,2.7-2.579A23.944,23.944,0,0,1,211.593,320a25.393,25.393,0,0,1,3.595-1.722,26,26,0,0,1,3.833-1.119,24.661,24.661,0,0,1,3.841-.476,23.342,23.342,0,0,1,3.738.119,23.735,23.735,0,0,1,3.515.651,25.036,25.036,0,0,1,6.087,2.508,24.543,24.543,0,0,1,4.555,3.452,22.114,22.114,0,0,1,4.761,6.65C246.327,331.856,246.541,332.9,246.438,332.943Z" transform="translate(-65.844 -98.676)" fill="#e0e0e0"/>
    <path id="Path_956" data-name="Path 956" d="M234.728,356.306l1.42,3.92-3.5,1.27-1.389-3.817c-3.539,1.048-7.261,1.167-9.737.357l.381-4.968a15.117,15.117,0,0,0,7.7,0l-2.127-5.857c-4.23.468-9.047.746-10.864-4.261-1.341-3.714.2-7.88,5.507-10.515l-1.413-3.888,3.5-1.278,1.389,3.825a16.736,16.736,0,0,1,7.88-.444l-.183,4.944a15.393,15.393,0,0,0-6.023.119l2.158,5.96c4.222-.5,8.967-.754,10.753,4.182C241.5,349.521,239.989,353.64,234.728,356.306Zm-9.118-14.221-1.809-4.968c-1.7,1.087-2.063,2.381-1.651,3.531S223.888,342.133,225.61,342.086Zm9.086,6.261c-.444-1.23-1.7-1.524-3.4-1.5l1.754,4.833c1.611-1.024,2.024-2.214,1.643-3.333Z" transform="translate(-69.283 -100.867)" fill="#e0e0e0"/>
    <path id="Path_957" data-name="Path 957" d="M103.633,230.378a26.386,26.386,0,1,1-26.711-25.989A26.386,26.386,0,0,1,103.633,230.378Z" transform="translate(-35.161 -75.499)" fill="#ebebeb"/>
    <path id="Path_958" data-name="Path 958" d="M98.988,232.079a20.077,20.077,0,1,1-6.062-14.142A20.109,20.109,0,0,1,98.988,232.079Z" transform="translate(-36.794 -77.12)" fill="#f5f5f5"/>
    <path id="Path_959" data-name="Path 959" d="M98.913,231.259a11.31,11.31,0,0,1-.563-2.381,21.3,21.3,0,0,0-2.381-6.134,19.942,19.942,0,0,0-6.721-6.92,18.773,18.773,0,0,0-2.476-1.309,18.009,18.009,0,0,0-2.738-.968,18.952,18.952,0,0,0-2.96-.571,21.194,21.194,0,0,0-3.1-.111,21.758,21.758,0,0,0-3.079.381,20.272,20.272,0,0,0-2.9.794,17.913,17.913,0,0,0-2.65,1.214,18.605,18.605,0,0,0-2.381,1.516,19.919,19.919,0,0,0-3.69,3.6,20.46,20.46,0,0,0-2.381,3.849,21.426,21.426,0,0,0-1.849,6.348,10.894,10.894,0,0,1-.349,2.452c-.127,0-.278-.873-.246-2.5a18.554,18.554,0,0,1,1.444-6.714,20.538,20.538,0,0,1,2.381-4.174,21,21,0,0,1,3.849-3.968,19.793,19.793,0,0,1,2.492-1.674,20.457,20.457,0,0,1,5.96-2.254,22.8,22.8,0,0,1,3.325-.421,23.35,23.35,0,0,1,3.341.127,20.826,20.826,0,0,1,3.174.643,18.855,18.855,0,0,1,2.944,1.087,19.393,19.393,0,0,1,2.627,1.444,20.633,20.633,0,0,1,4.182,3.611,20.228,20.228,0,0,1,2.714,3.968,18.482,18.482,0,0,1,2.032,6.563A5.689,5.689,0,0,1,98.913,231.259Z" transform="translate(-36.726 -76.927)" fill="#e0e0e0"/>
    <path id="Path_960" data-name="Path 960" d="M84.315,245.906l.1,3.5-3.127.087-.1-3.412A14.851,14.851,0,0,1,73.34,243.8l1.587-3.865a12.626,12.626,0,0,0,6.126,2.055l-.135-5.222c-3.5-.746-7.4-1.8-7.523-6.269-.087-3.317,2.238-6.229,7.142-6.92l-.1-3.476,3.127-.079.1,3.4a14.2,14.2,0,0,1,6.4,1.738l-1.46,3.888a12.9,12.9,0,0,0-4.825-1.5l.143,5.317c3.492.722,7.333,1.778,7.452,6.182C91.5,242.3,89.2,245.176,84.315,245.906Zm-3.5-13.737-.119-4.436c-1.651.413-2.278,1.341-2.254,2.381s.976,1.659,2.373,2.055Zm5.555,7.388c0-1.1-.952-1.659-2.309-2.1l.119,4.317c1.587-.349,2.246-1.222,2.214-2.222Z" transform="translate(-39.801 -78.727)" fill="#e0e0e0"/>
    <path id="Path_961" data-name="Path 961" d="M268.069,84.9A23.314,23.314,0,0,0,271,73.548,23.013,23.013,0,0,0,248.118,50.4a22.632,22.632,0,0,0-6.118.833,23.228,23.228,0,0,1,0,44.638,22.664,22.664,0,0,0,18.252-2.682l10.761,4.158Z" transform="translate(-74.619 -43.71)" fill="#ebebeb"/>
  </g>
  <g id="freepik--Floor--inject-273" transform="translate(5.201 338.724)">
    <path id="Path_962" data-name="Path 962" d="M374.687,469.024c0,.111-75.46.206-168.521.206s-168.536-.1-168.536-.206,75.444-.214,168.536-.214S374.687,468.905,374.687,469.024Z" transform="translate(-37.63 -468.81)" fill="#263238"/>
  </g>
  <g id="freepik--Characters--inject-273" transform="translate(64.186 28.582)">
    <path id="Path_963" data-name="Path 963" d="M148.343,437l.643,19.744L154,472.218a2.024,2.024,0,0,1-1.428,2.587h0a2.016,2.016,0,0,1-1.809-.421c-3.174-2.722-14.784-12.784-14.752-14.228,0-1.682-2.071-20.791-2.071-20.791Z" transform="translate(-116.497 -152.101)" fill="#ffb224"/>
    <path id="Path_964" data-name="Path 964" d="M153.085,480.452,136.42,464.47l.048.794a3.048,3.048,0,0,0,.833,1.936c1.333,1.4,5.1,5.19,13.9,12.792a2.016,2.016,0,0,0,1.865.421Z" transform="translate(-117.009 -157.772)" fill="#e0e0e0"/>
    <path id="Path_965" data-name="Path 965" d="M140.653,456.124a1.222,1.222,0,0,1,.421,1.587,1.167,1.167,0,0,1-1.587.436,1.286,1.286,0,0,1-.444-1.674,1.222,1.222,0,0,1,1.674-.27" transform="translate(-117.521 -156.021)" fill="#fff"/>
    <path id="Path_966" data-name="Path 966" d="M151.124,473.439c.111.048.5-1.016,1.643-1.635a6.229,6.229,0,0,1,2.246-.563c0-.048-.238-.182-.706-.222a3.127,3.127,0,0,0-1.754.4,3.175,3.175,0,0,0-1.254,1.286C151.084,473.129,151.076,473.423,151.124,473.439Z" transform="translate(-120.04 -159.123)" fill="#263238"/>
    <path id="Path_967" data-name="Path 967" d="M153.088,476.888a14.819,14.819,0,0,1,1.7-.952,15.792,15.792,0,0,1,1.912-.349,2.214,2.214,0,0,0-2.063-.055A2.329,2.329,0,0,0,153.088,476.888Z" transform="translate(-120.449 -160.009)" fill="#263238"/>
    <path id="Path_968" data-name="Path 968" d="M147.59,469.34a21.29,21.29,0,0,1,2.531-1.635,20.323,20.323,0,0,1,2.889-.849A5.555,5.555,0,0,0,147.59,469.34Z" transform="translate(-119.315 -158.254)" fill="#263238"/>
    <path id="Path_969" data-name="Path 969" d="M146.71,462.166c.064.111,1.127-.4,2.539-.532s2.563.143,2.595,0a3.9,3.9,0,0,0-2.635-.46A3.968,3.968,0,0,0,146.71,462.166Z" transform="translate(-119.134 -157.079)" fill="#263238"/>
    <path id="Path_970" data-name="Path 970" d="M146.289,454.865a9.923,9.923,0,0,1,2.627-.627,9.643,9.643,0,0,1,2.65.516c0-.048-.2-.278-.667-.516a4.316,4.316,0,0,0-1.992-.429,4.388,4.388,0,0,0-1.976.508C146.48,454.579,146.258,454.825,146.289,454.865Z" transform="translate(-119.046 -155.571)" fill="#263238"/>
    <path id="Path_971" data-name="Path 971" d="M148.721,452.009a1.737,1.737,0,0,0,0-.794,5.285,5.285,0,0,0-.7-1.92,2.38,2.38,0,0,0-1.047-1.039.794.794,0,0,0-.9.23,1.286,1.286,0,0,0-.262.913,2.857,2.857,0,0,0,2.65,2.5,3.317,3.317,0,0,0,3.174-1.913,1.159,1.159,0,0,0,0-.96.794.794,0,0,0-.857-.373,2.8,2.8,0,0,0-1.262.746,5.746,5.746,0,0,0-1.262,1.587,1.745,1.745,0,0,0-.262.7,9.307,9.307,0,0,1,1.722-2.071,2.706,2.706,0,0,1,1.119-.627.429.429,0,0,1,.468.206.793.793,0,0,1-.04.627,2.976,2.976,0,0,1-2.762,1.635,2.492,2.492,0,0,1-2.278-2.1.928.928,0,0,1,.159-.643.429.429,0,0,1,.492-.135,2.071,2.071,0,0,1,.9.865A7.705,7.705,0,0,1,148.721,452.009Z" transform="translate(-118.946 -154.413)" fill="#263238"/>
    <path id="Path_972" data-name="Path 972" d="M196.632,440.522l-1.024,14.768s14.673,6,14.744,8.729l-28.7-.952.651-23.077Z" transform="translate(-126.347 -152.719)" fill="#ffb224"/>
    <path id="Path_973" data-name="Path 973" d="M187.877,457.33a1.182,1.182,0,0,0-.881,1.325,1.135,1.135,0,0,0,1.294.865,1.238,1.238,0,0,0,.9-1.4,1.167,1.167,0,0,0-1.436-.746" transform="translate(-127.448 -156.298)" fill="#e0e0e0"/>
    <path id="Path_974" data-name="Path 974" d="M181.65,468.485l.159-2.325,27.465,1.785s1.254.6,1.079,1.492Z" transform="translate(-126.347 -158.121)" fill="#e0e0e0"/>
    <path id="Path_975" data-name="Path 975" d="M199.146,459.076c0,.135-.714.175-1.42.6s-1.087,1.008-1.214.944.1-.857.968-1.365A1.681,1.681,0,0,1,199.146,459.076Z" transform="translate(-129.408 -156.631)" fill="#263238"/>
    <path id="Path_976" data-name="Path 976" d="M203.067,460.784c0,.135-.587.357-1.087.936s-.651,1.2-.794,1.182-.2-.794.429-1.508S203.067,460.649,203.067,460.784Z" transform="translate(-130.361 -156.998)" fill="#263238"/>
    <path id="Path_977" data-name="Path 977" d="M205.541,464.79c-.127,0-.3-.674.087-1.436s1.048-1.04,1.1-.921-.357.516-.667,1.143S205.684,464.782,205.541,464.79Z" transform="translate(-131.247 -157.346)" fill="#263238"/>
    <path id="Path_978" data-name="Path 978" d="M198.882,454.687c-.063.127-.7-.087-1.492-.056s-1.421.254-1.492.127.54-.6,1.476-.619S198.954,454.584,198.882,454.687Z" transform="translate(-129.287 -155.64)" fill="#263238"/>
    <path id="Path_979" data-name="Path 979" d="M198.725,450.438a2.611,2.611,0,0,1-1.468-.055,6.262,6.262,0,0,1-1.492-.508,6.612,6.612,0,0,1-.794-.468,1.588,1.588,0,0,1-.421-.349.6.6,0,0,1-.04-.746.794.794,0,0,1,.627-.3,2.009,2.009,0,0,1,.532.087,5.56,5.56,0,0,1,.889.341,5.007,5.007,0,0,1,1.294.913c.643.643.857,1.167.794,1.2s-.381-.4-1.04-.936a5.476,5.476,0,0,0-1.254-.794,5.2,5.2,0,0,0-.794-.278c-.3-.1-.563-.1-.643,0s-.04.071,0,.159a1.586,1.586,0,0,0,.309.262,8.5,8.5,0,0,0,.746.452,7.562,7.562,0,0,0,1.373.579A11.5,11.5,0,0,1,198.725,450.438Z" transform="translate(-128.979 -154.374)" fill="#263238"/>
    <path id="Path_980" data-name="Path 980" d="M199.522,450.143a2.381,2.381,0,0,1-.333-1.4,4.857,4.857,0,0,1,.643-2.428,1.182,1.182,0,0,1,.944-.69.674.674,0,0,1,.587.421,1.832,1.832,0,0,1,.127.532,3.023,3.023,0,0,1,0,.968,3.237,3.237,0,0,1-.659,1.46c-.587.73-1.174.881-1.19.794s.452-.325.913-1.024a3.388,3.388,0,0,0,.5-1.333,3.255,3.255,0,0,0,0-.833c-.04-.31-.143-.556-.262-.532a1,1,0,0,0-.516.46,4.554,4.554,0,0,0-.381.794,5.064,5.064,0,0,0-.325,1.428C199.466,449.6,199.6,450.127,199.522,450.143Z" transform="translate(-129.966 -153.881)" fill="#263238"/>
    <path id="Path_981" data-name="Path 981" d="M126.17,255.612l4.238,158.744,22.648-.675,5.4-163.481Z" transform="translate(-114.893 -113.539)" fill="#dfdfdf"/>
    <path id="Path_982" data-name="Path 982" d="M179.394,249.86s16.808,67.294,17.323,78.769-3.595,83.229-3.595,83.229H170.951l1.857-81.737L156,261.033l4.071-10.816Z" transform="translate(-121.052 -113.468)" fill="#dfdfdf"/>
    <path id="Path_983" data-name="Path 983" d="M167.107,260.27a.976.976,0,0,1,0,.222v.627c0,.587-.048,1.389-.087,2.42-.1,2.127-.238,5.158-.4,8.888-.389,7.531-.921,17.887-1.508,29.362S163.9,323.572,163.52,331.1c-.222,3.73-.413,6.753-.54,8.888-.071,1.024-.127,1.833-.167,2.381a5.391,5.391,0,0,1-.056.627.9.9,0,0,1,0,.214.873.873,0,0,1,0-.214v-.627c0-.587.056-1.4.1-2.42.1-2.127.238-5.158.4-8.888.389-7.531.921-17.887,1.5-29.362s1.206-21.783,1.627-29.314c.222-3.73.4-6.753.54-8.88.071-1.024.127-1.833.167-2.42a5.559,5.559,0,0,1,.056-.627A.572.572,0,0,1,167.107,260.27Z" transform="translate(-122.445 -115.617)" fill="#455a64"/>
    <path id="Path_984" data-name="Path 984" d="M158.226,140.579s8.229,40.821,8.348,52.319,4.158,33.972,4.158,33.972h-35.6l-.794-62.191L131.8,146.134l5.349-7.634Z" transform="translate(-116.056 -90.479)" fill="#f5f5f5"/>
    <path id="Path_985" data-name="Path 985" d="M165.65,142.63s8.5,2.5,10.745,5.642c1.77,2.484,4.166,49.431,4.166,49.431l3.619,41.36-3.563-.333-5.031-15.482Z" transform="translate(-123.044 -91.332)" fill="#ffb224"/>
    <path id="Path_986" data-name="Path 986" d="M179.19,149.74l24,22.021,29.528-9.57,5.888,12.4-31.512,14.284c-4.5,1.92-7.325.865-10.451-1.643L180.111,174Z" transform="translate(-125.839 -92.8)" fill="#ffb224"/>
    <path id="Path_987" data-name="Path 987" d="M239.4,170.322a.659.659,0,0,1-.27.881.643.643,0,0,1-.873-.27.635.635,0,0,1,.262-.873A.659.659,0,0,1,239.4,170.322Z" transform="translate(-138.016 -96.979)" fill="#263238"/>
    <path id="Path_988" data-name="Path 988" d="M238.826,171.3a.549.549,0,0,1-.2,0,.666.666,0,0,1-.4-.325.7.7,0,0,1-.048-.508.682.682,0,0,1,.833-.444.674.674,0,0,1,.4.325.666.666,0,0,1,.048.508.651.651,0,0,1-.325.4A.619.619,0,0,1,238.826,171.3Zm0-1.294a.666.666,0,0,0-.294.071.643.643,0,0,0-.3.373.625.625,0,0,0,.9.73.6.6,0,0,0,.3-.365.643.643,0,0,0-.048-.484.627.627,0,0,0-.555-.333Z" transform="translate(-138.012 -96.982)" fill="#263238"/>
    <path id="Path_989" data-name="Path 989" d="M242.522,169.581a.659.659,0,0,1-.27.881.643.643,0,0,1-.873-.27.635.635,0,0,1,.262-.873.643.643,0,0,1,.881.262Z" transform="translate(-138.66 -96.825)" fill="#263238"/>
    <path id="Path_990" data-name="Path 990" d="M241.945,170.56a.546.546,0,0,1-.2,0,.667.667,0,0,1-.4-.325.669.669,0,1,1,1.182-.627.667.667,0,0,1,.048.508.675.675,0,0,1-.325.4A.713.713,0,0,1,241.945,170.56Zm0-1.3a.683.683,0,0,0-.294.079.627.627,0,0,0-.254.849.6.6,0,0,0,.373.3.627.627,0,1,0,.357-1.2.674.674,0,0,0-.19-.032Z" transform="translate(-138.655 -96.828)" fill="#263238"/>
    <path id="Path_991" data-name="Path 991" d="M245.483,168.981a.643.643,0,0,1-.262.881.659.659,0,0,1-.881-.27.643.643,0,0,1,.27-.873.635.635,0,0,1,.873.262Z" transform="translate(-139.273 -96.701)" fill="#263238"/>
    <path id="Path_992" data-name="Path 992" d="M244.918,169.964a.549.549,0,0,1-.2,0,.667.667,0,0,1-.444-.794.635.635,0,0,1,.325-.389.667.667,0,0,1,.9.27h0a.675.675,0,0,1-.278.9.714.714,0,0,1-.31.008Zm0-1.294a.667.667,0,0,0-.294.071.627.627,0,0,0-.254.849.6.6,0,0,0,.365.3.643.643,0,0,0,.484-.048.627.627,0,0,0,.254-.849h0a.627.627,0,0,0-.563-.325Z" transform="translate(-139.271 -96.708)" fill="#263238"/>
    <path id="Path_993" data-name="Path 993" d="M247.01,165.993l2.285-.833,5.245,11.046-2.23.952Z" transform="translate(-139.84 -95.983)" fill="#e0e0e0"/>
    <path id="Path_994" data-name="Path 994" d="M180.149,160.71a7.145,7.145,0,0,1,.135,1.23c.087.873.206,2,.349,3.365.325,2.912.794,6.793,1.254,11.11s.865,8.261,1.04,11.11c.1,1.428.135,2.587.143,3.388a6.008,6.008,0,0,1-.04,1.238,7.285,7.285,0,0,1-.119-1.23c-.056-.794-.143-1.952-.278-3.373-.254-2.841-.675-6.769-1.159-11.11s-.9-8.253-1.135-11.11c-.119-1.428-.183-2.587-.214-3.389a6.222,6.222,0,0,1,.024-1.23Z" transform="translate(-126.028 -95.064)" fill="#263238"/>
    <path id="Path_995" data-name="Path 995" d="M185.884,167.65a46.152,46.152,0,0,1-1.508,5.92,46.544,46.544,0,0,1-1.9,5.8,45.228,45.228,0,0,1,1.5-5.92A45.228,45.228,0,0,1,185.884,167.65Z" transform="translate(-126.518 -96.497)" fill="#263238"/>
    <path id="Path_996" data-name="Path 996" d="M208.876,184.889a2.507,2.507,0,0,1-.532-1.048,7.594,7.594,0,0,1,.349-5.555,2.642,2.642,0,0,1,.659-.976,10.444,10.444,0,0,0-.476,7.579Z" transform="translate(-131.782 -98.491)" fill="#263238"/>
    <path id="Path_997" data-name="Path 997" d="M205.361,219.01l3.071.238-1.214,12.808-2.968-.333Z" transform="translate(-131.012 -107.1)" fill="#e0e0e0"/>
    <path id="Path_998" data-name="Path 998" d="M133.053,139.62l-16.562,10.562a10.745,10.745,0,0,0-3.968,12.2l12.7,39.908-4.579,36.266,36.3-1.539-.889-15.871L152.971,192.7a56.343,56.343,0,0,0-3.9-15.347Z" transform="translate(-111.96 -90.711)" fill="#ffb224"/>
    <path id="Path_999" data-name="Path 999" d="M116.442,167.219,133,201.882a10.253,10.253,0,0,0,6.888,5.555l45.963,10.888,1.174-13.379L151.946,191.78,134.3,157.911a10.078,10.078,0,0,0-14.141-3.968h0A10.07,10.07,0,0,0,116.442,167.219Z" transform="translate(-112.649 -93.368)" fill="#ffb224"/>
    <path id="Path_1000" data-name="Path 1000" d="M188.174,205.127a.621.621,0,0,1-.19-.048l-.54-.183-2.079-.746-7.7-2.833-25.942-9.7h-.071v-.079l-3.055-6.047c-2.873-5.6-5.737-10.88-8.42-15.641-1.341-2.381-2.635-4.626-3.857-6.721l-1.778-3.031c-.286-.492-.571-.96-.873-1.4a11.711,11.711,0,0,0-.936-1.254,11.03,11.03,0,0,0-4.412-3.174,9.959,9.959,0,0,0-4.071-.73,7.214,7.214,0,0,0-3.412.913.944.944,0,0,1,.19-.135,3.484,3.484,0,0,1,.611-.341,7.27,7.27,0,0,1,2.6-.6,10.079,10.079,0,0,1,4.158.667,11.284,11.284,0,0,1,4.555,3.23,11.9,11.9,0,0,1,.968,1.27c.317.452.611.921.889,1.413l1.8,3.016q1.857,3.174,3.9,6.714c2.7,4.761,5.555,10.023,8.459,15.633,1.055,2.071,2.087,4.111,3.047,6.063l-.111-.1,25.894,9.824,7.65,2.944,2.055.794.532.214Z" transform="translate(-113.793 -93.55)" fill="#263238"/>
    <path id="Path_1001" data-name="Path 1001" d="M195.511,228.931a.651.651,0,1,1-.651-.651.651.651,0,0,1,.651.651Z" transform="translate(-128.94 -109.013)" fill="#263238"/>
    <path id="Path_1002" data-name="Path 1002" d="M194.827,229.593a.667.667,0,1,1,.667-.667.667.667,0,0,1-.667.667Zm0-1.293a.627.627,0,1,0,.627.627.627.627,0,0,0-.627-.627Z" transform="translate(-128.929 -109.009)" fill="#263238"/>
    <path id="Path_1003" data-name="Path 1003" d="M198.661,229.751a.651.651,0,1,1-.651-.651A.651.651,0,0,1,198.661,229.751Z" transform="translate(-129.59 -109.183)" fill="#263238"/>
    <path id="Path_1004" data-name="Path 1004" d="M197.957,230.413a.667.667,0,1,1,.667-.667A.675.675,0,0,1,197.957,230.413Zm0-1.294a.627.627,0,1,0,.627.627.627.627,0,0,0-.627-.627Z" transform="translate(-129.575 -109.179)" fill="#263238"/>
    <ellipse id="Ellipse_38" data-name="Ellipse 38" cx="0.651" cy="0.651" rx="0.651" ry="0.651" transform="translate(70.032 120.608)" fill="#263238"/>
    <path id="Path_1005" data-name="Path 1005" d="M200.827,231.283a.667.667,0,1,1,.667-.667A.675.675,0,0,1,200.827,231.283Zm0-1.294a.627.627,0,1,0,.627.627A.627.627,0,0,0,200.827,229.99Z" transform="translate(-130.168 -109.358)" fill="#263238"/>
    <path id="Path_1006" data-name="Path 1006" d="M186.991,223.875a.691.691,0,0,1-.222,0l-.643-.143-2.476-.6-9.094-2.238c-7.674-1.881-18.252-4.547-30.012-7.269-1.468-.349-2.92-.627-4.357-1.016a9.706,9.706,0,0,1-3.928-1.96,11.514,11.514,0,0,1-2.381-3.492l-1.73-3.619-5.976-12.562-3.968-8.475c-.444-.984-.794-1.754-1.055-2.309l-.27-.611a1.128,1.128,0,0,1-.079-.206,1.913,1.913,0,0,1,.119.19c.071.127.175.349.3.587l1.135,2.285c.976,2.016,2.381,4.88,4.095,8.412s3.754,7.809,6.023,12.514c.563,1.174,1.151,2.381,1.738,3.611a11.4,11.4,0,0,0,2.325,3.365,9.253,9.253,0,0,0,3.769,1.865c1.4.381,2.873.659,4.341,1.008,11.753,2.73,22.331,5.436,29.989,7.388,3.8,1,6.888,1.8,9.062,2.381l2.452.675.635.183Z" transform="translate(-113.785 -98.919)" fill="#263238"/>
    <path id="Path_1007" data-name="Path 1007" d="M153.07,232.72a4.763,4.763,0,0,1-.548.46c-.373.278-.9.659-1.587,1.119a25.807,25.807,0,0,1-5.714,2.968,13.149,13.149,0,0,1-6.4.643,8.667,8.667,0,0,1-1.889-.548,1.9,1.9,0,0,1-.627-.341,20.7,20.7,0,0,0,2.555.6,13.879,13.879,0,0,0,6.222-.738,31.018,31.018,0,0,0,5.69-2.825A19.221,19.221,0,0,1,153.07,232.72Z" transform="translate(-116.987 -109.93)" fill="#263238"/>
    <path id="Path_1008" data-name="Path 1008" d="M155.011,238.52a1.166,1.166,0,0,1,.111.294,7.383,7.383,0,0,1,.214.889,9.983,9.983,0,0,1,0,3.373,10.387,10.387,0,0,1-2.063,4.539,10.181,10.181,0,0,1-11.205,3.174,10.316,10.316,0,0,1-4.119-2.817,9.951,9.951,0,0,1-1.778-2.865,8.364,8.364,0,0,1-.278-.873c-.048-.2-.071-.31-.056-.31a12.062,12.062,0,0,0,2.325,3.849,10.238,10.238,0,0,0,4.031,2.651,9.92,9.92,0,0,0,10.777-3.008,10.237,10.237,0,0,0,2.071-4.357A12.078,12.078,0,0,0,155.011,238.52Z" transform="translate(-116.888 -111.127)" fill="#263238"/>
    <path id="Path_1009" data-name="Path 1009" d="M140.788,96.071l.1,29.568a8.793,8.793,0,0,0,9.261,8.729h0a8.809,8.809,0,0,0,8.332-8.785v-4.317s7.523-.73,8.039-8.182c.254-3.6.159-11.062,0-17.815A13.9,13.9,0,0,0,153.405,81.7h-.722C144.922,81.668,140.558,88.287,140.788,96.071Z" transform="translate(-117.909 -78.754)" fill="#b78876"/>
    <path id="Path_1010" data-name="Path 1010" d="M160.622,130.547a17.387,17.387,0,0,1-9.562-3.317s1.992,5.5,9.467,5.245Z" transform="translate(-120.032 -88.153)" fill="#aa6550"/>
    <path id="Path_1011" data-name="Path 1011" d="M170.345,104.044a1.071,1.071,0,0,1-1.1,1.016,1.016,1.016,0,0,1-1.04-1.024,1.071,1.071,0,0,1,1.087-1.016,1.024,1.024,0,0,1,1.048,1.024Z" transform="translate(-123.572 -83.155)" fill="#263238"/>
    <path id="Path_1012" data-name="Path 1012" d="M170.062,102.4c-.135.135-.913-.508-2.055-.571s-2.024.46-2.135.317.087-.309.468-.555a2.968,2.968,0,0,1,1.722-.429,2.777,2.777,0,0,1,1.627.635C170.03,102.079,170.133,102.341,170.062,102.4Z" transform="translate(-123.083 -82.769)" fill="#263238"/>
    <path id="Path_1013" data-name="Path 1013" d="M156.307,103.934a1.063,1.063,0,0,1-1.087,1.016,1.016,1.016,0,0,1-1.04-1.024,1.063,1.063,0,0,1,1.087-1.016,1.016,1.016,0,0,1,1.04,1.024Z" transform="translate(-120.676 -83.132)" fill="#263238"/>
    <path id="Path_1014" data-name="Path 1014" d="M155.689,102.076c-.143.127-.913-.516-2.063-.579s-2.016.468-2.135.317.1-.309.476-.555a2.873,2.873,0,0,1,1.714-.421,2.825,2.825,0,0,1,1.635.627C155.65,101.759,155.753,102.013,155.689,102.076Z" transform="translate(-120.114 -82.703)" fill="#263238"/>
    <path id="Path_1015" data-name="Path 1015" d="M161.36,111.258a7.618,7.618,0,0,1,1.881-.23c.294,0,.579-.056.635-.254a1.5,1.5,0,0,0-.143-.873c-.238-.73-.484-1.484-.738-2.285a33.047,33.047,0,0,1-1.587-5.936,35.421,35.421,0,0,1,2.087,5.793c.238.794.476,1.587.7,2.293a1.674,1.674,0,0,1,.087,1.159.738.738,0,0,1-.508.4,1.912,1.912,0,0,1-.5,0,7.435,7.435,0,0,1-1.913-.064Z" transform="translate(-122.158 -82.878)" fill="#263238"/>
    <path id="Path_1016" data-name="Path 1016" d="M156,99.142c-.135.31-1.27.1-2.619.183s-2.468.389-2.627.1c-.071-.135.135-.421.587-.7a4.325,4.325,0,0,1,1.976-.563,4.388,4.388,0,0,1,2.024.357C155.827,98.737,156.057,99,156,99.142Z" transform="translate(-119.966 -82.149)" fill="#263238"/>
    <path id="Path_1017" data-name="Path 1017" d="M169.988,98.941c-.214.246-.992-.071-1.936-.135s-1.762.071-1.936-.206c-.071-.135.071-.389.436-.619a2.825,2.825,0,0,1,3.119.278C169.988,98.544,170.115,98.814,169.988,98.941Z" transform="translate(-123.136 -82.044)" fill="#263238"/>
    <path id="Path_1018" data-name="Path 1018" d="M139.815,106.722c-.127-.063-5.039-1.809-5.166,3.3s5.023,4.182,5.039,4.039S139.815,106.722,139.815,106.722Z" transform="translate(-116.643 -83.849)" fill="#b78876"/>
    <path id="Path_1019" data-name="Path 1019" d="M138.508,112.514a2.4,2.4,0,0,1-.238.127.873.873,0,0,1-.667,0,2.2,2.2,0,0,1-.968-2,2.952,2.952,0,0,1,.278-1.27,1.048,1.048,0,0,1,.69-.667.444.444,0,0,1,.516.262c.063.143,0,.246.056.254s.111-.087.079-.294a.6.6,0,0,0-.2-.325.659.659,0,0,0-.484-.143,1.254,1.254,0,0,0-.952.794,3,3,0,0,0-.341,1.413,2.3,2.3,0,0,0,1.246,2.238.976.976,0,0,0,.794-.111C138.5,112.633,138.532,112.522,138.508,112.514Z" transform="translate(-116.979 -84.277)" fill="#aa6550"/>
    <path id="Path_1020" data-name="Path 1020" d="M137.476,101.011a2.69,2.69,0,0,1,2.381,1.4c.286.746.317,1.587.6,2.325a1.809,1.809,0,0,0,1.786,1.309,1.587,1.587,0,0,0,1.135-1.1,4.4,4.4,0,0,0,.1-1.643c-.159-2.381-.532-4.761-.484-7.2a12.269,12.269,0,0,1,1.936-6.84,6.714,6.714,0,0,1,6.158-3.016c1.587.222,2.984,1.127,4.539,1.436a6.253,6.253,0,0,0,5.277-1.428,1.8,1.8,0,0,1,.254-.183,1.373,1.373,0,0,0,.579-1.587,1.349,1.349,0,0,0-.27-.508c-2.96-3.063-8.547-4.19-12.7-3.389a14.927,14.927,0,0,0-10.213,7.261c-1.992,3.769-1.778,9.174-1.016,13.141" transform="translate(-117.129 -78.472)" fill="#263238"/>
    <path id="Path_1021" data-name="Path 1021" d="M157.945,114.88c.19,0,.19,1.23,1.254,2.111s2.381.746,2.381.921-.294.246-.857.254a3.055,3.055,0,0,1-2-.69,2.7,2.7,0,0,1-.968-1.77C157.684,115.182,157.826,114.872,157.945,114.88Z" transform="translate(-121.41 -85.603)" fill="#263238"/>
    <path id="Path_1022" data-name="Path 1022" d="M247.81,166.336s5.595-4.912,6.65-5.277,9.483-.516,10.046-.1,9.094,5.095,7.682,5.817-7.325-2.666-7.325-2.666l-.992.135s5.158,2.754,6.071,3.809.04,2.151-.921,1.7-5.388-3-5.737-2.9,4.714,3.055,5.182,3.611c.627.73.222,2.158-.754,1.746-.571-.238-5.238-3.333-5.238-3.333a46.689,46.689,0,0,1,3.777,3.452c.413.794-.381,1.516-1.2,1.016-.556-.341-2.96-2.706-3.706-3.174,0,0-.794-.064-2.039,1.238s-6.015,3.071-6.015,3.071Z" transform="translate(-140.005 -95.064)" fill="#b78876"/>
    <path id="Path_1023" data-name="Path 1023" d="M275.467,167.605a4.491,4.491,0,0,1-1.809-.111,10.539,10.539,0,0,1-1.9-.571c-.659-.317-1.381-.682-2.143-1.071l-1.587-.794h.111a27.2,27.2,0,0,1-4.333-.119,25.084,25.084,0,0,1,4.325-.31h.1l1.587.794,2.071,1.087a12.453,12.453,0,0,0,1.8.635C274.785,167.462,275.475,167.534,275.467,167.605Z" transform="translate(-143.308 -95.873)" fill="#aa6550"/>
    <path id="Path_1024" data-name="Path 1024" d="M250.43,168.581a1.9,1.9,0,0,0,2.1.722c.794-.167,1.484-.587,2.246-.794,2.293-.659,4.841.563,7.094-.206.317-.111.667-.341.635-.667s-.381-.46-.674-.555L254.31,164.7" transform="translate(-140.546 -95.888)" fill="#b78876"/>
    <path id="Path_1025" data-name="Path 1025" d="M254.3,164.66a2.96,2.96,0,0,1,.841.175c.532.143,1.294.365,2.238.643l3.3,1,.952.294c.3.119.738.143,1.024.611a.659.659,0,0,1-.119.73,1.365,1.365,0,0,1-.54.357,5.07,5.07,0,0,1-1.143.254,30.513,30.513,0,0,1-4.246-.23,6.046,6.046,0,0,0-1.77.167c-.532.143-1.024.381-1.492.548a2.777,2.777,0,0,1-2.381,0c-.508-.294-.587-.659-.571-.651a2.381,2.381,0,0,0,.651.5,2.706,2.706,0,0,0,2.206-.159,15.992,15.992,0,0,1,1.508-.611,6.079,6.079,0,0,1,1.889-.222,35.529,35.529,0,0,0,4.182.2,5.207,5.207,0,0,0,1.024-.23c.31-.111.524-.333.429-.476a1.588,1.588,0,0,0-.794-.389l-.952-.309-3.269-1.1c-.928-.317-1.682-.579-2.2-.794A3.016,3.016,0,0,1,254.3,164.66Z" transform="translate(-140.539 -95.88)" fill="#aa6550"/>
    <path id="Path_1026" data-name="Path 1026" d="M206.965,219.161l9.277-.921s12.268,8.4,11.11,10.253-3.174,0-3.174,0,2.182,2.69-1.349,3.531c0,0-.841,1.849-2.182,1.682H219.8s-.794,2.341-1.9,1.833a39.558,39.558,0,0,1-4.555-3.523l-9.523-.841Z" transform="translate(-130.926 -106.941)" fill="#b78876"/>
    <path id="Path_1027" data-name="Path 1027" d="M214.2,231.413s-2.381.913-2.865,1.873-.794,3.174.746,3.611a14.06,14.06,0,0,0,2.706-.087l-.587-2.5a17.69,17.69,0,0,1,1.413-1.46C216.122,232.429,215.567,230.786,214.2,231.413Z" transform="translate(-132.394 -109.631)" fill="#ffbe9d"/>
    <path id="Path_1028" data-name="Path 1028" d="M217.617,233.013s-2.381.913-2.865,1.865a2.1,2.1,0,0,0,1.365,2.968,11,11,0,0,0,2.452-.079l-.254-.484c-.476-.936-.682-1.7.159-2.325a5.533,5.533,0,0,0,.555-.508,1.04,1.04,0,0,0-1.413-1.436Z" transform="translate(-133.135 -109.961)" fill="#ffbe9d"/>
    <path id="Path_1029" data-name="Path 1029" d="M219.043,238.219a1.4,1.4,0,0,1-.19-1.635,2.262,2.262,0,0,1,1.4-1.016,1.04,1.04,0,0,1,1.087.175.936.936,0,0,1,.151.714,3.77,3.77,0,0,1-.968,1.738c-.222.278-.492.579-.849.571s-.619-.341-.794-.643" transform="translate(-133.99 -110.501)" fill="#ffbe9d"/>
    <path id="Path_1030" data-name="Path 1030" d="M155.6,144.466l2.087-.786,1.8,3.23-1.008,3.452-2.127.524-2.119-2.674Z" transform="translate(-120.688 -91.549)" fill="#076f82"/>
    <path id="Path_1031" data-name="Path 1031" d="M156.91,152.624s2.706,14.848,4.952,25.291c0,0,1.849,8.729,2.595,10.7a28.42,28.42,0,0,0,3.4,5.555l2.611,1.016-1.587-14.673-9.84-28.409Z" transform="translate(-121.239 -93.287)" fill="#076f82"/>
    <g id="Group_37841" data-name="Group 37841" transform="translate(33.552 52.131)" opacity="0.4">
      <path id="Path_1032" data-name="Path 1032" d="M155.6,144.466l2.087-.786,1.8,3.23-1.008,3.452-2.127.524-2.119-2.674Z" transform="translate(-154.24 -143.68)"/>
    </g>
    <g id="Group_37842" data-name="Group 37842" transform="translate(35.671 58.813)" opacity="0.4">
      <path id="Path_1033" data-name="Path 1033" d="M156.91,152.624s2.706,14.848,4.952,25.291c0,0,2.119,8.618,2.595,10.7.278,1.23,3.4,5.555,3.4,5.555l2.611,1.016-1.587-14.673-9.84-28.409Z" transform="translate(-156.91 -152.1)"/>
    </g>
    <path id="Path_1034" data-name="Path 1034" d="M139.769,133.3l12.522,9.023-2.706,7.444-11.4-11.729Z" transform="translate(-117.375 -89.406)" fill="#f5f5f5"/>
    <path id="Path_1035" data-name="Path 1035" d="M158.59,141.649l3.492-7.809,1.984,6.444-2.754,6.761Z" transform="translate(-121.586 -89.517)" fill="#f5f5f5"/>
    <path id="Path_1036" data-name="Path 1036" d="M152.4,143.4a2.38,2.38,0,0,1-.143.571l-.508,1.587c-.444,1.325-1.1,3.174-1.881,5.38l-.1.3-.222-.238-2.912-3.222c-2.27-2.516-4.309-4.809-5.761-6.483l-1.714-2a4.529,4.529,0,0,1-.587-.794,4.765,4.765,0,0,1,.706.667l1.809,1.9c1.516,1.587,3.587,3.888,5.849,6.4,1.024,1.143,2,2.238,2.9,3.238l-.325.064c.794-2.174,1.508-4.023,2.016-5.333l.611-1.516a2.079,2.079,0,0,1,.262-.532Z" transform="translate(-117.453 -90.479)" fill="#263238"/>
    <path id="Path_1037" data-name="Path 1037" d="M164.074,142a9.4,9.4,0,0,1-.587,1.825c-.4,1.1-1,2.627-1.682,4.293l-.294.722-.206.5-.175-.508a34.521,34.521,0,0,0-2.5-5.126,5.174,5.174,0,0,1,1.048,1.3,17.244,17.244,0,0,1,1.841,3.69h-.389c.1-.238.2-.476.294-.722.682-1.674,1.317-3.174,1.793-4.253A8.277,8.277,0,0,1,164.074,142Z" transform="translate(-121.594 -91.202)" fill="#263238"/>
    <path id="Path_1038" data-name="Path 1038" d="M362.468,438.07l4.825,19.156,8.19,14.054a2.024,2.024,0,0,1-.849,2.833h0a2,2,0,0,1-1.849,0c-3.682-1.984-17.173-9.356-17.458-10.777-.317-1.643-6.436-19.839-6.436-19.839Z" transform="translate(-160.872 -152.322)" fill="#ffb224"/>
    <g id="Group_37843" data-name="Group 37843" transform="translate(194.145 309.705)" opacity="0.6">
      <path id="Path_1039" data-name="Path 1039" d="M376.259,480.346,356.61,468.26l.222.794a3.047,3.047,0,0,0,1.222,1.714c1.587,1.087,6.095,3.968,16.292,9.523a2.039,2.039,0,0,0,1.912,0Z" transform="translate(-356.61 -468.26)" fill="#fff"/>
    </g>
    <g id="Group_37844" data-name="Group 37844" transform="translate(194.83 302.433)" opacity="0.6">
      <path id="Path_1040" data-name="Path 1040" d="M358.995,459.147a1.222,1.222,0,0,1,.754,1.452,1.174,1.174,0,0,1-1.436.754,1.286,1.286,0,0,1-.794-1.54,1.214,1.214,0,0,1,1.587-.619" transform="translate(-357.474 -459.095)" fill="#fff"/>
    </g>
    <path id="Path_1041" data-name="Path 1041" d="M372.983,473.724a6.118,6.118,0,0,1,1.254-1.944,6.348,6.348,0,0,1,2.079-1.024c0-.048-.278-.127-.738-.071a3.254,3.254,0,0,0-2.587,2.293C372.872,473.439,372.92,473.724,372.983,473.724Z" transform="translate(-165.832 -159.051)" fill="#263238"/>
    <path id="Path_1042" data-name="Path 1042" d="M375.575,476.706c.119.063.555-.73,1.46-1.286a18.141,18.141,0,0,1,1.793-.754,2.246,2.246,0,0,0-2.024.389C375.781,475.706,375.464,476.682,375.575,476.706Z" transform="translate(-166.376 -159.858)" fill="#263238"/>
    <path id="Path_1043" data-name="Path 1043" d="M368.67,470.351a10.364,10.364,0,0,1,4.761-3.571A5.555,5.555,0,0,0,368.67,470.351Z" transform="translate(-164.955 -158.249)" fill="#263238"/>
    <path id="Path_1044" data-name="Path 1044" d="M366.2,463.639c.087.1,1.016-.635,2.381-1.055s2.531-.4,2.539-.532a3.88,3.88,0,0,0-2.674.111A3.968,3.968,0,0,0,366.2,463.639Z" transform="translate(-164.445 -157.235)" fill="#263238"/>
    <path id="Path_1045" data-name="Path 1045" d="M364.238,456.614a9.525,9.525,0,0,1,2.436-1.167,9.888,9.888,0,0,1,2.7-.071c0-.048-.254-.222-.794-.357a4.38,4.38,0,0,0-2.039,0,4.324,4.324,0,0,0-1.817.921C364.357,456.288,364.2,456.566,364.238,456.614Z" transform="translate(-164.039 -155.796)" fill="#263238"/>
    <path id="Path_1046" data-name="Path 1046" d="M365.989,453.286a1.69,1.69,0,0,0-.167-.73,5.23,5.23,0,0,0-1.1-1.73,2.333,2.333,0,0,0-1.246-.794.793.793,0,0,0-.833.421,1.277,1.277,0,0,0-.063.936,2.857,2.857,0,0,0,3.119,1.889,3.333,3.333,0,0,0,2.682-2.547,1.166,1.166,0,0,0-.206-.936.793.793,0,0,0-.913-.183,2.825,2.825,0,0,0-1.079,1,5.754,5.754,0,0,0-.889,1.841,1.786,1.786,0,0,0-.111.738,9.161,9.161,0,0,1,1.246-2.381,2.667,2.667,0,0,1,.96-.849.429.429,0,0,1,.5.1.794.794,0,0,1,.1.619,2.968,2.968,0,0,1-2.381,2.182,2.484,2.484,0,0,1-2.674-1.587.975.975,0,0,1,0-.659.436.436,0,0,1,.46-.238,2.1,2.1,0,0,1,1.063.651,7.641,7.641,0,0,1,1.532,2.254Z" transform="translate(-163.686 -154.69)" fill="#263238"/>
    <path id="Path_1047" data-name="Path 1047" d="M287.061,442.436l1.024,14.768s-14.665,6-14.744,8.729l28.7-.936L301.4,441.92Z" transform="translate(-145.275 -153.117)" fill="#ffb224"/>
    <path id="Path_1048" data-name="Path 1048" d="M302.7,459.24a1.174,1.174,0,0,1,.857,1.317,1.135,1.135,0,0,1-1.294.873,1.238,1.238,0,0,1-.9-1.4,1.174,1.174,0,0,1,1.444-.746" transform="translate(-151.057 -156.692)" fill="#e0e0e0"/>
    <path id="Path_1049" data-name="Path 1049" d="M302.039,470.4l-.151-2.325-27.465,1.785s-1.262.6-1.087,1.5Z" transform="translate(-145.271 -158.516)" fill="#e0e0e0"/>
    <path id="Path_1050" data-name="Path 1050" d="M291.33,460.963c0,.135.714.183,1.413.6s1.1,1.008,1.222.952-.111-.865-.968-1.373S291.3,460.852,291.33,460.963Z" transform="translate(-148.989 -157.019)" fill="#263238"/>
    <path id="Path_1051" data-name="Path 1051" d="M287.59,462.694c0,.143.587.357,1.079.936s.659,1.2.794,1.19.206-.794-.429-1.516S287.59,462.567,287.59,462.694Z" transform="translate(-148.217 -157.393)" fill="#263238"/>
    <path id="Path_1052" data-name="Path 1052" d="M285.269,466.71c.135,0,.3-.682-.079-1.436s-1.055-1.04-1.111-.921.365.516.675,1.135S285.134,466.694,285.269,466.71Z" transform="translate(-147.491 -157.743)" fill="#263238"/>
    <path id="Path_1053" data-name="Path 1053" d="M291.508,456.605c.063.119.7-.1,1.492-.063s1.421.254,1.484.135-.54-.6-1.476-.627S291.429,456.494,291.508,456.605Z" transform="translate(-149.024 -156.034)" fill="#263238"/>
    <path id="Path_1054" data-name="Path 1054" d="M291.32,452.366a2.817,2.817,0,0,0,1.436-.056,6.516,6.516,0,0,0,1.484-.516,6.066,6.066,0,0,0,.794-.468,1.585,1.585,0,0,0,.428-.349.611.611,0,0,0,.04-.746.794.794,0,0,0-.627-.3,1.78,1.78,0,0,0-.54.1,4.821,4.821,0,0,0-.881.333,5.009,5.009,0,0,0-1.294.913c-.651.643-.857,1.175-.794,1.2s.373-.4,1.032-.936a5.834,5.834,0,0,1,1.262-.794,4.943,4.943,0,0,1,.794-.278c.3-.087.556-.1.643,0s0,.071,0,.159a1.4,1.4,0,0,1-.317.262,7.608,7.608,0,0,1-.746.46,8.836,8.836,0,0,1-1.365.579A8.633,8.633,0,0,0,291.32,452.366Z" transform="translate(-148.987 -154.771)" fill="#263238"/>
    <path id="Path_1055" data-name="Path 1055" d="M291.029,452.049a2.263,2.263,0,0,0,.333-1.4,4.761,4.761,0,0,0-.246-1.587,4.374,4.374,0,0,0-.4-.857,1.2,1.2,0,0,0-.936-.7.674.674,0,0,0-.587.421,1.873,1.873,0,0,0-.135.532,3.254,3.254,0,0,0,0,.968,3.317,3.317,0,0,0,.667,1.468c.587.722,1.174.873,1.182.793a7.678,7.678,0,0,1-.9-1.032,3.27,3.27,0,0,1-.5-1.333,2.931,2.931,0,0,1,0-.833c0-.3.143-.555.254-.524a1.1,1.1,0,0,1,.524.452,5.678,5.678,0,0,1,.381.794,5.059,5.059,0,0,1,.325,1.428C291.084,451.5,290.957,452.033,291.029,452.049Z" transform="translate(-148.513 -154.271)" fill="#263238"/>
    <path id="Path_1056" data-name="Path 1056" d="M280.76,240.14l4.618,171.854,22.648-.682L306.281,263.82l28.854,151.594,20.45-5.341-26.4-169.6Z" transform="translate(-146.807 -111.462)" fill="#dfdfdf"/>
    <path id="Path_1057" data-name="Path 1057" d="M296.346,415.6c-.119,0-.206-35.623-.206-79.562s.087-79.562.206-79.562.206,35.615.206,79.562S296.457,415.6,296.346,415.6Z" transform="translate(-149.982 -114.835)" fill="#455a64"/>
    <path id="Path_1058" data-name="Path 1058" d="M351.381,421.238c-.111,0-5.4-34.123-11.808-76.269s-11.538-76.333-11.4-76.349,5.4,34.123,11.808,76.285S351.5,421.222,351.381,421.238Z" transform="translate(-156.593 -117.341)" fill="#455a64"/>
    <path id="Path_1059" data-name="Path 1059" d="M313.531,99.2a34.62,34.62,0,0,0,1.913-5.468c.27-1.428.7-3.563.127-4.9a3.428,3.428,0,0,0-3.706-2.254,8.309,8.309,0,0,0-4.8-6.5,21.029,21.029,0,0,0-7.936-2.063,6.705,6.705,0,0,0-2.976.373,3.817,3.817,0,0,0-1.793,1.928,6.579,6.579,0,0,0-5.833-.928c-2.19.587-4.682,1.77-5.642,3.817a6.42,6.42,0,0,0-.167,4.849c.421,1.333,1.833,3.428,3.174,2.936" transform="translate(-147.129 -77.987)" fill="#263238"/>
    <path id="Path_1060" data-name="Path 1060" d="M303.283,138.272h0a9.8,9.8,0,0,1-9.586-10.316c.135-2.738.262-4.952.262-4.952s-7.475-.968-7.753-8.412.587-24.553.587-24.553h0A25.87,25.87,0,0,1,312.861,92.7l1.119.794-.69,35.163a9.808,9.808,0,0,1-10.007,9.618Z" transform="translate(-147.92 -79.99)" fill="#ffbe9d"/>
    <path id="Path_1061" data-name="Path 1061" d="M295.973,131.31a17.348,17.348,0,0,0,9.634-3s-2.293,5.769-9.737,5.285Z" transform="translate(-149.926 -88.376)" fill="#eb996e"/>
    <path id="Path_1062" data-name="Path 1062" d="M320.283,104.678c.127-.056,5.079-1.643,5.039,3.452s-5.134,4.007-5.142,3.857S320.283,104.678,320.283,104.678Z" transform="translate(-154.945 -83.44)" fill="#ffbe9d"/>
    <path id="Path_1063" data-name="Path 1063" d="M322.149,110.49a2.44,2.44,0,0,0,.238.135.857.857,0,0,0,.667,0,2.182,2.182,0,0,0,1.032-1.96,2.856,2.856,0,0,0-.246-1.27,1.008,1.008,0,0,0-.659-.682.444.444,0,0,0-.524.238c-.071.143-.04.238-.064.246s-.111-.079-.071-.294a.579.579,0,0,1,.206-.317.706.706,0,0,1,.492-.127,1.27,1.27,0,0,1,.921.794,2.92,2.92,0,0,1,.294,1.42,2.309,2.309,0,0,1-1.309,2.19.976.976,0,0,1-.794-.143C322.157,110.617,322.133,110.506,322.149,110.49Z" transform="translate(-155.35 -83.864)" fill="#eb996e"/>
    <path id="Path_1064" data-name="Path 1064" d="M289.39,105.064a1.071,1.071,0,0,0,1.055,1.048,1.016,1.016,0,0,0,1.071-.984,1.063,1.063,0,0,0-1.055-1.048,1.024,1.024,0,0,0-1.071.984Z" transform="translate(-148.588 -83.373)" fill="#263238"/>
    <path id="Path_1065" data-name="Path 1065" d="M289.057,103.516c.135.135.928-.476,2.071-.5s2,.524,2.119.381-.079-.309-.452-.571a2.936,2.936,0,0,0-1.7-.476,2.793,2.793,0,0,0-1.643.579C289.1,103.207,289.009,103.461,289.057,103.516Z" transform="translate(-148.517 -83.016)" fill="#263238"/>
    <path id="Path_1066" data-name="Path 1066" d="M303.51,105.052a1.071,1.071,0,0,0,1.055,1.04,1.008,1.008,0,0,0,1.071-.984,1.063,1.063,0,0,0-1.048-1.047,1.032,1.032,0,0,0-1.079.992Z" transform="translate(-151.503 -83.369)" fill="#263238"/>
    <path id="Path_1067" data-name="Path 1067" d="M303.226,103.434c.143.135.928-.484,2.071-.508s2,.524,2.119.381-.079-.309-.452-.563a2.9,2.9,0,0,0-1.7-.484,2.793,2.793,0,0,0-1.643.579C303.273,103.117,303.162,103.371,303.226,103.434Z" transform="translate(-151.441 -82.998)" fill="#263238"/>
    <path id="Path_1068" data-name="Path 1068" d="M297.5,112.068a7.705,7.705,0,0,0-1.865-.286c-.294,0-.571-.071-.627-.27a1.587,1.587,0,0,1,.175-.873c.262-.714.532-1.46.794-2.246a37.7,37.7,0,0,0,1.793-5.864,38.552,38.552,0,0,0-2.262,5.706l-.794,2.262a1.69,1.69,0,0,0-.127,1.151.794.794,0,0,0,.492.413,2,2,0,0,0,.5.056A7.055,7.055,0,0,0,297.5,112.068Z" transform="translate(-149.651 -83.054)" fill="#263238"/>
    <path id="Path_1069" data-name="Path 1069" d="M301.609,115.45c-.19,0-.159,1.23-1.2,2.143s-2.381.794-2.381.976.3.23.865.23a3.063,3.063,0,0,0,1.976-.746,2.69,2.69,0,0,0,.928-1.793C301.839,115.743,301.7,115.434,301.609,115.45Z" transform="translate(-150.372 -85.721)" fill="#263238"/>
    <path id="Path_1070" data-name="Path 1070" d="M302.719,97.861c.119.309,1.262.135,2.6.262s2.444.46,2.611.183c.079-.135-.119-.429-.563-.714a4.317,4.317,0,0,0-1.944-.627,4.4,4.4,0,0,0-2.031.286C302.941,97.465,302.671,97.711,302.719,97.861Z" transform="translate(-151.339 -81.901)" fill="#263238"/>
    <path id="Path_1071" data-name="Path 1071" d="M289.481,99.319c.206.254.984,0,1.936-.071s1.754.127,1.928-.143c.079-.135-.056-.4-.413-.635a2.8,2.8,0,0,0-3.111.183C289.489,98.922,289.386,99.192,289.481,99.319Z" transform="translate(-148.6 -82.136)" fill="#263238"/>
    <path id="Path_1072" data-name="Path 1072" d="M313.9,93.6c-.048,2.174.5,4.579.167,6.714-.048.325-.857,1.206-.928,1.524-.389,1.9-1.151,2.722-2.317.794a16.171,16.171,0,0,1-.968-3.65l-1.524-6.833a11.959,11.959,0,0,1-5.626,1.484,5.785,5.785,0,0,1-4.9-2.738,6.007,6.007,0,0,1-9.285,1.46,2.5,2.5,0,0,1-3.293.794,2.976,2.976,0,0,1-1.293-3.254c.468-1.825,2.381-2.857,4.182-3.436,7.023-2.262,14.9-.794,21.347,2.746a10.794,10.794,0,0,1,2.619,1.873c.746.794,1.778,1.682,1.833,2.762" transform="translate(-147.441 -79.513)" fill="#263238"/>
    <path id="Path_1073" data-name="Path 1073" d="M315,94.948a3.634,3.634,0,0,1,1.151.183,3.9,3.9,0,0,1,1.063.682c.365.317.722.73,1.159,1.135a3.809,3.809,0,0,0,1.444.913,2.588,2.588,0,0,0,1.413,0c.794-.222,1.1-.651,1.063-.682a7.983,7.983,0,0,1-1.127.381,2.452,2.452,0,0,1-1.222-.1,3.6,3.6,0,0,1-1.278-.841c-.413-.389-.794-.794-1.19-1.127a3.675,3.675,0,0,0-1.222-.667A1.374,1.374,0,0,0,315,94.948Z" transform="translate(-153.874 -81.447)" fill="#455a64"/>
    <path id="Path_1074" data-name="Path 1074" d="M316.069,97.775c0,.063.381,0,.794.357a4.535,4.535,0,0,1,.651.738,3.318,3.318,0,0,0,.968.9,3.484,3.484,0,0,0,2.317.492c.611-.1.928-.317.9-.365s-.373.048-.936.056a3.722,3.722,0,0,1-2.055-.555c-.73-.4-1.1-1.182-1.674-1.516S316.013,97.72,316.069,97.775Z" transform="translate(-154.095 -82.052)" fill="#455a64"/>
    <path id="Path_1075" data-name="Path 1075" d="M290.578,79.556a1.321,1.321,0,0,0-.659.063,2.809,2.809,0,0,0-1.428,1.079,6.81,6.81,0,0,0-.421,5.737,8.1,8.1,0,0,0,3.65,4.484,7.07,7.07,0,0,0,1.627.69,1.7,1.7,0,0,0,.643.111,22.523,22.523,0,0,1-2.1-1.071,8.221,8.221,0,0,1-3.388-4.357,6.834,6.834,0,0,1,.254-5.428A2.9,2.9,0,0,1,290,79.778C290.348,79.611,290.578,79.6,290.578,79.556Z" transform="translate(-148.229 -78.308)" fill="#455a64"/>
    <path id="Path_1076" data-name="Path 1076" d="M283.557,83.45a3.294,3.294,0,0,0,.064,1.436,8.9,8.9,0,0,0,3.769,5.666,3.317,3.317,0,0,0,1.3.619,14.627,14.627,0,0,1-3.389-3.317A14.643,14.643,0,0,1,283.557,83.45Z" transform="translate(-147.374 -79.115)" fill="#455a64"/>
    <path id="Path_1077" data-name="Path 1077" d="M228.39,214.14l-10.888.548a2.587,2.587,0,0,0-2.452,2.619c.056,2.492.476,5.9,2.381,5.555l1.238-5.42,9.039,7.936a6.563,6.563,0,0,0,3.254,1.587l2.127-.222Z" transform="translate(-133.242 -106.094)" fill="#ffbe9d"/>
    <path id="Path_1078" data-name="Path 1078" d="M295.255,140.132l-5.69,1.881-2.825,47.257v41.924l34.94,3.865.4-60.453-2.254-30.084-5.341-6.38Z" transform="translate(-148.041 -90.405)" fill="#e0e0e0"/>
    <path id="Path_1079" data-name="Path 1079" d="M295.26,141.557v-4.579l20.767-2.889-.833,10.546-4.769,8.269-7.8.436-5.634-3.476Z" transform="translate(-149.8 -89.569)" fill="#e0e0e0"/>
    <path id="Path_1080" data-name="Path 1080" d="M297.565,141.744a5.372,5.372,0,0,1-.119-2.1,5.554,5.554,0,0,1,.294-2.079,5.372,5.372,0,0,1,.119,2.1A5.556,5.556,0,0,1,297.565,141.744Z" transform="translate(-150.241 -90.287)" fill="#263238"/>
    <path id="Path_1081" data-name="Path 1081" d="M304.114,141.138a6.942,6.942,0,0,1-.071-2.341,6.69,6.69,0,0,1,.349-2.317,6.834,6.834,0,0,1,.063,2.381A6.54,6.54,0,0,1,304.114,141.138Z" transform="translate(-151.599 -90.062)" fill="#263238"/>
    <path id="Path_1082" data-name="Path 1082" d="M310.453,140.41a7.554,7.554,0,0,1,0-2.476,7.459,7.459,0,0,1,.389-2.444,7.824,7.824,0,0,1,0,2.476A7.714,7.714,0,0,1,310.453,140.41Z" transform="translate(-152.916 -89.858)" fill="#263238"/>
    <path id="Path_1083" data-name="Path 1083" d="M316.51,139.478a9.523,9.523,0,0,1,.214-4.658,8.675,8.675,0,0,1,0,2.333A8.871,8.871,0,0,1,316.51,139.478Z" transform="translate(-154.147 -89.72)" fill="#263238"/>
    <path id="Path_1084" data-name="Path 1084" d="M310.882,165.86a3,3,0,0,1-.278.794c-.2.492-.508,1.19-.913,2.047-.794,1.706-2.008,4.031-3.484,6.507s-2.944,4.65-4.063,6.174c-.555.794-1.016,1.373-1.349,1.786a3.292,3.292,0,0,1-.556.611,28.066,28.066,0,0,1,1.667-2.563c1.055-1.587,2.476-3.746,3.968-6.214s2.706-4.761,3.579-6.436a29.363,29.363,0,0,1,1.428-2.706Z" transform="translate(-150.828 -96.128)" fill="#263238"/>
    <path id="Path_1085" data-name="Path 1085" d="M320.67,137.21l5.634,2.714,10.888,2.674a9.07,9.07,0,0,1,7.444,10.086l-5.706,44.439,6.809,43.09-26.981-.794-1.587-16.03V178.951Z" transform="translate(-154.323 -90.213)" fill="#ffb224"/>
    <path id="Path_1086" data-name="Path 1086" d="M317.17,189.366a3.826,3.826,0,0,1,.079-.555c.079-.4.183-.913.31-1.587l1.2-5.73,4.119-18.863c.452-2.024.889-3.968,1.309-5.888l.056.19-1.873-1.96-.1-.111.079-.127,3.135-5.214v.151l-3.46-8.38c-.389-.976-.706-1.762-.936-2.381a5.49,5.49,0,0,1-.3-.841,4.316,4.316,0,0,1,.4.794l1.032,2.309,3.555,8.388.04.079-.048.079c-.96,1.587-2,3.373-3.1,5.245v-.238l1.873,1.944.079.079v.1c-.421,1.9-.857,3.865-1.3,5.888-1.651,7.34-3.174,13.983-4.238,18.839-.548,2.381-1,4.309-1.325,5.706l-.381,1.54a2.76,2.76,0,0,1-.19.54Z" transform="translate(-154.323 -90.391)" fill="#263238"/>
    <path id="Path_1087" data-name="Path 1087" d="M232.44,197.464l23.87-13.308,11.562-31.195a16.768,16.768,0,0,1,9.261-9.634l3.071-1.278v82.126l.611,19.458-12.935-3.873,6.6-39.107L272.2,181.411l-2.262,9.308a12.618,12.618,0,0,1-5.9,7.936l-24.807,12.887Z" transform="translate(-136.832 -91.212)" fill="#ffb224"/>
    <path id="Path_1088" data-name="Path 1088" d="M232.278,212.64l-2.008.6,5.65,13.475,2.635-1.024Z" transform="translate(-136.384 -105.785)" fill="#e0e0e0"/>
    <path id="Path_1089" data-name="Path 1089" d="M266.848,200.7a17.38,17.38,0,0,0-1.785-3.023,17.724,17.724,0,0,0-2.643-2.309A6.682,6.682,0,0,1,266.848,200.7Z" transform="translate(-143.021 -102.22)" fill="#263238"/>
    <path id="Path_1090" data-name="Path 1090" d="M235.93,212.066a1.218,1.218,0,0,0-.135.389c-.016.23.135.5.452.4a.341.341,0,0,0,.159-.579c-.135-.19-.309-.2-.317-.262s.222-.175.524.048a.714.714,0,0,1,.27.579.7.7,0,0,1-.516.611.675.675,0,0,1-.857-.865C235.645,212.034,235.891,211.986,235.93,212.066Z" transform="translate(-137.457 -105.639)" fill="#263238"/>
    <path id="Path_1091" data-name="Path 1091" d="M238.352,211.045a1.092,1.092,0,0,0-.127.389c-.008.23.135.5.452.4a.349.349,0,0,0,.159-.587c-.135-.182-.309-.2-.325-.254s.222-.182.532.048a.7.7,0,0,1,.27.571.73.73,0,0,1-1.294.381.722.722,0,0,1-.079-.635C238.075,210.982,238.352,210.982,238.352,211.045Z" transform="translate(-137.959 -105.428)" fill="#263238"/>
    <path id="Path_1092" data-name="Path 1092" d="M291.674,191.441a2.165,2.165,0,0,1-.1-.5c-.056-.381-.135-.865-.222-1.468-.183-1.325-.429-3.174-.73-5.388-.587-4.6-1.381-10.88-2.262-17.808-.119-.984-.238-1.952-.357-2.912v-.1c.6-1.532,1.19-3.016,1.746-4.436v.151c-.6-1.373-1.182-2.69-1.722-3.968V154.9c1.063-3.817,1.952-7.031,2.587-9.348.317-1.1.571-1.968.754-2.619a6.061,6.061,0,0,1,.31-.921,6.293,6.293,0,0,1-.2.944c-.159.659-.381,1.547-.659,2.65-.6,2.325-1.444,5.555-2.436,9.388v-.119l1.754,3.92v.151l-1.738,4.484v-.1c.119.952.238,1.928.365,2.912.794,6.936,1.587,13.213,2.135,17.815.254,2.246.46,4.079.6,5.412l.143,1.468a2.111,2.111,0,0,1,.032.508Z" transform="translate(-148.301 -91.204)" fill="#263238"/>
    <path id="Path_1093" data-name="Path 1093" d="M284.048,206.172a2.06,2.06,0,0,1-.079-.389c-.04-.3-.1-.675-.159-1.119-.127-1.04-.294-2.436-.508-4.134-.421-3.492-1.016-8.309-1.73-13.625s-1.413-10.126-1.92-13.6c-.246-1.69-.452-3.087-.6-4.119-.056-.452-.1-.794-.143-1.127a1.261,1.261,0,0,1,0-.4,1.936,1.936,0,0,1,.1.381c.064.3.135.667.222,1.111.183.968.436,2.381.73,4.1.587,3.468,1.333,8.269,2.047,13.594S283.271,197,283.6,200.5c.175,1.746.3,3.174.381,4.142,0,.452.056.794.071,1.135A1.263,1.263,0,0,1,284.048,206.172Z" transform="translate(-146.421 -96.499)" fill="#263238"/>
    <path id="Path_1094" data-name="Path 1094" d="M281.238,249.092a3.31,3.31,0,0,0,.548.667,2.539,2.539,0,0,0,2.182.492,3.682,3.682,0,0,0,2.381-2.325,14.378,14.378,0,0,0,.667-4.269,9.76,9.76,0,0,0-.436-4.261,7.792,7.792,0,0,0-2.166-2.73,10.118,10.118,0,0,1-1.651-1.8,2.062,2.062,0,0,1-.389-.794,8.687,8.687,0,0,0,.516.714,12.492,12.492,0,0,0,1.722,1.682,7.674,7.674,0,0,1,2.317,2.8,9.69,9.69,0,0,1,.5,4.428,14.087,14.087,0,0,1-.722,4.388,3.968,3.968,0,0,1-2.65,2.46,2.6,2.6,0,0,1-2.381-.651,1.928,1.928,0,0,1-.389-.556C281.238,249.156,281.223,249.092,281.238,249.092Z" transform="translate(-146.904 -110.209)" fill="#263238"/>
    <path id="Path_1095" data-name="Path 1095" d="M270.06,211.553s.793-9.1,8-9.943A10.649,10.649,0,0,1,270.06,211.553Z" transform="translate(-144.598 -103.508)" fill="#263238"/>
    <path id="Path_1096" data-name="Path 1096" d="M318.74,248.223l20.99,13.729,2.381-1.9,1.119-30.766-19.99-15.149-2.746.944Z" transform="translate(-154.647 -106.094)" fill="#076f82"/>
    <path id="Path_1097" data-name="Path 1097" d="M323.185,214.69l.817,33.3H319.59l1.476-32.639Z" transform="translate(-154.823 -106.208)" fill="#e0e0e0"/>
    <path id="Path_1098" data-name="Path 1098" d="M331.007,262.351a2.579,2.579,0,0,0,2.381,1.587.27.27,0,0,1,.175.151,2.381,2.381,0,0,0,1.992,1.238,4.253,4.253,0,0,0,2.254-.651c1.1-.667,3.047-5.047,3.047-5.047l4.626-10.316-7.777-2.1-9.888,3.079c0,.183-2.317,9.523-2.317,9.523a2.381,2.381,0,0,0,2.778-1.476,25.592,25.592,0,0,1,1.746-3.269l.738,4.214-2.817.96a1.873,1.873,0,0,0,1.206,2.143Z" transform="translate(-156.043 -112.921)" fill="#ffbe9d"/>
    <path id="Path_1099" data-name="Path 1099" d="M336.84,169.752,349.8,193.607l-10.546,31.306,11.721,6.61,14.911-34.837a9.912,9.912,0,0,0-.127-8.063L347.505,149.35Z" transform="translate(-158.384 -92.719)" fill="#ffb224"/>
    <path id="Path_1100" data-name="Path 1100" d="M339.6,244.57,338.5,247l11.062,5.968,1.159-2.127Z" transform="translate(-158.727 -112.376)" fill="#e0e0e0"/>
    <path id="Path_1101" data-name="Path 1101" d="M338.278,224.684v-.159a2.611,2.611,0,0,1,.135-.46l.563-1.77c.516-1.587,1.246-3.8,2.151-6.579,1.873-5.618,4.484-13.443,7.467-22.4v.167c-1.508-2.563-3.063-5.269-4.626-8.063-2.857-5.1-5.476-10.023-7.721-14.57-1.111-2.277-2.143-4.452-3.015-6.539a13.037,13.037,0,0,1-1.079-6.182,14.187,14.187,0,0,1,1.151-5.055A9.9,9.9,0,0,1,335.6,149.9a7.532,7.532,0,0,1,2.063-1.365,4.65,4.65,0,0,1,.794-.294,9.1,9.1,0,0,0-2.762,1.778,9.682,9.682,0,0,0-2.19,3.174,14.157,14.157,0,0,0-1.079,4.976,12.919,12.919,0,0,0,1.1,6.031c.889,2.071,1.928,4.238,3.047,6.507,2.254,4.531,4.888,9.435,7.745,14.53,1.587,2.793,3.1,5.5,4.6,8.063l.048.079v.087c-3.047,8.943-5.7,16.752-7.61,22.355l-2.19,6.523c-.27.738-.476,1.317-.627,1.746l-.175.452A1.043,1.043,0,0,1,338.278,224.684Z" transform="translate(-157.409 -92.49)" fill="#263238"/>
    <path id="Path_1102" data-name="Path 1102" d="M361.916,204.5a9.754,9.754,0,0,1-1.278-.452,9.134,9.134,0,0,0-6.293.2,9.373,9.373,0,0,1-1.246.532,3.016,3.016,0,0,1,1.127-.794,7.824,7.824,0,0,1,3.238-.794,7.745,7.745,0,0,1,3.277.6,3.032,3.032,0,0,1,1.174.706Z" transform="translate(-161.741 -103.833)" fill="#263238"/>
    <path id="Path_1103" data-name="Path 1103" d="M333.57,167.91l9.308,31.155L344.2,188.82Z" transform="translate(-157.709 -96.551)" fill="#263238"/>
    <path id="Path_1104" data-name="Path 1104" d="M352.876,245.016a1.09,1.09,0,0,0-.127.389c-.008.23.135.5.452.4a.349.349,0,0,0,.159-.587c-.135-.182-.31-.2-.317-.254s.214-.175.524.048a.7.7,0,0,1,.27.579.706.706,0,0,1-.524.611.69.69,0,0,1-.794-.238.706.706,0,0,1-.079-.627C352.559,244.977,352.876,244.977,352.876,245.016Z" transform="translate(-161.596 -112.442)" fill="#263238"/>
    <path id="Path_1105" data-name="Path 1105" d="M354.012,242.186a1.094,1.094,0,0,0-.127.4.357.357,0,1,0,.611-.182c-.135-.19-.317-.2-.325-.262s.222-.175.532.048a.714.714,0,0,1,.27.579.706.706,0,1,1-1.373-.254C353.735,242.154,354.012,242.13,354.012,242.186Z" transform="translate(-161.836 -111.857)" fill="#263238"/>
    <path id="Path_1106" data-name="Path 1106" d="M369.708,192.21c-1.389.73-1.873,2.777-1.714,4.341s.738,3.079.7,4.642a19.7,19.7,0,0,1-.6,3.309,5.658,5.658,0,0,0,.1,3.309,2.539,2.539,0,0,0,2.627,1.658l1.1-2.222a12.245,12.245,0,0,0-.159-11.157Z" transform="translate(-164.795 -101.567)" fill="#263238"/>
  </g>
  <g id="freepik--Plants--inject-273" transform="translate(20.829 210.54)">
    <path id="Path_1107" data-name="Path 1107" d="M455.311,398.646a8.9,8.9,0,0,1,4.6-5.88c2.357-1.016,5.309-.46,7.824.46s4.992,2.135,7.666,2.3,5.682-1.1,6.483-3.658c.754-2.381-.69-4.968-2.508-6.714a15.871,15.871,0,0,0-25.949,6.229" transform="translate(-139.095 -322.448)" fill="#076f82"/>
    <g id="Group_37845" data-name="Group 37845" transform="translate(314.335 58.307)" opacity="0.5">
      <path id="Path_1108" data-name="Path 1108" d="M455.311,398.646a8.9,8.9,0,0,1,4.6-5.88c2.357-1.016,5.309-.46,7.824.46s4.992,2.135,7.666,2.3,5.682-1.1,6.483-3.658c.754-2.381-.69-4.968-2.508-6.714a15.871,15.871,0,0,0-25.949,6.229" transform="translate(-453.43 -380.755)" fill="#83825b"/>
    </g>
    <path id="Path_1109" data-name="Path 1109" d="M428.306,408.841c-3.92-3.722-3.722-10.205-1.77-15.252s6.221-8.912,10.991-11.459a34.79,34.79,0,0,1,30.362-.984,14.4,14.4,0,0,0-11.649,6.833c-2.143,3.571-2.627,7.936-4.4,11.665a18.371,18.371,0,0,1-23.521,9.2" transform="translate(-133.263 -321.906)" fill="#2c7195"/>
    <path id="Path_1110" data-name="Path 1110" d="M425.189,371.836c-4.341-5.126-4.912-13.348-4.277-20.037s2.19-13.411,1.135-20.045c-.627-3.928-2.151-7.674-2.666-11.626s.214-8.4,3.277-10.951c3.508-2.928,9.047-2.238,12.7.516s5.777,7.063,7.325,11.364c3.4,9.459,4.642,19.942,1.849,29.592s-9.34,18.252-18.958,21.188" transform="translate(-132.035 -307.28)" fill="#2c7195"/>
    <path id="Path_1111" data-name="Path 1111" d="M424.117,429.389a3.382,3.382,0,0,1,0-.587v-1.7c.056-1.468.2-3.595.524-6.206a84.011,84.011,0,0,1,1.667-9.086,42.061,42.061,0,0,1,4.15-10.523,44.041,44.041,0,0,1,6.777-9.062,43.442,43.442,0,0,1,7.1-5.9c1.087-.754,2.135-1.317,3.039-1.849s1.73-.881,2.381-1.206l1.587-.651a2.853,2.853,0,0,1,.548-.206,3.881,3.881,0,0,1-.524.27l-1.532.714c-.651.341-1.444.794-2.381,1.254a23.5,23.5,0,0,0-2.992,1.881,44.724,44.724,0,0,0-13.713,14.935c-3.968,6.983-5.079,14.324-5.872,19.466-.357,2.6-.54,4.722-.643,6.182l-.1,1.69A4.229,4.229,0,0,1,424.117,429.389Z" transform="translate(-133.041 -322.79)" fill="#263238"/>
    <path id="Path_1112" data-name="Path 1112" d="M375.032,363.16c-8.031,4.849-8.007,9.253-6.666,13.419s6.269,7.055,10.316,5.5c2.309-.881,3.968-2.889,5.412-4.912s2.77-4.174,4.761-5.626,4.9-2,6.92-.563" transform="translate(-121.396 -318.816)" fill="#076f82"/>
    <g id="Group_37846" data-name="Group 37846" transform="translate(246.299 44.344)" opacity="0.5">
      <path id="Path_1113" data-name="Path 1113" d="M375.032,363.16c-8.031,4.849-8.007,9.253-6.666,13.419s6.269,7.055,10.316,5.5c2.309-.881,3.968-2.889,5.412-4.912s2.77-4.174,4.761-5.626,4.9-2,6.92-.563" transform="translate(-367.696 -363.16)" fill="#45786e"/>
    </g>
    <path id="Path_1114" data-name="Path 1114" d="M369.36,367.018c2.1-2.9,7.285-3.738,10.562-2.293s5.674,4.325,7.825,7.19,4.238,5.888,7.213,7.888,7.142,2.714,10.094.706a8.673,8.673,0,0,0,3.436-5.944,19.839,19.839,0,0,0-.476-7c-.706-3.365-1.865-6.888-4.563-9.023-3-2.381-7.142-2.5-11.007-2.381-4.4.143-8.864.468-12.991,1.992s-8.34,4.825-10.094,8.856" transform="translate(-121.74 -317.365)" fill="#2c7195"/>
    <path id="Path_1115" data-name="Path 1115" d="M410.326,417.767a.568.568,0,0,1,0-.182v-.516c0-.484,0-1.151-.071-1.992-.056-1.762-.127-4.261-.214-7.333s-.222-6.777-.444-10.864-.532-8.578-1.151-13.252a42.45,42.45,0,0,0-1.381-6.737,35.713,35.713,0,0,0-5.555-10.769,32.16,32.16,0,0,0-3.4-3.722,24.771,24.771,0,0,0-6.007-4.095c-.389-.183-.738-.357-1.04-.484l-.794-.3-.484-.2-.159-.071.175.04.492.159.794.278c.309.111.659.278,1.055.452a24.065,24.065,0,0,1,6.126,4.039,30.477,30.477,0,0,1,3.452,3.722,33.641,33.641,0,0,1,3.174,4.9,35,35,0,0,1,2.508,5.944,42.781,42.781,0,0,1,1.349,6.785c.619,4.69.913,9.189,1.127,13.284s.3,7.777.365,10.872.087,5.6.1,7.332v2.516A.785.785,0,0,1,410.326,417.767Z" transform="translate(-125.924 -317.596)" fill="#263238"/>
    <path id="Path_1116" data-name="Path 1116" d="M418.982,415.017a22.56,22.56,0,0,1-.881-3.452,36.13,36.13,0,0,1-.365-9.689,64.388,64.388,0,0,1,3.055-14.054c1.651-5.174,3.888-10.7,5.8-16.665a78,78,0,0,0,2.309-8.8,78.806,78.806,0,0,0,1.135-8.4,121.487,121.487,0,0,0,.254-14.363c-.135-4.087-.357-7.4-.492-9.682-.064-1.127-.119-2.008-.151-2.635V326.6a.9.9,0,0,1,0-.238,1.078,1.078,0,0,1,0,.23,2.662,2.662,0,0,0,.071.69c.056.619.127,1.5.222,2.627.175,2.277.436,5.555.6,9.681a118.807,118.807,0,0,1-.175,14.4,79.39,79.39,0,0,1-1.127,8.436,74.585,74.585,0,0,1-2.309,8.888c-1.92,5.96-4.166,11.483-5.825,16.625a65.364,65.364,0,0,0-3.119,13.983,37.407,37.407,0,0,0,.246,9.642c.2,1.127.381,2,.54,2.579.064.278.119.5.159.667A.862.862,0,0,1,418.982,415.017Z" transform="translate(-131.691 -311.219)" fill="#263238"/>
    <path id="Path_1117" data-name="Path 1117" d="M434.405,440.761H396.7l-.865-7.261h38.575Z" transform="translate(-127.204 -333.337)" fill="#455a64"/>
    <path id="Path_1118" data-name="Path 1118" d="M402.02,441.61l4.714,21.775h20.49l4.412-21.775Z" transform="translate(-128.482 -335.011)" fill="#455a64"/>
    <path id="Path_1119" data-name="Path 1119" d="M434.805,442.588c0,.1-8.293.159-18.514.127s-18.522-.127-18.522-.23,8.293-.159,18.522-.127S434.805,442.493,434.805,442.588Z" transform="translate(-127.605 -335.163)" fill="#455a64"/>
    <path id="Path_1120" data-name="Path 1120" d="M429.775,455.411a15.077,15.077,0,0,0-3.317-1.9,11.649,11.649,0,0,0-4.039-.794,14.135,14.135,0,0,0-4.968.9c-1.714.587-3.325,1.262-4.888,1.635a11.834,11.834,0,0,1-4.222.127,8.872,8.872,0,0,1-2.714-.857,5.932,5.932,0,0,1-.651-.421c-.143-.1-.214-.167-.206-.175s.317.183.921.468a9.652,9.652,0,0,0,2.69.73,11.739,11.739,0,0,0,4.111-.2c1.508-.373,3.119-1.063,4.849-1.651a14.062,14.062,0,0,1,5.087-.9,11.57,11.57,0,0,1,4.127.9,10.454,10.454,0,0,1,2.46,1.436,6.988,6.988,0,0,1,.579.5C429.727,455.332,429.783,455.4,429.775,455.411Z" transform="translate(-129.05 -337.234)" fill="#263238"/>
    <path id="Path_1121" data-name="Path 1121" d="M429.642,457.222a16.1,16.1,0,0,0-3.174-1.881,10.818,10.818,0,0,0-3.888-.794,14.125,14.125,0,0,0-4.809.865c-1.659.556-3.214,1.2-4.706,1.587a12.078,12.078,0,0,1-4.063.452,6.824,6.824,0,0,1-2.658-.714,4.617,4.617,0,0,1-.635-.4c-.135-.1-.206-.167-.2-.174s.317.182.9.444a7.143,7.143,0,0,0,2.611.587,12.345,12.345,0,0,0,3.968-.524c1.452-.4,3-1.055,4.682-1.587a14.061,14.061,0,0,1,4.928-.857,10.643,10.643,0,0,1,3.968.9,10.82,10.82,0,0,1,2.381,1.421c.254.206.436.373.556.492S429.65,457.222,429.642,457.222Z" transform="translate(-129.202 -337.616)" fill="#fff"/>
    <path id="Path_1122" data-name="Path 1122" d="M430.043,453.515a17.167,17.167,0,0,0-3.4-2.016,12.6,12.6,0,0,0-4.142-.992,13.49,13.49,0,0,0-5.126.9,45.549,45.549,0,0,1-5.055,1.651,12.956,12.956,0,0,1-4.365,0,9.766,9.766,0,0,1-2.8-.889,4.893,4.893,0,0,1-.682-.421c-.143-.111-.214-.175-.206-.182s.325.2.952.476a10.691,10.691,0,0,0,2.777.794,12.934,12.934,0,0,0,4.261-.079,49.9,49.9,0,0,0,5.007-1.667,13.374,13.374,0,0,1,5.261-.9,12.7,12.7,0,0,1,6.737,2.611,7.321,7.321,0,0,1,.6.524C429.987,453.436,430.059,453.507,430.043,453.515Z" transform="translate(-128.944 -336.783)" fill="#fff"/>
    <path id="Path_1123" data-name="Path 1123" d="M435,442.645c0,.1-8.483.182-18.942.182s-18.95-.079-18.95-.182,8.483-.175,18.95-.175S435,442.549,435,442.645Z" transform="translate(-127.468 -335.189)" fill="#263238"/>
    <path id="Path_1124" data-name="Path 1124" d="M81.378,427.021c1.357,1.936,3.968,1.294,5.222.111a9.5,9.5,0,0,0,2.206-4.523c1.071-3.738,2.159-7.658,1.357-11.459a6.348,6.348,0,0,0-1.46-3.111,3.325,3.325,0,0,0-3.127-1.055c-1.333.349-2.158,1.651-2.754,2.889a27.355,27.355,0,0,0-2.7,11.721,9.459,9.459,0,0,0,1.278,5.42" transform="translate(-62.026 -327.85)" fill="#076f82"/>
    <g id="Group_37847" data-name="Group 37847" transform="translate(18.077 79.072)" opacity="0.2">
      <path id="Path_1125" data-name="Path 1125" d="M81.378,427.021c1.357,1.936,3.968,1.294,5.222.111a9.5,9.5,0,0,0,2.206-4.523c1.071-3.738,2.159-7.658,1.357-11.459a6.348,6.348,0,0,0-1.46-3.111,3.325,3.325,0,0,0-3.127-1.055c-1.333.349-2.158,1.651-2.754,2.889a27.355,27.355,0,0,0-2.7,11.721,9.459,9.459,0,0,0,1.278,5.42" transform="translate(-80.103 -406.922)"/>
    </g>
    <path id="Path_1126" data-name="Path 1126" d="M87.418,444.321a11.72,11.72,0,0,1,7.293-.881,6.063,6.063,0,0,1,3.6,1.587,2.566,2.566,0,0,1,0,3.6,3.445,3.445,0,0,1-2.27.571c-1.928,0-4.063-.357-5.6.794-.881.659-1.468,1.762-2.516,2.087a2.5,2.5,0,0,1-2.738-1.214,4.277,4.277,0,0,1-.3-3.135A4.761,4.761,0,0,1,87.418,444.321Z" transform="translate(-62.979 -335.341)" fill="#076f82"/>
    <path id="Path_1127" data-name="Path 1127" d="M72.938,431.423a7.023,7.023,0,0,0,1.1-6.483,12.427,12.427,0,0,0-3.841-5.555,20.633,20.633,0,0,0-6.88-4.063,7.278,7.278,0,0,0-3.095-.524,3.254,3.254,0,0,0-2.595,1.587c-.722,1.381,0,3.055.722,4.42a52.153,52.153,0,0,0,4.531,6.848,12.316,12.316,0,0,0,4.976,4.262c2.063.794,4.206.7,5.3-.738" transform="translate(-57.323 -329.474)" fill="#076f82"/>
    <path id="Path_1128" data-name="Path 1128" d="M81.584,464.444a4.651,4.651,0,0,0,.119-.881c.064-.643.143-1.452.238-2.381a33.235,33.235,0,0,1,.54-3.523,26.762,26.762,0,0,1,1.278-4.158,15.252,15.252,0,0,1,2.111-3.785,7.935,7.935,0,0,1,2.682-2.238,7.435,7.435,0,0,1,2.262-.7,4.988,4.988,0,0,0,.881-.127,3.566,3.566,0,0,0-.9,0,6.9,6.9,0,0,0-2.381.611,7.936,7.936,0,0,0-2.833,2.254,14.966,14.966,0,0,0-2.2,3.841,24.951,24.951,0,0,0-1.27,4.222,29.179,29.179,0,0,0-.468,3.571c-.079,1.016-.111,1.849-.119,2.381a4.165,4.165,0,0,0,.056.913Z" transform="translate(-62.319 -336.046)" fill="#263238"/>
    <path id="Path_1129" data-name="Path 1129" d="M81.756,456.424a2.794,2.794,0,0,0,0-.413v-1.167c0-1.016,0-2.484.056-4.293.087-3.619.4-8.626,1-14.117s1.413-10.443,2.151-13.991c.167-.9.341-1.69.508-2.381s.294-1.309.421-1.793l.27-1.135a1.309,1.309,0,0,0,.071-.4,2.035,2.035,0,0,0-.135.381c-.1.294-.206.667-.341,1.119s-.309,1.087-.484,1.785-.373,1.5-.563,2.381A132.366,132.366,0,0,0,82.455,436.4c-.6,5.507-.873,10.523-.9,14.157,0,1.809,0,3.285.063,4.293q.048.714.071,1.167a1.587,1.587,0,0,0,.071.4Z" transform="translate(-62.324 -329.875)" fill="#263238"/>
    <path id="Path_1130" data-name="Path 1130" d="M78.471,447.516a9,9,0,0,0,0-1.222c-.048-.794-.159-1.92-.373-3.309a44.741,44.741,0,0,0-1.087-4.817A41.5,41.5,0,0,0,75,432.47a30.275,30.275,0,0,0-5.92-9.205,14.282,14.282,0,0,0-1.389-1.293c-.214-.182-.4-.365-.6-.508l-.54-.365a7.249,7.249,0,0,0-1.032-.659,35.572,35.572,0,0,1,3.373,3,31.807,31.807,0,0,1,5.737,9.182,45.763,45.763,0,0,1,2.032,5.642c.524,1.77.873,3.4,1.143,4.761s.4,2.492.484,3.27a7.937,7.937,0,0,0,.183,1.222Z" transform="translate(-59.015 -330.641)" fill="#263238"/>
  </g>
  <g id="freepik--speech-bubble--inject-273" transform="translate(134.311 6.632)">
    <path id="Path_1131" data-name="Path 1131" d="M223.311,50.393a1.944,1.944,0,0,1,.4,0h1.19a12.7,12.7,0,0,1,1.92.183c.381.063.794.1,1.222.19l1.373.341a22.22,22.22,0,0,1,6.6,2.952,22.957,22.957,0,0,1-3.952,40.329,22.4,22.4,0,0,1-7.65,1.682,21.887,21.887,0,0,1-8-.992L216.185,95h.183L203,99.633l-.54.19.167-.555,3.476-11.11.056.27a22.9,22.9,0,0,1-5.364-19.839,22.489,22.489,0,0,1,3.452-8.205,22.791,22.791,0,0,1,5.293-5.555,20.538,20.538,0,0,1,5.436-3.008,17.737,17.737,0,0,1,2.381-.794,15.005,15.005,0,0,1,2.063-.429c.627-.087,1.182-.183,1.659-.222l1.222-.04h.786a.793.793,0,0,1,.254,0,1.675,1.675,0,0,1-.254.04l-.738.056-1.206.087c-.476.056-1.024.159-1.643.262a14.91,14.91,0,0,0-2.032.468,17.33,17.33,0,0,0-2.381.794,26.191,26.191,0,0,0-2.611,1.23,23.609,23.609,0,0,0-2.714,1.8,22.918,22.918,0,0,0-5.158,5.484,22.125,22.125,0,0,0-3.333,8.1A22.426,22.426,0,0,0,206.583,88l.111.119-.048.151q-1.659,5.357-3.452,11.11l-.373-.357,13.356-4.515h.19l.23.071a21.466,21.466,0,0,0,7.793.968,22.029,22.029,0,0,0,7.459-1.627,22.523,22.523,0,0,0-2.492-42.5l-1.349-.365c-.429-.1-.833-.143-1.206-.214a12.625,12.625,0,0,0-1.9-.238l-1.182-.1a2.652,2.652,0,0,1-.4-.119Z" transform="translate(-200.327 -50.327)" fill="#076f82"/>
    <path id="Path_1132" data-name="Path 1132" d="M212.35,78.468l3.515-3.523,6.785,6.031L235.974,68.16l3.262,3.523L222.15,87.761Z" transform="translate(-202.809 -54.009)" fill="#ff5f11"/>
  </g>
</svg>
