<svg xmlns="http://www.w3.org/2000/svg" width="397.64" height="295.852" viewBox="0 0 397.64 295.852">
  <g id="Consulting-rafiki" transform="translate(0 -55)">
    <g id="freepik--background-complete--inject-66" transform="translate(0 55)">
      <rect id="Rectangle_20109" data-name="Rectangle 20109" width="26.34" height="0.199" transform="translate(331.456 273.17)" fill="#ebebeb"/>
      <rect id="Rectangle_20110" data-name="Rectangle 20110" width="6.911" height="0.199" transform="translate(256.501 275.334)" fill="#ebebeb"/>
      <rect id="Rectangle_20111" data-name="Rectangle 20111" width="15.261" height="0.199" transform="translate(315.4 265.79)" fill="#ebebeb"/>
      <rect id="Rectangle_20112" data-name="Rectangle 20112" width="34.348" height="0.199" transform="translate(41.72 267.126)" fill="#ebebeb"/>
      <rect id="Rectangle_20113" data-name="Rectangle 20113" width="5.034" height="0.199" transform="translate(83.154 267.126)" fill="#ebebeb"/>
      <rect id="Rectangle_20114" data-name="Rectangle 20114" width="74.502" height="0.199" transform="translate(104.555 270.482)" fill="#ebebeb"/>
      <path id="Path_38887" data-name="Path 38887" d="M196.3,279.9H42.743a4.541,4.541,0,0,1-4.533-4.541V59.5A4.541,4.541,0,0,1,42.743,55H196.3a4.541,4.541,0,0,1,4.541,4.541V275.364A4.541,4.541,0,0,1,196.3,279.9ZM42.743,55.159A4.342,4.342,0,0,0,38.409,59.5V275.364a4.342,4.342,0,0,0,4.334,4.342H196.3a4.35,4.35,0,0,0,4.342-4.342V59.5a4.35,4.35,0,0,0-4.342-4.342Z" transform="translate(-7.822 -55)" fill="#ebebeb"/>
      <path id="Path_38888" data-name="Path 38888" d="M412.609,279.9H259.041a4.549,4.549,0,0,1-4.541-4.541V59.5a4.549,4.549,0,0,1,4.541-4.5H412.609a4.541,4.541,0,0,1,4.525,4.5V275.364A4.541,4.541,0,0,1,412.609,279.9ZM259.041,55.159A4.35,4.35,0,0,0,254.7,59.5V275.364a4.35,4.35,0,0,0,4.342,4.342H412.609a4.35,4.35,0,0,0,4.342-4.342V59.5a4.35,4.35,0,0,0-4.342-4.342Z" transform="translate(-52.102 -55)" fill="#ebebeb"/>
      <rect id="Rectangle_20115" data-name="Rectangle 20115" width="397.64" height="0.199" transform="translate(0 260.374)" fill="#ebebeb"/>
      <rect id="Rectangle_20116" data-name="Rectangle 20116" width="56.664" height="192.227" transform="translate(305.713 13.019)" fill="#fafafa"/>
      <rect id="Rectangle_20117" data-name="Rectangle 20117" width="70.843" height="122.505" transform="translate(292.973 81.063)" fill="#e0e0e0"/>
      <path id="Path_38889" data-name="Path 38889" d="M385.5,135.41v30.722h43.637V135.41Z" transform="translate(-78.92 -71.462)" fill="#e0e0e0"/>
      <rect id="Rectangle_20118" data-name="Rectangle 20118" width="9.066" height="9.066" transform="translate(297.514 85.604)" fill="#fafafa"/>
      <rect id="Rectangle_20119" data-name="Rectangle 20119" width="9.066" height="9.066" transform="translate(315.082 85.604)" fill="#fafafa"/>
      <rect id="Rectangle_20120" data-name="Rectangle 20120" width="9.066" height="9.066" transform="translate(332.649 85.604)" fill="#fafafa"/>
      <rect id="Rectangle_20121" data-name="Rectangle 20121" width="9.074" height="9.066" transform="translate(350.217 85.604)" fill="#f0f0f0"/>
      <rect id="Rectangle_20122" data-name="Rectangle 20122" width="9.066" height="9.074" transform="translate(297.514 102.082)" fill="#f0f0f0"/>
      <rect id="Rectangle_20123" data-name="Rectangle 20123" width="9.066" height="9.074" transform="translate(315.082 102.082)" fill="#f0f0f0"/>
      <rect id="Rectangle_20124" data-name="Rectangle 20124" width="9.066" height="9.074" transform="translate(332.649 102.082)" fill="#fafafa"/>
      <rect id="Rectangle_20125" data-name="Rectangle 20125" width="9.074" height="9.074" transform="translate(350.217 102.082)" fill="#fafafa"/>
      <rect id="Rectangle_20126" data-name="Rectangle 20126" width="9.066" height="9.066" transform="translate(297.514 118.56)" fill="#f0f0f0"/>
      <rect id="Rectangle_20127" data-name="Rectangle 20127" width="9.066" height="9.066" transform="translate(315.082 118.56)" fill="#fafafa"/>
      <rect id="Rectangle_20128" data-name="Rectangle 20128" width="9.066" height="9.066" transform="translate(332.649 118.56)" fill="#fafafa"/>
      <rect id="Rectangle_20129" data-name="Rectangle 20129" width="9.066" height="9.066" transform="translate(315.082 71.352)" fill="#fafafa"/>
      <rect id="Rectangle_20130" data-name="Rectangle 20130" width="9.066" height="9.066" transform="translate(332.649 71.352)" fill="#f0f0f0"/>
      <rect id="Rectangle_20131" data-name="Rectangle 20131" width="9.074" height="9.066" transform="translate(350.217 118.56)" fill="#f0f0f0"/>
      <rect id="Rectangle_20132" data-name="Rectangle 20132" width="9.066" height="9.066" transform="translate(297.514 135.038)" fill="#fafafa"/>
      <rect id="Rectangle_20133" data-name="Rectangle 20133" width="9.066" height="9.066" transform="translate(315.082 135.038)" fill="#f0f0f0"/>
      <rect id="Rectangle_20134" data-name="Rectangle 20134" width="9.066" height="9.066" transform="translate(332.649 135.038)" fill="#f0f0f0"/>
      <rect id="Rectangle_20135" data-name="Rectangle 20135" width="9.074" height="9.066" transform="translate(350.217 135.038)" fill="#fafafa"/>
      <rect id="Rectangle_20136" data-name="Rectangle 20136" width="9.066" height="9.074" transform="translate(297.514 151.525)" fill="#f0f0f0"/>
      <rect id="Rectangle_20137" data-name="Rectangle 20137" width="9.066" height="9.074" transform="translate(315.082 151.525)" fill="#fafafa"/>
      <rect id="Rectangle_20138" data-name="Rectangle 20138" width="9.066" height="9.074" transform="translate(332.649 151.525)" fill="#fafafa"/>
      <rect id="Rectangle_20139" data-name="Rectangle 20139" width="9.074" height="9.074" transform="translate(350.217 151.525)" fill="#f0f0f0"/>
      <rect id="Rectangle_20140" data-name="Rectangle 20140" width="9.066" height="9.066" transform="translate(297.514 168.003)" fill="#f0f0f0"/>
      <rect id="Rectangle_20141" data-name="Rectangle 20141" width="9.066" height="9.066" transform="translate(315.082 168.003)" fill="#fafafa"/>
      <rect id="Rectangle_20142" data-name="Rectangle 20142" width="9.066" height="9.066" transform="translate(332.649 168.003)" fill="#f0f0f0"/>
      <rect id="Rectangle_20143" data-name="Rectangle 20143" width="9.074" height="9.066" transform="translate(350.217 168.003)" fill="#fafafa"/>
      <rect id="Rectangle_20144" data-name="Rectangle 20144" width="9.066" height="9.074" transform="translate(297.514 184.481)" fill="#fafafa"/>
      <rect id="Rectangle_20145" data-name="Rectangle 20145" width="9.066" height="9.074" transform="translate(315.082 184.481)" fill="#fafafa"/>
      <rect id="Rectangle_20146" data-name="Rectangle 20146" width="9.066" height="9.074" transform="translate(332.649 184.481)" fill="#f0f0f0"/>
      <rect id="Rectangle_20147" data-name="Rectangle 20147" width="9.074" height="9.074" transform="translate(350.217 184.481)" fill="#f0f0f0"/>
      <rect id="Rectangle_20148" data-name="Rectangle 20148" width="56.664" height="192.227" transform="translate(305.602 13.019)" fill="#fff" opacity="0.1"/>
      <g id="Group_38980" data-name="Group 38980" transform="translate(318.891 13.019)" opacity="0.3">
        <path id="Path_38890" data-name="Path 38890" d="M438.811,71.37H420.743L400.98,263.6h18.061Z" transform="translate(-400.98 -71.37)" fill="#fff"/>
      </g>
      <rect id="Rectangle_20149" data-name="Rectangle 20149" width="57.618" height="4.875" transform="translate(305.236 10.585)" fill="#e0e0e0"/>
      <rect id="Rectangle_20150" data-name="Rectangle 20150" width="57.618" height="4.875" transform="translate(305.236 203.568)" fill="#ebebeb"/>
      <path id="Path_38891" data-name="Path 38891" d="M442.991,269.1H380.53V62.33h62.461Zm-57.7-4.772h52.942V67.1H385.294Z" transform="translate(-77.902 -56.501)" fill="#ebebeb"/>
      <rect id="Rectangle_20151" data-name="Rectangle 20151" width="56.664" height="192.227" transform="translate(243.904 13.019)" fill="#fafafa"/>
      <rect id="Rectangle_20152" data-name="Rectangle 20152" width="48.456" height="59.463" transform="translate(247.825 144.773)" fill="#e6e6e6"/>
      <path id="Path_38892" data-name="Path 38892" d="M362.75,245.33H345.27v6.2h17.48Z" transform="translate(-70.684 -93.965)" fill="#e6e6e6"/>
      <path id="Path_38893" data-name="Path 38893" d="M362.75,260.44H345.27v6.2h17.48Z" transform="translate(-70.684 -97.058)" fill="#fafafa"/>
      <path id="Path_38894" data-name="Path 38894" d="M362.75,275.55H345.27v6.2h17.48Z" transform="translate(-70.684 -100.151)" fill="#e6e6e6"/>
      <path id="Path_38895" data-name="Path 38895" d="M362.75,290.66H345.27v6.2h17.48Z" transform="translate(-70.684 -103.245)" fill="#fafafa"/>
      <path id="Path_38896" data-name="Path 38896" d="M334.4,245.33H316.93v6.2H334.4Z" transform="translate(-64.882 -93.965)" fill="#fafafa"/>
      <path id="Path_38897" data-name="Path 38897" d="M334.4,260.44H316.93v6.2H334.4Z" transform="translate(-64.882 -97.058)" fill="#fafafa"/>
      <path id="Path_38898" data-name="Path 38898" d="M334.4,275.55H316.93v6.2H334.4Z" transform="translate(-64.882 -100.151)" fill="#e6e6e6"/>
      <path id="Path_38899" data-name="Path 38899" d="M334.4,290.66H316.93v6.2H334.4Z" transform="translate(-64.882 -103.245)" fill="#fafafa"/>
      <rect id="Rectangle_20153" data-name="Rectangle 20153" width="56.664" height="192.227" transform="translate(243.721 13.019)" fill="#fff" opacity="0.1"/>
      <g id="Group_38981" data-name="Group 38981" transform="translate(257.082 13.019)" opacity="0.3">
        <path id="Path_38900" data-name="Path 38900" d="M361.091,71.37H343.031L323.26,263.6h18.069Z" transform="translate(-323.26 -71.37)" fill="#fff"/>
      </g>
      <rect id="Rectangle_20154" data-name="Rectangle 20154" width="57.618" height="4.875" transform="translate(243.427 10.585)" fill="#e0e0e0"/>
      <rect id="Rectangle_20155" data-name="Rectangle 20155" width="57.618" height="4.875" transform="translate(243.427 203.568)" fill="#ebebeb"/>
      <path id="Path_38901" data-name="Path 38901" d="M365.281,269.1H302.82V62.33h62.461Zm-57.705-4.772h52.942V67.1H307.576Z" transform="translate(-61.994 -56.501)" fill="#ebebeb"/>
      <rect id="Rectangle_20156" data-name="Rectangle 20156" width="56.664" height="192.227" transform="translate(95.433 13.019)" fill="#fafafa"/>
      <rect id="Rectangle_20157" data-name="Rectangle 20157" width="56.664" height="192.227" transform="translate(95.322 13.019)" fill="#fff" opacity="0.1"/>
      <g id="Group_38982" data-name="Group 38982" transform="translate(108.619 13.019)" opacity="0.3">
        <path id="Path_38902" data-name="Path 38902" d="M174.411,71.37H156.343L136.58,263.6h18.061Z" transform="translate(-136.58 -71.37)" fill="#fff"/>
      </g>
      <rect id="Rectangle_20158" data-name="Rectangle 20158" width="57.618" height="4.875" transform="translate(94.964 10.585)" fill="#e0e0e0"/>
      <rect id="Rectangle_20159" data-name="Rectangle 20159" width="57.618" height="4.875" transform="translate(94.964 203.568)" fill="#ebebeb"/>
      <path id="Path_38903" data-name="Path 38903" d="M178.591,269.1H116.13V62.33h62.461Zm-57.7-4.772h52.934V67.1H120.894Z" transform="translate(-23.774 -56.501)" fill="#ebebeb"/>
      <rect id="Rectangle_20160" data-name="Rectangle 20160" width="56.664" height="192.227" transform="translate(33.712 13.019)" fill="#fafafa"/>
      <rect id="Rectangle_20161" data-name="Rectangle 20161" width="43.86" height="36.806" transform="translate(37.975 94.423)" fill="#e6e6e6"/>
      <rect id="Rectangle_20162" data-name="Rectangle 20162" width="5.615" height="5.615" transform="translate(40.782 99.012)" fill="#fafafa"/>
      <rect id="Rectangle_20163" data-name="Rectangle 20163" width="5.615" height="5.615" transform="translate(51.661 99.012)" fill="#fafafa"/>
      <rect id="Rectangle_20164" data-name="Rectangle 20164" width="5.615" height="5.615" transform="translate(62.541 99.012)" fill="#fafafa"/>
      <rect id="Rectangle_20165" data-name="Rectangle 20165" width="5.615" height="5.615" transform="translate(73.412 99.012)" fill="#fafafa"/>
      <rect id="Rectangle_20166" data-name="Rectangle 20166" width="5.615" height="5.615" transform="translate(40.782 109.216)" fill="#fafafa"/>
      <rect id="Rectangle_20167" data-name="Rectangle 20167" width="5.615" height="5.615" transform="translate(51.661 109.216)" fill="#fafafa"/>
      <rect id="Rectangle_20168" data-name="Rectangle 20168" width="5.615" height="5.615" transform="translate(62.541 109.216)" fill="#fafafa"/>
      <rect id="Rectangle_20169" data-name="Rectangle 20169" width="5.615" height="5.615" transform="translate(73.412 109.216)" fill="#e6e6e6"/>
      <rect id="Rectangle_20170" data-name="Rectangle 20170" width="5.615" height="5.615" transform="translate(40.782 119.411)" fill="#e6e6e6"/>
      <rect id="Rectangle_20171" data-name="Rectangle 20171" width="5.615" height="5.615" transform="translate(51.661 119.411)" fill="#e6e6e6"/>
      <rect id="Rectangle_20172" data-name="Rectangle 20172" width="5.615" height="5.615" transform="translate(62.541 119.411)" fill="#fafafa"/>
      <rect id="Rectangle_20173" data-name="Rectangle 20173" width="5.615" height="5.615" transform="translate(73.412 119.411)" fill="#e6e6e6"/>
      <rect id="Rectangle_20174" data-name="Rectangle 20174" width="43.86" height="36.806" transform="translate(37.975 130.768)" fill="#e6e6e6"/>
      <rect id="Rectangle_20175" data-name="Rectangle 20175" width="5.615" height="5.615" transform="translate(40.782 135.349)" fill="#fafafa"/>
      <rect id="Rectangle_20176" data-name="Rectangle 20176" width="5.615" height="5.615" transform="translate(51.661 135.349)" fill="#fafafa"/>
      <rect id="Rectangle_20177" data-name="Rectangle 20177" width="5.615" height="5.615" transform="translate(62.541 135.349)" fill="#fafafa"/>
      <rect id="Rectangle_20178" data-name="Rectangle 20178" width="5.615" height="5.615" transform="translate(73.412 135.349)" fill="#fafafa"/>
      <rect id="Rectangle_20179" data-name="Rectangle 20179" width="5.615" height="5.615" transform="translate(40.782 145.552)" fill="#fafafa"/>
      <rect id="Rectangle_20180" data-name="Rectangle 20180" width="5.615" height="5.615" transform="translate(51.661 145.552)" fill="#fafafa"/>
      <rect id="Rectangle_20181" data-name="Rectangle 20181" width="5.615" height="5.615" transform="translate(62.541 145.552)" fill="#fafafa"/>
      <rect id="Rectangle_20182" data-name="Rectangle 20182" width="5.615" height="5.615" transform="translate(73.412 145.552)" fill="#e6e6e6"/>
      <rect id="Rectangle_20183" data-name="Rectangle 20183" width="5.615" height="5.615" transform="translate(40.782 155.755)" fill="#e6e6e6"/>
      <rect id="Rectangle_20184" data-name="Rectangle 20184" width="5.615" height="5.615" transform="translate(51.661 155.755)" fill="#e6e6e6"/>
      <rect id="Rectangle_20185" data-name="Rectangle 20185" width="5.615" height="5.615" transform="translate(62.541 155.755)" fill="#fafafa"/>
      <rect id="Rectangle_20186" data-name="Rectangle 20186" width="5.615" height="5.615" transform="translate(73.412 155.755)" fill="#e6e6e6"/>
      <rect id="Rectangle_20187" data-name="Rectangle 20187" width="43.86" height="36.806" transform="translate(37.975 167.104)" fill="#e6e6e6"/>
      <rect id="Rectangle_20188" data-name="Rectangle 20188" width="5.615" height="5.615" transform="translate(40.782 171.693)" fill="#fafafa"/>
      <rect id="Rectangle_20189" data-name="Rectangle 20189" width="5.615" height="5.615" transform="translate(51.661 171.693)" fill="#fafafa"/>
      <rect id="Rectangle_20190" data-name="Rectangle 20190" width="5.615" height="5.615" transform="translate(62.541 171.693)" fill="#fafafa"/>
      <rect id="Rectangle_20191" data-name="Rectangle 20191" width="5.615" height="5.615" transform="translate(73.412 171.693)" fill="#fafafa"/>
      <rect id="Rectangle_20192" data-name="Rectangle 20192" width="5.615" height="5.615" transform="translate(40.782 181.896)" fill="#fafafa"/>
      <rect id="Rectangle_20193" data-name="Rectangle 20193" width="5.615" height="5.615" transform="translate(51.661 181.896)" fill="#fafafa"/>
      <rect id="Rectangle_20194" data-name="Rectangle 20194" width="5.615" height="5.615" transform="translate(62.541 181.896)" fill="#fafafa"/>
      <rect id="Rectangle_20195" data-name="Rectangle 20195" width="5.615" height="5.615" transform="translate(73.412 181.896)" fill="#e6e6e6"/>
      <rect id="Rectangle_20196" data-name="Rectangle 20196" width="5.615" height="5.615" transform="translate(40.782 192.1)" fill="#e6e6e6"/>
      <rect id="Rectangle_20197" data-name="Rectangle 20197" width="5.615" height="5.615" transform="translate(51.661 192.1)" fill="#e6e6e6"/>
      <rect id="Rectangle_20198" data-name="Rectangle 20198" width="5.615" height="5.615" transform="translate(62.541 192.1)" fill="#fafafa"/>
      <rect id="Rectangle_20199" data-name="Rectangle 20199" width="5.615" height="5.615" transform="translate(73.412 192.1)" fill="#e6e6e6"/>
      <rect id="Rectangle_20200" data-name="Rectangle 20200" width="56.664" height="192.227" transform="translate(32.964 13.019)" fill="#fff" opacity="0.1"/>
      <g id="Group_38983" data-name="Group 38983" transform="translate(46.898 13.019)" opacity="0.3">
        <path id="Path_38904" data-name="Path 38904" d="M96.793,71.37H78.733L58.97,263.6H77.031Z" transform="translate(-58.97 -71.37)" fill="#fff"/>
      </g>
      <rect id="Rectangle_20201" data-name="Rectangle 20201" width="57.618" height="4.875" transform="translate(33.243 10.585)" fill="#e0e0e0"/>
      <rect id="Rectangle_20202" data-name="Rectangle 20202" width="57.618" height="4.875" transform="translate(33.243 203.568)" fill="#ebebeb"/>
      <path id="Path_38905" data-name="Path 38905" d="M100.981,269.1H38.52V62.33h62.461Zm-57.7-4.772H96.217V67.1H43.284Z" transform="translate(-7.886 -56.501)" fill="#ebebeb"/>
      <path id="Path_38906" data-name="Path 38906" d="M243.106,328.244l-.636.08c-.04-.326-3.9-32.678,4.072-59.113,7.953-26.244,2.465-43.025,2.386-43.184l.612-.207c.056.167,5.567,17.106-2.386,43.573C239.217,295.7,243.067,327.926,243.106,328.244Z" transform="translate(-49.44 -89.97)" fill="#e0e0e0"/>
      <path id="Path_38907" data-name="Path 38907" d="M250.916,229.595a10.052,10.052,0,0,0-5.376-3.316l.151-.628a10.681,10.681,0,0,1,5.718,3.531Z" transform="translate(-50.267 -89.936)" fill="#e0e0e0"/>
      <rect id="Rectangle_20203" data-name="Rectangle 20203" width="2.107" height="0.644" transform="translate(201.542 143.371) rotate(-29.47)" fill="#e0e0e0"/>
      <path id="Path_38908" data-name="Path 38908" d="M249.305,250.515a15.261,15.261,0,0,0-8.255-8.016l.239-.589a15.906,15.906,0,0,1,8.6,8.343Z" transform="translate(-49.348 -93.264)" fill="#e0e0e0"/>
      <path id="Path_38909" data-name="Path 38909" d="M248.248,276.273H247.6a8.812,8.812,0,0,0-3.324-6.752l.4-.5A9.472,9.472,0,0,1,248.248,276.273Z" transform="translate(-50.009 -98.814)" fill="#e0e0e0"/>
      <path id="Path_38910" data-name="Path 38910" d="M247.314,283.651l-.6-.231a6.458,6.458,0,0,1,3.658-3.611l.223.6a5.758,5.758,0,0,0-3.277,3.237Z" transform="translate(-50.507 -101.023)" fill="#e0e0e0"/>
      <path id="Path_38911" data-name="Path 38911" d="M242.1,323.811l-.493-.406c.8-.946,1.376-4.533,1.694-6.458.072-.461.135-.851.191-1.137l.628.119c-.048.278-.111.668-.191,1.121C243.463,319.938,242.93,322.816,242.1,323.811Z" transform="translate(-49.463 -108.393)" fill="#e0e0e0"/>
      <path id="Path_38912" data-name="Path 38912" d="M240.192,337.565a6.362,6.362,0,0,0-6.132-4.231v-.644a7.007,7.007,0,0,1,6.776,4.676Z" transform="translate(-47.917 -111.849)" fill="#e0e0e0"/>
      <rect id="Rectangle_20204" data-name="Rectangle 20204" width="6.792" height="0.644" transform="matrix(0.666, -0.746, 0.746, 0.666, 192.656, 237.507)" fill="#e0e0e0"/>
      <path id="Path_38913" data-name="Path 38913" d="M247.661,304.364c1.026,3.316-6.124,9.639-6.124,9.639s-9.472-1.185-10.5-4.509,1.376-8.748,5.965-10.164S246.6,301.048,247.661,304.364Z" transform="translate(-47.251 -104.948)" fill="#f0f0f0"/>
      <path id="Path_38914" data-name="Path 38914" d="M258.95,252.623c-.907,3.523-7.682,6.028-7.682,6.028s-4.724-5.464-3.817-8.987,4.652-7.412,7.826-6.593S259.857,249.1,258.95,252.623Z" transform="translate(-50.635 -93.48)" fill="#ebebeb"/>
      <path id="Path_38915" data-name="Path 38915" d="M224.644,321.086c4.247,1.662,6.855,9.178,6.855,9.178s-7.006,3.778-11.261,2.123-8.748-6.362-7.539-9.44S220.389,319.431,224.644,321.086Z" transform="translate(-43.503 -109.279)" fill="#f5f5f5"/>
      <path id="Path_38916" data-name="Path 38916" d="M238.367,267.036a9.1,9.1,0,0,0,2.9,1.646,3.094,3.094,0,0,0,3.1-.732c.915-1.05.668-2.672.1-3.937-1.137-2.505-5.328-6.752-8.549-5.567C231.274,260.237,236.292,265.5,238.367,267.036Z" transform="translate(-47.906 -96.608)" fill="#e6e6e6"/>
      <path id="Path_38917" data-name="Path 38917" d="M251.189,276.326c-.612.756-1.257,1.7-.923,2.616a1.94,1.94,0,0,0,2.139,1.05,5.741,5.741,0,0,0,2.3-1.121c1.638-1.145,5-3.531,2.855-5.766S252.469,274.727,251.189,276.326Z" transform="translate(-51.216 -99.512)" fill="#ebebeb"/>
      <path id="Path_38918" data-name="Path 38918" d="M233.79,237.324a1.686,1.686,0,0,0-1.535,1.241c-.135.8.541,1.527,1.193,2.028,1.63,1.257,6.521,4.644,7.619,1.376C242.1,238.882,235.954,237.061,233.79,237.324Z" transform="translate(-47.544 -92.32)" fill="#e0e0e0"/>
      <path id="Path_38919" data-name="Path 38919" d="M244.261,223.755c-1.01.1-2.02-.27-3.03-.207s-2.139.875-1.909,1.869,1.344,1.217,2.275,1.28a18.53,18.53,0,0,0,4.772-.334,1.463,1.463,0,0,0,.962-.485c.414-.6-.239-1.416-.938-1.591a10.389,10.389,0,0,1-2.115-.5Z" transform="translate(-48.988 -89.504)" fill="#e6e6e6"/>
      <path id="Path_38920" data-name="Path 38920" d="M257.207,232.446c1.018,0,2-.406,3.014-.406s2.187.732,2.028,1.734-1.264,1.312-2.195,1.432a18.148,18.148,0,0,1-4.772,0,1.479,1.479,0,0,1-1-.422c-.445-.581.151-1.424.8-1.686a10.071,10.071,0,0,0,2.084-.644Z" transform="translate(-52.025 -91.244)" fill="#f0f0f0"/>
      <path id="Path_38921" data-name="Path 38921" d="M254.407,326.4a1.431,1.431,0,0,1,.867-.429.978.978,0,0,1,.859.843,2.823,2.823,0,0,1-.159,1.28c-.692,2.3-8.406,18.959-10.187,15.969-1.05-1.774,1.535-7.627,2.3-9.289A24.154,24.154,0,0,1,254.407,326.4Z" transform="translate(-50.267 -110.473)" fill="#f0f0f0"/>
      <path id="Path_38922" data-name="Path 38922" d="M250.89,223.49a8.748,8.748,0,0,1,2.473-3.658c1.217-.883,3.181-.946,4.056.27.994,1.36,0,3.428-1.519,4.151s-3.292.5-4.963.27a4.611,4.611,0,0,0-.04-.74Z" transform="translate(-51.362 -88.611)" fill="#e6e6e6"/>
      <path id="Path_38923" data-name="Path 38923" d="M248.742,375.18h0a74.358,74.358,0,0,1-24.972,0h0l-9.71-28.63h44.4Z" transform="translate(-43.823 -114.686)" fill="#f0f0f0"/>
      <circle id="Ellipse_1537" data-name="Ellipse 1537" cx="16.486" cy="16.486" r="16.486" transform="translate(182.803 13.138)" fill="#e0e0e0"/>
      <circle id="Ellipse_1538" data-name="Ellipse 1538" cx="16.486" cy="16.486" r="16.486" transform="translate(179.274 42.573) rotate(-80.78)" fill="#ebebeb"/>
      <path id="Path_38924" data-name="Path 38924" d="M259.017,88.113A13.233,13.233,0,1,1,245.783,74.88,13.233,13.233,0,0,1,259.017,88.113Z" transform="translate(-47.608 -59.07)" fill="#fff" opacity="0.8"/>
      <path id="Path_38925" data-name="Path 38925" d="M248.189,92.5a1.344,1.344,0,1,1,1.9,0,1.344,1.344,0,0,1-1.9,0Z" transform="translate(-50.729 -62.207)" fill="#e0e0e0"/>
      <path id="Path_38926" data-name="Path 38926" d="M248.981,91.259l7.81-.239.024.811-7.078.215-.763,12.311-.8-.048Z" transform="translate(-50.806 -62.374)" fill="#e0e0e0"/>
    </g>
    <g id="freepik--Shadow--inject-66" transform="translate(44.623 332.847)">
      <ellipse id="freepik--path--inject-66" cx="154.197" cy="9.003" rx="154.197" ry="9.003" fill="#f5f5f5"/>
    </g>
    <g id="freepik--character-2--inject-66" transform="translate(191.899 143.793)">
      <path id="Path_38927" data-name="Path 38927" d="M408.987,335.009l4.04-64.306a41.482,41.482,0,0,0-41.4-44.082h0a41.481,41.481,0,0,0-41.41,39.138L326,340.87h76.744a6.259,6.259,0,0,0,6.243-5.861Z" transform="translate(-258.638 -178.927)" fill="#ffb224"/>
      <path id="Path_38928" data-name="Path 38928" d="M409.131,332.7l3.9-61.976a41.482,41.482,0,0,0-41.4-44.082h0a41.48,41.48,0,0,0-41.41,39.138L326,340.874h74.43A8.748,8.748,0,0,0,409.131,332.7Z" transform="translate(-258.638 -178.931)" opacity="0.1"/>
      <path id="Path_38929" data-name="Path 38929" d="M393.415,340.87l4.406-70.167a41.49,41.49,0,0,0-41.4-44.082h0a41.474,41.474,0,0,0-41.41,39.146l-4.239,75.1Z" transform="translate(-255.52 -178.927)" fill="#ffb224"/>
      <path id="Path_38930" data-name="Path 38930" d="M415.664,382.362h1.058a1.2,1.2,0,0,0,1.129-1.074l1.591-11H413l1.591,11a1.209,1.209,0,0,0,1.074,1.074Z" transform="translate(-276.449 -208.34)" fill="#ffb224"/>
      <path id="Path_38931" data-name="Path 38931" d="M415.664,382.362h1.058a1.2,1.2,0,0,0,1.129-1.074l1.591-11H413l1.591,11a1.209,1.209,0,0,0,1.074,1.074Z" transform="translate(-276.449 -208.34)" fill="#fff" opacity="0.7"/>
      <path id="Path_38932" data-name="Path 38932" d="M285.074,382.362h.954a1.145,1.145,0,0,0,1.026-1.074l1.439-11H282.64l1.424,11a1.145,1.145,0,0,0,1.01,1.074Z" transform="translate(-249.761 -208.34)" fill="#ffb224"/>
      <path id="Path_38933" data-name="Path 38933" d="M285.074,382.362h.954a1.145,1.145,0,0,0,1.026-1.074l1.439-11H282.64l1.424,11a1.145,1.145,0,0,0,1.01,1.074Z" transform="translate(-249.761 -208.34)" fill="#fff" opacity="0.5"/>
      <path id="Path_38934" data-name="Path 38934" d="M322.682,382.362h.962a1.145,1.145,0,0,0,1.026-1.074l1.416-11H320.24l1.4,11a1.145,1.145,0,0,0,1.042,1.074Z" transform="translate(-257.459 -208.34)" fill="#ffb224"/>
      <path id="Path_38935" data-name="Path 38935" d="M322.682,382.362h.962a1.145,1.145,0,0,0,1.026-1.074l1.416-11H320.24l1.4,11a1.145,1.145,0,0,0,1.042,1.074Z" transform="translate(-257.459 -208.34)" fill="#fff" opacity="0.7"/>
      <path id="Path_38936" data-name="Path 38936" d="M375.164,382.362h1.058a1.217,1.217,0,0,0,1.137-1.074l1.591-11H372.5l1.591,11a1.2,1.2,0,0,0,1.074,1.074Z" transform="translate(-268.157 -208.34)" fill="#ffb224"/>
      <path id="Path_38937" data-name="Path 38937" d="M375.164,382.362h1.058a1.217,1.217,0,0,0,1.137-1.074l1.591-11H372.5l1.591,11a1.2,1.2,0,0,0,1.074,1.074Z" transform="translate(-268.157 -208.34)" fill="#fff" opacity="0.5"/>
      <path id="Path_38938" data-name="Path 38938" d="M320.407,324.123h-28.28l-1.869-27.262-.406-5.853h0l-.183-2.7a17.934,17.934,0,0,0-.278-2.107,2.454,2.454,0,0,0-.1-.469,1.592,1.592,0,0,0-.087-.334,16.312,16.312,0,0,0-4.3-7.324,13.886,13.886,0,0,0-8.836-3.976h27.477a13.8,13.8,0,0,1,9.631,3.976,16.326,16.326,0,0,1,4.31,7.324,1.59,1.59,0,0,1,.088.334,17.949,17.949,0,0,1,.374,2.577l.183,2.7h0Z" transform="translate(-248.416 -188.647)" fill="#ffb224"/>
      <path id="Path_38939" data-name="Path 38939" d="M320.407,324.123h-28.28l-1.869-27.262-.406-5.853h0l-.183-2.7a17.934,17.934,0,0,0-.278-2.107,2.454,2.454,0,0,0-.1-.469,1.592,1.592,0,0,0-.087-.334,16.312,16.312,0,0,0-4.3-7.324,13.886,13.886,0,0,0-8.836-3.976h27.477a13.8,13.8,0,0,1,9.631,3.976,16.326,16.326,0,0,1,4.31,7.324,1.59,1.59,0,0,1,.088.334,17.949,17.949,0,0,1,.374,2.577l.183,2.7h0Z" transform="translate(-248.416 -188.647)" opacity="0.1"/>
      <g id="Group_38984" data-name="Group 38984" transform="translate(94.402 120.922)" opacity="0.1">
        <path id="Path_38940" data-name="Path 38940" d="M360,318.7h11.357c2.768,0,5,1.75,5,3.9v6.712c0,2.163-2.235,3.9-5,3.9H360Z" transform="translate(-360 -318.7)"/>
      </g>
      <rect id="Rectangle_20205" data-name="Rectangle 20205" width="58.644" height="14.53" rx="5.42" transform="translate(102.362 135.444) rotate(180)" fill="#ffb224"/>
      <path id="Path_38941" data-name="Path 38941" d="M436.364,290.12a16.112,16.112,0,0,1-13.369,15.906l-2.9,38.754c-.254,3.292-2.648,5.813-5.511,5.813H383.39c2.863,0,5.249-2.521,5.5-5.813l1.591-20.677,1.344-18.1a16.049,16.049,0,0,0,11.555-8.478,8.741,8.741,0,0,0,.422-.867,15.9,15.9,0,0,0,1.384-6.537,16.55,16.55,0,0,0-.334-3.285c-.087-.429-.2-.859-.318-1.28a16.343,16.343,0,0,0-2.672-5.241h0A16.152,16.152,0,0,0,389.084,274h31.191a15.826,15.826,0,0,1,7.2,1.7,15.994,15.994,0,0,1,5.567,4.589h0A16.073,16.073,0,0,1,436.364,290.12Z" transform="translate(-270.387 -188.627)" fill="#ffb224"/>
      <path id="Path_38942" data-name="Path 38942" d="M436.364,290.12a16.112,16.112,0,0,1-13.369,15.906l-2.9,38.754c-.254,3.292-2.648,5.813-5.511,5.813H383.39c2.863,0,5.249-2.521,5.5-5.813l1.591-20.677,1.344-18.1a16.049,16.049,0,0,0,11.555-8.478,8.741,8.741,0,0,0,.422-.867,15.9,15.9,0,0,0,1.384-6.537,16.55,16.55,0,0,0-.334-3.285c-.087-.429-.2-.859-.318-1.28a16.343,16.343,0,0,0-2.672-5.241h0A16.152,16.152,0,0,0,389.084,274h31.191a15.826,15.826,0,0,1,7.2,1.7,15.994,15.994,0,0,1,5.567,4.589h0A16.073,16.073,0,0,1,436.364,290.12Z" transform="translate(-270.387 -188.627)" opacity="0.1"/>
      <path id="Path_38943" data-name="Path 38943" d="M379.258,290.136c0,7.953-5.241,14.577-12.12,15.906l-2.656,38.746c-.231,3.292-2.386,5.821-4.994,5.821h-83.3c-2.593,0-4.772-2.529-4.994-5.821l-2.664-38.818c-6.744-1.416-11.842-7.953-11.842-15.81a17.146,17.146,0,0,1,2.7-9.313,15.111,15.111,0,0,1,5.384-5.1,13.321,13.321,0,0,1,6.529-1.71,13.87,13.87,0,0,1,9.639,3.976,16.287,16.287,0,0,1,4.3,7.317,1.739,1.739,0,0,1,.088.35,17.5,17.5,0,0,1,.374,2.569l.191,2.7h0l2.267,33.163h59.36l2.457-35.788c.35-5.058,2.815-9.273,6.235-11.269a13.52,13.52,0,0,1,7.563-2.935,7.959,7.959,0,0,1,.875-.04,13.226,13.226,0,0,1,6.362,1.591,1.23,1.23,0,0,1,.175.1,14.984,14.984,0,0,1,5.058,4.589h0A17.2,17.2,0,0,1,379.258,290.136Z" transform="translate(-244.449 -188.635)" fill="#ffb224"/>
      <path id="Path_38944" data-name="Path 38944" d="M346.135,350.58H276.15c-2.593,0-4.772-2.529-4.994-5.821l-2.664-38.818c-6.744-1.416-11.842-7.953-11.842-15.81a17.146,17.146,0,0,1,2.7-9.313,15.11,15.11,0,0,1,5.384-5.1,13.321,13.321,0,0,1,6.529-1.71,13.87,13.87,0,0,1,9.639,3.976,16.288,16.288,0,0,1,4.3,7.317,1.73,1.73,0,0,1,.087.35,17.5,17.5,0,0,1,.374,2.569l.191,2.7h0l2.3,33.187h59.36Z" transform="translate(-244.44 -188.629)" fill="#fff" opacity="0.1"/>
      <path id="Path_38945" data-name="Path 38945" d="M341.126,229.167c-1.384.8-2.648,1.455-3.976,2.131s-2.632,1.3-3.976,1.917c-2.672,1.217-5.376,2.386-8.16,3.4a89.721,89.721,0,0,1-8.557,2.7,54.739,54.739,0,0,1-9.193,1.646l-.66.064h-.31a74.426,74.426,0,0,1-7.794-1.352c-2.5-.557-4.97-1.105-7.42-1.734s-4.883-1.272-7.317-1.972-4.843-1.424-7.253-2.243l1.105-5.519c5,.318,10,.8,14.943,1.312l7.388.74c2.434.239,4.923.445,7.1.525h-.962a53.386,53.386,0,0,0,7.364-1.861c2.489-.8,4.978-1.7,7.468-2.768s4.955-2.163,7.4-3.332c1.257-.573,2.473-1.177,3.666-1.773s2.465-1.233,3.555-1.8Z" transform="translate(-248.506 -177.418)" fill="#263238"/>
      <path id="Path_38946" data-name="Path 38946" d="M341.126,229.167c-1.384.8-2.648,1.455-3.976,2.131s-2.632,1.3-3.976,1.917c-2.672,1.217-5.376,2.386-8.16,3.4a89.721,89.721,0,0,1-8.557,2.7,54.739,54.739,0,0,1-9.193,1.646l-.66.064h-.31a74.426,74.426,0,0,1-7.794-1.352c-2.5-.557-4.97-1.105-7.42-1.734s-4.883-1.272-7.317-1.972-4.843-1.424-7.253-2.243l1.105-5.519c5,.318,10,.8,14.943,1.312l7.388.74c2.434.239,4.923.445,7.1.525h-.962a53.386,53.386,0,0,0,7.364-1.861c2.489-.8,4.978-1.7,7.468-2.768s4.955-2.163,7.4-3.332c1.257-.573,2.473-1.177,3.666-1.773s2.465-1.233,3.555-1.8Z" transform="translate(-248.506 -177.418)" opacity="0.1"/>
      <path id="Path_38947" data-name="Path 38947" d="M275.109,226.217a13.591,13.591,0,0,0-3.849-1.877l-2.06,8.04,6.171,2.593.7-.859a5.48,5.48,0,0,0-.962-7.9Z" transform="translate(-247.01 -178.461)" fill="#ffc3bd"/>
      <path id="Path_38948" data-name="Path 38948" d="M267.8,231.572l2.06-8.04L264.1,220.39l-1.734,5.662Z" transform="translate(-245.611 -177.652)" fill="#ffc3bd"/>
      <path id="Path_38949" data-name="Path 38949" d="M333.41,238.922h.318c3.038-.326,11.969-1.829,18.427-8.2-.962-1.861-2.282-3.3-3.9-3.626C343.8,226.254,338.349,229.443,333.41,238.922Z" transform="translate(-260.155 -178.998)" opacity="0.2"/>
      <path id="Path_38950" data-name="Path 38950" d="M340,277.878c7.619-20.574,2.608-39.494,3.563-49.967a11.929,11.929,0,0,1,9.655-10.641c5.2-1,11.635-2.131,17.767-2.958a11.993,11.993,0,0,1,13.631,12.072c-.533,31.016-10.474,51.494-10.474,51.494l-16.065-.072Z" transform="translate(-261.504 -176.384)" fill="#ffb224"/>
      <path id="Path_38951" data-name="Path 38951" d="M340,277.878c7.619-20.574,2.608-39.494,3.563-49.967a11.929,11.929,0,0,1,9.655-10.641c5.2-1,11.635-2.131,17.767-2.958a11.993,11.993,0,0,1,13.631,12.072c-.533,31.016-10.474,51.494-10.474,51.494l-16.065-.072Z" transform="translate(-261.504 -176.384)" fill="#fff" opacity="0.8"/>
      <g id="freepik--character-2--inject-102--inject-66" transform="translate(0 96.642)">
        <path id="Path_38952" data-name="Path 38952" d="M262.836,382.54,260.8,395.925h6.466l4.247-13.385Z" transform="translate(-245.29 -307.49)" fill="#ffc3bd"/>
        <path id="Path_38953" data-name="Path 38953" d="M255.98,395.566l8.645-.207a.485.485,0,0,1,.541.477V402.2a1.455,1.455,0,0,1-1.424,1.3c-3.006,0-4.438-.111-8.239,0a97.2,97.2,0,0,1-12.1-.8c-3.078-.525-2.243-3.412-.851-3.459,6.283-.231,9.8-1.543,12.056-3.181a2.322,2.322,0,0,1,1.376-.493Z" transform="translate(-241.298 -310.113)" fill="#263238"/>
        <path id="Path_38954" data-name="Path 38954" d="M262.33,387.908l.819-5.368h8.677l-2.084,6.7Z" transform="translate(-245.603 -307.49)" opacity="0.2"/>
        <path id="Path_38955" data-name="Path 38955" d="M319.906,288.2s-52.608.525-53.427,17.186c-1.161,23.954-5.209,60.441-5.209,60.441l9.917,2.728s14.156-36.209,14.7-54.922c14.8-2.943,52.838,0,57.308-9.718a26.022,26.022,0,0,0,1.686-15.747Z" transform="translate(-245.386 -288.17)" fill="#ffb224"/>
        <path id="Path_38956" data-name="Path 38956" d="M319.906,288.2s-52.608.525-53.427,17.186c-1.161,23.954-5.209,60.441-5.209,60.441l9.917,2.728s14.156-36.209,14.7-54.922c14.8-2.943,52.838,0,57.308-9.718a26.022,26.022,0,0,0,1.686-15.747Z" transform="translate(-245.386 -288.17)" opacity="0.6"/>
        <path id="Path_38957" data-name="Path 38957" d="M321.56,388.929l3.507,9.082h7.094l-2.441-9.551Z" transform="translate(-257.729 -308.701)" fill="#ffc3bd"/>
        <path id="Path_38958" data-name="Path 38958" d="M329.989,389.9l-1.376-6.99-8.963,1.113,2.3,6.076Z" transform="translate(-257.338 -307.565)" opacity="0.2"/>
        <path id="Path_38959" data-name="Path 38959" d="M320.069,396.69h9.058a.557.557,0,0,1,.6.509h0l.437,6.784a1.4,1.4,0,0,1-1.408,1.368c-3.181-.056-4.66-.231-8.645-.231-2.442,0-7.388.239-10.768.239s-3.284-3.181-1.861-3.428c6.442-1.288,8.931-3.062,11.2-4.772A2.386,2.386,0,0,1,320.069,396.69Z" transform="translate(-254.655 -310.386)" fill="#263238"/>
        <path id="Path_38960" data-name="Path 38960" d="M340.8,288.208s-47.717,3.237-46.54,19.882c1.28,18.228,20.391,60.5,20.391,60.5h9.615s-6.362-38.348-9.289-56.926c13.456,0,44.639,2.028,49.124-7.714a26.077,26.077,0,0,0,1.67-15.746Z" transform="translate(-252.137 -288.176)" fill="#ffb224"/>
        <path id="Path_38961" data-name="Path 38961" d="M340.8,288.208s-47.717,3.237-46.54,19.882c1.28,18.228,20.391,60.5,20.391,60.5h9.615s-6.362-38.348-9.289-56.926c13.456,0,44.639,2.028,49.124-7.714a26.077,26.077,0,0,0,1.67-15.746Z" transform="translate(-252.137 -288.176)" opacity="0.5"/>
      </g>
      <path id="Path_38962" data-name="Path 38962" d="M360.423,200.75c1.1,4.247,1.439,9.543-4.493,11.73-1.646,2.624-2.449,5.392,3.889,4.406a19.516,19.516,0,0,0,12.8-7.237c-3.794-3.324-3.1-13.52-2.139-19.27Z" transform="translate(-264.526 -171.508)" fill="#ffc3bd"/>
      <path id="Path_38963" data-name="Path 38963" d="M356.2,213.14c-5.448.93-9.925,5.145-12.327,10.116s-2.982,10.633-2.935,16.16.676,11.031.525,16.55c-.167,6.362-1.7,10.871-3.9,16.868,0,1.424,2.155,2.227,3.976,2.6,3.8-8.295,6.3-16.232,6.036-25.345-.2-6.617-.286-14.156.8-20.677s8.883-15.039,8.51-16.216Z" transform="translate(-261.007 -176.168)" fill="#263238"/>
      <path id="Path_38964" data-name="Path 38964" d="M366.607,205.4a5.289,5.289,0,0,1-4.024.97,18.294,18.294,0,0,0-.223-3.086l6.585-5.408a14.894,14.894,0,0,1,.278,2.131A6.036,6.036,0,0,1,366.607,205.4Z" transform="translate(-266.082 -173.044)" opacity="0.3"/>
      <path id="Path_38965" data-name="Path 38965" d="M353.744,171.472c-6.959,3.937-7.03,15.063-4.883,21.473a9.639,9.639,0,0,0,16.884,2.831c3.4-4.3,2.911-8.645,2.744-16.12S360.711,167.543,353.744,171.472Z" transform="translate(-263.064 -167.345)" fill="#ffc3bd"/>
      <path id="Path_38966" data-name="Path 38966" d="M356.347,194.936c-2.243.962-4.7,2.211-6.967,1.94a9.631,9.631,0,0,0,16.7,2.386c2.807-3.531,3.674-5.917,2.879-12.343C364.6,192.026,361.142,192.869,356.347,194.936Z" transform="translate(-263.424 -170.8)" opacity="0.2"/>
      <path id="Path_38967" data-name="Path 38967" d="M366.357,174.232a6.362,6.362,0,0,0,.708,7.611c.628.66,1.4,1.169,2,1.845a5.44,5.44,0,0,1,1.368,3.865,3.976,3.976,0,0,1,3.778-3.364q-1.416,4.382-2.831,8.748a12.1,12.1,0,0,0,6.9-9.543C378.891,177.747,371.924,165.651,366.357,174.232Z" transform="translate(-266.707 -167.592)" fill="#263238"/>
      <path id="Path_38968" data-name="Path 38968" d="M345.881,173.68a4.875,4.875,0,0,0-1.105,2.076,1.924,1.924,0,0,0,.8,2.052,2.9,2.9,0,0,0,1.893.1l6.362-1.105c3.642-.636,7.285-1.264,10.879-2.131,1.591-.382,3.428-.994,4.064-2.521,2.06-4.971-6.736-5.615-9.679-5.479A19.087,19.087,0,0,0,345.881,173.68Z" transform="translate(-262.47 -166.65)" fill="#263238"/>
      <path id="Path_38969" data-name="Path 38969" d="M374.528,185.9c-2.084.469-2.974,3.467-2.919,5.392,0,2.187,1.591,3.611,3.436,2.29a6.736,6.736,0,0,0,2.609-4.2C378.027,187.325,376.62,185.432,374.528,185.9Z" transform="translate(-267.975 -170.577)" fill="#ffc3bd"/>
      <path id="Path_38970" data-name="Path 38970" d="M356.211,194.41a2.585,2.585,0,0,1-2.171.326c.8-1.8.7-1.392.946-4.446Z" transform="translate(-264.378 -171.49)" fill="#ed847e"/>
      <path id="Path_38971" data-name="Path 38971" d="M360.478,182.6a4.237,4.237,0,0,0-3.11-.8h0a.35.35,0,0,1-.39-.286.382.382,0,0,1,.3-.422,4.867,4.867,0,0,1,3.722,1h0a.358.358,0,0,1,0,.5.422.422,0,0,1-.159.1A.35.35,0,0,1,360.478,182.6Z" transform="translate(-264.979 -169.6)" fill="#263238"/>
      <path id="Path_38972" data-name="Path 38972" d="M348.4,184.266h0a.35.35,0,0,1-.1-.477,3.7,3.7,0,0,1,2.728-1.869h0a.326.326,0,0,1,.334.326.374.374,0,0,1-.342.39,3,3,0,0,0-2.147,1.5.358.358,0,0,1-.286.183.278.278,0,0,1-.191-.056Z" transform="translate(-263.193 -169.776)" fill="#263238"/>
      <path id="Path_38973" data-name="Path 38973" d="M356,198.676a30.042,30.042,0,0,1,2.107,3.054l.493-.207c2.243-.97,2.879-2.322,2.911-3.523a5.106,5.106,0,0,0-.851-2.68c-.8,1.376-2.807,2.473-3.9,3.006C356.286,198.557,356,198.676,356,198.676Z" transform="translate(-264.78 -172.52)" fill="#2e353a"/>
      <path id="Path_38974" data-name="Path 38974" d="M356.93,198.326l.326.445a.668.668,0,0,0,.8.215c1.654-.8,2.752-1.591,3.181-2.489a.644.644,0,0,0,0-.541,5.032,5.032,0,0,0-.366-.636A10,10,0,0,1,356.93,198.326Z" transform="translate(-264.97 -172.52)" fill="#fff"/>
      <path id="Path_38975" data-name="Path 38975" d="M359.25,202.213c2.243-.97,2.879-2.322,2.911-3.523a6.514,6.514,0,0,0-2.219,1.678A3.181,3.181,0,0,0,359.25,202.213Z" transform="translate(-265.445 -173.209)" fill="#de5753"/>
      <path id="Path_38976" data-name="Path 38976" d="M351.516,188c-.39.072-.6.628-.493,1.225s.533,1.026.923.946.6-.62.493-1.217A1.057,1.057,0,0,0,351.516,188Z" transform="translate(-263.755 -171.021)" fill="#263238"/>
      <path id="Path_38977" data-name="Path 38977" d="M360.1,186.618c-.39.072-.6.62-.493,1.225s.533,1.026.923.946.6-.628.493-1.225S360.485,186.546,360.1,186.618Z" transform="translate(-265.511 -170.736)" fill="#263238"/>
      <path id="Path_38978" data-name="Path 38978" d="M347.87,191.769l5.018-1.129.088,2.131-4.668,1.113Z" transform="translate(-263.115 -171.561)" fill="#fff" opacity="0.9"/>
      <g id="Group_38985" data-name="Group 38985" transform="translate(91.3 17.059)" opacity="0.8">
        <path id="Path_38979" data-name="Path 38979" d="M356.1,189.786l.6,1.956,6.442-1.384-.382-2.259Z" transform="translate(-356.1 -188.1)" fill="#fff" opacity="0.9"/>
      </g>
      <path id="Path_38980" data-name="Path 38980" d="M354.212,191.341l-.032-.787,1.527-.334.223.74Z" transform="translate(-264.407 -171.475)" fill="#263238"/>
      <path id="Path_38981" data-name="Path 38981" d="M351.92,276.591s9.058,3.507,11.134,4.191a26,26,0,0,0,7.452,1.71,9.146,9.146,0,0,0,7.054-2.632c2.163-2.306,2.839-5.806,3.4-9.09q2.481-14.466,4.978-28.932c.8-4.772,2.887-11.929,2.712-14.625-.326-5.01-3.515-10.927-11.635-14.18-3.181-1.265-6.275-.8-8.931,2.386-1.591,1.893-6.219,6.458-7.356,14.5-.907,6.442-2.322,14.784-2.235,21.329C358.6,259.851,355.165,270.7,351.92,276.591Z" transform="translate(-263.944 -176.013)" fill="#263238"/>
      <path id="Path_38982" data-name="Path 38982" d="M386.7,226.706c.923,8.382-3.714,29.513-4.6,30.785-3.8,12.255-14.243,5.646-15.755,5.082-2.632-.97-5.312-2.871-7.818-4.135-4.859-2.386-9.464-4.358-13.981-7.356l2.545-5.026c4.955,1.686,18.975,5.312,21.29,5.877,1,.262,4.907,2.306,4.867-.39.549-.9,1.312-18.4,2.99-24.59a5.216,5.216,0,0,1,.978-1.9l.151-.191a5.36,5.36,0,0,1,9.337,1.845Z" transform="translate(-262.433 -178.154)" fill="#263238"/>
      <path id="Path_38983" data-name="Path 38983" d="M386.7,226.706c.923,8.382-3.714,29.513-4.6,30.785-3.8,12.255-14.243,5.646-15.755,5.082-2.632-.97-5.312-2.871-7.818-4.135-4.859-2.386-9.464-4.358-13.981-7.356l2.545-5.026c4.955,1.686,18.975,5.312,21.29,5.877,1,.262,4.907,2.306,4.867-.39.549-.9,1.312-18.4,2.99-24.59a5.216,5.216,0,0,1,.978-1.9l.151-.191a5.36,5.36,0,0,1,9.337,1.845Z" transform="translate(-262.433 -178.154)" fill="#fff" opacity="0.1"/>
      <path id="Path_38984" data-name="Path 38984" d="M338.488,259.594h-23.54L312.26,228.88H335.8Z" transform="translate(-255.825 -179.39)" fill="#263238"/>
      <path id="Path_38985" data-name="Path 38985" d="M338.488,259.594h-23.54L312.26,228.88H335.8Z" transform="translate(-255.825 -179.39)" fill="#fff" opacity="0.5"/>
      <path id="Path_38986" data-name="Path 38986" d="M337.438,259.4H313.9L311.21,228.69h23.54Z" transform="translate(-255.61 -179.351)" fill="#ffb224"/>
      <path id="Path_38987" data-name="Path 38987" d="M337.438,259.4H313.9L311.21,228.69h23.54Z" transform="translate(-255.61 -179.351)" fill="#fff" opacity="0.8"/>
      <path id="Path_38988" data-name="Path 38988" d="M329.815,230.111h-9.9l-.334-3.841h9.893Z" transform="translate(-257.324 -178.856)" fill="#ffb224"/>
      <path id="Path_38989" data-name="Path 38989" d="M319.58,226.184l.97-.334H330.8l.143,1.63-.763.883-.048,1.336-.318.326-.342-3.841Z" transform="translate(-257.324 -178.77)" fill="#ffb224"/>
      <path id="Path_38990" data-name="Path 38990" d="M319.58,226.184l.97-.334H330.8l.143,1.63-.763.883-.048,1.336-.318.326-.342-3.841Z" transform="translate(-257.324 -178.77)" opacity="0.5"/>
      <path id="Path_38991" data-name="Path 38991" d="M348.032,253.3l.533,2.871c-1.272,3.316-8.565,2.442-8.565,2.442V250.13l6.434,1.5A2.147,2.147,0,0,1,348.032,253.3Z" transform="translate(-261.504 -183.74)" fill="#ffc3bd"/>
      <path id="Path_38992" data-name="Path 38992" d="M337.945,250.13l.032,8.5-6.458.159-1.479-7.476Z" transform="translate(-259.465 -183.74)" fill="#ffc3bd"/>
      <path id="Path_38993" data-name="Path 38993" d="M370.546,324.121,373,288.333c.35-5.058,2.815-9.273,6.235-11.269a13.52,13.52,0,0,1,7.563-2.935,7.936,7.936,0,0,1,.875-.04,13.226,13.226,0,0,1,6.362,1.591,1.226,1.226,0,0,1,.175.1,14.983,14.983,0,0,1,5.058,4.589h0a17.2,17.2,0,0,1,3.022,9.814c0,7.953-5.241,14.577-12.12,15.906L387.509,344.8c-.231,3.292-2.386,5.821-4.994,5.821H369.17Z" transform="translate(-267.476 -188.645)" fill="#ffb224"/>
      <path id="Path_38994" data-name="Path 38994" d="M370.546,324.121,373,288.333c.35-5.058,2.815-9.273,6.235-11.269a13.52,13.52,0,0,1,7.563-2.935,7.936,7.936,0,0,1,.875-.04,13.226,13.226,0,0,1,6.362,1.591,1.226,1.226,0,0,1,.175.1,14.983,14.983,0,0,1,5.058,4.589h0a17.2,17.2,0,0,1,3.022,9.814c0,7.953-5.241,14.577-12.12,15.906L387.509,344.8c-.231,3.292-2.386,5.821-4.994,5.821H369.17Z" transform="translate(-267.476 -188.645)" fill="#fff" opacity="0.1"/>
    </g>
    <g id="freepik--text-balloon--inject-66" transform="translate(110.544 98.987)">
      <path id="Path_38995" data-name="Path 38995" d="M203.316,126.8v33.251a3.181,3.181,0,0,1-3.181,3.181H166.082l-12.168,9.408a2.322,2.322,0,0,1-3.722-1.861v-7.547h-1.9a3.181,3.181,0,0,1-3.181-3.181V126.787a3.133,3.133,0,0,1,3.181-3.117h51.9a3.125,3.125,0,0,1,3.125,3.125Z" transform="translate(-140.251 -113.045)" fill="none" stroke="#ffb224" stroke-miterlimit="10" stroke-width="1"/>
      <rect id="Rectangle_20206" data-name="Rectangle 20206" width="6.497" height="0.795" transform="translate(24.678 5.941)" fill="#ffb224"/>
      <path id="Path_38996" data-name="Path 38996" d="M139.8,127.146H139v-3.921a5.464,5.464,0,0,1,5.464-5.456h14.5v.8H144.448a4.676,4.676,0,0,0-4.668,4.66Z" transform="translate(-139 -111.837)" fill="#ffb224"/>
      <path id="Path_38997" data-name="Path 38997" d="M196.045,145.294a2.505,2.505,0,0,1-2.513-2.688h0c.851-9.694,8.533-10.585,9.5-21.608.278-3.181-.883-4.374-3.1-4.374s-3.587,1.2-3.865,4.374l-.159,1.813a3.285,3.285,0,0,1-3.277,3h0a3.284,3.284,0,0,1-3.269-3.571l.072-.8c.62-7.094,4.462-11.134,11.245-11.134s9.909,4.056,9.289,11.134c-1.01,11.492-9.4,13.273-10.116,21.377a.606.606,0,0,1,0,.119,2.529,2.529,0,0,1-2.513,2.386Zm3.444,6.744h0a3.34,3.34,0,0,1-3.332,3.054h0a3.34,3.34,0,0,1-3.332-3.634h0a3.34,3.34,0,0,1,3.34-3.054h0a3.348,3.348,0,0,1,3.324,3.634Z" transform="translate(-149.307 -110.31)" fill="#ffb224"/>
      <path id="Path_38998" data-name="Path 38998" d="M181.382,143.691H163.091a1.591,1.591,0,0,1,0-3.181h18.291a1.591,1.591,0,0,1,0,3.181Z" transform="translate(-143.606 -116.493)" fill="#ffb224"/>
      <path id="Path_38999" data-name="Path 38999" d="M178.861,151.611H163.131a1.591,1.591,0,0,1,0-3.181h15.731a1.591,1.591,0,0,1,0,3.181Z" transform="translate(-143.614 -118.114)" fill="#ffb224"/>
      <path id="Path_39000" data-name="Path 39000" d="M176.332,159.521h-13.2a1.591,1.591,0,0,1,0-3.181h13.2a1.591,1.591,0,1,1,0,3.181Z" transform="translate(-143.614 -119.733)" fill="#ffb224"/>
    </g>
    <g id="freepik--character-1--inject-66" transform="translate(36.185 157.962)">
      <path id="Path_39001" data-name="Path 39001" d="M128.771,323.51H117.152c-2.831,0-5.122,1.789-5.122,3.976v6.871c0,2.211,2.29,3.976,5.122,3.976h11.619Z" transform="translate(-59.12 -212.931)" fill="#ffb224"/>
      <path id="Path_39002" data-name="Path 39002" d="M64.119,336.3l-4.04-64.306a41.474,41.474,0,0,1,41.394-44.074h0a41.482,41.482,0,0,1,41.418,39.146l4.231,75.1H70.338A6.259,6.259,0,0,1,64.119,336.3Z" transform="translate(-48.468 -193.362)" fill="#ffb224"/>
      <path id="Path_39003" data-name="Path 39003" d="M63.976,333.97l-3.9-61.976a41.474,41.474,0,0,1,41.394-44.074h0a41.482,41.482,0,0,1,41.418,39.146l4.231,75.1h-74.4A8.748,8.748,0,0,1,63.976,333.97Z" transform="translate(-48.468 -193.362)" opacity="0.1"/>
      <path id="Path_39004" data-name="Path 39004" d="M79.685,342.17l-4.406-70.175a41.474,41.474,0,0,1,41.4-44.074h0a41.48,41.48,0,0,1,41.41,39.138l4.239,75.112Z" transform="translate(-51.58 -193.362)" fill="#ffb224"/>
      <path id="Path_39005" data-name="Path 39005" d="M78.206,383.66H77.148a1.225,1.225,0,0,1-1.137-1.082l-1.591-11h6.45l-1.591,11a1.209,1.209,0,0,1-1.074,1.082Z" transform="translate(-51.421 -222.772)" fill="#ffb224"/>
      <path id="Path_39006" data-name="Path 39006" d="M78.206,383.66H77.148a1.225,1.225,0,0,1-1.137-1.082l-1.591-11h6.45l-1.591,11a1.209,1.209,0,0,1-1.074,1.082Z" transform="translate(-51.421 -222.772)" fill="#fff" opacity="0.7"/>
      <path id="Path_39007" data-name="Path 39007" d="M208.954,383.66h-.962a1.153,1.153,0,0,1-1.026-1.082l-1.416-11H211.4l-1.416,11A1.153,1.153,0,0,1,208.954,383.66Z" transform="translate(-78.266 -222.772)" fill="#ffb224"/>
      <path id="Path_39008" data-name="Path 39008" d="M208.954,383.66h-.962a1.153,1.153,0,0,1-1.026-1.082l-1.416-11H211.4l-1.416,11A1.153,1.153,0,0,1,208.954,383.66Z" transform="translate(-78.266 -222.772)" fill="#fff" opacity="0.5"/>
      <path id="Path_39009" data-name="Path 39009" d="M171.34,383.66h-.97a1.153,1.153,0,0,1-1.026-1.082l-1.424-11h5.853l-1.416,11a1.161,1.161,0,0,1-1.018,1.082Z" transform="translate(-70.562 -222.772)" fill="#ffb224"/>
      <path id="Path_39010" data-name="Path 39010" d="M171.34,383.66h-.97a1.153,1.153,0,0,1-1.026-1.082l-1.424-11h5.853l-1.416,11a1.161,1.161,0,0,1-1.018,1.082Z" transform="translate(-70.562 -222.772)" fill="#fff" opacity="0.7"/>
      <path id="Path_39011" data-name="Path 39011" d="M118.706,383.66h-1.058a1.217,1.217,0,0,1-1.137-1.082l-1.591-11h6.45l-1.591,11a1.209,1.209,0,0,1-1.074,1.082Z" transform="translate(-59.712 -222.772)" fill="#ffb224"/>
      <path id="Path_39012" data-name="Path 39012" d="M118.706,383.66h-1.058a1.217,1.217,0,0,1-1.137-1.082l-1.591-11h6.45l-1.591,11a1.209,1.209,0,0,1-1.074,1.082Z" transform="translate(-59.712 -222.772)" fill="#fff" opacity="0.5"/>
      <path id="Path_39013" data-name="Path 39013" d="M163.71,325.381h28.28l1.869-27.238.4-5.853h0l.191-2.7a18.164,18.164,0,0,1,.27-2.107,2.4,2.4,0,0,1,.1-.461,1.661,1.661,0,0,1,.087-.342,16.287,16.287,0,0,1,4.3-7.317,13.877,13.877,0,0,1,8.828-3.976H180.562a13.838,13.838,0,0,0-9.639,3.976,16.288,16.288,0,0,0-4.3,7.317,1.658,1.658,0,0,0-.088.342,17.838,17.838,0,0,0-.374,2.569l-.183,2.7h0Z" transform="translate(-69.7 -203.08)" fill="#ffb224"/>
      <path id="Path_39014" data-name="Path 39014" d="M163.71,325.381h28.28l1.869-27.238.4-5.853h0l.191-2.7a18.164,18.164,0,0,1,.27-2.107,2.4,2.4,0,0,1,.1-.461,1.661,1.661,0,0,1,.087-.342,16.287,16.287,0,0,1,4.3-7.317,13.877,13.877,0,0,1,8.828-3.976H180.562a13.838,13.838,0,0,0-9.639,3.976,16.288,16.288,0,0,0-4.3,7.317,1.658,1.658,0,0,0-.088.342,17.838,17.838,0,0,0-.374,2.569l-.183,2.7h0Z" transform="translate(-69.7 -203.08)" opacity="0.1"/>
      <g id="Group_38986" data-name="Group 38986" transform="translate(55.24 107.787)" opacity="0.1">
        <path id="Path_39015" data-name="Path 39015" d="M131.319,320H119.954c-2.76,0-4.994,1.75-4.994,3.9v6.72c0,2.155,2.235,3.9,4.994,3.9h11.365Z" transform="translate(-114.96 -320)"/>
      </g>
      <rect id="Rectangle_20207" data-name="Rectangle 20207" width="58.644" height="14.53" rx="5.42" transform="translate(63.638 107.779)" fill="#ffb224"/>
      <path id="Path_39016" data-name="Path 39016" d="M45.5,291.424A16.112,16.112,0,0,0,58.869,307.33L61.8,346.052c.254,3.293,2.64,5.821,5.5,5.821h31.2c-2.863,0-5.249-2.529-5.5-5.821l-1.591-20.677-1.368-18.061A16.1,16.1,0,0,1,78.5,298.828c-.151-.286-.286-.581-.414-.875a15.834,15.834,0,0,1-1.392-6.529,16.047,16.047,0,0,1,.341-3.289c.088-.433.2-.862.311-1.276a16.478,16.478,0,0,1,2.68-5.249h0a16.168,16.168,0,0,1,5.567-4.589,15.969,15.969,0,0,1,7.158-1.7H61.612a16.143,16.143,0,0,0-12.78,6.291h0A16.073,16.073,0,0,0,45.5,291.424Z" transform="translate(-45.5 -203.066)" fill="#ffb224"/>
      <path id="Path_39017" data-name="Path 39017" d="M45.5,291.424A16.112,16.112,0,0,0,58.869,307.33L61.8,346.052c.254,3.293,2.64,5.821,5.5,5.821h31.2c-2.863,0-5.249-2.529-5.5-5.821l-1.591-20.677-1.368-18.061A16.1,16.1,0,0,1,78.5,298.828c-.151-.286-.286-.581-.414-.875a15.834,15.834,0,0,1-1.392-6.529,16.047,16.047,0,0,1,.341-3.289c.088-.433.2-.862.311-1.276a16.478,16.478,0,0,1,2.68-5.249h0a16.168,16.168,0,0,1,5.567-4.589,15.969,15.969,0,0,1,7.158-1.7H61.612a16.143,16.143,0,0,0-12.78,6.291h0A16.073,16.073,0,0,0,45.5,291.424Z" transform="translate(-45.5 -203.066)" opacity="0.1"/>
      <path id="Path_39018" data-name="Path 39018" d="M84.72,291.431c0,7.953,5.241,14.585,12.12,15.906L99.5,346.09c.231,3.3,2.386,5.821,4.994,5.821h83.3c2.593,0,4.772-2.521,4.994-5.821l2.664-38.81c6.736-1.416,11.834-7.953,11.834-15.818a17.146,17.146,0,0,0-2.688-9.313,15.159,15.159,0,0,0-5.392-5.1,13.393,13.393,0,0,0-6.521-1.7,13.822,13.822,0,0,0-9.639,3.976,16.327,16.327,0,0,0-4.31,7.317,2.386,2.386,0,0,0-.08.342,16.8,16.8,0,0,0-.374,2.569l-.191,2.7h0l-2.267,33.115H116.46L114,289.578c-.358-5.058-2.815-9.273-6.235-11.269a13.631,13.631,0,0,0-7.563-2.935h-.875a13.226,13.226,0,0,0-6.362,1.591.956.956,0,0,0-.183.087,15.215,15.215,0,0,0-5.058,4.589h0A17.146,17.146,0,0,0,84.72,291.431Z" transform="translate(-53.529 -203.072)" fill="#ffb224"/>
      <path id="Path_39019" data-name="Path 39019" d="M126,351.872h69.985c2.593,0,4.772-2.521,4.994-5.821l2.664-38.81c6.736-1.416,11.834-7.953,11.834-15.818a17.146,17.146,0,0,0-2.688-9.313,15.158,15.158,0,0,0-5.392-5.1,13.392,13.392,0,0,0-6.521-1.7,13.822,13.822,0,0,0-9.639,3.976,16.327,16.327,0,0,0-4.31,7.317,2.382,2.382,0,0,0-.079.342,16.79,16.79,0,0,0-.374,2.569l-.191,2.7h0l-2.267,33.115H124.63Z" transform="translate(-61.7 -203.064)" fill="#fff" opacity="0.1"/>
      <path id="Path_39020" data-name="Path 39020" d="M153.13,384.685l6.784,1.877,6.092-15.945-6.784-1.877Z" transform="translate(-67.534 -222.191)" fill="#ffc3bd"/>
      <path id="Path_39021" data-name="Path 39021" d="M162.349,387.793a3.539,3.539,0,0,0-2.171-1.32l-6.959-1.36a.644.644,0,0,0-.8.429l-2.155,6.362a1.392,1.392,0,0,0,.851,1.781h.048c2.577,1.018,4.318.668,8.342,1.447,2.489.477,7.7,2.131,11.182,1.988s3.475-3.587,2.012-3.841A17.791,17.791,0,0,1,162.349,387.793Z" transform="translate(-66.932 -225.538)" fill="#263238"/>
      <g id="Group_38987" data-name="Group 38987" transform="translate(88.546 146.549)" opacity="0.2">
        <path id="Path_39022" data-name="Path 39022" d="M166.765,370.625l-3.141,8.223-6.784-1.893,3.133-8.215Z" transform="translate(-156.84 -368.74)"/>
      </g>
      <path id="Path_39023" data-name="Path 39023" d="M135.729,293.327s40.846-.223,39.573,13.456c-.859,9.241-5.3,18.951-8.748,28.328-5.018,13.591-9.368,25.449-9.368,25.449l-9.3-3.221s8.358-39.3,13.989-43.327H127.331c-11.428,0-16.367-12.55-5.241-27.183C128.889,286.854,135.729,293.327,135.729,293.327Z" transform="translate(-59.899 -205.422)" fill="#ffb224"/>
      <path id="Path_39024" data-name="Path 39024" d="M135.729,293.323s40.846-.223,39.573,13.456c.628,8.5-18.124,53.761-18.124,53.761l-9.3-3.221s8.358-39.3,13.989-43.327H127.331c-11.428,0-16.367-12.549-5.241-27.183C128.889,286.85,135.729,293.323,135.729,293.323Z" transform="translate(-59.899 -205.418)" opacity="0.6"/>
      <path id="Path_39025" data-name="Path 39025" d="M169.5,257.028c-5.026,4.589-14.9-6.275-16.486-7.563-3.4-2.783-13.408-12.12-12.884-15.365,1.591-9.543,17.242,3.976,21.767,13.3Z" transform="translate(-64.87 -193.959)" fill="#263238"/>
      <path id="Path_39026" data-name="Path 39026" d="M119.216,227.564c-2.521.533-5.249-.374-7.022,1.5a11.8,11.8,0,0,0-2.768,7.054,46.921,46.921,0,0,0,.557,10.7q.8,6.466,1.662,12.923a38.428,38.428,0,0,1-.406,10.633h0a1.71,1.71,0,0,0,.97,1.853s19.556.668,25.242.453c3.022-.111.946-8.064,1.877-12.725.207-1.034,2.227-5.281,2.529-6.362,1.4-5.13.469-8.661-.8-13.814-.946-3.746-1.336-9.146-3.245-9.543C134.382,229.529,126.231,226.069,119.216,227.564Z" transform="translate(-58.568 -193.213)" fill="#ffb224"/>
      <path id="Path_39027" data-name="Path 39027" d="M119.216,227.564c-2.521.533-5.249-.374-7.022,1.5a11.8,11.8,0,0,0-2.768,7.054,46.921,46.921,0,0,0,.557,10.7q.8,6.466,1.662,12.923a38.428,38.428,0,0,1-.406,10.633h0a1.71,1.71,0,0,0,.97,1.853s19.556.668,25.242.453c3.022-.111.946-8.064,1.877-12.725.207-1.034,2.227-5.281,2.529-6.362,1.4-5.13.469-8.661-.8-13.814-.946-3.746-1.336-9.146-3.245-9.543C134.382,229.529,126.231,226.069,119.216,227.564Z" transform="translate(-58.568 -193.213)" fill="#fff" opacity="0.8"/>
      <path id="Path_39028" data-name="Path 39028" d="M115.968,231.584c-.262-.4-7.158-6.187-8.39.5-1.742,9.313,1.861,18.474,1.861,18.474s.8,10.076,3.754,11.086,5.71,1.257,6.7-.469a10.235,10.235,0,0,0,.986-4.3S120.541,238.519,115.968,231.584Z" transform="translate(-58.111 -193.558)" fill="#263238"/>
      <path id="Path_39029" data-name="Path 39029" d="M123.788,211.59c.708,4.287,1.3,12.12-1.758,14.88a40.216,40.216,0,0,1,12.4,10.76,6.482,6.482,0,0,0,2.275-7.237,6.315,6.315,0,0,0-3.181-3.8c-2.9-1.591-2.624-4.6-1.829-7.412Z" transform="translate(-61.167 -190.019)" fill="#e8bfbf"/>
      <path id="Path_39030" data-name="Path 39030" d="M125.47,220.74l2.791,1.074a9.153,9.153,0,0,0,3.754.6h0a5.981,5.981,0,0,0,0,2.656,5.36,5.36,0,0,1-5.567-1.781A9.217,9.217,0,0,1,125.47,220.74Z" transform="translate(-61.872 -191.892)" opacity="0.2"/>
      <path id="Path_39031" data-name="Path 39031" d="M211.181,366.643h7.6l-7.961-19.063-5.153,8.748Z" transform="translate(-78.29 -217.859)" fill="#ffc3bd"/>
      <path id="Path_39032" data-name="Path 39032" d="M218.228,368.753l-8.915-2.028a.628.628,0,0,0-.748.406l-2.489,6.855a1.368,1.368,0,0,0,.938,1.694h0c3.125.652,4.66.8,8.581,1.694,2.386.549,8.525,2.155,11.858,2.911s4.207-2.505,2.879-3.125c-5.949-2.752-9.17-5.384-10.9-7.627a2.148,2.148,0,0,0-1.209-.779Z" transform="translate(-78.362 -221.774)" fill="#263238"/>
      <g id="Group_38988" data-name="Group 38988" transform="translate(127.38 129.721)" opacity="0.2">
        <path id="Path_39033" data-name="Path 39033" d="M210.823,347.58l3.388,8.12-6.839,3.817-1.7-3.181Z" transform="translate(-205.67 -347.58)"/>
      </g>
      <path id="Path_39034" data-name="Path 39034" d="M111.329,283.875l-.8,2.593c-.1.2.127.406.461.422l29.425.891c.27,0,.485-.111.509-.278l.342-2.609c0-.175-.207-.334-.485-.35l-28.948-.875A.533.533,0,0,0,111.329,283.875Z" transform="translate(-58.809 -204.774)" fill="#263238"/>
      <path id="Path_39035" data-name="Path 39035" d="M147.2,304.648c-9.679,4.127-20.176,8.247-25.886,8.247-11.436,0-21.592-8.255-10.768-27.039,6.808,0,18.633.191,18.633.191s22.268-6.362,38.476-4.485a18.291,18.291,0,0,1,15.818,14.593c4.1,20.677,10.426,43.04,10.426,43.04l-8.136,5.567S173.076,318.1,165.776,296.95C161.911,298.166,154.809,301.4,147.2,304.648Z" transform="translate(-57.872 -204.273)" fill="#ffb224"/>
      <path id="Path_39036" data-name="Path 39036" d="M183.451,296.152a18.291,18.291,0,0,0-15.818-14.609c-16.176-1.845-38.476,4.485-38.476,4.485s-11.826-.215-18.633-.191c-11,18.7-.668,27.039,10.768,27.039,5.71,0,16.208-4.12,25.886-8.247,7.611-3.245,14.713-6.482,18.578-7.722,7.3,21.17,19.985,47.844,19.985,47.844l8.136-5.567S187.554,316.83,183.451,296.152Z" transform="translate(-57.852 -204.271)" opacity="0.5"/>
      <path id="Path_39037" data-name="Path 39037" d="M188.688,309.75a76.084,76.084,0,0,1-1.193,7.913c-.04-.087-.072-.167-.1-.254s0-.04,0-.064a1.428,1.428,0,0,0-.1-.254c-2.163-5.376-4.279-10.887-6.068-16.081h.056C185.9,302.974,189.061,305.774,188.688,309.75Z" transform="translate(-73.285 -208.325)" fill="#ffb224"/>
      <path id="Path_39038" data-name="Path 39038" d="M188.688,309.75a76.084,76.084,0,0,1-1.193,7.913c-.04-.087-.072-.167-.1-.254s0-.04,0-.064a1.428,1.428,0,0,0-.1-.254c-2.163-5.376-4.279-10.887-6.068-16.081h.056C185.9,302.974,189.061,305.774,188.688,309.75Z" transform="translate(-73.285 -208.325)" opacity="0.6"/>
      <path id="Path_39039" data-name="Path 39039" d="M117.525,203.031c2.386,6.72,3.261,9.615,7.73,12.136,6.736,3.8,14.45-.62,14.116-7.953-.3-6.561-4.159-16.454-11.635-17.25A9.726,9.726,0,0,0,117.525,203Z" transform="translate(-60.122 -185.579)" fill="#e8bfbf"/>
      <path id="Path_39040" data-name="Path 39040" d="M132.854,204.994c.167.581.588.923.954.8s.509-.636.366-1.2-.581-.923-.954-.8S132.695,204.438,132.854,204.994Z" transform="translate(-63.37 -188.418)" fill="#263238"/>
      <path id="Path_39041" data-name="Path 39041" d="M140.7,202.514c.167.589.588.93.954.8s.509-.636.366-1.2-.589-.923-.946-.8A.954.954,0,0,0,140.7,202.514Z" transform="translate(-64.978 -187.91)" fill="#263238"/>
      <path id="Path_39042" data-name="Path 39042" d="M141,201.225l1.225-.8S141.835,201.679,141,201.225Z" transform="translate(-65.051 -187.734)" fill="#263238"/>
      <path id="Path_39043" data-name="Path 39043" d="M137.91,204.43a15.517,15.517,0,0,0,3.006,2.99,2.465,2.465,0,0,1-1.885.915Z" transform="translate(-64.418 -188.553)" fill="#ed847e"/>
      <path id="Path_39044" data-name="Path 39044" d="M111.308,209.276a20.206,20.206,0,0,1,1.105,3.746A5.193,5.193,0,0,1,108,218.43a4.986,4.986,0,0,0,5.75-2.6,6.784,6.784,0,0,1-3.364,3.706,7.213,7.213,0,0,0,5.766-2.776c-.374.97-.8,1.933-1.129,2.9a12.462,12.462,0,0,0,4.493-4.708,2.389,2.389,0,0,0,.183-2.529c-.557-.7-1.439-.652-2.251-.668s-1.789-.207-2.084-.962a1.935,1.935,0,0,1,.835-2.028,4.14,4.14,0,0,0,1.511-1.75,3.292,3.292,0,0,0-.111-1.638q-.549-2.195-1.082-4.4a4.565,4.565,0,0,0-.549-1.471c-1.591-2.386-3.364,1.113-3.976,2.3a10.426,10.426,0,0,0-.684,7.468Z" transform="translate(-58.295 -187.379)" fill="#263238"/>
      <path id="Path_39045" data-name="Path 39045" d="M116.934,213.62a5.614,5.614,0,0,0,3.69,2.139c1.948.239,2.632-1.591,1.853-3.253-.708-1.527-2.569-3.475-4.406-2.958A2.511,2.511,0,0,0,116.934,213.62Z" transform="translate(-60 -189.584)" fill="#e8bfbf"/>
      <path id="Path_39046" data-name="Path 39046" d="M132.1,199.165a.374.374,0,0,1-.294.3,4.239,4.239,0,0,0-2.513,2.235.366.366,0,0,1-.477.183.358.358,0,0,1-.175-.469c.072-.072,1.058-2.275,3.03-2.656a.366.366,0,0,1,.414.286.207.207,0,0,1,.016.119Z" transform="translate(-62.515 -187.391)" fill="#263238"/>
      <path id="Path_39047" data-name="Path 39047" d="M138.194,197.269a.39.39,0,0,0-.3.08c-.087.1-.382.262-.215.35.97.493,2.314,1.3,3.348,1.137.175,0,.589-.183.5-.31a.509.509,0,0,0-.477-.151c-.8.111-1.917-.66-2.68-1.058a.716.716,0,0,0-.175-.048Z" transform="translate(-64.36 -187.086)" fill="#263238"/>
      <path id="Path_39048" data-name="Path 39048" d="M133.14,203.7l1.233-.8S133.983,204.165,133.14,203.7Z" transform="translate(-63.442 -188.24)" fill="#263238"/>
      <path id="Path_39049" data-name="Path 39049" d="M128.3,186.134a17.091,17.091,0,0,0-5.813-.5,13.727,13.727,0,0,0-7.706,2.664,12.565,12.565,0,0,0-4.207,6.728,19.445,19.445,0,0,0-.207,8.016,5.217,5.217,0,0,0,1.543,3.356,20.4,20.4,0,0,1,.724-4.223,6.871,6.871,0,0,1,2.386-3.507,3.73,3.73,0,0,0,1.272-1.129,4.636,4.636,0,0,0,.286-1.447,4.469,4.469,0,0,1,1.861-2.728,15.263,15.263,0,0,1,3-1.543c3.348-1.439,7-2.267,10.084-4.207A14.611,14.611,0,0,0,128.3,186.134Z" transform="translate(-58.714 -184.692)" fill="#263238"/>
      <path id="Path_39050" data-name="Path 39050" d="M115.174,196.55a5.265,5.265,0,0,0,2.839,1.773c1.32.3,4.621.223,4.819-.119s-.978-4.048-2.314-4.271a9.019,9.019,0,0,0,3.229,2,10.545,10.545,0,0,0,4.135,0c.7-.159-.867-3.054-2-3.881,3.428.716,7.054,1.535,9.543,3.976s3.563,6.307,3.436,9.909a4.931,4.931,0,0,0,1.837-3.913,14.609,14.609,0,0,1-1.01,11.349c3.642-2.99,5-8.215,4.048-12.828s-3.976-8.629-7.643-11.579c-3.181-2.521-6.967-4.406-11-4.5C119.8,184.31,110,190.322,115.174,196.55Z" transform="translate(-59.464 -184.466)" fill="#263238"/>
      <path id="Path_39051" data-name="Path 39051" d="M118.177,223.9c0-.262.064-.612.1-.978a3.4,3.4,0,0,0-2.768-3.626h0a1.408,1.408,0,0,1-1.082-.923c-.612-1.781-.851-2.322-1.439-4.072-1.591-.39-3.507.207-5.169.382a14.49,14.49,0,0,0-.1,6.076,2.728,2.728,0,0,0,.509,1.241,21.688,21.688,0,0,0,4.963,3.054C114.622,225.486,116.634,224.031,118.177,223.9Z" transform="translate(-58.181 -190.547)" fill="#e8bfbf"/>
      <path id="Path_39052" data-name="Path 39052" d="M114.389,227.461s-4.382,28.272.135,32.606c2.648,2.529,4.939,1.129,6.362-.453a5.646,5.646,0,0,0,1.384-4.358l-3.078-28.964S116.17,224.5,114.389,227.461Z" transform="translate(-59.212 -192.919)" fill="#e8bfbf"/>
      <path id="Path_39053" data-name="Path 39053" d="M172.995,253.744A12.009,12.009,0,0,0,176.7,247.8a11.6,11.6,0,0,0,.159-2.465,137.065,137.065,0,0,0-1.487-14.514l-4.159-1.376s-1.3,7.158-1.591,11.07c-.056.8-.143,1.678-.239,2.64-.183,1.75-.406,3.674-.6,5.273Z" transform="translate(-70.738 -193.673)" fill="#e8bfbf"/>
      <path id="Path_39054" data-name="Path 39054" d="M175.076,259.893c1.28-1.169,1.5-2.585,2.155-5.567.628-2.847-.08-6.362-.668-5.829a.573.573,0,0,0-.159.247c-1.01,2.386-4.939.294-6.052-.9a8.121,8.121,0,0,1-1.257-1.527,1.28,1.28,0,0,1,0-1.447c-1.209-.5-2.179,4.255-1.591,5.424l.3.883a12.3,12.3,0,0,0,2.179,3.929l2.187,2.632Z" transform="translate(-70.441 -196.825)" fill="#263238"/>
      <path id="Path_39055" data-name="Path 39055" d="M171.573,228.319l-.493-7.269a29.53,29.53,0,0,0,3.976,1.551c2.02.692,4.772-.525,4.135.8a55.267,55.267,0,0,1-3.388,5.694Z" transform="translate(-71.209 -191.956)" fill="#e8bfbf"/>
      <path id="Path_39056" data-name="Path 39056" d="M171.08,219.177,174.2,211.9l4.072,2.489c1.121,2.434.986,7.158.986,7.158S173.593,221.769,171.08,219.177Z" transform="translate(-71.209 -190.082)" fill="#e8bfbf"/>
      <path id="Path_39057" data-name="Path 39057" d="M137.3,213.722c.1.517.477.883.8.8s.517-.549.406-1.066-.477-.883-.8-.8S137.191,213.237,137.3,213.722Z" transform="translate(-64.287 -190.235)" fill="#263238"/>
      <path id="Path_39058" data-name="Path 39058" d="M116.455,325.381,114,289.594c-.358-5.058-2.815-9.273-6.235-11.269a13.631,13.631,0,0,0-7.563-2.934h-.875a13.226,13.226,0,0,0-6.362,1.591.957.957,0,0,0-.183.087,15.214,15.214,0,0,0-5.058,4.589h0A17.146,17.146,0,0,0,84.7,291.47c0,7.953,5.241,14.585,12.12,15.906l2.656,38.754c.231,3.3,2.386,5.821,4.994,5.821h13.337Z" transform="translate(-53.525 -203.08)" fill="#ffb224"/>
      <path id="Path_39059" data-name="Path 39059" d="M116.455,325.381,114,289.594c-.358-5.058-2.815-9.273-6.235-11.269a13.631,13.631,0,0,0-7.563-2.934h-.875a13.226,13.226,0,0,0-6.362,1.591.957.957,0,0,0-.183.087,15.214,15.214,0,0,0-5.058,4.589h0A17.146,17.146,0,0,0,84.7,291.47c0,7.953,5.241,14.585,12.12,15.906l2.656,38.754c.231,3.3,2.386,5.821,4.994,5.821h13.337Z" transform="translate(-53.525 -203.08)" fill="#fff" opacity="0.1"/>
    </g>
    <g id="freepik--Table--inject-66" transform="translate(104.977 247.099)">
      <ellipse id="Ellipse_1539" data-name="Ellipse 1539" cx="26.674" cy="6.823" rx="26.674" ry="6.823" transform="translate(62.525 84.904)" fill="#263238"/>
      <ellipse id="Ellipse_1540" data-name="Ellipse 1540" cx="26.674" cy="5.686" rx="26.674" ry="5.686" transform="translate(62.525 84.904)" fill="#fff" opacity="0.3"/>
      <path id="Path_39060" data-name="Path 39060" d="M244.486,396.32H240.08l-5.09-54.89h14.585Z" transform="translate(-153.084 -305.738)" fill="#263238"/>
      <path id="Path_39061" data-name="Path 39061" d="M249.575,340.685c0,1.591-3.261,2.895-7.293,2.895s-7.293-1.3-7.293-2.895,3.269-2.895,7.293-2.895S249.575,339.086,249.575,340.685Z" transform="translate(-153.084 -304.992)" fill="#263238"/>
      <path id="Path_39062" data-name="Path 39062" d="M249.575,340.685c0,1.591-3.261,2.895-7.293,2.895s-7.293-1.3-7.293-2.895,3.269-2.895,7.293-2.895S249.575,339.086,249.575,340.685Z" transform="translate(-153.084 -304.992)" fill="#fff" opacity="0.7"/>
      <path id="Path_39063" data-name="Path 39063" d="M132,342.068a2.465,2.465,0,0,1,.851-1.718c6.163,6.2,45.267,10.983,92.586,10.983s86.423-4.772,92.594-10.983a2.465,2.465,0,0,1,.851,1.718c0,7.006-41.84,12.724-93.445,12.724S132,349.074,132,342.068Z" transform="translate(-132 -305.516)" fill="#fff" opacity="0.7"/>
      <path id="Path_39064" data-name="Path 39064" d="M133.11,341.675c6.163-6.2,45.267-10.975,92.586-10.975s86.423,4.772,92.594,10.975c-6.171,6.2-45.275,10.983-92.594,10.983S139.273,347.878,133.11,341.675Z" transform="translate(-132.227 -303.541)" fill="#fff" opacity="0.7"/>
      <path id="Path_39065" data-name="Path 39065" d="M132,338.924c0-7.014,41.832-12.724,93.437-12.724s93.445,5.678,93.445,12.724a2.434,2.434,0,0,1-.851,1.71c-6.171-6.2-45.275-10.975-92.594-10.975s-86.423,4.772-92.586,10.975A2.433,2.433,0,0,1,132,338.924Z" transform="translate(-132 -302.62)" fill="#fff" opacity="0.7"/>
      <path id="Path_39066" data-name="Path 39066" d="M284.6,333.789l-39.1-.74a.8.8,0,0,1-.708-.891h0a.8.8,0,0,1,.748-.859l39.1.74a.8.8,0,0,1,.716.891h0a.8.8,0,0,1-.755.859Z" transform="translate(-155.091 -303.664)" fill="#263238"/>
      <path id="Path_39067" data-name="Path 39067" d="M284.6,333.789l-39.1-.74a.8.8,0,0,1-.708-.891h0a.8.8,0,0,1,.748-.859l39.1.74a.8.8,0,0,1,.716.891h0a.8.8,0,0,1-.755.859Z" transform="translate(-155.091 -303.664)" fill="#fff" opacity="0.2"/>
      <path id="Path_39068" data-name="Path 39068" d="M313.7,330.394l-18.689,2.823a.8.8,0,0,1-.8-.756h0a.875.875,0,0,1,.644-.978l18.689-2.823a.8.8,0,0,1,.8.756h0a.875.875,0,0,1-.644.978Z" transform="translate(-165.207 -303.123)" fill="#263238"/>
      <path id="Path_39069" data-name="Path 39069" d="M303.612,328.66H264.1l-18.363,2.1,38.03.716Z" transform="translate(-155.285 -303.123)" fill="#263238"/>
      <path id="Path_39070" data-name="Path 39070" d="M303.612,328.66H264.1l-18.363,2.1,38.03.716Z" transform="translate(-155.285 -303.123)" fill="#fff" opacity="0.6"/>
      <path id="Path_39071" data-name="Path 39071" d="M313.7,330.394l-18.689,2.823a.8.8,0,0,1-.8-.756h0a.875.875,0,0,1,.644-.978l18.689-2.823a.8.8,0,0,1,.8.756h0a.875.875,0,0,1-.644.978Z" transform="translate(-165.207 -303.123)" fill="#fff" opacity="0.5"/>
      <path id="Path_39072" data-name="Path 39072" d="M283.255,324.922l-36.456-.684a2.831,2.831,0,0,1-2.473-2.831l-1.1-22.013a2.4,2.4,0,0,1,2.195-2.744l36.456.692a2.815,2.815,0,0,1,2.473,2.831l1.105,22.005A2.4,2.4,0,0,1,283.255,324.922Z" transform="translate(-154.77 -296.57)" fill="#ffb224"/>
      <path id="Path_39073" data-name="Path 39073" d="M283.255,324.922l-36.456-.684a2.831,2.831,0,0,1-2.473-2.831l-1.1-22.013a2.4,2.4,0,0,1,2.195-2.744l36.456.692a2.815,2.815,0,0,1,2.473,2.831l1.105,22.005A2.4,2.4,0,0,1,283.255,324.922Z" transform="translate(-154.77 -296.57)" fill="#fff" opacity="0.2"/>
      <path id="Path_39074" data-name="Path 39074" d="M281.913,324.79l-36.456-.692a2.831,2.831,0,0,1-2.481-2.831l-1.1-21.973a2.4,2.4,0,0,1,2.2-2.744l36.448.684a2.831,2.831,0,0,1,2.481,2.831l1.113,21.982A2.415,2.415,0,0,1,281.913,324.79Z" transform="translate(-154.494 -296.55)" fill="#ffb224"/>
      <path id="Path_39075" data-name="Path 39075" d="M281.913,324.79l-36.456-.692a2.831,2.831,0,0,1-2.481-2.831l-1.1-21.973a2.4,2.4,0,0,1,2.2-2.744l36.448.684a2.831,2.831,0,0,1,2.481,2.831l1.113,21.982A2.415,2.415,0,0,1,281.913,324.79Z" transform="translate(-154.494 -296.55)" fill="#fff" opacity="0.6"/>
      <path id="Path_39076" data-name="Path 39076" d="M262.355,312.841a4.3,4.3,0,0,0,4.207,3.865,3.491,3.491,0,0,0,3.531-3.865A4.318,4.318,0,0,0,265.886,309a3.491,3.491,0,0,0-3.531,3.841Z" transform="translate(-158.683 -299.098)" fill="#fff"/>
    </g>
  </g>
</svg>
