<svg xmlns="http://www.w3.org/2000/svg" width="16.928" height="15.236" viewBox="0 0 16.928 15.236">
  <path id="Path_31986" data-name="Path 31986" d="M84.235,534.239a.193.193,0,0,0,.169.1,3.7,3.7,0,0,1,3.69,3.686v5.023a3.7,3.7,0,0,1-3.69,3.686H74.857a3.692,3.692,0,0,1-3.69-3.686v-5.023a3.691,3.691,0,0,1,3.69-3.686.166.166,0,0,0,.161-.1l.051-.1.089-.189c.217-.456.456-.96.6-1.256a2.055,2.055,0,0,1,1.871-1.192H81.62a2.067,2.067,0,0,1,1.879,1.192c.133.266.336.695.532,1.108l.12.253Zm-.618,3.246a.766.766,0,0,0,1.532,0,.766.766,0,1,0-1.532,0ZM78.167,538.8a2.06,2.06,0,1,1-.593,1.445v-.008A1.984,1.984,0,0,1,78.167,538.8Zm3.809,3.8a3.322,3.322,0,0,1-5.671-2.35,3.273,3.273,0,0,1,.965-2.342,3.323,3.323,0,1,1,4.706,4.693Z" transform="translate(-71.167 -531.5)" fill="#12d18e" fill-rule="evenodd"/>
</svg>
